<svg version="1.1" viewBox="0.0 0.0 600.0 371.0" fill="none" stroke="none" stroke-linecap="square" stroke-miterlimit="10" width="600" height="371" xmlns:xlink="http://www.w3.org/1999/xlink" xmlns="http://www.w3.org/2000/svg"><path fill="#ffffff" d="M0 0L600.0 0L600.0 371.0L0 371.0L0 0Z" fill-rule="nonzero"/><path stroke="#333333" stroke-width="1.0" stroke-linecap="butt" d="M137.5 54.5L137.5 300.5" fill-rule="nonzero"/><path stroke="#cccccc" stroke-width="1.0" stroke-linecap="butt" d="M225.5 54.5L225.5 300.5" fill-rule="nonzero"/><path stroke="#cccccc" stroke-width="1.0" stroke-linecap="butt" d="M314.5 54.5L314.5 300.5" fill-rule="nonzero"/><path stroke="#cccccc" stroke-width="1.0" stroke-linecap="butt" d="M403.5 54.5L403.5 300.5" fill-rule="nonzero"/><path stroke="#cccccc" stroke-width="1.0" stroke-linecap="butt" d="M492.5 54.5L492.5 300.5" fill-rule="nonzero"/><path stroke="#cccccc" stroke-width="1.0" stroke-linecap="butt" d="M581.5 54.5L581.5 300.5" fill-rule="nonzero"/><clipPath id="id_0"><path d="M137.13 54.916668L581.45 54.916668L581.45 300.45L137.13 300.45L137.13 54.916668Z" clip-rule="nonzero"/></clipPath><path stroke="#000000" stroke-width="2.0" stroke-linecap="butt" stroke-opacity="0.0" clip-path="url(#id_0)" d="M137.0 128.0L137.0 80.0L517.0 80.0C518.10455 80.0 519.0 80.89543 519.0 82.0L519.0 126.0C519.0 127.10457 518.10455 128.0 517.0 128.0Z" fill-rule="nonzero"/><path fill="#6d9eeb" clip-path="url(#id_0)" d="M137.0 128.0L137.0 80.0L517.0 80.0C518.10455 80.0 519.0 80.89543 519.0 82.0L519.0 126.0C519.0 127.10457 518.10455 128.0 517.0 128.0Z" fill-rule="nonzero"/><path stroke="#000000" stroke-width="2.0" stroke-linecap="butt" stroke-opacity="0.0" clip-path="url(#id_0)" d="M137.0 202.0L137.0 154.0L354.0 154.0C355.10458 154.0 356.0 154.89543 356.0 156.0L356.0 200.0C356.0 201.10457 355.10458 202.0 354.0 202.0Z" fill-rule="nonzero"/><path fill="#3c78d8" clip-path="url(#id_0)" d="M137.0 202.0L137.0 154.0L354.0 154.0C355.10458 154.0 356.0 154.89543 356.0 156.0L356.0 200.0C356.0 201.10457 355.10458 202.0 354.0 202.0Z" fill-rule="nonzero"/><path stroke="#000000" stroke-width="2.0" stroke-linecap="butt" stroke-opacity="0.0" clip-path="url(#id_0)" d="M137.0 275.0L137.0 227.0L352.0 227.0C353.10458 227.0 354.0 227.89543 354.0 229.0L354.0 273.0C354.0 274.10458 353.10458 275.0 352.0 275.0Z" fill-rule="nonzero"/><path fill="#1155cc" clip-path="url(#id_0)" d="M137.0 275.0L137.0 227.0L352.0 227.0C353.10458 227.0 354.0 227.89543 354.0 229.0L354.0 273.0C354.0 274.10458 353.10458 275.0 352.0 275.0Z" fill-rule="nonzero"/><path fill="#000000" d="M335.33688 346.6844L336.39938 346.59064Q336.4775 347.2469 336.75876 347.65314Q337.04 348.0594 337.61813 348.325Q338.21188 348.575 338.94626 348.575Q339.58688 348.575 340.08688 348.3875Q340.58688 348.1844 340.82126 347.85626Q341.07126 347.5125 341.07126 347.1219Q341.07126 346.71564 340.83688 346.41876Q340.6025 346.10626 340.07126 345.90314Q339.71188 345.7625 338.52438 345.48126Q337.3525 345.2 336.88376 344.95Q336.25876 344.6219 335.96188 344.15314Q335.665 343.66876 335.665 343.075Q335.665 342.4344 336.02438 341.8719Q336.39938 341.29376 337.1025 341.0125Q337.82126 340.71564 338.68063 340.71564Q339.63376 340.71564 340.36813 341.02814Q341.1025 341.325 341.49313 341.9344Q341.88376 342.52814 341.915 343.27814L340.82126 343.35626Q340.7275 342.54376 340.21188 342.1375Q339.71188 341.71564 338.7275 341.71564Q337.69626 341.71564 337.2275 342.09064Q336.75876 342.46564 336.75876 342.9969Q336.75876 343.46564 337.08688 343.7625Q337.415 344.0594 338.79 344.3719Q340.18063 344.6844 340.69626 344.91876Q341.44626 345.27814 341.80563 345.8094Q342.165 346.325 342.165 347.02814Q342.165 347.71564 341.77438 348.325Q341.38376 348.91876 340.64938 349.2625Q339.915 349.59064 338.99313 349.59064Q337.82126 349.59064 337.02438 349.2625Q336.24313 348.91876 335.79 348.23126Q335.3525 347.54376 335.33688 346.6844ZM347.83688 347.45L348.93063 347.575Q348.68063 348.52814 347.9775 349.0594Q347.27438 349.59064 346.19626 349.59064Q344.83688 349.59064 344.02438 348.7469Q343.2275 347.90314 343.2275 346.3875Q343.2275 344.825 344.04 343.96564Q344.8525 343.09064 346.13376 343.09064Q347.38376 343.09064 348.165 343.9344Q348.96188 344.77814 348.96188 346.325Q348.96188 346.41876 348.96188 346.60626L344.32126 346.60626Q344.38376 347.6375 344.89938 348.1844Q345.415 348.71564 346.19626 348.71564Q346.77438 348.71564 347.18063 348.41876Q347.6025 348.10626 347.83688 347.45ZM344.38376 345.7469L347.8525 345.7469Q347.79 344.95 347.46188 344.5594Q346.94626 343.95 346.14938 343.95Q345.415 343.95 344.915 344.4344Q344.43063 344.91876 344.38376 345.7469ZM354.64938 347.16876L355.68063 347.3094Q355.50876 348.3719 354.80563 348.98126Q354.1025 349.59064 353.08688 349.59064Q351.80563 349.59064 351.02438 348.7625Q350.25876 347.91876 350.25876 346.35626Q350.25876 345.35626 350.58688 344.60626Q350.93063 343.84064 351.6025 343.46564Q352.29 343.09064 353.1025 343.09064Q354.1025 343.09064 354.74313 343.60626Q355.39938 344.10626 355.58688 345.0594L354.55563 345.21564Q354.415 344.59064 354.04 344.27814Q353.665 343.95 353.13376 343.95Q352.33688 343.95 351.83688 344.52814Q351.33688 345.09064 351.33688 346.325Q351.33688 347.59064 351.82126 348.15314Q352.30563 348.71564 353.07126 348.71564Q353.69626 348.71564 354.1025 348.34064Q354.52438 347.96564 354.64938 347.16876ZM356.19626 346.34064Q356.19626 344.60626 357.14938 343.77814Q357.94626 343.09064 359.1025 343.09064Q360.38376 343.09064 361.19626 343.9344Q362.02438 344.7625 362.02438 346.2469Q362.02438 347.45 361.665 348.1375Q361.30563 348.825 360.6025 349.21564Q359.915 349.59064 359.1025 349.59064Q357.80563 349.59064 356.99313 348.7625Q356.19626 347.91876 356.19626 346.34064ZM357.27438 346.34064Q357.27438 347.52814 357.79 348.1219Q358.32126 348.71564 359.1025 348.71564Q359.89938 348.71564 360.415 348.1219Q360.93063 347.52814 360.93063 346.3094Q360.93063 345.15314 360.39938 344.5594Q359.88376 343.96564 359.1025 343.96564Q358.32126 343.96564 357.79 344.5594Q357.27438 345.1375 357.27438 346.34064ZM363.58688 349.45L363.58688 343.23126L364.52438 343.23126L364.52438 344.10626Q365.21188 343.09064 366.50876 343.09064Q367.07126 343.09064 367.54 343.29376Q368.02438 343.4969 368.25876 343.825Q368.49313 344.15314 368.58688 344.59064Q368.63376 344.8875 368.63376 345.6219L368.63376 349.45L367.58688 349.45L367.58688 345.66876Q367.58688 345.0125 367.46188 344.7Q367.33688 344.3875 367.02438 344.2Q366.71188 343.9969 366.29 343.9969Q365.61813 343.9969 365.11813 344.4344Q364.63376 344.85626 364.63376 346.04376L364.63376 349.45L363.58688 349.45ZM374.61813 349.45L374.61813 348.66876Q374.02438 349.59064 372.88376 349.59064Q372.13376 349.59064 371.50876 349.1844Q370.88376 348.7625 370.54 348.02814Q370.19626 347.29376 370.19626 346.34064Q370.19626 345.41876 370.50876 344.65314Q370.82126 343.8875 371.44626 343.4969Q372.07126 343.09064 372.83688 343.09064Q373.39938 343.09064 373.83688 343.325Q374.27438 343.5594 374.55563 343.9344L374.55563 340.85626L375.6025 340.85626L375.6025 349.45L374.61813 349.45ZM371.29 346.34064Q371.29 347.54376 371.79 348.1375Q372.29 348.71564 372.9775 348.71564Q373.665 348.71564 374.14938 348.15314Q374.63376 347.59064 374.63376 346.4344Q374.63376 345.15314 374.13376 344.5594Q373.64938 343.96564 372.93063 343.96564Q372.2275 343.96564 371.75876 344.54376Q371.29 345.10626 371.29 346.34064ZM377.165 347.59064L378.19626 347.4344Q378.29 348.0594 378.68063 348.3875Q379.08688 348.71564 379.82126 348.71564Q380.54 348.71564 380.88376 348.4344Q381.24313 348.1375 381.24313 347.73126Q381.24313 347.3719 380.93063 347.16876Q380.71188 347.02814 379.8525 346.8094Q378.69626 346.5125 378.24313 346.3094Q377.80563 346.09064 377.57126 345.71564Q377.33688 345.34064 377.33688 344.8719Q377.33688 344.46564 377.52438 344.10626Q377.71188 343.7469 378.04 343.5125Q378.29 343.34064 378.71188 343.21564Q379.13376 343.09064 379.63376 343.09064Q380.3525 343.09064 380.89938 343.3094Q381.46188 343.5125 381.7275 343.8719Q381.99313 344.23126 382.08688 344.825L381.05563 344.96564Q380.99313 344.4969 380.64938 344.23126Q380.32126 343.95 379.69626 343.95Q378.9775 343.95 378.665 344.2Q378.3525 344.4344 378.3525 344.7625Q378.3525 344.96564 378.4775 345.1219Q378.61813 345.29376 378.88376 345.40314Q379.04 345.46564 379.82126 345.66876Q380.94626 345.98126 381.38376 346.16876Q381.82126 346.35626 382.07126 346.71564Q382.32126 347.075 382.32126 347.6219Q382.32126 348.15314 382.00876 348.6219Q381.71188 349.075 381.13376 349.34064Q380.55563 349.59064 379.82126 349.59064Q378.6025 349.59064 377.96188 349.09064Q377.33688 348.575 377.165 347.59064Z" fill-rule="nonzero"/><path fill="#000000" d="M88.1925 105.374176L89.3175 105.67105Q88.95812 107.061676 88.03625 107.79605Q87.11437 108.530426 85.77062 108.530426Q84.38 108.530426 83.505 107.967926Q82.63 107.405426 82.17687 106.342926Q81.72375 105.2648 81.72375 104.030426Q81.72375 102.686676 82.23937 101.686676Q82.755 100.686676 83.6925 100.17105Q84.64562 99.655426 85.78625 99.655426Q87.0675 99.655426 87.9425 100.311676Q88.83312 100.967926 89.17687 102.155426L88.05187 102.42105Q87.755 101.48355 87.17687 101.061676Q86.61437 100.624176 85.755 100.624176Q84.77062 100.624176 84.09875 101.10855Q83.4425 101.5773 83.16125 102.374176Q82.89562 103.17105 82.89562 104.030426Q82.89562 105.124176 83.20812 105.936676Q83.53625 106.749176 84.20812 107.155426Q84.88 107.561676 85.67687 107.561676Q86.63 107.561676 87.28625 107.0148Q87.95812 106.467926 88.1925 105.374176ZM98.17687 106.3898L99.27062 106.5148Q99.02062 107.467926 98.3175 107.999176Q97.61437 108.530426 96.53625 108.530426Q95.17687 108.530426 94.36437 107.686676Q93.5675 106.842926 93.5675 105.3273Q93.5675 103.7648 94.38 102.905426Q95.1925 102.030426 96.47375 102.030426Q97.72375 102.030426 98.505 102.874176Q99.30187 103.717926 99.30187 105.2648Q99.30187 105.35855 99.30187 105.54605L94.66125 105.54605Q94.72375 106.5773 95.23937 107.124176Q95.755 107.655426 96.53625 107.655426Q97.11437 107.655426 97.52062 107.35855Q97.9425 107.04605 98.17687 106.3898ZM94.72375 104.686676L98.1925 104.686676Q98.13 103.8898 97.80187 103.499176Q97.28625 102.8898 96.48937 102.8898Q95.755 102.8898 95.255 103.374176Q94.77062 103.85855 94.72375 104.686676ZM100.92687 108.3898L100.92687 102.17105L101.86437 102.17105L101.86437 103.04605Q102.55187 102.030426 103.84875 102.030426Q104.41125 102.030426 104.88 102.23355Q105.36437 102.436676 105.59875 102.7648Q105.83312 103.092926 105.92687 103.530426Q105.97375 103.8273 105.97375 104.561676L105.97375 108.3898L104.92687 108.3898L104.92687 104.60855Q104.92687 103.9523 104.80187 103.6398Q104.67687 103.3273 104.36437 103.1398Q104.05187 102.936676 103.63 102.936676Q102.95812 102.936676 102.45812 103.374176Q101.97375 103.79605 101.97375 104.98355L101.97375 108.3898L100.92687 108.3898ZM107.72375 108.905426L108.755 109.061676Q108.8175 109.530426 109.11437 109.749176Q109.505 110.04605 110.17687 110.04605Q110.91125 110.04605 111.30187 109.749176Q111.70812 109.4523 111.84875 108.936676Q111.9425 108.60855 111.92687 107.5773Q111.23937 108.3898 110.20812 108.3898Q108.92687 108.3898 108.22375 107.467926Q107.52062 106.530426 107.52062 105.249176Q107.52062 104.35855 107.83312 103.60855Q108.16125 102.842926 108.77062 102.436676Q109.38 102.030426 110.20812 102.030426Q111.3175 102.030426 112.03625 102.92105L112.03625 102.17105L113.005 102.17105L113.005 107.54605Q113.005 108.999176 112.70812 109.60855Q112.41125 110.217926 111.77062 110.561676Q111.13 110.92105 110.1925 110.92105Q109.08312 110.92105 108.39562 110.42105Q107.70812 109.92105 107.72375 108.905426ZM108.59875 105.17105Q108.59875 106.3898 109.08312 106.9523Q109.5675 107.5148 110.30187 107.5148Q111.03625 107.5148 111.52062 106.9523Q112.02062 106.3898 112.02062 105.2023Q112.02062 104.061676 111.505 103.48355Q111.005 102.905426 110.28625 102.905426Q109.58312 102.905426 109.08312 103.48355Q108.59875 104.04605 108.59875 105.17105ZM114.92687 101.0148L114.92687 99.79605L115.98937 99.79605L115.98937 101.0148L114.92687 101.0148ZM114.92687 108.3898L114.92687 102.17105L115.98937 102.17105L115.98937 108.3898L114.92687 108.3898ZM117.92687 108.3898L117.92687 102.17105L118.86437 102.17105L118.86437 103.04605Q119.55187 102.030426 120.84875 102.030426Q121.41125 102.030426 121.88 102.23355Q122.36437 102.436676 122.59875 102.7648Q122.83312 103.092926 122.92687 103.530426Q122.97375 103.8273 122.97375 104.561676L122.97375 108.3898L121.92687 108.3898L121.92687 104.60855Q121.92687 103.9523 121.80187 103.6398Q121.67687 103.3273 121.36437 103.1398Q121.05187 102.936676 120.63 102.936676Q119.95812 102.936676 119.45812 103.374176Q118.97375 103.79605 118.97375 104.98355L118.97375 108.3898L117.92687 108.3898ZM129.17688 106.3898L130.27063 106.5148Q130.02063 107.467926 129.3175 107.999176Q128.61438 108.530426 127.53625 108.530426Q126.17687 108.530426 125.36437 107.686676Q124.5675 106.842926 124.5675 105.3273Q124.5675 103.7648 125.38 102.905426Q126.1925 102.030426 127.47375 102.030426Q128.72375 102.030426 129.505 102.874176Q130.30188 103.717926 130.30188 105.2648Q130.30188 105.35855 130.30188 105.54605L125.66125 105.54605Q125.72375 106.5773 126.23937 107.124176Q126.755 107.655426 127.53625 107.655426Q128.11438 107.655426 128.52063 107.35855Q128.9425 107.04605 129.17688 106.3898ZM125.72375 104.686676L129.1925 104.686676Q129.13 103.8898 128.80188 103.499176Q128.28625 102.8898 127.48937 102.8898Q126.755 102.8898 126.255 103.374176Q125.77062 103.85855 125.72375 104.686676Z" fill-rule="nonzero"/><path fill="#000000" d="M47.051876 181.68333L47.051876 173.08958L50.301876 173.08958Q51.145626 173.08958 51.59875 173.16771Q52.239376 173.27708 52.66125 173.57396Q53.09875 173.87083 53.34875 174.40208Q53.614376 174.93333 53.614376 175.57396Q53.614376 176.66771 52.91125 177.43333Q52.22375 178.18333 50.395626 178.18333L48.1925 178.18333L48.1925 181.68333L47.051876 181.68333ZM48.1925 177.18333L50.41125 177.18333Q51.520626 177.18333 51.97375 176.77708Q52.4425 176.35521 52.4425 175.60521Q52.4425 175.07396 52.16125 174.69896Q51.895626 174.30833 51.458126 174.18333Q51.16125 174.10521 50.395626 174.10521L48.1925 174.10521L48.1925 177.18333ZM54.88 184.07396L54.755 183.08958Q55.09875 183.18333 55.364376 183.18333Q55.708126 183.18333 55.91125 183.05833Q56.13 182.94896 56.270626 182.74583Q56.364376 182.57396 56.59875 181.94896Q56.614376 181.87083 56.6925 181.69896L54.3175 175.46458L55.458126 175.46458L56.755 179.05833Q57.005 179.74583 57.208126 180.51146Q57.395626 179.77708 57.645626 179.08958L58.97375 175.46458L60.020626 175.46458L57.66125 181.79271Q57.270626 182.80833 57.0675 183.19896Q56.78625 183.73021 56.41125 183.96458Q56.051876 184.21458 55.551876 184.21458Q55.255 184.21458 54.88 184.07396ZM59.114376 181.68333L62.41125 173.08958L63.63 173.08958L67.14563 181.68333L65.86438 181.68333L64.848755 179.07396L61.270626 179.07396L60.3175 181.68333L59.114376 181.68333ZM61.59875 178.15208L64.505005 178.15208L63.614376 175.77708Q63.1925 174.69896 63.005 173.99583Q62.833126 174.82396 62.53625 175.63646L61.59875 178.15208ZM66.911255 181.68333L66.911255 175.46458L67.86438 175.46458L67.86438 176.40208Q68.223755 175.74583 68.52063 175.54271Q68.83313 175.32396 69.20813 175.32396Q69.73938 175.32396 70.286255 175.65208L69.92688 176.63646Q69.536255 176.40208 69.161255 176.40208Q68.80188 176.40208 68.52063 176.62083Q68.255005 176.82396 68.14563 177.19896Q67.95813 177.76146 67.95813 178.41771L67.95813 181.68333L66.911255 181.68333ZM70.911255 181.68333L70.911255 175.46458L71.86438 175.46458L71.86438 176.40208Q72.223755 175.74583 72.52063 175.54271Q72.83313 175.32396 73.20813 175.32396Q73.73938 175.32396 74.286255 175.65208L73.92688 176.63646Q73.536255 176.40208 73.161255 176.40208Q72.80188 176.40208 72.52063 176.62083Q72.255005 176.82396 72.14563 177.19896Q71.95813 177.76146 71.95813 178.41771L71.95813 181.68333L70.911255 181.68333ZM74.536255 178.57396Q74.536255 176.83958 75.48938 176.01146Q76.286255 175.32396 77.442505 175.32396Q78.723755 175.32396 79.536255 176.16771Q80.36438 176.99583 80.36438 178.48021Q80.36438 179.68333 80.005005 180.37083Q79.64563 181.05833 78.942505 181.44896Q78.255005 181.82396 77.442505 181.82396Q76.14563 181.82396 75.33313 180.99583Q74.536255 180.15208 74.536255 178.57396ZM75.61438 178.57396Q75.61438 179.76146 76.130005 180.35521Q76.661255 180.94896 77.442505 180.94896Q78.23938 180.94896 78.755005 180.35521Q79.27063 179.76146 79.27063 178.54271Q79.27063 177.38646 78.73938 176.79271Q78.223755 176.19896 77.442505 176.19896Q76.661255 176.19896 76.130005 176.79271Q75.61438 177.37083 75.61438 178.57396ZM83.067505 181.68333L81.161255 175.46458L82.255005 175.46458L83.23938 179.05833L83.61438 180.38646Q83.64563 180.29271 83.942505 179.10521L84.92688 175.46458L86.005005 175.46458L86.942505 179.07396L87.255005 180.26146L87.61438 179.05833L88.67688 175.46458L89.70813 175.46458L87.755005 181.68333L86.661255 181.68333L85.67688 177.94896L85.42688 176.90208L84.17688 181.68333L83.067505 181.68333ZM98.17688 179.68333L99.27063 179.80833Q99.02063 180.76146 98.317505 181.29271Q97.61438 181.82396 96.536255 181.82396Q95.17688 181.82396 94.36438 180.98021Q93.567505 180.13646 93.567505 178.62083Q93.567505 177.05833 94.380005 176.19896Q95.192505 175.32396 96.473755 175.32396Q97.723755 175.32396 98.505005 176.16771Q99.30188 177.01146 99.30188 178.55833Q99.30188 178.65208 99.30188 178.83958L94.661255 178.83958Q94.723755 179.87083 95.23938 180.41771Q95.755005 180.94896 96.536255 180.94896Q97.11438 180.94896 97.52063 180.65208Q97.942505 180.33958 98.17688 179.68333ZM94.723755 177.98021L98.192505 177.98021Q98.130005 177.18333 97.80188 176.79271Q97.286255 176.18333 96.48938 176.18333Q95.755005 176.18333 95.255005 176.66771Q94.77063 177.15208 94.723755 177.98021ZM100.92688 181.68333L100.92688 175.46458L101.86438 175.46458L101.86438 176.33958Q102.55188 175.32396 103.848755 175.32396Q104.411255 175.32396 104.880005 175.52708Q105.36438 175.73021 105.598755 176.05833Q105.83313 176.38646 105.92688 176.82396Q105.973755 177.12083 105.973755 177.85521L105.973755 181.68333L104.92688 181.68333L104.92688 177.90208Q104.92688 177.24583 104.80188 176.93333Q104.67688 176.62083 104.36438 176.43333Q104.05188 176.23021 103.630005 176.23021Q102.95813 176.23021 102.45813 176.66771Q101.973755 177.08958 101.973755 178.27708L101.973755 181.68333L100.92688 181.68333ZM107.723755 182.19896L108.755005 182.35521Q108.817505 182.82396 109.11438 183.04271Q109.505005 183.33958 110.17688 183.33958Q110.911255 183.33958 111.30188 183.04271Q111.70813 182.74583 111.848755 182.23021Q111.942505 181.90208 111.92688 180.87083Q111.23938 181.68333 110.20813 181.68333Q108.92688 181.68333 108.223755 180.76146Q107.52063 179.82396 107.52063 178.54271Q107.52063 177.65208 107.83313 176.90208Q108.161255 176.13646 108.77063 175.73021Q109.380005 175.32396 110.20813 175.32396Q111.317505 175.32396 112.036255 176.21458L112.036255 175.46458L113.005005 175.46458L113.005005 180.83958Q113.005005 182.29271 112.70813 182.90208Q112.411255 183.51146 111.77063 183.85521Q111.130005 184.21458 110.192505 184.21458Q109.08313 184.21458 108.39563 183.71458Q107.70813 183.21458 107.723755 182.19896ZM108.598755 178.46458Q108.598755 179.68333 109.08313 180.24583Q109.567505 180.80833 110.30188 180.80833Q111.036255 180.80833 111.52063 180.24583Q112.02063 179.68333 112.02063 178.49583Q112.02063 177.35521 111.505005 176.77708Q111.005005 176.19896 110.286255 176.19896Q109.58313 176.19896 109.08313 176.77708Q108.598755 177.33958 108.598755 178.46458ZM114.92688 174.30833L114.92688 173.08958L115.98938 173.08958L115.98938 174.30833L114.92688 174.30833ZM114.92688 181.68333L114.92688 175.46458L115.98938 175.46458L115.98938 181.68333L114.92688 181.68333ZM117.92688 181.68333L117.92688 175.46458L118.86438 175.46458L118.86438 176.33958Q119.55188 175.32396 120.848755 175.32396Q121.411255 175.32396 121.880005 175.52708Q122.36438 175.73021 122.598755 176.05833Q122.83313 176.38646 122.92688 176.82396Q122.973755 177.12083 122.973755 177.85521L122.973755 181.68333L121.92688 181.68333L121.92688 177.90208Q121.92688 177.24583 121.80188 176.93333Q121.67688 176.62083 121.36438 176.43333Q121.05188 176.23021 120.630005 176.23021Q119.95813 176.23021 119.45813 176.66771Q118.973755 177.08958 118.973755 178.27708L118.973755 181.68333L117.92688 181.68333ZM129.17688 179.68333L130.27063 179.80833Q130.02063 180.76146 129.3175 181.29271Q128.61438 181.82396 127.536255 181.82396Q126.17688 181.82396 125.36438 180.98021Q124.567505 180.13646 124.567505 178.62083Q124.567505 177.05833 125.380005 176.19896Q126.192505 175.32396 127.473755 175.32396Q128.72375 175.32396 129.505 176.16771Q130.30188 177.01146 130.30188 178.55833Q130.30188 178.65208 130.30188 178.83958L125.661255 178.83958Q125.723755 179.87083 126.23938 180.41771Q126.755005 180.94896 127.536255 180.94896Q128.11438 180.94896 128.52063 180.65208Q128.9425 180.33958 129.17688 179.68333ZM125.723755 177.98021L129.1925 177.98021Q129.13 177.18333 128.80188 176.79271Q128.28625 176.18333 127.48938 176.18333Q126.755005 176.18333 126.255005 176.66771Q125.77063 177.15208 125.723755 177.98021Z" fill-rule="nonzero"/><path fill="#000000" d="M37.051876 247.97687L37.051876 239.38312L40.301876 239.38312Q41.145626 239.38312 41.59875 239.46124Q42.239376 239.57062 42.66125 239.8675Q43.09875 240.16437 43.34875 240.69562Q43.614376 241.22687 43.614376 241.8675Q43.614376 242.96124 42.91125 243.72687Q42.22375 244.47687 40.395626 244.47687L38.1925 244.47687L38.1925 247.97687L37.051876 247.97687ZM38.1925 243.47687L40.41125 243.47687Q41.520626 243.47687 41.97375 243.07062Q42.4425 242.64874 42.4425 241.89874Q42.4425 241.3675 42.16125 240.9925Q41.895626 240.60187 41.458126 240.47687Q41.16125 240.39874 40.395626 240.39874L38.1925 240.39874L38.1925 243.47687ZM44.88 250.3675L44.755 249.38312Q45.09875 249.47687 45.364376 249.47687Q45.708126 249.47687 45.91125 249.35187Q46.13 249.2425 46.270626 249.03937Q46.364376 248.8675 46.59875 248.2425Q46.614376 248.16437 46.6925 247.9925L44.3175 241.75812L45.458126 241.75812L46.755 245.35187Q47.005 246.03937 47.208126 246.805Q47.395626 246.07062 47.645626 245.38312L48.97375 241.75812L50.020626 241.75812L47.66125 248.08624Q47.270626 249.10187 47.0675 249.4925Q46.78625 250.02374 46.41125 250.25812Q46.051876 250.50812 45.551876 250.50812Q45.255 250.50812 44.88 250.3675ZM49.114376 247.97687L52.41125 239.38312L53.63 239.38312L57.145626 247.97687L55.864376 247.97687L54.84875 245.3675L51.270626 245.3675L50.3175 247.97687L49.114376 247.97687ZM51.59875 244.44562L54.505 244.44562L53.614376 242.07062Q53.1925 240.9925 53.005 240.28937Q52.833126 241.1175 52.53625 241.93L51.59875 244.44562ZM56.91125 247.97687L56.91125 241.75812L57.864376 241.75812L57.864376 242.69562Q58.22375 242.03937 58.520626 241.83624Q58.833126 241.6175 59.208126 241.6175Q59.739376 241.6175 60.28625 241.94562L59.926876 242.93Q59.53625 242.69562 59.16125 242.69562Q58.801876 242.69562 58.520626 242.91437Q58.255 243.1175 58.145626 243.4925Q57.958126 244.055 57.958126 244.71124L57.958126 247.97687L56.91125 247.97687ZM60.91125 247.97687L60.91125 241.75812L61.864376 241.75812L61.864376 242.69562Q62.22375 242.03937 62.520626 241.83624Q62.833126 241.6175 63.208126 241.6175Q63.739376 241.6175 64.286255 241.94562L63.926876 242.93Q63.53625 242.69562 63.16125 242.69562Q62.801876 242.69562 62.520626 242.91437Q62.255 243.1175 62.145626 243.4925Q61.958126 244.055 61.958126 244.71124L61.958126 247.97687L60.91125 247.97687ZM64.536255 244.8675Q64.536255 243.13312 65.48938 242.305Q66.286255 241.6175 67.442505 241.6175Q68.723755 241.6175 69.536255 242.46124Q70.36438 243.28937 70.36438 244.77374Q70.36438 245.97687 70.005005 246.66437Q69.64563 247.35187 68.942505 247.7425Q68.255005 248.1175 67.442505 248.1175Q66.14563 248.1175 65.33313 247.28937Q64.536255 246.44562 64.536255 244.8675ZM65.61438 244.8675Q65.61438 246.055 66.130005 246.64874Q66.661255 247.2425 67.442505 247.2425Q68.23938 247.2425 68.755005 246.64874Q69.27063 246.055 69.27063 244.83624Q69.27063 243.68 68.73938 243.08624Q68.223755 242.4925 67.442505 242.4925Q66.661255 242.4925 66.130005 243.08624Q65.61438 243.66437 65.61438 244.8675ZM73.067505 247.97687L71.161255 241.75812L72.255005 241.75812L73.23938 245.35187L73.61438 246.68Q73.64563 246.58624 73.942505 245.39874L74.92688 241.75812L76.005005 241.75812L76.942505 245.3675L77.255005 246.555L77.61438 245.35187L78.67688 241.75812L79.70813 241.75812L77.755005 247.97687L76.661255 247.97687L75.67688 244.2425L75.42688 243.19562L74.17688 247.97687L73.067505 247.97687ZM88.17688 245.97687L89.27063 246.10187Q89.02063 247.055 88.317505 247.58624Q87.61438 248.1175 86.536255 248.1175Q85.17688 248.1175 84.36438 247.27374Q83.567505 246.43 83.567505 244.91437Q83.567505 243.35187 84.380005 242.4925Q85.192505 241.6175 86.473755 241.6175Q87.723755 241.6175 88.505005 242.46124Q89.30188 243.305 89.30188 244.85187Q89.30188 244.94562 89.30188 245.13312L84.661255 245.13312Q84.723755 246.16437 85.23938 246.71124Q85.755005 247.2425 86.536255 247.2425Q87.11438 247.2425 87.52063 246.94562Q87.942505 246.63312 88.17688 245.97687ZM84.723755 244.27374L88.192505 244.27374Q88.130005 243.47687 87.80188 243.08624Q87.286255 242.47687 86.48938 242.47687Q85.755005 242.47687 85.255005 242.96124Q84.77063 243.44562 84.723755 244.27374ZM90.92688 247.97687L90.92688 241.75812L91.86438 241.75812L91.86438 242.63312Q92.55188 241.6175 93.848755 241.6175Q94.411255 241.6175 94.880005 241.82062Q95.36438 242.02374 95.598755 242.35187Q95.83313 242.68 95.92688 243.1175Q95.973755 243.41437 95.973755 244.14874L95.973755 247.97687L94.92688 247.97687L94.92688 244.19562Q94.92688 243.53937 94.80188 243.22687Q94.67688 242.91437 94.36438 242.72687Q94.05188 242.52374 93.630005 242.52374Q92.95813 242.52374 92.45813 242.96124Q91.973755 243.38312 91.973755 244.57062L91.973755 247.97687L90.92688 247.97687ZM97.723755 248.4925L98.755005 248.64874Q98.817505 249.1175 99.11438 249.33624Q99.505005 249.63312 100.17688 249.63312Q100.911255 249.63312 101.30188 249.33624Q101.70813 249.03937 101.848755 248.52374Q101.942505 248.19562 101.92688 247.16437Q101.23938 247.97687 100.20813 247.97687Q98.92688 247.97687 98.223755 247.055Q97.52063 246.1175 97.52063 244.83624Q97.52063 243.94562 97.83313 243.19562Q98.161255 242.43 98.77063 242.02374Q99.380005 241.6175 100.20813 241.6175Q101.317505 241.6175 102.036255 242.50812L102.036255 241.75812L103.005005 241.75812L103.005005 247.13312Q103.005005 248.58624 102.70813 249.19562Q102.411255 249.805 101.77063 250.14874Q101.130005 250.50812 100.192505 250.50812Q99.08313 250.50812 98.39563 250.00812Q97.70813 249.50812 97.723755 248.4925ZM98.598755 244.75812Q98.598755 245.97687 99.08313 246.53937Q99.567505 247.10187 100.30188 247.10187Q101.036255 247.10187 101.52063 246.53937Q102.02063 245.97687 102.02063 244.78937Q102.02063 243.64874 101.505005 243.07062Q101.005005 242.4925 100.286255 242.4925Q99.58313 242.4925 99.08313 243.07062Q98.598755 243.63312 98.598755 244.75812ZM104.92688 240.60187L104.92688 239.38312L105.98938 239.38312L105.98938 240.60187L104.92688 240.60187ZM104.92688 247.97687L104.92688 241.75812L105.98938 241.75812L105.98938 247.97687L104.92688 247.97687ZM107.92688 247.97687L107.92688 241.75812L108.86438 241.75812L108.86438 242.63312Q109.55188 241.6175 110.848755 241.6175Q111.411255 241.6175 111.880005 241.82062Q112.36438 242.02374 112.598755 242.35187Q112.83313 242.68 112.92688 243.1175Q112.973755 243.41437 112.973755 244.14874L112.973755 247.97687L111.92688 247.97687L111.92688 244.19562Q111.92688 243.53937 111.80188 243.22687Q111.67688 242.91437 111.36438 242.72687Q111.05188 242.52374 110.630005 242.52374Q109.95813 242.52374 109.45813 242.96124Q108.973755 243.38312 108.973755 244.57062L108.973755 247.97687L107.92688 247.97687ZM119.17688 245.97687L120.27063 246.10187Q120.02063 247.055 119.317505 247.58624Q118.61438 248.1175 117.536255 248.1175Q116.17688 248.1175 115.36438 247.27374Q114.567505 246.43 114.567505 244.91437Q114.567505 243.35187 115.380005 242.4925Q116.192505 241.6175 117.473755 241.6175Q118.723755 241.6175 119.505005 242.46124Q120.30188 243.305 120.30188 244.85187Q120.30188 244.94562 120.30188 245.13312L115.661255 245.13312Q115.723755 246.16437 116.23938 246.71124Q116.755005 247.2425 117.536255 247.2425Q118.11438 247.2425 118.52063 246.94562Q118.942505 246.63312 119.17688 245.97687ZM115.723755 244.27374L119.192505 244.27374Q119.130005 243.47687 118.80188 243.08624Q118.286255 242.47687 117.48938 242.47687Q116.755005 242.47687 116.255005 242.96124Q115.77063 243.44562 115.723755 244.27374ZM127.130005 246.58624L127.130005 244.22687L124.80188 244.22687L124.80188 243.2425L127.130005 243.2425L127.130005 240.91437L128.13 240.91437L128.13 243.2425L130.47375 243.2425L130.47375 244.22687L128.13 244.22687L128.13 246.58624L127.130005 246.58624Z" fill-rule="nonzero"/><path fill="#000000" d="M49.051876 261.97687L49.051876 253.38312L52.301876 253.38312Q53.145626 253.38312 53.59875 253.46124Q54.239376 253.57062 54.66125 253.8675Q55.09875 254.16437 55.34875 254.69562Q55.614376 255.22687 55.614376 255.8675Q55.614376 256.96124 54.91125 257.72687Q54.22375 258.47687 52.395626 258.47687L50.1925 258.47687L50.1925 261.97687L49.051876 261.97687ZM50.1925 257.47687L52.41125 257.47687Q53.520626 257.47687 53.97375 257.07062Q54.4425 256.64874 54.4425 255.89874Q54.4425 255.3675 54.16125 254.9925Q53.895626 254.60187 53.458126 254.47687Q53.16125 254.39874 52.395626 254.39874L50.1925 254.39874L50.1925 257.47687ZM56.88 264.3675L56.755 263.38312Q57.09875 263.47687 57.364376 263.47687Q57.708126 263.47687 57.91125 263.35187Q58.13 263.2425 58.270626 263.03937Q58.364376 262.8675 58.59875 262.2425Q58.614376 262.16437 58.6925 261.9925L56.3175 255.75812L57.458126 255.75812L58.755 259.35187Q59.005 260.03937 59.208126 260.805Q59.395626 260.07062 59.645626 259.38312L60.97375 255.75812L62.020626 255.75812L59.66125 262.08624Q59.270626 263.10187 59.0675 263.4925Q58.78625 264.02374 58.41125 264.25812Q58.051876 264.50812 57.551876 264.50812Q57.255 264.50812 56.88 264.3675ZM61.114376 261.97687L64.411255 253.38312L65.630005 253.38312L69.14563 261.97687L67.86438 261.97687L66.848755 259.3675L63.270626 259.3675L62.3175 261.97687L61.114376 261.97687ZM63.59875 258.44562L66.505005 258.44562L65.61438 256.07062Q65.192505 254.9925 65.005005 254.28937Q64.83313 255.1175 64.536255 255.93L63.59875 258.44562ZM68.911255 261.97687L68.911255 255.75812L69.86438 255.75812L69.86438 256.69562Q70.223755 256.03937 70.52063 255.83624Q70.83313 255.6175 71.20813 255.6175Q71.73938 255.6175 72.286255 255.94562L71.92688 256.93Q71.536255 256.69562 71.161255 256.69562Q70.80188 256.69562 70.52063 256.91437Q70.255005 257.1175 70.14563 257.4925Q69.95813 258.055 69.95813 258.71124L69.95813 261.97687L68.911255 261.97687ZM72.911255 261.97687L72.911255 255.75812L73.86438 255.75812L73.86438 256.69562Q74.223755 256.03937 74.52063 255.83624Q74.83313 255.6175 75.20813 255.6175Q75.73938 255.6175 76.286255 255.94562L75.92688 256.93Q75.536255 256.69562 75.161255 256.69562Q74.80188 256.69562 74.52063 256.91437Q74.255005 257.1175 74.14563 257.4925Q73.95813 258.055 73.95813 258.71124L73.95813 261.97687L72.911255 261.97687ZM76.536255 258.8675Q76.536255 257.13312 77.48938 256.305Q78.286255 255.6175 79.442505 255.6175Q80.723755 255.6175 81.536255 256.46124Q82.36438 257.28937 82.36438 258.77374Q82.36438 259.97687 82.005005 260.66437Q81.64563 261.35187 80.942505 261.7425Q80.255005 262.1175 79.442505 262.1175Q78.14563 262.1175 77.33313 261.28937Q76.536255 260.44562 76.536255 258.8675ZM77.61438 258.8675Q77.61438 260.055 78.130005 260.64874Q78.661255 261.2425 79.442505 261.2425Q80.23938 261.2425 80.755005 260.64874Q81.27063 260.055 81.27063 258.83624Q81.27063 257.68 80.73938 257.08624Q80.223755 256.4925 79.442505 256.4925Q78.661255 256.4925 78.130005 257.08624Q77.61438 257.66437 77.61438 258.8675ZM85.067505 261.97687L83.161255 255.75812L84.255005 255.75812L85.23938 259.35187L85.61438 260.68Q85.64563 260.58624 85.942505 259.39874L86.92688 255.75812L88.005005 255.75812L88.942505 259.3675L89.255005 260.555L89.61438 259.35187L90.67688 255.75812L91.70813 255.75812L89.755005 261.97687L88.661255 261.97687L87.67688 258.2425L87.42688 257.19562L86.17688 261.97687L85.067505 261.97687ZM99.95813 261.97687L99.95813 261.19562Q99.36438 262.1175 98.223755 262.1175Q97.473755 262.1175 96.848755 261.71124Q96.223755 261.28937 95.880005 260.555Q95.536255 259.82062 95.536255 258.8675Q95.536255 257.94562 95.848755 257.18Q96.161255 256.41437 96.786255 256.02374Q97.411255 255.6175 98.17688 255.6175Q98.73938 255.6175 99.17688 255.85187Q99.61438 256.08624 99.89563 256.46124L99.89563 253.38312L100.942505 253.38312L100.942505 261.97687L99.95813 261.97687ZM96.630005 258.8675Q96.630005 260.07062 97.130005 260.66437Q97.630005 261.2425 98.317505 261.2425Q99.005005 261.2425 99.48938 260.68Q99.973755 260.1175 99.973755 258.96124Q99.973755 257.68 99.473755 257.08624Q98.98938 256.4925 98.27063 256.4925Q97.567505 256.4925 97.098755 257.07062Q96.630005 257.63312 96.630005 258.8675ZM105.223755 261.03937L105.380005 261.96124Q104.92688 262.055 104.58313 262.055Q104.005005 262.055 103.692505 261.88312Q103.380005 261.69562 103.23938 261.39874Q103.11438 261.10187 103.11438 260.14874L103.11438 256.57062L102.348755 256.57062L102.348755 255.75812L103.11438 255.75812L103.11438 254.21124L104.161255 253.58624L104.161255 255.75812L105.223755 255.75812L105.223755 256.57062L104.161255 256.57062L104.161255 260.21124Q104.161255 260.66437 104.20813 260.78937Q104.27063 260.91437 104.39563 260.9925Q104.52063 261.07062 104.755005 261.07062Q104.942505 261.07062 105.223755 261.03937ZM105.880005 264.3675L105.755005 263.38312Q106.098755 263.47687 106.36438 263.47687Q106.70813 263.47687 106.911255 263.35187Q107.130005 263.2425 107.27063 263.03937Q107.36438 262.8675 107.598755 262.2425Q107.61438 262.16437 107.692505 261.9925L105.317505 255.75812L106.45813 255.75812L107.755005 259.35187Q108.005005 260.03937 108.20813 260.805Q108.39563 260.07062 108.64563 259.38312L109.973755 255.75812L111.02063 255.75812L108.661255 262.08624Q108.27063 263.10187 108.067505 263.4925Q107.786255 264.02374 107.411255 264.25812Q107.05188 264.50812 106.55188 264.50812Q106.255005 264.50812 105.880005 264.3675ZM110.92688 264.3675L110.92688 255.75812L111.880005 255.75812L111.880005 256.555Q112.223755 256.08624 112.64563 255.85187Q113.08313 255.6175 113.692505 255.6175Q114.48938 255.6175 115.098755 256.02374Q115.70813 256.43 116.005005 257.18Q116.317505 257.93 116.317505 258.82062Q116.317505 259.77374 115.973755 260.53937Q115.64563 261.305 114.98938 261.71124Q114.33313 262.1175 113.61438 262.1175Q113.08313 262.1175 112.661255 261.89874Q112.23938 261.66437 111.973755 261.33624L111.973755 264.3675L110.92688 264.3675ZM111.880005 258.89874Q111.880005 260.10187 112.36438 260.68Q112.848755 261.2425 113.536255 261.2425Q114.23938 261.2425 114.73938 260.64874Q115.23938 260.055 115.23938 258.805Q115.23938 257.6175 114.755005 257.03937Q114.27063 256.44562 113.58313 256.44562Q112.911255 256.44562 112.39563 257.07062Q111.880005 257.69562 111.880005 258.89874ZM122.17688 259.97687L123.27063 260.10187Q123.02063 261.055 122.317505 261.58624Q121.61438 262.1175 120.536255 262.1175Q119.17688 262.1175 118.36438 261.27374Q117.567505 260.43 117.567505 258.91437Q117.567505 257.35187 118.380005 256.4925Q119.192505 255.6175 120.473755 255.6175Q121.723755 255.6175 122.505005 256.46124Q123.30188 257.305 123.30188 258.85187Q123.30188 258.94562 123.30188 259.13312L118.661255 259.13312Q118.723755 260.16437 119.23938 260.71124Q119.755005 261.2425 120.536255 261.2425Q121.11438 261.2425 121.52063 260.94562Q121.942505 260.63312 122.17688 259.97687ZM118.723755 258.27374L122.192505 258.27374Q122.130005 257.47687 121.80188 257.08624Q121.286255 256.47687 120.48938 256.47687Q119.755005 256.47687 119.255005 256.96124Q118.77063 257.44562 118.723755 258.27374ZM124.505005 260.1175L125.536255 259.96124Q125.630005 260.58624 126.02063 260.91437Q126.42688 261.2425 127.161255 261.2425Q127.880005 261.2425 128.22375 260.96124Q128.58313 260.66437 128.58313 260.25812Q128.58313 259.89874 128.27063 259.69562Q128.05188 259.555 127.192505 259.33624Q126.036255 259.03937 125.58313 258.83624Q125.14563 258.6175 124.911255 258.2425Q124.67688 257.8675 124.67688 257.39874Q124.67688 256.9925 124.86438 256.63312Q125.05188 256.27374 125.380005 256.03937Q125.630005 255.8675 126.05188 255.7425Q126.473755 255.6175 126.973755 255.6175Q127.692505 255.6175 128.23938 255.83624Q128.80188 256.03937 129.0675 256.39874Q129.33313 256.75812 129.42688 257.35187L128.39563 257.4925Q128.33313 257.02374 127.98938 256.75812Q127.661255 256.47687 127.036255 256.47687Q126.317505 256.47687 126.005005 256.72687Q125.692505 256.96124 125.692505 257.28937Q125.692505 257.4925 125.817505 257.64874Q125.95813 257.82062 126.223755 257.93Q126.380005 257.9925 127.161255 258.19562Q128.28625 258.50812 128.72375 258.69562Q129.16125 258.88312 129.41125 259.2425Q129.66125 259.60187 129.66125 260.14874Q129.66125 260.68 129.34875 261.14874Q129.05188 261.60187 128.47375 261.8675Q127.89563 262.1175 127.161255 262.1175Q125.942505 262.1175 125.30188 261.6175Q124.67688 261.10187 124.505005 260.1175Z" fill-rule="nonzero"/><path fill="#000000" d="M134.13 313.21564Q134.13 311.6844 134.4425 310.7625Q134.755 309.825 135.36438 309.325Q135.98938 308.825 136.92688 308.825Q137.61438 308.825 138.13 309.10626Q138.66125 309.3875 139.005 309.91876Q139.34875 310.4344 139.53625 311.1844Q139.72375 311.9344 139.72375 313.21564Q139.72375 314.73126 139.41125 315.65314Q139.11438 316.575 138.48938 317.09064Q137.88 317.59064 136.92688 317.59064Q135.6925 317.59064 134.97375 316.7Q134.13 315.6375 134.13 313.21564ZM135.20813 313.21564Q135.20813 315.325 135.70813 316.02814Q136.20813 316.73126 136.92688 316.73126Q137.66125 316.73126 138.14563 316.02814Q138.64563 315.325 138.64563 313.21564Q138.64563 311.09064 138.14563 310.40314Q137.66125 309.7 136.91125 309.7Q136.1925 309.7 135.755 310.3094Q135.20813 311.09064 135.20813 313.21564Z" fill-rule="nonzero"/><path fill="#000000" d="M222.994 315.2L224.10338 315.10626Q224.22838 315.91876 224.66588 316.325Q225.119 316.73126 225.75963 316.73126Q226.50963 316.73126 227.04088 316.15314Q227.57213 315.575 227.57213 314.6375Q227.57213 313.73126 227.0565 313.21564Q226.5565 312.6844 225.72838 312.6844Q225.22838 312.6844 224.8065 312.91876Q224.40025 313.15314 224.16588 313.5125L223.1815 313.3875L224.00963 308.98126L228.29088 308.98126L228.29088 309.98126L224.85338 309.98126L224.40025 312.29376Q225.16588 311.7469 226.00963 311.7469Q227.13463 311.7469 227.90025 312.52814Q228.6815 313.3094 228.6815 314.54376Q228.6815 315.7 228.00963 316.5594Q227.1815 317.59064 225.75963 317.59064Q224.58775 317.59064 223.83775 316.9344Q223.10338 316.27814 222.994 315.2Z" fill-rule="nonzero"/><path fill="#000000" d="M312.32675 317.45L311.27988 317.45L311.27988 310.73126Q310.88925 311.09064 310.26425 311.46564Q309.65488 311.825 309.1705 311.9969L309.1705 310.98126Q310.0455 310.5594 310.70175 309.98126Q311.37363 309.3875 311.65488 308.825L312.32675 308.825L312.32675 317.45ZM315.358 313.21564Q315.358 311.6844 315.6705 310.7625Q315.983 309.825 316.59238 309.325Q317.21738 308.825 318.15488 308.825Q318.84238 308.825 319.358 309.10626Q319.88925 309.3875 320.233 309.91876Q320.57675 310.4344 320.76425 311.1844Q320.95175 311.9344 320.95175 313.21564Q320.95175 314.73126 320.63925 315.65314Q320.34238 316.575 319.71738 317.09064Q319.108 317.59064 318.15488 317.59064Q316.9205 317.59064 316.20175 316.7Q315.358 315.6375 315.358 313.21564ZM316.43613 313.21564Q316.43613 315.325 316.93613 316.02814Q317.43613 316.73126 318.15488 316.73126Q318.88925 316.73126 319.37363 316.02814Q319.87363 315.325 319.87363 313.21564Q319.87363 311.09064 319.37363 310.40314Q318.88925 309.7 318.13925 309.7Q317.4205 309.7 316.983 310.3094Q316.43613 311.09064 316.43613 313.21564Z" fill-rule="nonzero"/><path fill="#000000" d="M401.19073 317.45L400.14386 317.45L400.14386 310.73126Q399.75323 311.09064 399.12823 311.46564Q398.51886 311.825 398.0345 311.9969L398.0345 310.98126Q398.9095 310.5594 399.56573 309.98126Q400.2376 309.3875 400.51886 308.825L401.19073 308.825L401.19073 317.45ZM404.222 315.2L405.33136 315.10626Q405.45636 315.91876 405.89386 316.325Q406.347 316.73126 406.9876 316.73126Q407.7376 316.73126 408.26886 316.15314Q408.8001 315.575 408.8001 314.6375Q408.8001 313.73126 408.2845 313.21564Q407.7845 312.6844 406.95636 312.6844Q406.45636 312.6844 406.0345 312.91876Q405.62823 313.15314 405.39386 313.5125L404.4095 313.3875L405.2376 308.98126L409.51886 308.98126L409.51886 309.98126L406.08136 309.98126L405.62823 312.29376Q406.39386 311.7469 407.2376 311.7469Q408.3626 311.7469 409.12823 312.52814Q409.9095 313.3094 409.9095 314.54376Q409.9095 315.7 409.2376 316.5594Q408.4095 317.59064 406.9876 317.59064Q405.81573 317.59064 405.06573 316.9344Q404.33136 316.27814 404.222 315.2Z" fill-rule="nonzero"/><path fill="#000000" d="M491.63287 316.4344L491.63287 317.45L485.94537 317.45Q485.94537 317.075 486.07037 316.71564Q486.28912 316.1375 486.75787 315.575Q487.24225 315.0125 488.1485 314.27814Q489.55475 313.1219 490.03912 312.45Q490.53912 311.77814 490.53912 311.1844Q490.53912 310.5594 490.086 310.1375Q489.63287 309.7 488.91412 309.7Q488.1485 309.7 487.69537 310.15314Q487.24225 310.60626 487.22662 311.41876L486.1485 311.3094Q486.25787 310.09064 486.97662 309.46564Q487.711 308.825 488.94537 308.825Q490.17975 308.825 490.8985 309.5125Q491.61725 310.2 491.61725 311.21564Q491.61725 311.73126 491.3985 312.23126Q491.19537 312.71564 490.69537 313.27814Q490.211 313.825 489.086 314.77814Q488.13287 315.575 487.85162 315.8719Q487.586 316.15314 487.41412 316.4344L491.63287 316.4344ZM493.086 313.21564Q493.086 311.6844 493.3985 310.7625Q493.711 309.825 494.32037 309.325Q494.94537 308.825 495.88287 308.825Q496.57037 308.825 497.086 309.10626Q497.61725 309.3875 497.961 309.91876Q498.30475 310.4344 498.49225 311.1844Q498.67975 311.9344 498.67975 313.21564Q498.67975 314.73126 498.36725 315.65314Q498.07037 316.575 497.44537 317.09064Q496.836 317.59064 495.88287 317.59064Q494.6485 317.59064 493.92975 316.7Q493.086 315.6375 493.086 313.21564ZM494.16412 313.21564Q494.16412 315.325 494.66412 316.02814Q495.16412 316.73126 495.88287 316.73126Q496.61725 316.73126 497.10162 316.02814Q497.60162 315.325 497.60162 313.21564Q497.60162 311.09064 497.10162 310.40314Q496.61725 309.7 495.86725 309.7Q495.1485 309.7 494.711 310.3094Q494.16412 311.09064 494.16412 313.21564Z" fill-rule="nonzero"/><path fill="#000000" d="M580.4969 316.4344L580.4969 317.45L574.8094 317.45Q574.8094 317.075 574.9344 316.71564Q575.15314 316.1375 575.6219 315.575Q576.10626 315.0125 577.0125 314.27814Q578.41876 313.1219 578.90314 312.45Q579.40314 311.77814 579.40314 311.1844Q579.40314 310.5594 578.95 310.1375Q578.4969 309.7 577.77814 309.7Q577.0125 309.7 576.5594 310.15314Q576.10626 310.60626 576.09064 311.41876L575.0125 311.3094Q575.1219 310.09064 575.84064 309.46564Q576.575 308.825 577.8094 308.825Q579.04376 308.825 579.7625 309.5125Q580.48126 310.2 580.48126 311.21564Q580.48126 311.73126 580.2625 312.23126Q580.0594 312.71564 579.5594 313.27814Q579.075 313.825 577.95 314.77814Q576.9969 315.575 576.71564 315.8719Q576.45 316.15314 576.27814 316.4344L580.4969 316.4344ZM581.95 315.2L583.0594 315.10626Q583.1844 315.91876 583.6219 316.325Q584.075 316.73126 584.71564 316.73126Q585.46564 316.73126 585.9969 316.15314Q586.52814 315.575 586.52814 314.6375Q586.52814 313.73126 586.0125 313.21564Q585.5125 312.6844 584.6844 312.6844Q584.1844 312.6844 583.7625 312.91876Q583.35626 313.15314 583.1219 313.5125L582.1375 313.3875L582.96564 308.98126L587.2469 308.98126L587.2469 309.98126L583.8094 309.98126L583.35626 312.29376Q584.1219 311.7469 584.96564 311.7469Q586.09064 311.7469 586.85626 312.52814Q587.6375 313.3094 587.6375 314.54376Q587.6375 315.7 586.96564 316.5594Q586.1375 317.59064 584.71564 317.59064Q583.54376 317.59064 582.79376 316.9344Q582.0594 316.27814 581.95 315.2Z" fill-rule="nonzero"/><path fill="#757575" d="M20.096874 37.55L20.096874 23.2375L25.01875 23.2375Q26.690624 23.2375 27.58125 23.440624Q28.8 23.721874 29.675 24.45625Q30.8 25.425 31.3625 26.909374Q31.925 28.39375 31.925 30.315624Q31.925 31.940624 31.55 33.20625Q31.175 34.45625 30.565624 35.284374Q29.971874 36.1125 29.26875 36.596874Q28.565624 37.065624 27.565624 37.315624Q26.565624 37.55 25.253124 37.55L20.096874 37.55ZM21.9875 35.8625L25.05 35.8625Q26.45625 35.8625 27.253124 35.596874Q28.065624 35.33125 28.55 34.846874Q29.221874 34.175 29.596874 33.05Q29.971874 31.909374 29.971874 30.284374Q29.971874 28.034374 29.2375 26.83125Q28.503124 25.628124 27.440624 25.221874Q26.690624 24.925 25.003124 24.925L21.9875 24.925L21.9875 35.8625ZM40.64375 36.26875Q39.659374 37.096874 38.753124 37.440624Q37.846874 37.784374 36.815624 37.784374Q35.1125 37.784374 34.190624 36.95625Q33.26875 36.1125 33.26875 34.815624Q33.26875 34.05 33.6125 33.425Q33.971874 32.8 34.534374 32.425Q35.096874 32.034374 35.8 31.83125Q36.315624 31.70625 37.3625 31.565624Q39.4875 31.315624 40.4875 30.971874Q40.503124 30.6125 40.503124 30.503124Q40.503124 29.440624 40.003124 28.9875Q39.33125 28.39375 38.003124 28.39375Q36.753124 28.39375 36.159374 28.83125Q35.58125 29.26875 35.3 30.378124L33.58125 30.14375Q33.815624 29.034374 34.346874 28.3625Q34.878124 27.675 35.89375 27.315624Q36.909374 26.940624 38.253124 26.940624Q39.58125 26.940624 40.409374 27.253124Q41.2375 27.565624 41.628124 28.05Q42.01875 28.51875 42.175 29.2375Q42.26875 29.690624 42.26875 30.8625L42.26875 33.20625Q42.26875 35.659374 42.378124 36.315624Q42.4875 36.95625 42.83125 37.55L40.9875 37.55Q40.721874 37.003124 40.64375 36.26875ZM40.4875 32.346874Q39.534374 32.7375 37.6125 33.003124Q36.534374 33.159374 36.08125 33.3625Q35.64375 33.55 35.39375 33.925Q35.14375 34.3 35.14375 34.76875Q35.14375 35.471874 35.675 35.940624Q36.20625 36.409374 37.2375 36.409374Q38.253124 36.409374 39.034374 35.971874Q39.83125 35.51875 40.20625 34.753124Q40.4875 34.14375 40.4875 32.9875L40.4875 32.346874ZM44.159374 34.45625L45.909374 34.175Q46.05 35.221874 46.721874 35.784374Q47.39375 36.33125 48.596874 36.33125Q49.8 36.33125 50.378124 35.846874Q50.971874 35.346874 50.971874 34.690624Q50.971874 34.096874 50.45625 33.753124Q50.096874 33.51875 48.659374 33.159374Q46.721874 32.659374 45.971874 32.315624Q45.2375 31.95625 44.846874 31.33125Q44.45625 30.690624 44.45625 29.925Q44.45625 29.2375 44.76875 28.64375Q45.096874 28.05 45.64375 27.659374Q46.05 27.3625 46.753124 27.159374Q47.471874 26.940624 48.284374 26.940624Q49.503124 26.940624 50.425 27.3Q51.346874 27.64375 51.784374 28.253124Q52.221874 28.846874 52.39375 29.846874L50.675 30.08125Q50.55 29.284374 49.9875 28.846874Q49.425 28.39375 48.409374 28.39375Q47.190624 28.39375 46.675 28.8Q46.159374 29.190624 46.159374 29.721874Q46.159374 30.065624 46.378124 30.346874Q46.58125 30.628124 47.05 30.815624Q47.315624 30.909374 48.596874 31.253124Q50.471874 31.753124 51.20625 32.08125Q51.940624 32.39375 52.3625 33.003124Q52.784374 33.596874 52.784374 34.503124Q52.784374 35.378124 52.26875 36.159374Q51.753124 36.940624 50.784374 37.3625Q49.815624 37.784374 48.596874 37.784374Q46.58125 37.784374 45.51875 36.940624Q44.45625 36.096874 44.159374 34.45625ZM54.878124 37.55L54.878124 23.2375L56.64375 23.2375L56.64375 31.39375L60.8 27.175L63.065624 27.175L59.1125 31.01875L63.471874 37.55L61.3 37.55L57.878124 32.253124L56.64375 33.440624L56.64375 37.55L54.878124 37.55ZM70.84688 37.55L70.84688 27.175L72.425 27.175L72.425 28.753124Q73.03438 27.64375 73.55 27.3Q74.06563 26.940624 74.675 26.940624Q75.56563 26.940624 76.4875 27.503124L75.87813 29.14375Q75.2375 28.753124 74.59688 28.753124Q74.01875 28.753124 73.55 29.1125Q73.09688 29.45625 72.89375 30.065624Q72.6125 31.003124 72.6125 32.1125L72.6125 37.55L70.84688 37.55ZM84.97188 34.20625L86.78438 34.440624Q86.3625 36.01875 85.19063 36.909374Q84.03438 37.784374 82.22188 37.784374Q79.95625 37.784374 78.6125 36.39375Q77.28438 34.9875 77.28438 32.45625Q77.28438 29.83125 78.62813 28.39375Q79.97188 26.940624 82.12813 26.940624Q84.20625 26.940624 85.51875 28.3625Q86.84688 29.76875 86.84688 32.346874Q86.84688 32.503124 86.83125 32.815624L79.09688 32.815624Q79.19063 34.51875 80.06563 35.425Q80.94063 36.33125 82.2375 36.33125Q83.20625 36.33125 83.87813 35.83125Q84.56563 35.315624 84.97188 34.20625ZM79.19063 31.3625L84.9875 31.3625Q84.87813 30.065624 84.33125 29.409374Q83.4875 28.39375 82.14375 28.39375Q80.94063 28.39375 80.1125 29.20625Q79.28438 30.003124 79.19063 31.3625ZM95.64375 36.26875Q94.65938 37.096874 93.75313 37.440624Q92.84688 37.784374 91.81563 37.784374Q90.1125 37.784374 89.19063 36.95625Q88.26875 36.1125 88.26875 34.815624Q88.26875 34.05 88.6125 33.425Q88.97188 32.8 89.53438 32.425Q90.09688 32.034374 90.8 31.83125Q91.31563 31.70625 92.3625 31.565624Q94.4875 31.315624 95.4875 30.971874Q95.50313 30.6125 95.50313 30.503124Q95.50313 29.440624 95.00313 28.9875Q94.33125 28.39375 93.00313 28.39375Q91.75313 28.39375 91.15938 28.83125Q90.58125 29.26875 90.3 30.378124L88.58125 30.14375Q88.81563 29.034374 89.34688 28.3625Q89.87813 27.675 90.89375 27.315624Q91.90938 26.940624 93.25313 26.940624Q94.58125 26.940624 95.40938 27.253124Q96.2375 27.565624 96.62813 28.05Q97.01875 28.51875 97.175 29.2375Q97.26875 29.690624 97.26875 30.8625L97.26875 33.20625Q97.26875 35.659374 97.37813 36.315624Q97.4875 36.95625 97.83125 37.55L95.9875 37.55Q95.72188 37.003124 95.64375 36.26875ZM95.4875 32.346874Q94.53438 32.7375 92.6125 33.003124Q91.53438 33.159374 91.08125 33.3625Q90.64375 33.55 90.39375 33.925Q90.14375 34.3 90.14375 34.76875Q90.14375 35.471874 90.675 35.940624Q91.20625 36.409374 92.2375 36.409374Q93.25313 36.409374 94.03438 35.971874Q94.83125 35.51875 95.20625 34.753124Q95.4875 34.14375 95.4875 32.9875L95.4875 32.346874ZM106.59688 37.55L106.59688 36.2375Q105.6125 37.784374 103.69063 37.784374Q102.45625 37.784374 101.40938 37.096874Q100.37813 36.409374 99.8 35.190624Q99.2375 33.971874 99.2375 32.378124Q99.2375 30.815624 99.75313 29.55Q100.26875 28.284374 101.3 27.6125Q102.34688 26.940624 103.6125 26.940624Q104.55 26.940624 105.28438 27.346874Q106.01875 27.7375 106.4875 28.3625L106.4875 23.2375L108.22188 23.2375L108.22188 37.55L106.59688 37.55ZM101.03438 32.378124Q101.03438 34.3625 101.87813 35.346874Q102.72188 36.33125 103.8625 36.33125Q105.01875 36.33125 105.81563 35.39375Q106.62813 34.45625 106.62813 32.51875Q106.62813 30.39375 105.8 29.39375Q104.9875 28.39375 103.78438 28.39375Q102.6125 28.39375 101.81563 29.3625Q101.03438 30.315624 101.03438 32.378124ZM109.25313 41.51875L109.25313 40.253124L120.89375 40.253124L120.89375 41.51875L109.25313 41.51875ZM128.64375 33.753124L130.3625 33.971874Q130.08125 35.76875 128.90938 36.784374Q127.75313 37.784374 126.05 37.784374Q123.925 37.784374 122.62813 36.39375Q121.33125 35.003124 121.33125 32.409374Q121.33125 30.721874 121.87813 29.471874Q122.44063 28.20625 123.58125 27.58125Q124.72188 26.940624 126.06563 26.940624Q127.75313 26.940624 128.81563 27.8Q129.89375 28.659374 130.20625 30.221874L128.4875 30.4875Q128.25313 29.440624 127.62813 28.925Q127.00313 28.39375 126.12813 28.39375Q124.8 28.39375 123.97188 29.346874Q123.14375 30.3 123.14375 32.346874Q123.14375 34.440624 123.94063 35.39375Q124.7375 36.33125 126.03438 36.33125Q127.06563 36.33125 127.75313 35.70625Q128.45625 35.065624 128.64375 33.753124ZM131.15938 34.45625L132.90938 34.175Q133.05 35.221874 133.72188 35.784374Q134.39375 36.33125 135.59688 36.33125Q136.8 36.33125 137.37813 35.846874Q137.97188 35.346874 137.97188 34.690624Q137.97188 34.096874 137.45625 33.753124Q137.09688 33.51875 135.65938 33.159374Q133.72188 32.659374 132.97188 32.315624Q132.2375 31.95625 131.84688 31.33125Q131.45625 30.690624 131.45625 29.925Q131.45625 29.2375 131.76875 28.64375Q132.09688 28.05 132.64375 27.659374Q133.05 27.3625 133.75313 27.159374Q134.47188 26.940624 135.28438 26.940624Q136.50313 26.940624 137.425 27.3Q138.34688 27.64375 138.78438 28.253124Q139.22188 28.846874 139.39375 29.846874L137.675 30.08125Q137.55 29.284374 136.9875 28.846874Q136.425 28.39375 135.40938 28.39375Q134.19063 28.39375 133.675 28.8Q133.15938 29.190624 133.15938 29.721874Q133.15938 30.065624 133.37813 30.346874Q133.58125 30.628124 134.05 30.815624Q134.31563 30.909374 135.59688 31.253124Q137.47188 31.753124 138.20625 32.08125Q138.94063 32.39375 139.3625 33.003124Q139.78438 33.596874 139.78438 34.503124Q139.78438 35.378124 139.26875 36.159374Q138.75313 36.940624 137.78438 37.3625Q136.81563 37.784374 135.59688 37.784374Q133.58125 37.784374 132.51875 36.940624Q131.45625 36.096874 131.15938 34.45625ZM144.75313 37.55L140.8 27.175L142.65938 27.175L144.89375 33.39375Q145.25313 34.39375 145.55 35.471874Q145.78438 34.659374 146.20625 33.503124L148.50313 27.175L150.31563 27.175L146.39375 37.55L144.75313 37.55ZM156.8625 41.51875L156.8625 27.175L158.47188 27.175L158.47188 28.51875Q159.03438 27.7375 159.7375 27.346874Q160.45625 26.940624 161.47188 26.940624Q162.8 26.940624 163.81563 27.628124Q164.83125 28.315624 165.34688 29.565624Q165.87813 30.8 165.87813 32.284374Q165.87813 33.878124 165.3 35.159374Q164.7375 36.425 163.64375 37.1125Q162.55 37.784374 161.34688 37.784374Q160.47188 37.784374 159.76875 37.409374Q159.08125 37.034374 158.62813 36.471874L158.62813 41.51875L156.8625 41.51875ZM158.45625 32.425Q158.45625 34.425 159.26875 35.378124Q160.08125 36.33125 161.2375 36.33125Q162.40938 36.33125 163.2375 35.346874Q164.08125 34.3625 164.08125 32.26875Q164.08125 30.3 163.25313 29.315624Q162.44063 28.315624 161.31563 28.315624Q160.19063 28.315624 159.31563 29.378124Q158.45625 30.425 158.45625 32.425ZM174.97188 34.20625L176.78438 34.440624Q176.3625 36.01875 175.19063 36.909374Q174.03438 37.784374 172.22188 37.784374Q169.95625 37.784374 168.6125 36.39375Q167.28438 34.9875 167.28438 32.45625Q167.28438 29.83125 168.62813 28.39375Q169.97188 26.940624 172.12813 26.940624Q174.20625 26.940624 175.51875 28.3625Q176.84688 29.76875 176.84688 32.346874Q176.84688 32.503124 176.83125 32.815624L169.09688 32.815624Q169.19063 34.51875 170.06563 35.425Q170.94063 36.33125 172.2375 36.33125Q173.20625 36.33125 173.87813 35.83125Q174.56563 35.315624 174.97188 34.20625ZM169.19063 31.3625L174.9875 31.3625Q174.87813 30.065624 174.33125 29.409374Q173.4875 28.39375 172.14375 28.39375Q170.94063 28.39375 170.1125 29.20625Q169.28438 30.003124 169.19063 31.3625ZM178.84688 37.55L178.84688 27.175L180.425 27.175L180.425 28.753124Q181.03438 27.64375 181.55 27.3Q182.06563 26.940624 182.675 26.940624Q183.56563 26.940624 184.4875 27.503124L183.87813 29.14375Q183.2375 28.753124 182.59688 28.753124Q182.01875 28.753124 181.55 29.1125Q181.09688 29.45625 180.89375 30.065624Q180.6125 31.003124 180.6125 32.1125L180.6125 37.55L178.84688 37.55ZM186.28438 37.55L186.28438 28.55L184.7375 28.55L184.7375 27.175L186.28438 27.175L186.28438 26.08125Q186.28438 25.034374 186.47188 24.51875Q186.72188 23.83125 187.3625 23.409374Q188.00313 22.9875 189.15938 22.9875Q189.90938 22.9875 190.8 23.159374L190.53438 24.690624Q189.9875 24.596874 189.50313 24.596874Q188.70625 24.596874 188.3625 24.940624Q188.03438 25.284374 188.03438 26.221874L188.03438 27.175L190.06563 27.175L190.06563 28.55L188.03438 28.55L188.03438 37.55L186.28438 37.55ZM191.22188 32.3625Q191.22188 29.4875 192.81563 28.096874Q194.15938 26.940624 196.08125 26.940624Q198.22188 26.940624 199.56563 28.346874Q200.925 29.753124 200.925 32.221874Q200.925 34.221874 200.33125 35.378124Q199.7375 36.51875 198.58125 37.159374Q197.44063 37.784374 196.08125 37.784374Q193.89375 37.784374 192.55 36.39375Q191.22188 34.9875 191.22188 32.3625ZM193.01875 32.3625Q193.01875 34.3625 193.87813 35.346874Q194.75313 36.33125 196.08125 36.33125Q197.39375 36.33125 198.25313 35.346874Q199.12813 34.346874 199.12813 32.3Q199.12813 30.378124 198.25313 29.39375Q197.37813 28.39375 196.08125 28.39375Q194.75313 28.39375 193.87813 29.39375Q193.01875 30.378124 193.01875 32.3625ZM202.84688 37.55L202.84688 27.175L204.425 27.175L204.425 28.753124Q205.03438 27.64375 205.55 27.3Q206.06563 26.940624 206.675 26.940624Q207.56563 26.940624 208.4875 27.503124L207.87813 29.14375Q207.2375 28.753124 206.59688 28.753124Q206.01875 28.753124 205.55 29.1125Q205.09688 29.45625 204.89375 30.065624Q204.6125 31.003124 204.6125 32.1125L204.6125 37.55L202.84688 37.55ZM209.8625 37.55L209.8625 27.175L211.44063 27.175L211.44063 28.628124Q211.925 27.878124 212.7375 27.409374Q213.55 26.940624 214.58125 26.940624Q215.7375 26.940624 216.47188 27.425Q217.20625 27.89375 217.51875 28.753124Q218.75313 26.940624 220.72188 26.940624Q222.26875 26.940624 223.09688 27.8Q223.925 28.659374 223.925 30.425L223.925 37.55L222.175 37.55L222.175 31.01875Q222.175 29.95625 222.00313 29.503124Q221.83125 29.034374 221.37813 28.753124Q220.94063 28.471874 220.33125 28.471874Q219.2375 28.471874 218.50313 29.20625Q217.78438 29.925 217.78438 31.51875L217.78438 37.55L216.03438 37.55L216.03438 30.815624Q216.03438 29.64375 215.59688 29.065624Q215.175 28.471874 214.19063 28.471874Q213.45625 28.471874 212.81563 28.8625Q212.19063 29.253124 211.90938 30.003124Q211.62813 30.753124 211.62813 32.175L211.62813 37.55L209.8625 37.55ZM232.64375 36.26875Q231.65938 37.096874 230.75313 37.440624Q229.84688 37.784374 228.81563 37.784374Q227.1125 37.784374 226.19063 36.95625Q225.26875 36.1125 225.26875 34.815624Q225.26875 34.05 225.6125 33.425Q225.97188 32.8 226.53438 32.425Q227.09688 32.034374 227.8 31.83125Q228.31563 31.70625 229.3625 31.565624Q231.4875 31.315624 232.4875 30.971874Q232.50313 30.6125 232.50313 30.503124Q232.50313 29.440624 232.00313 28.9875Q231.33125 28.39375 230.00313 28.39375Q228.75313 28.39375 228.15938 28.83125Q227.58125 29.26875 227.3 30.378124L225.58125 30.14375Q225.81563 29.034374 226.34688 28.3625Q226.87813 27.675 227.89375 27.315624Q228.90938 26.940624 230.25313 26.940624Q231.58125 26.940624 232.40938 27.253124Q233.2375 27.565624 233.62813 28.05Q234.01875 28.51875 234.175 29.2375Q234.26875 29.690624 234.26875 30.8625L234.26875 33.20625Q234.26875 35.659374 234.37813 36.315624Q234.4875 36.95625 234.83125 37.55L232.9875 37.55Q232.72188 37.003124 232.64375 36.26875ZM232.4875 32.346874Q231.53438 32.7375 229.6125 33.003124Q228.53438 33.159374 228.08125 33.3625Q227.64375 33.55 227.39375 33.925Q227.14375 34.3 227.14375 34.76875Q227.14375 35.471874 227.675 35.940624Q228.20625 36.409374 229.2375 36.409374Q230.25313 36.409374 231.03438 35.971874Q231.83125 35.51875 232.20625 34.753124Q232.4875 34.14375 232.4875 32.9875L232.4875 32.346874ZM236.8625 37.55L236.8625 27.175L238.45625 27.175L238.45625 28.659374Q239.59688 26.940624 241.75313 26.940624Q242.69063 26.940624 243.47188 27.284374Q244.26875 27.6125 244.65938 28.159374Q245.05 28.70625 245.20625 29.45625Q245.3 29.95625 245.3 31.175L245.3 37.55L243.53438 37.55L243.53438 31.2375Q243.53438 30.159374 243.33125 29.628124Q243.12813 29.096874 242.59688 28.784374Q242.08125 28.471874 241.37813 28.471874Q240.25313 28.471874 239.44063 29.190624Q238.62813 29.89375 238.62813 31.878124L238.62813 37.55L236.8625 37.55ZM253.64375 33.753124L255.3625 33.971874Q255.08125 35.76875 253.90938 36.784374Q252.75313 37.784374 251.05 37.784374Q248.925 37.784374 247.62813 36.39375Q246.33125 35.003124 246.33125 32.409374Q246.33125 30.721874 246.87813 29.471874Q247.44063 28.20625 248.58125 27.58125Q249.72188 26.940624 251.06563 26.940624Q252.75313 26.940624 253.81563 27.8Q254.89375 28.659374 255.20625 30.221874L253.4875 30.4875Q253.25313 29.440624 252.62813 28.925Q252.00313 28.39375 251.12813 28.39375Q249.8 28.39375 248.97188 29.346874Q248.14375 30.3 248.14375 32.346874Q248.14375 34.440624 248.94063 35.39375Q249.7375 36.33125 251.03438 36.33125Q252.06563 36.33125 252.75313 35.70625Q253.45625 35.065624 253.64375 33.753124ZM263.97186 34.20625L265.78436 34.440624Q265.3625 36.01875 264.1906 36.909374Q263.03436 37.784374 261.22186 37.784374Q258.95624 37.784374 257.6125 36.39375Q256.28436 34.9875 256.28436 32.45625Q256.28436 29.83125 257.6281 28.39375Q258.97186 26.940624 261.1281 26.940624Q263.20624 26.940624 264.51874 28.3625Q265.84686 29.76875 265.84686 32.346874Q265.84686 32.503124 265.83124 32.815624L258.09686 32.815624Q258.1906 34.51875 259.0656 35.425Q259.9406 36.33125 261.2375 36.33125Q262.20624 36.33125 262.8781 35.83125Q263.5656 35.315624 263.97186 34.20625ZM258.1906 31.3625L263.9875 31.3625Q263.8781 30.065624 263.33124 29.409374Q262.4875 28.39375 261.14374 28.39375Q259.9406 28.39375 259.1125 29.20625Q258.28436 30.003124 258.1906 31.3625Z" fill-rule="nonzero"/></svg>