<svg version="1.1" viewBox="0.0 0.0 600.0 371.0" fill="none" stroke="none" stroke-linecap="square" stroke-miterlimit="10" width="600" height="371" xmlns:xlink="http://www.w3.org/1999/xlink" xmlns="http://www.w3.org/2000/svg"><path fill="#ffffff" d="M0 0L600.0 0L600.0 371.0L0 371.0L0 0Z" fill-rule="nonzero"/><path stroke="#333333" stroke-width="1.0" stroke-linecap="butt" d="M109.5 54.5L109.5 300.5" fill-rule="nonzero"/><path stroke="#cccccc" stroke-width="1.0" stroke-linecap="butt" d="M203.5 54.5L203.5 300.5" fill-rule="nonzero"/><path stroke="#cccccc" stroke-width="1.0" stroke-linecap="butt" d="M298.5 54.5L298.5 300.5" fill-rule="nonzero"/><path stroke="#cccccc" stroke-width="1.0" stroke-linecap="butt" d="M392.5 54.5L392.5 300.5" fill-rule="nonzero"/><path stroke="#cccccc" stroke-width="1.0" stroke-linecap="butt" d="M487.5 54.5L487.5 300.5" fill-rule="nonzero"/><path stroke="#cccccc" stroke-width="1.0" stroke-linecap="butt" d="M581.5 54.5L581.5 300.5" fill-rule="nonzero"/><clipPath id="id_0"><path d="M109.55 54.916668L581.45 54.916668L581.45 300.45L109.55 300.45L109.55 54.916668Z" clip-rule="nonzero"/></clipPath><path stroke="#000000" stroke-width="2.0" stroke-linecap="butt" stroke-opacity="0.0" clip-path="url(#id_0)" d="M110.0 128.0L110.0 80.0L564.0 80.0C565.10455 80.0 566.0 80.89543 566.0 82.0L566.0 126.0C566.0 127.10457 565.10455 128.0 564.0 128.0Z" fill-rule="nonzero"/><path fill="#6d9eeb" clip-path="url(#id_0)" d="M110.0 128.0L110.0 80.0L564.0 80.0C565.10455 80.0 566.0 80.89543 566.0 82.0L566.0 126.0C566.0 127.10457 565.10455 128.0 564.0 128.0Z" fill-rule="nonzero"/><path stroke="#000000" stroke-width="2.0" stroke-linecap="butt" stroke-opacity="0.0" clip-path="url(#id_0)" d="M110.0 202.0L110.0 154.0L293.0 154.0C294.10458 154.0 295.0 154.89543 295.0 156.0L295.0 200.0C295.0 201.10457 294.10458 202.0 293.0 202.0Z" fill-rule="nonzero"/><path fill="#3c78d8" clip-path="url(#id_0)" d="M110.0 202.0L110.0 154.0L293.0 154.0C294.10458 154.0 295.0 154.89543 295.0 156.0L295.0 200.0C295.0 201.10457 294.10458 202.0 293.0 202.0Z" fill-rule="nonzero"/><path stroke="#000000" stroke-width="2.0" stroke-linecap="butt" stroke-opacity="0.0" clip-path="url(#id_0)" d="M110.0 275.0L110.0 227.0L243.0 227.0C244.10457 227.0 245.0 227.89543 245.0 229.0L245.0 273.0C245.0 274.10458 244.10457 275.0 243.0 275.0Z" fill-rule="nonzero"/><path fill="#1155cc" clip-path="url(#id_0)" d="M110.0 275.0L110.0 227.0L243.0 227.0C244.10457 227.0 245.0 227.89543 245.0 229.0L245.0 273.0C245.0 274.10458 244.10457 275.0 243.0 275.0Z" fill-rule="nonzero"/><path fill="#000000" d="M321.54688 346.6844L322.60938 346.59064Q322.6875 347.2469 322.96875 347.65314Q323.25 348.0594 323.82812 348.325Q324.42188 348.575 325.15625 348.575Q325.79688 348.575 326.29688 348.3875Q326.79688 348.1844 327.03125 347.85626Q327.28125 347.5125 327.28125 347.1219Q327.28125 346.71564 327.04688 346.41876Q326.8125 346.10626 326.28125 345.90314Q325.92188 345.7625 324.73438 345.48126Q323.5625 345.2 323.09375 344.95Q322.46875 344.6219 322.17188 344.15314Q321.875 343.66876 321.875 343.075Q321.875 342.4344 322.23438 341.8719Q322.60938 341.29376 323.3125 341.0125Q324.03125 340.71564 324.89062 340.71564Q325.84375 340.71564 326.57812 341.02814Q327.3125 341.325 327.70312 341.9344Q328.09375 342.52814 328.125 343.27814L327.03125 343.35626Q326.9375 342.54376 326.42188 342.1375Q325.92188 341.71564 324.9375 341.71564Q323.90625 341.71564 323.4375 342.09064Q322.96875 342.46564 322.96875 342.9969Q322.96875 343.46564 323.29688 343.7625Q323.625 344.0594 325.0 344.3719Q326.39062 344.6844 326.90625 344.91876Q327.65625 345.27814 328.01562 345.8094Q328.375 346.325 328.375 347.02814Q328.375 347.71564 327.98438 348.325Q327.59375 348.91876 326.85938 349.2625Q326.125 349.59064 325.20312 349.59064Q324.03125 349.59064 323.23438 349.2625Q322.45312 348.91876 322.0 348.23126Q321.5625 347.54376 321.54688 346.6844ZM334.04688 347.45L335.14062 347.575Q334.89062 348.52814 334.1875 349.0594Q333.48438 349.59064 332.40625 349.59064Q331.04688 349.59064 330.23438 348.7469Q329.4375 347.90314 329.4375 346.3875Q329.4375 344.825 330.25 343.96564Q331.0625 343.09064 332.34375 343.09064Q333.59375 343.09064 334.375 343.9344Q335.17188 344.77814 335.17188 346.325Q335.17188 346.41876 335.17188 346.60626L330.53125 346.60626Q330.59375 347.6375 331.10938 348.1844Q331.625 348.71564 332.40625 348.71564Q332.98438 348.71564 333.39062 348.41876Q333.8125 348.10626 334.04688 347.45ZM330.59375 345.7469L334.0625 345.7469Q334.0 344.95 333.67188 344.5594Q333.15625 343.95 332.35938 343.95Q331.625 343.95 331.125 344.4344Q330.64062 344.91876 330.59375 345.7469ZM340.85938 347.16876L341.89062 347.3094Q341.71875 348.3719 341.01562 348.98126Q340.3125 349.59064 339.29688 349.59064Q338.01562 349.59064 337.23438 348.7625Q336.46875 347.91876 336.46875 346.35626Q336.46875 345.35626 336.79688 344.60626Q337.14062 343.84064 337.8125 343.46564Q338.5 343.09064 339.3125 343.09064Q340.3125 343.09064 340.95312 343.60626Q341.60938 344.10626 341.79688 345.0594L340.76562 345.21564Q340.625 344.59064 340.25 344.27814Q339.875 343.95 339.34375 343.95Q338.54688 343.95 338.04688 344.52814Q337.54688 345.09064 337.54688 346.325Q337.54688 347.59064 338.03125 348.15314Q338.51562 348.71564 339.28125 348.71564Q339.90625 348.71564 340.3125 348.34064Q340.73438 347.96564 340.85938 347.16876ZM342.40625 346.34064Q342.40625 344.60626 343.35938 343.77814Q344.15625 343.09064 345.3125 343.09064Q346.59375 343.09064 347.40625 343.9344Q348.23438 344.7625 348.23438 346.2469Q348.23438 347.45 347.875 348.1375Q347.51562 348.825 346.8125 349.21564Q346.125 349.59064 345.3125 349.59064Q344.01562 349.59064 343.20312 348.7625Q342.40625 347.91876 342.40625 346.34064ZM343.48438 346.34064Q343.48438 347.52814 344.0 348.1219Q344.53125 348.71564 345.3125 348.71564Q346.10938 348.71564 346.625 348.1219Q347.14062 347.52814 347.14062 346.3094Q347.14062 345.15314 346.60938 344.5594Q346.09375 343.96564 345.3125 343.96564Q344.53125 343.96564 344.0 344.5594Q343.48438 345.1375 343.48438 346.34064ZM349.79688 349.45L349.79688 343.23126L350.73438 343.23126L350.73438 344.10626Q351.42188 343.09064 352.71875 343.09064Q353.28125 343.09064 353.75 343.29376Q354.23438 343.4969 354.46875 343.825Q354.70312 344.15314 354.79688 344.59064Q354.84375 344.8875 354.84375 345.6219L354.84375 349.45L353.79688 349.45L353.79688 345.66876Q353.79688 345.0125 353.67188 344.7Q353.54688 344.3875 353.23438 344.2Q352.92188 343.9969 352.5 343.9969Q351.82812 343.9969 351.32812 344.4344Q350.84375 344.85626 350.84375 346.04376L350.84375 349.45L349.79688 349.45ZM360.82812 349.45L360.82812 348.66876Q360.23438 349.59064 359.09375 349.59064Q358.34375 349.59064 357.71875 349.1844Q357.09375 348.7625 356.75 348.02814Q356.40625 347.29376 356.40625 346.34064Q356.40625 345.41876 356.71875 344.65314Q357.03125 343.8875 357.65625 343.4969Q358.28125 343.09064 359.04688 343.09064Q359.60938 343.09064 360.04688 343.325Q360.48438 343.5594 360.76562 343.9344L360.76562 340.85626L361.8125 340.85626L361.8125 349.45L360.82812 349.45ZM357.5 346.34064Q357.5 347.54376 358.0 348.1375Q358.5 348.71564 359.1875 348.71564Q359.875 348.71564 360.35938 348.15314Q360.84375 347.59064 360.84375 346.4344Q360.84375 345.15314 360.34375 344.5594Q359.85938 343.96564 359.14062 343.96564Q358.4375 343.96564 357.96875 344.54376Q357.5 345.10626 357.5 346.34064ZM363.375 347.59064L364.40625 347.4344Q364.5 348.0594 364.89062 348.3875Q365.29688 348.71564 366.03125 348.71564Q366.75 348.71564 367.09375 348.4344Q367.45312 348.1375 367.45312 347.73126Q367.45312 347.3719 367.14062 347.16876Q366.92188 347.02814 366.0625 346.8094Q364.90625 346.5125 364.45312 346.3094Q364.01562 346.09064 363.78125 345.71564Q363.54688 345.34064 363.54688 344.8719Q363.54688 344.46564 363.73438 344.10626Q363.92188 343.7469 364.25 343.5125Q364.5 343.34064 364.92188 343.21564Q365.34375 343.09064 365.84375 343.09064Q366.5625 343.09064 367.10938 343.3094Q367.67188 343.5125 367.9375 343.8719Q368.20312 344.23126 368.29688 344.825L367.26562 344.96564Q367.20312 344.4969 366.85938 344.23126Q366.53125 343.95 365.90625 343.95Q365.1875 343.95 364.875 344.2Q364.5625 344.4344 364.5625 344.7625Q364.5625 344.96564 364.6875 345.1219Q364.82812 345.29376 365.09375 345.40314Q365.25 345.46564 366.03125 345.66876Q367.15625 345.98126 367.59375 346.16876Q368.03125 346.35626 368.28125 346.71564Q368.53125 347.075 368.53125 347.6219Q368.53125 348.15314 368.21875 348.6219Q367.92188 349.075 367.34375 349.34064Q366.76562 349.59064 366.03125 349.59064Q364.8125 349.59064 364.17188 349.09064Q363.54688 348.575 363.375 347.59064Z" fill-rule="nonzero"/><path fill="#000000" d="M25.471874 108.3898L25.471874 99.79605L26.628124 99.79605L31.14375 106.54605L31.14375 99.79605L32.2375 99.79605L32.2375 108.3898L31.065624 108.3898L26.55 101.6398L26.55 108.3898L25.471874 108.3898ZM38.425 108.3898L38.425 107.467926Q37.690624 108.530426 36.440624 108.530426Q35.89375 108.530426 35.409374 108.3273Q34.940624 108.10855 34.70625 107.79605Q34.471874 107.467926 34.378124 106.999176Q34.315624 106.7023 34.315624 106.0148L34.315624 102.17105L35.378124 102.17105L35.378124 105.624176Q35.378124 106.436676 35.440624 106.73355Q35.534374 107.1398 35.846874 107.3898Q36.175 107.624176 36.659374 107.624176Q37.128124 107.624176 37.534374 107.3898Q37.95625 107.1398 38.128124 106.717926Q38.315624 106.29605 38.315624 105.499176L38.315624 102.17105L39.3625 102.17105L39.3625 108.3898L38.425 108.3898ZM41.346874 108.3898L41.346874 102.17105L42.284374 102.17105L42.284374 103.04605Q42.58125 102.5773 43.065624 102.311676Q43.55 102.030426 44.175 102.030426Q44.8625 102.030426 45.3 102.311676Q45.753124 102.592926 45.925 103.10855Q46.675 102.030426 47.846874 102.030426Q48.784374 102.030426 49.26875 102.54605Q49.76875 103.04605 49.76875 104.124176L49.76875 108.3898L48.721874 108.3898L48.721874 104.467926Q48.721874 103.842926 48.6125 103.561676Q48.51875 103.280426 48.253124 103.10855Q47.9875 102.936676 47.6125 102.936676Q46.95625 102.936676 46.51875 103.374176Q46.096874 103.811676 46.096874 104.780426L46.096874 108.3898L45.034374 108.3898L45.034374 104.342926Q45.034374 103.6398 44.76875 103.29605Q44.51875 102.936676 43.940624 102.936676Q43.4875 102.936676 43.1125 103.17105Q42.7375 103.405426 42.565624 103.85855Q42.39375 104.311676 42.39375 105.155426L42.39375 108.3898L41.346874 108.3898ZM52.471874 108.3898L52.471874 99.79605L55.721874 99.79605Q56.565624 99.79605 57.01875 99.874176Q57.659374 99.98355 58.08125 100.280426Q58.51875 100.5773 58.76875 101.10855Q59.034374 101.6398 59.034374 102.280426Q59.034374 103.374176 58.33125 104.1398Q57.64375 104.8898 55.815624 104.8898L53.6125 104.8898L53.6125 108.3898L52.471874 108.3898ZM53.6125 103.8898L55.83125 103.8898Q56.940624 103.8898 57.39375 103.48355Q57.8625 103.061676 57.8625 102.311676Q57.8625 101.780426 57.58125 101.405426Q57.315624 101.0148 56.878124 100.8898Q56.58125 100.811676 55.815624 100.811676L53.6125 100.811676L53.6125 103.8898ZM60.3 110.780426L60.175 109.79605Q60.51875 109.8898 60.784374 109.8898Q61.128124 109.8898 61.33125 109.7648Q61.55 109.655426 61.690624 109.4523Q61.784374 109.280426 62.01875 108.655426Q62.034374 108.5773 62.1125 108.405426L59.7375 102.17105L60.878124 102.17105L62.175 105.7648Q62.425 106.4523 62.628124 107.217926Q62.815624 106.48355 63.065624 105.79605L64.39375 102.17105L65.44063 102.17105L63.08125 108.499176Q62.690624 109.5148 62.4875 109.905426Q62.20625 110.436676 61.83125 110.67105Q61.471874 110.92105 60.971874 110.92105Q60.675 110.92105 60.3 110.780426ZM72.37813 108.3898L72.37813 107.60855Q71.78438 108.530426 70.64375 108.530426Q69.89375 108.530426 69.26875 108.124176Q68.64375 107.7023 68.3 106.967926Q67.95625 106.23355 67.95625 105.280426Q67.95625 104.35855 68.26875 103.592926Q68.58125 102.8273 69.20625 102.436676Q69.83125 102.030426 70.59688 102.030426Q71.15938 102.030426 71.59688 102.2648Q72.03438 102.499176 72.31563 102.874176L72.31563 99.79605L73.3625 99.79605L73.3625 108.3898L72.37813 108.3898ZM69.05 105.280426Q69.05 106.48355 69.55 107.0773Q70.05 107.655426 70.7375 107.655426Q71.425 107.655426 71.90938 107.092926Q72.39375 106.530426 72.39375 105.374176Q72.39375 104.092926 71.89375 103.499176Q71.40938 102.905426 70.69063 102.905426Q69.9875 102.905426 69.51875 103.48355Q69.05 104.04605 69.05 105.280426ZM77.64375 107.4523L77.8 108.374176Q77.34688 108.467926 77.00313 108.467926Q76.425 108.467926 76.1125 108.29605Q75.8 108.10855 75.65938 107.811676Q75.53438 107.5148 75.53438 106.561676L75.53438 102.98355L74.76875 102.98355L74.76875 102.17105L75.53438 102.17105L75.53438 100.624176L76.58125 99.999176L76.58125 102.17105L77.64375 102.17105L77.64375 102.98355L76.58125 102.98355L76.58125 106.624176Q76.58125 107.0773 76.62813 107.2023Q76.69063 107.3273 76.81563 107.405426Q76.94063 107.48355 77.175 107.48355Q77.3625 107.48355 77.64375 107.4523ZM78.3 110.780426L78.175 109.79605Q78.51875 109.8898 78.78438 109.8898Q79.12813 109.8898 79.33125 109.7648Q79.55 109.655426 79.69063 109.4523Q79.78438 109.280426 80.01875 108.655426Q80.03438 108.5773 80.1125 108.405426L77.7375 102.17105L78.87813 102.17105L80.175 105.7648Q80.425 106.4523 80.62813 107.217926Q80.81563 106.48355 81.06563 105.79605L82.39375 102.17105L83.44063 102.17105L81.08125 108.499176Q80.69063 109.5148 80.4875 109.905426Q80.20625 110.436676 79.83125 110.67105Q79.47188 110.92105 78.97188 110.92105Q78.675 110.92105 78.3 110.780426ZM83.34688 110.780426L83.34688 102.17105L84.3 102.17105L84.3 102.967926Q84.64375 102.499176 85.06563 102.2648Q85.50313 102.030426 86.1125 102.030426Q86.90938 102.030426 87.51875 102.436676Q88.12813 102.842926 88.425 103.592926Q88.7375 104.342926 88.7375 105.23355Q88.7375 106.186676 88.39375 106.9523Q88.06563 107.717926 87.40938 108.124176Q86.75313 108.530426 86.03438 108.530426Q85.50313 108.530426 85.08125 108.311676Q84.65938 108.0773 84.39375 107.749176L84.39375 110.780426L83.34688 110.780426ZM84.3 105.311676Q84.3 106.5148 84.78438 107.092926Q85.26875 107.655426 85.95625 107.655426Q86.65938 107.655426 87.15938 107.061676Q87.65938 106.467926 87.65938 105.217926Q87.65938 104.030426 87.175 103.4523Q86.69063 102.85855 86.00313 102.85855Q85.33125 102.85855 84.81563 103.48355Q84.3 104.10855 84.3 105.311676ZM94.59688 106.3898L95.69063 106.5148Q95.44063 107.467926 94.7375 107.999176Q94.03438 108.530426 92.95625 108.530426Q91.59688 108.530426 90.78438 107.686676Q89.9875 106.842926 89.9875 105.3273Q89.9875 103.7648 90.8 102.905426Q91.6125 102.030426 92.89375 102.030426Q94.14375 102.030426 94.925 102.874176Q95.72188 103.717926 95.72188 105.2648Q95.72188 105.35855 95.72188 105.54605L91.08125 105.54605Q91.14375 106.5773 91.65938 107.124176Q92.175 107.655426 92.95625 107.655426Q93.53438 107.655426 93.94063 107.35855Q94.3625 107.04605 94.59688 106.3898ZM91.14375 104.686676L94.6125 104.686676Q94.55 103.8898 94.22188 103.499176Q93.70625 102.8898 92.90938 102.8898Q92.175 102.8898 91.675 103.374176Q91.19063 103.85855 91.14375 104.686676ZM96.925 106.530426L97.95625 106.374176Q98.05 106.999176 98.44063 107.3273Q98.84688 107.655426 99.58125 107.655426Q100.3 107.655426 100.64375 107.374176Q101.00313 107.0773 101.00313 106.67105Q101.00313 106.311676 100.69063 106.10855Q100.47188 105.967926 99.6125 105.749176Q98.45625 105.4523 98.00313 105.249176Q97.56563 105.030426 97.33125 104.655426Q97.09688 104.280426 97.09688 103.811676Q97.09688 103.405426 97.28438 103.04605Q97.47188 102.686676 97.8 102.4523Q98.05 102.280426 98.47188 102.155426Q98.89375 102.030426 99.39375 102.030426Q100.1125 102.030426 100.65938 102.249176Q101.22188 102.4523 101.4875 102.811676Q101.75313 103.17105 101.84688 103.7648L100.81563 103.905426Q100.75313 103.436676 100.40938 103.17105Q100.08125 102.8898 99.45625 102.8898Q98.7375 102.8898 98.425 103.1398Q98.1125 103.374176 98.1125 103.7023Q98.1125 103.905426 98.2375 104.061676Q98.37813 104.23355 98.64375 104.342926Q98.8 104.405426 99.58125 104.60855Q100.70625 104.92105 101.14375 105.10855Q101.58125 105.29605 101.83125 105.655426Q102.08125 106.0148 102.08125 106.561676Q102.08125 107.092926 101.76875 107.561676Q101.47188 108.0148 100.89375 108.280426Q100.31563 108.530426 99.58125 108.530426Q98.3625 108.530426 97.72188 108.030426Q97.09688 107.5148 96.925 106.530426Z" fill-rule="nonzero"/><path fill="#000000" d="M19.471874 181.68333L19.471874 173.08958L22.721874 173.08958Q23.565624 173.08958 24.01875 173.16771Q24.659374 173.27708 25.08125 173.57396Q25.51875 173.87083 25.76875 174.40208Q26.034374 174.93333 26.034374 175.57396Q26.034374 176.66771 25.33125 177.43333Q24.64375 178.18333 22.815624 178.18333L20.6125 178.18333L20.6125 181.68333L19.471874 181.68333ZM20.6125 177.18333L22.83125 177.18333Q23.940624 177.18333 24.39375 176.77708Q24.8625 176.35521 24.8625 175.60521Q24.8625 175.07396 24.58125 174.69896Q24.315624 174.30833 23.878124 174.18333Q23.58125 174.10521 22.815624 174.10521L20.6125 174.10521L20.6125 177.18333ZM27.3 184.07396L27.175 183.08958Q27.51875 183.18333 27.784374 183.18333Q28.128124 183.18333 28.33125 183.05833Q28.55 182.94896 28.690624 182.74583Q28.784374 182.57396 29.01875 181.94896Q29.034374 181.87083 29.1125 181.69896L26.7375 175.46458L27.878124 175.46458L29.175 179.05833Q29.425 179.74583 29.628124 180.51146Q29.815624 179.77708 30.065624 179.08958L31.39375 175.46458L32.440624 175.46458L30.08125 181.79271Q29.690624 182.80833 29.4875 183.19896Q29.20625 183.73021 28.83125 183.96458Q28.471874 184.21458 27.971874 184.21458Q27.675 184.21458 27.3 184.07396ZM31.534374 181.68333L34.83125 173.08958L36.05 173.08958L39.565624 181.68333L38.284374 181.68333L37.26875 179.07396L33.690624 179.07396L32.7375 181.68333L31.534374 181.68333ZM34.01875 178.15208L36.925 178.15208L36.034374 175.77708Q35.6125 174.69896 35.425 173.99583Q35.253124 174.82396 34.95625 175.63646L34.01875 178.15208ZM39.33125 181.68333L39.33125 175.46458L40.284374 175.46458L40.284374 176.40208Q40.64375 175.74583 40.940624 175.54271Q41.253124 175.32396 41.628124 175.32396Q42.159374 175.32396 42.70625 175.65208L42.346874 176.63646Q41.95625 176.40208 41.58125 176.40208Q41.221874 176.40208 40.940624 176.62083Q40.675 176.82396 40.565624 177.19896Q40.378124 177.76146 40.378124 178.41771L40.378124 181.68333L39.33125 181.68333ZM43.33125 181.68333L43.33125 175.46458L44.284374 175.46458L44.284374 176.40208Q44.64375 175.74583 44.940624 175.54271Q45.253124 175.32396 45.628124 175.32396Q46.159374 175.32396 46.70625 175.65208L46.346874 176.63646Q45.95625 176.40208 45.58125 176.40208Q45.221874 176.40208 44.940624 176.62083Q44.675 176.82396 44.565624 177.19896Q44.378124 177.76146 44.378124 178.41771L44.378124 181.68333L43.33125 181.68333ZM46.95625 178.57396Q46.95625 176.83958 47.909374 176.01146Q48.70625 175.32396 49.8625 175.32396Q51.14375 175.32396 51.95625 176.16771Q52.784374 176.99583 52.784374 178.48021Q52.784374 179.68333 52.425 180.37083Q52.065624 181.05833 51.3625 181.44896Q50.675 181.82396 49.8625 181.82396Q48.565624 181.82396 47.753124 180.99583Q46.95625 180.15208 46.95625 178.57396ZM48.034374 178.57396Q48.034374 179.76146 48.55 180.35521Q49.08125 180.94896 49.8625 180.94896Q50.659374 180.94896 51.175 180.35521Q51.690624 179.76146 51.690624 178.54271Q51.690624 177.38646 51.159374 176.79271Q50.64375 176.19896 49.8625 176.19896Q49.08125 176.19896 48.55 176.79271Q48.034374 177.37083 48.034374 178.57396ZM55.4875 181.68333L53.58125 175.46458L54.675 175.46458L55.659374 179.05833L56.034374 180.38646Q56.065624 180.29271 56.3625 179.10521L57.346874 175.46458L58.425 175.46458L59.3625 179.07396L59.675 180.26146L60.034374 179.05833L61.096874 175.46458L62.128124 175.46458L60.175 181.68333L59.08125 181.68333L58.096874 177.94896L57.846874 176.90208L56.596874 181.68333L55.4875 181.68333ZM65.925 179.82396L66.95625 179.66771Q67.05 180.29271 67.44063 180.62083Q67.84688 180.94896 68.58125 180.94896Q69.3 180.94896 69.64375 180.66771Q70.00313 180.37083 70.00313 179.96458Q70.00313 179.60521 69.69063 179.40208Q69.47188 179.26146 68.6125 179.04271Q67.45625 178.74583 67.00313 178.54271Q66.56563 178.32396 66.33125 177.94896Q66.09688 177.57396 66.09688 177.10521Q66.09688 176.69896 66.28438 176.33958Q66.47188 175.98021 66.8 175.74583Q67.05 175.57396 67.47188 175.44896Q67.89375 175.32396 68.39375 175.32396Q69.1125 175.32396 69.65938 175.54271Q70.22188 175.74583 70.4875 176.10521Q70.75313 176.46458 70.84688 177.05833L69.81563 177.19896Q69.75313 176.73021 69.40938 176.46458Q69.08125 176.18333 68.45625 176.18333Q67.7375 176.18333 67.425 176.43333Q67.1125 176.66771 67.1125 176.99583Q67.1125 177.19896 67.2375 177.35521Q67.37813 177.52708 67.64375 177.63646Q67.8 177.69896 68.58125 177.90208Q69.70625 178.21458 70.14375 178.40208Q70.58125 178.58958 70.83125 178.94896Q71.08125 179.30833 71.08125 179.85521Q71.08125 180.38646 70.76875 180.85521Q70.47188 181.30833 69.89375 181.57396Q69.31563 181.82396 68.58125 181.82396Q67.3625 181.82396 66.72188 181.32396Q66.09688 180.80833 65.925 179.82396ZM75.64375 180.74583L75.8 181.66771Q75.34688 181.76146 75.00313 181.76146Q74.425 181.76146 74.1125 181.58958Q73.8 181.40208 73.65938 181.10521Q73.53438 180.80833 73.53438 179.85521L73.53438 176.27708L72.76875 176.27708L72.76875 175.46458L73.53438 175.46458L73.53438 173.91771L74.58125 173.29271L74.58125 175.46458L75.64375 175.46458L75.64375 176.27708L74.58125 176.27708L74.58125 179.91771Q74.58125 180.37083 74.62813 180.49583Q74.69063 180.62083 74.81563 180.69896Q74.94063 180.77708 75.175 180.77708Q75.3625 180.77708 75.64375 180.74583ZM76.33125 181.68333L76.33125 175.46458L77.28438 175.46458L77.28438 176.40208Q77.64375 175.74583 77.94063 175.54271Q78.25313 175.32396 78.62813 175.32396Q79.15938 175.32396 79.70625 175.65208L79.34688 176.63646Q78.95625 176.40208 78.58125 176.40208Q78.22188 176.40208 77.94063 176.62083Q77.675 176.82396 77.56563 177.19896Q77.37813 177.76146 77.37813 178.41771L77.37813 181.68333L76.33125 181.68333ZM80.34688 174.30833L80.34688 173.08958L81.40938 173.08958L81.40938 174.30833L80.34688 174.30833ZM80.34688 181.68333L80.34688 175.46458L81.40938 175.46458L81.40938 181.68333L80.34688 181.68333ZM83.34688 181.68333L83.34688 175.46458L84.28438 175.46458L84.28438 176.33958Q84.97188 175.32396 86.26875 175.32396Q86.83125 175.32396 87.3 175.52708Q87.78438 175.73021 88.01875 176.05833Q88.25313 176.38646 88.34688 176.82396Q88.39375 177.12083 88.39375 177.85521L88.39375 181.68333L87.34688 181.68333L87.34688 177.90208Q87.34688 177.24583 87.22188 176.93333Q87.09688 176.62083 86.78438 176.43333Q86.47188 176.23021 86.05 176.23021Q85.37813 176.23021 84.87813 176.66771Q84.39375 177.08958 84.39375 178.27708L84.39375 181.68333L83.34688 181.68333ZM90.14375 182.19896L91.175 182.35521Q91.2375 182.82396 91.53438 183.04271Q91.925 183.33958 92.59688 183.33958Q93.33125 183.33958 93.72188 183.04271Q94.12813 182.74583 94.26875 182.23021Q94.3625 181.90208 94.34688 180.87083Q93.65938 181.68333 92.62813 181.68333Q91.34688 181.68333 90.64375 180.76146Q89.94063 179.82396 89.94063 178.54271Q89.94063 177.65208 90.25313 176.90208Q90.58125 176.13646 91.19063 175.73021Q91.8 175.32396 92.62813 175.32396Q93.7375 175.32396 94.45625 176.21458L94.45625 175.46458L95.425 175.46458L95.425 180.83958Q95.425 182.29271 95.12813 182.90208Q94.83125 183.51146 94.19063 183.85521Q93.55 184.21458 92.6125 184.21458Q91.50313 184.21458 90.81563 183.71458Q90.12813 183.21458 90.14375 182.19896ZM91.01875 178.46458Q91.01875 179.68333 91.50313 180.24583Q91.9875 180.80833 92.72188 180.80833Q93.45625 180.80833 93.94063 180.24583Q94.44063 179.68333 94.44063 178.49583Q94.44063 177.35521 93.925 176.77708Q93.425 176.19896 92.70625 176.19896Q92.00313 176.19896 91.50313 176.77708Q91.01875 177.33958 91.01875 178.46458ZM96.925 179.82396L97.95625 179.66771Q98.05 180.29271 98.44063 180.62083Q98.84688 180.94896 99.58125 180.94896Q100.3 180.94896 100.64375 180.66771Q101.00313 180.37083 101.00313 179.96458Q101.00313 179.60521 100.69063 179.40208Q100.47188 179.26146 99.6125 179.04271Q98.45625 178.74583 98.00313 178.54271Q97.56563 178.32396 97.33125 177.94896Q97.09688 177.57396 97.09688 177.10521Q97.09688 176.69896 97.28438 176.33958Q97.47188 175.98021 97.8 175.74583Q98.05 175.57396 98.47188 175.44896Q98.89375 175.32396 99.39375 175.32396Q100.1125 175.32396 100.65938 175.54271Q101.22188 175.74583 101.4875 176.10521Q101.75313 176.46458 101.84688 177.05833L100.81563 177.19896Q100.75313 176.73021 100.40938 176.46458Q100.08125 176.18333 99.45625 176.18333Q98.7375 176.18333 98.425 176.43333Q98.1125 176.66771 98.1125 176.99583Q98.1125 177.19896 98.2375 177.35521Q98.37813 177.52708 98.64375 177.63646Q98.8 177.69896 99.58125 177.90208Q100.70625 178.21458 101.14375 178.40208Q101.58125 178.58958 101.83125 178.94896Q102.08125 179.30833 102.08125 179.85521Q102.08125 180.38646 101.76875 180.85521Q101.47188 181.30833 100.89375 181.57396Q100.31563 181.82396 99.58125 181.82396Q98.3625 181.82396 97.72188 181.32396Q97.09688 180.80833 96.925 179.82396Z" fill-rule="nonzero"/><path fill="#000000" d="M21.471874 254.97687L21.471874 246.38312L24.721874 246.38312Q25.565624 246.38312 26.01875 246.46124Q26.659374 246.57062 27.08125 246.8675Q27.51875 247.16437 27.76875 247.69562Q28.034374 248.22687 28.034374 248.8675Q28.034374 249.96124 27.33125 250.72687Q26.64375 251.47687 24.815624 251.47687L22.6125 251.47687L22.6125 254.97687L21.471874 254.97687ZM22.6125 250.47687L24.83125 250.47687Q25.940624 250.47687 26.39375 250.07062Q26.8625 249.64874 26.8625 248.89874Q26.8625 248.3675 26.58125 247.9925Q26.315624 247.60187 25.878124 247.47687Q25.58125 247.39874 24.815624 247.39874L22.6125 247.39874L22.6125 250.47687ZM29.3 257.3675L29.175 256.38312Q29.51875 256.47687 29.784374 256.47687Q30.128124 256.47687 30.33125 256.35187Q30.55 256.2425 30.690624 256.03937Q30.784374 255.8675 31.01875 255.2425Q31.034374 255.16437 31.1125 254.9925L28.7375 248.75812L29.878124 248.75812L31.175 252.35187Q31.425 253.03937 31.628124 253.805Q31.815624 253.07062 32.065624 252.38312L33.39375 248.75812L34.440624 248.75812L32.08125 255.08624Q31.690624 256.10187 31.4875 256.4925Q31.20625 257.02374 30.83125 257.25812Q30.471874 257.50812 29.971874 257.50812Q29.675 257.50812 29.3 257.3675ZM33.534374 254.97687L36.83125 246.38312L38.05 246.38312L41.565624 254.97687L40.284374 254.97687L39.26875 252.3675L35.690624 252.3675L34.7375 254.97687L33.534374 254.97687ZM36.01875 251.44562L38.925 251.44562L38.034374 249.07062Q37.6125 247.9925 37.425 247.28937Q37.253124 248.1175 36.95625 248.93L36.01875 251.44562ZM41.33125 254.97687L41.33125 248.75812L42.284374 248.75812L42.284374 249.69562Q42.64375 249.03937 42.940624 248.83624Q43.253124 248.6175 43.628124 248.6175Q44.159374 248.6175 44.70625 248.94562L44.346874 249.93Q43.95625 249.69562 43.58125 249.69562Q43.221874 249.69562 42.940624 249.91437Q42.675 250.1175 42.565624 250.4925Q42.378124 251.055 42.378124 251.71124L42.378124 254.97687L41.33125 254.97687ZM45.33125 254.97687L45.33125 248.75812L46.284374 248.75812L46.284374 249.69562Q46.64375 249.03937 46.940624 248.83624Q47.253124 248.6175 47.628124 248.6175Q48.159374 248.6175 48.70625 248.94562L48.346874 249.93Q47.95625 249.69562 47.58125 249.69562Q47.221874 249.69562 46.940624 249.91437Q46.675 250.1175 46.565624 250.4925Q46.378124 251.055 46.378124 251.71124L46.378124 254.97687L45.33125 254.97687ZM48.95625 251.8675Q48.95625 250.13312 49.909374 249.305Q50.70625 248.6175 51.8625 248.6175Q53.14375 248.6175 53.95625 249.46124Q54.784374 250.28937 54.784374 251.77374Q54.784374 252.97687 54.425 253.66437Q54.065624 254.35187 53.3625 254.7425Q52.675 255.1175 51.8625 255.1175Q50.565624 255.1175 49.753124 254.28937Q48.95625 253.44562 48.95625 251.8675ZM50.034374 251.8675Q50.034374 253.055 50.55 253.64874Q51.08125 254.2425 51.8625 254.2425Q52.659374 254.2425 53.175 253.64874Q53.690624 253.055 53.690624 251.83624Q53.690624 250.68 53.159374 250.08624Q52.64375 249.4925 51.8625 249.4925Q51.08125 249.4925 50.55 250.08624Q50.034374 250.66437 50.034374 251.8675ZM57.4875 254.97687L55.58125 248.75812L56.675 248.75812L57.659374 252.35187L58.034374 253.68Q58.065624 253.58624 58.3625 252.39874L59.346874 248.75812L60.425 248.75812L61.3625 252.3675L61.675 253.555L62.034374 252.35187L63.096874 248.75812L64.12813 248.75812L62.175 254.97687L61.08125 254.97687L60.096874 251.2425L59.846874 250.19562L58.596874 254.97687L57.4875 254.97687ZM72.37813 254.97687L72.37813 254.19562Q71.78438 255.1175 70.64375 255.1175Q69.89375 255.1175 69.26875 254.71124Q68.64375 254.28937 68.3 253.555Q67.95625 252.82062 67.95625 251.8675Q67.95625 250.94562 68.26875 250.18Q68.58125 249.41437 69.20625 249.02374Q69.83125 248.6175 70.59688 248.6175Q71.15938 248.6175 71.59688 248.85187Q72.03438 249.08624 72.31563 249.46124L72.31563 246.38312L73.3625 246.38312L73.3625 254.97687L72.37813 254.97687ZM69.05 251.8675Q69.05 253.07062 69.55 253.66437Q70.05 254.2425 70.7375 254.2425Q71.425 254.2425 71.90938 253.68Q72.39375 253.1175 72.39375 251.96124Q72.39375 250.68 71.89375 250.08624Q71.40938 249.4925 70.69063 249.4925Q69.9875 249.4925 69.51875 250.07062Q69.05 250.63312 69.05 251.8675ZM77.64375 254.03937L77.8 254.96124Q77.34688 255.055 77.00313 255.055Q76.425 255.055 76.1125 254.88312Q75.8 254.69562 75.65938 254.39874Q75.53438 254.10187 75.53438 253.14874L75.53438 249.57062L74.76875 249.57062L74.76875 248.75812L75.53438 248.75812L75.53438 247.21124L76.58125 246.58624L76.58125 248.75812L77.64375 248.75812L77.64375 249.57062L76.58125 249.57062L76.58125 253.21124Q76.58125 253.66437 76.62813 253.78937Q76.69063 253.91437 76.81563 253.9925Q76.94063 254.07062 77.175 254.07062Q77.3625 254.07062 77.64375 254.03937ZM78.3 257.3675L78.175 256.38312Q78.51875 256.47687 78.78438 256.47687Q79.12813 256.47687 79.33125 256.35187Q79.55 256.2425 79.69063 256.03937Q79.78438 255.8675 80.01875 255.2425Q80.03438 255.16437 80.1125 254.9925L77.7375 248.75812L78.87813 248.75812L80.175 252.35187Q80.425 253.03937 80.62813 253.805Q80.81563 253.07062 81.06563 252.38312L82.39375 248.75812L83.44063 248.75812L81.08125 255.08624Q80.69063 256.10187 80.4875 256.4925Q80.20625 257.02374 79.83125 257.25812Q79.47188 257.50812 78.97188 257.50812Q78.675 257.50812 78.3 257.3675ZM83.34688 257.3675L83.34688 248.75812L84.3 248.75812L84.3 249.555Q84.64375 249.08624 85.06563 248.85187Q85.50313 248.6175 86.1125 248.6175Q86.90938 248.6175 87.51875 249.02374Q88.12813 249.43 88.425 250.18Q88.7375 250.93 88.7375 251.82062Q88.7375 252.77374 88.39375 253.53937Q88.06563 254.305 87.40938 254.71124Q86.75313 255.1175 86.03438 255.1175Q85.50313 255.1175 85.08125 254.89874Q84.65938 254.66437 84.39375 254.33624L84.39375 257.3675L83.34688 257.3675ZM84.3 251.89874Q84.3 253.10187 84.78438 253.68Q85.26875 254.2425 85.95625 254.2425Q86.65938 254.2425 87.15938 253.64874Q87.65938 253.055 87.65938 251.805Q87.65938 250.6175 87.175 250.03937Q86.69063 249.44562 86.00313 249.44562Q85.33125 249.44562 84.81563 250.07062Q84.3 250.69562 84.3 251.89874ZM94.59688 252.97687L95.69063 253.10187Q95.44063 254.055 94.7375 254.58624Q94.03438 255.1175 92.95625 255.1175Q91.59688 255.1175 90.78438 254.27374Q89.9875 253.43 89.9875 251.91437Q89.9875 250.35187 90.8 249.4925Q91.6125 248.6175 92.89375 248.6175Q94.14375 248.6175 94.925 249.46124Q95.72188 250.305 95.72188 251.85187Q95.72188 251.94562 95.72188 252.13312L91.08125 252.13312Q91.14375 253.16437 91.65938 253.71124Q92.175 254.2425 92.95625 254.2425Q93.53438 254.2425 93.94063 253.94562Q94.3625 253.63312 94.59688 252.97687ZM91.14375 251.27374L94.6125 251.27374Q94.55 250.47687 94.22188 250.08624Q93.70625 249.47687 92.90938 249.47687Q92.175 249.47687 91.675 249.96124Q91.19063 250.44562 91.14375 251.27374ZM96.925 253.1175L97.95625 252.96124Q98.05 253.58624 98.44063 253.91437Q98.84688 254.2425 99.58125 254.2425Q100.3 254.2425 100.64375 253.96124Q101.00313 253.66437 101.00313 253.25812Q101.00313 252.89874 100.69063 252.69562Q100.47188 252.555 99.6125 252.33624Q98.45625 252.03937 98.00313 251.83624Q97.56563 251.6175 97.33125 251.2425Q97.09688 250.8675 97.09688 250.39874Q97.09688 249.9925 97.28438 249.63312Q97.47188 249.27374 97.8 249.03937Q98.05 248.8675 98.47188 248.7425Q98.89375 248.6175 99.39375 248.6175Q100.1125 248.6175 100.65938 248.83624Q101.22188 249.03937 101.4875 249.39874Q101.75313 249.75812 101.84688 250.35187L100.81563 250.4925Q100.75313 250.02374 100.40938 249.75812Q100.08125 249.47687 99.45625 249.47687Q98.7375 249.47687 98.425 249.72687Q98.1125 249.96124 98.1125 250.28937Q98.1125 250.4925 98.2375 250.64874Q98.37813 250.82062 98.64375 250.93Q98.8 250.9925 99.58125 251.19562Q100.70625 251.50812 101.14375 251.69562Q101.58125 251.88312 101.83125 252.2425Q102.08125 252.60187 102.08125 253.14874Q102.08125 253.68 101.76875 254.14874Q101.47188 254.60187 100.89375 254.8675Q100.31563 255.1175 99.58125 255.1175Q98.3625 255.1175 97.72188 254.6175Q97.09688 254.10187 96.925 253.1175Z" fill-rule="nonzero"/><path fill="#000000" d="M106.55 313.21564Q106.55 311.6844 106.8625 310.7625Q107.175 309.825 107.78438 309.325Q108.40938 308.825 109.34688 308.825Q110.03438 308.825 110.55 309.10626Q111.08125 309.3875 111.425 309.91876Q111.76875 310.4344 111.95625 311.1844Q112.14375 311.9344 112.14375 313.21564Q112.14375 314.73126 111.83125 315.65314Q111.53438 316.575 110.90938 317.09064Q110.3 317.59064 109.34688 317.59064Q108.1125 317.59064 107.39375 316.7Q106.55 315.6375 106.55 313.21564ZM107.62813 313.21564Q107.62813 315.325 108.12813 316.02814Q108.62813 316.73126 109.34688 316.73126Q110.08125 316.73126 110.56563 316.02814Q111.06563 315.325 111.06563 313.21564Q111.06563 311.09064 110.56563 310.40314Q110.08125 309.7 109.33125 309.7Q108.6125 309.7 108.175 310.3094Q107.62813 311.09064 107.62813 313.21564Z" fill-rule="nonzero"/><path fill="#000000" d="M200.93 315.2L202.03937 315.10626Q202.16437 315.91876 202.60187 316.325Q203.055 316.73126 203.69562 316.73126Q204.44562 316.73126 204.97687 316.15314Q205.50812 315.575 205.50812 314.6375Q205.50812 313.73126 204.9925 313.21564Q204.4925 312.6844 203.66437 312.6844Q203.16437 312.6844 202.7425 312.91876Q202.33624 313.15314 202.10187 313.5125L201.1175 313.3875L201.94562 308.98126L206.22687 308.98126L206.22687 309.98126L202.78937 309.98126L202.33624 312.29376Q203.10187 311.7469 203.94562 311.7469Q205.07062 311.7469 205.83624 312.52814Q206.6175 313.3094 206.6175 314.54376Q206.6175 315.7 205.94562 316.5594Q205.1175 317.59064 203.69562 317.59064Q202.52374 317.59064 201.77374 316.9344Q201.03937 316.27814 200.93 315.2Z" fill-rule="nonzero"/><path fill="#000000" d="M295.77875 317.45L294.73187 317.45L294.73187 310.73126Q294.34125 311.09064 293.71625 311.46564Q293.10687 311.825 292.6225 311.9969L292.6225 310.98126Q293.4975 310.5594 294.15375 309.98126Q294.82562 309.3875 295.10687 308.825L295.77875 308.825L295.77875 317.45ZM298.81 313.21564Q298.81 311.6844 299.1225 310.7625Q299.435 309.825 300.04437 309.325Q300.66937 308.825 301.60687 308.825Q302.29437 308.825 302.81 309.10626Q303.34125 309.3875 303.685 309.91876Q304.02875 310.4344 304.21625 311.1844Q304.40375 311.9344 304.40375 313.21564Q304.40375 314.73126 304.09125 315.65314Q303.79437 316.575 303.16937 317.09064Q302.56 317.59064 301.60687 317.59064Q300.3725 317.59064 299.65375 316.7Q298.81 315.6375 298.81 313.21564ZM299.88812 313.21564Q299.88812 315.325 300.38812 316.02814Q300.88812 316.73126 301.60687 316.73126Q302.34125 316.73126 302.82562 316.02814Q303.32562 315.325 303.32562 313.21564Q303.32562 311.09064 302.82562 310.40314Q302.34125 309.7 301.59125 309.7Q300.8725 309.7 300.435 310.3094Q299.88812 311.09064 299.88812 313.21564Z" fill-rule="nonzero"/><path fill="#000000" d="M390.15875 317.45L389.11188 317.45L389.11188 310.73126Q388.72125 311.09064 388.09625 311.46564Q387.48688 311.825 387.0025 311.9969L387.0025 310.98126Q387.8775 310.5594 388.53375 309.98126Q389.20563 309.3875 389.48688 308.825L390.15875 308.825L390.15875 317.45ZM393.19 315.2L394.29938 315.10626Q394.42438 315.91876 394.86188 316.325Q395.315 316.73126 395.95563 316.73126Q396.70563 316.73126 397.23688 316.15314Q397.76813 315.575 397.76813 314.6375Q397.76813 313.73126 397.2525 313.21564Q396.7525 312.6844 395.92438 312.6844Q395.42438 312.6844 395.0025 312.91876Q394.59625 313.15314 394.36188 313.5125L393.3775 313.3875L394.20563 308.98126L398.48688 308.98126L398.48688 309.98126L395.04938 309.98126L394.59625 312.29376Q395.36188 311.7469 396.20563 311.7469Q397.33063 311.7469 398.09625 312.52814Q398.8775 313.3094 398.8775 314.54376Q398.8775 315.7 398.20563 316.5594Q397.3775 317.59064 395.95563 317.59064Q394.78375 317.59064 394.03375 316.9344Q393.29938 316.27814 393.19 315.2Z" fill-rule="nonzero"/><path fill="#000000" d="M486.11688 316.4344L486.11688 317.45L480.42938 317.45Q480.42938 317.075 480.55438 316.71564Q480.77313 316.1375 481.24188 315.575Q481.72626 315.0125 482.6325 314.27814Q484.03876 313.1219 484.52313 312.45Q485.02313 311.77814 485.02313 311.1844Q485.02313 310.5594 484.57 310.1375Q484.11688 309.7 483.39813 309.7Q482.6325 309.7 482.17938 310.15314Q481.72626 310.60626 481.71063 311.41876L480.6325 311.3094Q480.74188 310.09064 481.46063 309.46564Q482.195 308.825 483.42938 308.825Q484.66376 308.825 485.3825 309.5125Q486.10126 310.2 486.10126 311.21564Q486.10126 311.73126 485.8825 312.23126Q485.67938 312.71564 485.17938 313.27814Q484.695 313.825 483.57 314.77814Q482.61688 315.575 482.33563 315.8719Q482.07 316.15314 481.89813 316.4344L486.11688 316.4344ZM487.57 313.21564Q487.57 311.6844 487.8825 310.7625Q488.195 309.825 488.80438 309.325Q489.42938 308.825 490.36688 308.825Q491.05438 308.825 491.57 309.10626Q492.10126 309.3875 492.445 309.91876Q492.78876 310.4344 492.97626 311.1844Q493.16376 311.9344 493.16376 313.21564Q493.16376 314.73126 492.85126 315.65314Q492.55438 316.575 491.92938 317.09064Q491.32 317.59064 490.36688 317.59064Q489.1325 317.59064 488.41376 316.7Q487.57 315.6375 487.57 313.21564ZM488.64813 313.21564Q488.64813 315.325 489.14813 316.02814Q489.64813 316.73126 490.36688 316.73126Q491.10126 316.73126 491.58563 316.02814Q492.08563 315.325 492.08563 313.21564Q492.08563 311.09064 491.58563 310.40314Q491.10126 309.7 490.35126 309.7Q489.6325 309.7 489.195 310.3094Q488.64813 311.09064 488.64813 313.21564Z" fill-rule="nonzero"/><path fill="#000000" d="M580.4969 316.4344L580.4969 317.45L574.8094 317.45Q574.8094 317.075 574.9344 316.71564Q575.15314 316.1375 575.6219 315.575Q576.10626 315.0125 577.0125 314.27814Q578.41876 313.1219 578.90314 312.45Q579.40314 311.77814 579.40314 311.1844Q579.40314 310.5594 578.95 310.1375Q578.4969 309.7 577.77814 309.7Q577.0125 309.7 576.5594 310.15314Q576.10626 310.60626 576.09064 311.41876L575.0125 311.3094Q575.1219 310.09064 575.84064 309.46564Q576.575 308.825 577.8094 308.825Q579.04376 308.825 579.7625 309.5125Q580.48126 310.2 580.48126 311.21564Q580.48126 311.73126 580.2625 312.23126Q580.0594 312.71564 579.5594 313.27814Q579.075 313.825 577.95 314.77814Q576.9969 315.575 576.71564 315.8719Q576.45 316.15314 576.27814 316.4344L580.4969 316.4344ZM581.95 315.2L583.0594 315.10626Q583.1844 315.91876 583.6219 316.325Q584.075 316.73126 584.71564 316.73126Q585.46564 316.73126 585.9969 316.15314Q586.52814 315.575 586.52814 314.6375Q586.52814 313.73126 586.0125 313.21564Q585.5125 312.6844 584.6844 312.6844Q584.1844 312.6844 583.7625 312.91876Q583.35626 313.15314 583.1219 313.5125L582.1375 313.3875L582.96564 308.98126L587.2469 308.98126L587.2469 309.98126L583.8094 309.98126L583.35626 312.29376Q584.1219 311.7469 584.96564 311.7469Q586.09064 311.7469 586.85626 312.52814Q587.6375 313.3094 587.6375 314.54376Q587.6375 315.7 586.96564 316.5594Q586.1375 317.59064 584.71564 317.59064Q583.54376 317.59064 582.79376 316.9344Q582.0594 316.27814 581.95 315.2Z" fill-rule="nonzero"/><path fill="#757575" d="M20.096874 37.55L20.096874 23.2375L25.01875 23.2375Q26.690624 23.2375 27.58125 23.440624Q28.8 23.721874 29.675 24.45625Q30.8 25.425 31.3625 26.909374Q31.925 28.39375 31.925 30.315624Q31.925 31.940624 31.55 33.20625Q31.175 34.45625 30.565624 35.284374Q29.971874 36.1125 29.26875 36.596874Q28.565624 37.065624 27.565624 37.315624Q26.565624 37.55 25.253124 37.55L20.096874 37.55ZM21.9875 35.8625L25.05 35.8625Q26.45625 35.8625 27.253124 35.596874Q28.065624 35.33125 28.55 34.846874Q29.221874 34.175 29.596874 33.05Q29.971874 31.909374 29.971874 30.284374Q29.971874 28.034374 29.2375 26.83125Q28.503124 25.628124 27.440624 25.221874Q26.690624 24.925 25.003124 24.925L21.9875 24.925L21.9875 35.8625ZM40.64375 36.26875Q39.659374 37.096874 38.753124 37.440624Q37.846874 37.784374 36.815624 37.784374Q35.1125 37.784374 34.190624 36.95625Q33.26875 36.1125 33.26875 34.815624Q33.26875 34.05 33.6125 33.425Q33.971874 32.8 34.534374 32.425Q35.096874 32.034374 35.8 31.83125Q36.315624 31.70625 37.3625 31.565624Q39.4875 31.315624 40.4875 30.971874Q40.503124 30.6125 40.503124 30.503124Q40.503124 29.440624 40.003124 28.9875Q39.33125 28.39375 38.003124 28.39375Q36.753124 28.39375 36.159374 28.83125Q35.58125 29.26875 35.3 30.378124L33.58125 30.14375Q33.815624 29.034374 34.346874 28.3625Q34.878124 27.675 35.89375 27.315624Q36.909374 26.940624 38.253124 26.940624Q39.58125 26.940624 40.409374 27.253124Q41.2375 27.565624 41.628124 28.05Q42.01875 28.51875 42.175 29.2375Q42.26875 29.690624 42.26875 30.8625L42.26875 33.20625Q42.26875 35.659374 42.378124 36.315624Q42.4875 36.95625 42.83125 37.55L40.9875 37.55Q40.721874 37.003124 40.64375 36.26875ZM40.4875 32.346874Q39.534374 32.7375 37.6125 33.003124Q36.534374 33.159374 36.08125 33.3625Q35.64375 33.55 35.39375 33.925Q35.14375 34.3 35.14375 34.76875Q35.14375 35.471874 35.675 35.940624Q36.20625 36.409374 37.2375 36.409374Q38.253124 36.409374 39.034374 35.971874Q39.83125 35.51875 40.20625 34.753124Q40.4875 34.14375 40.4875 32.9875L40.4875 32.346874ZM44.159374 34.45625L45.909374 34.175Q46.05 35.221874 46.721874 35.784374Q47.39375 36.33125 48.596874 36.33125Q49.8 36.33125 50.378124 35.846874Q50.971874 35.346874 50.971874 34.690624Q50.971874 34.096874 50.45625 33.753124Q50.096874 33.51875 48.659374 33.159374Q46.721874 32.659374 45.971874 32.315624Q45.2375 31.95625 44.846874 31.33125Q44.45625 30.690624 44.45625 29.925Q44.45625 29.2375 44.76875 28.64375Q45.096874 28.05 45.64375 27.659374Q46.05 27.3625 46.753124 27.159374Q47.471874 26.940624 48.284374 26.940624Q49.503124 26.940624 50.425 27.3Q51.346874 27.64375 51.784374 28.253124Q52.221874 28.846874 52.39375 29.846874L50.675 30.08125Q50.55 29.284374 49.9875 28.846874Q49.425 28.39375 48.409374 28.39375Q47.190624 28.39375 46.675 28.8Q46.159374 29.190624 46.159374 29.721874Q46.159374 30.065624 46.378124 30.346874Q46.58125 30.628124 47.05 30.815624Q47.315624 30.909374 48.596874 31.253124Q50.471874 31.753124 51.20625 32.08125Q51.940624 32.39375 52.3625 33.003124Q52.784374 33.596874 52.784374 34.503124Q52.784374 35.378124 52.26875 36.159374Q51.753124 36.940624 50.784374 37.3625Q49.815624 37.784374 48.596874 37.784374Q46.58125 37.784374 45.51875 36.940624Q44.45625 36.096874 44.159374 34.45625ZM54.878124 37.55L54.878124 23.2375L56.64375 23.2375L56.64375 31.39375L60.8 27.175L63.065624 27.175L59.1125 31.01875L63.471874 37.55L61.3 37.55L57.878124 32.253124L56.64375 33.440624L56.64375 37.55L54.878124 37.55ZM70.84688 37.55L70.84688 27.175L72.425 27.175L72.425 28.753124Q73.03438 27.64375 73.55 27.3Q74.06563 26.940624 74.675 26.940624Q75.56563 26.940624 76.4875 27.503124L75.87813 29.14375Q75.2375 28.753124 74.59688 28.753124Q74.01875 28.753124 73.55 29.1125Q73.09688 29.45625 72.89375 30.065624Q72.6125 31.003124 72.6125 32.1125L72.6125 37.55L70.84688 37.55ZM84.97188 34.20625L86.78438 34.440624Q86.3625 36.01875 85.19063 36.909374Q84.03438 37.784374 82.22188 37.784374Q79.95625 37.784374 78.6125 36.39375Q77.28438 34.9875 77.28438 32.45625Q77.28438 29.83125 78.62813 28.39375Q79.97188 26.940624 82.12813 26.940624Q84.20625 26.940624 85.51875 28.3625Q86.84688 29.76875 86.84688 32.346874Q86.84688 32.503124 86.83125 32.815624L79.09688 32.815624Q79.19063 34.51875 80.06563 35.425Q80.94063 36.33125 82.2375 36.33125Q83.20625 36.33125 83.87813 35.83125Q84.56563 35.315624 84.97188 34.20625ZM79.19063 31.3625L84.9875 31.3625Q84.87813 30.065624 84.33125 29.409374Q83.4875 28.39375 82.14375 28.39375Q80.94063 28.39375 80.1125 29.20625Q79.28438 30.003124 79.19063 31.3625ZM95.64375 36.26875Q94.65938 37.096874 93.75313 37.440624Q92.84688 37.784374 91.81563 37.784374Q90.1125 37.784374 89.19063 36.95625Q88.26875 36.1125 88.26875 34.815624Q88.26875 34.05 88.6125 33.425Q88.97188 32.8 89.53438 32.425Q90.09688 32.034374 90.8 31.83125Q91.31563 31.70625 92.3625 31.565624Q94.4875 31.315624 95.4875 30.971874Q95.50313 30.6125 95.50313 30.503124Q95.50313 29.440624 95.00313 28.9875Q94.33125 28.39375 93.00313 28.39375Q91.75313 28.39375 91.15938 28.83125Q90.58125 29.26875 90.3 30.378124L88.58125 30.14375Q88.81563 29.034374 89.34688 28.3625Q89.87813 27.675 90.89375 27.315624Q91.90938 26.940624 93.25313 26.940624Q94.58125 26.940624 95.40938 27.253124Q96.2375 27.565624 96.62813 28.05Q97.01875 28.51875 97.175 29.2375Q97.26875 29.690624 97.26875 30.8625L97.26875 33.20625Q97.26875 35.659374 97.37813 36.315624Q97.4875 36.95625 97.83125 37.55L95.9875 37.55Q95.72188 37.003124 95.64375 36.26875ZM95.4875 32.346874Q94.53438 32.7375 92.6125 33.003124Q91.53438 33.159374 91.08125 33.3625Q90.64375 33.55 90.39375 33.925Q90.14375 34.3 90.14375 34.76875Q90.14375 35.471874 90.675 35.940624Q91.20625 36.409374 92.2375 36.409374Q93.25313 36.409374 94.03438 35.971874Q94.83125 35.51875 95.20625 34.753124Q95.4875 34.14375 95.4875 32.9875L95.4875 32.346874ZM106.59688 37.55L106.59688 36.2375Q105.6125 37.784374 103.69063 37.784374Q102.45625 37.784374 101.40938 37.096874Q100.37813 36.409374 99.8 35.190624Q99.2375 33.971874 99.2375 32.378124Q99.2375 30.815624 99.75313 29.55Q100.26875 28.284374 101.3 27.6125Q102.34688 26.940624 103.6125 26.940624Q104.55 26.940624 105.28438 27.346874Q106.01875 27.7375 106.4875 28.3625L106.4875 23.2375L108.22188 23.2375L108.22188 37.55L106.59688 37.55ZM101.03438 32.378124Q101.03438 34.3625 101.87813 35.346874Q102.72188 36.33125 103.8625 36.33125Q105.01875 36.33125 105.81563 35.39375Q106.62813 34.45625 106.62813 32.51875Q106.62813 30.39375 105.8 29.39375Q104.9875 28.39375 103.78438 28.39375Q102.6125 28.39375 101.81563 29.3625Q101.03438 30.315624 101.03438 32.378124ZM109.25313 41.51875L109.25313 40.253124L120.89375 40.253124L120.89375 41.51875L109.25313 41.51875ZM121.8625 41.51875L121.8625 27.175L123.47188 27.175L123.47188 28.51875Q124.03438 27.7375 124.7375 27.346874Q125.45625 26.940624 126.47188 26.940624Q127.8 26.940624 128.81563 27.628124Q129.83125 28.315624 130.34688 29.565624Q130.87813 30.8 130.87813 32.284374Q130.87813 33.878124 130.3 35.159374Q129.7375 36.425 128.64375 37.1125Q127.55 37.784374 126.34688 37.784374Q125.47188 37.784374 124.76875 37.409374Q124.08125 37.034374 123.62813 36.471874L123.62813 41.51875L121.8625 41.51875ZM123.45625 32.425Q123.45625 34.425 124.26875 35.378124Q125.08125 36.33125 126.2375 36.33125Q127.40938 36.33125 128.2375 35.346874Q129.08125 34.3625 129.08125 32.26875Q129.08125 30.3 128.25313 29.315624Q127.44063 28.315624 126.31563 28.315624Q125.19063 28.315624 124.31563 29.378124Q123.45625 30.425 123.45625 32.425ZM139.64375 36.26875Q138.65938 37.096874 137.75313 37.440624Q136.84688 37.784374 135.81563 37.784374Q134.1125 37.784374 133.19063 36.95625Q132.26875 36.1125 132.26875 34.815624Q132.26875 34.05 132.6125 33.425Q132.97188 32.8 133.53438 32.425Q134.09688 32.034374 134.8 31.83125Q135.31563 31.70625 136.3625 31.565624Q138.4875 31.315624 139.4875 30.971874Q139.50313 30.6125 139.50313 30.503124Q139.50313 29.440624 139.00313 28.9875Q138.33125 28.39375 137.00313 28.39375Q135.75313 28.39375 135.15938 28.83125Q134.58125 29.26875 134.3 30.378124L132.58125 30.14375Q132.81563 29.034374 133.34688 28.3625Q133.87813 27.675 134.89375 27.315624Q135.90938 26.940624 137.25313 26.940624Q138.58125 26.940624 139.40938 27.253124Q140.2375 27.565624 140.62813 28.05Q141.01875 28.51875 141.175 29.2375Q141.26875 29.690624 141.26875 30.8625L141.26875 33.20625Q141.26875 35.659374 141.37813 36.315624Q141.4875 36.95625 141.83125 37.55L139.9875 37.55Q139.72188 37.003124 139.64375 36.26875ZM139.4875 32.346874Q138.53438 32.7375 136.6125 33.003124Q135.53438 33.159374 135.08125 33.3625Q134.64375 33.55 134.39375 33.925Q134.14375 34.3 134.14375 34.76875Q134.14375 35.471874 134.675 35.940624Q135.20625 36.409374 136.2375 36.409374Q137.25313 36.409374 138.03438 35.971874Q138.83125 35.51875 139.20625 34.753124Q139.4875 34.14375 139.4875 32.9875L139.4875 32.346874ZM143.84688 37.55L143.84688 27.175L145.425 27.175L145.425 28.753124Q146.03438 27.64375 146.55 27.3Q147.06563 26.940624 147.675 26.940624Q148.56563 26.940624 149.4875 27.503124L148.87813 29.14375Q148.2375 28.753124 147.59688 28.753124Q147.01875 28.753124 146.55 29.1125Q146.09688 29.45625 145.89375 30.065624Q145.6125 31.003124 145.6125 32.1125L145.6125 37.55L143.84688 37.55ZM157.4875 41.51875L157.4875 36.440624Q157.06563 37.01875 156.33125 37.409374Q155.59688 37.784374 154.76875 37.784374Q152.925 37.784374 151.58125 36.315624Q150.25313 34.83125 150.25313 32.26875Q150.25313 30.70625 150.78438 29.471874Q151.33125 28.221874 152.3625 27.58125Q153.39375 26.940624 154.62813 26.940624Q156.55 26.940624 157.65938 28.565624L157.65938 27.175L159.2375 27.175L159.2375 41.51875L157.4875 41.51875ZM152.06563 32.33125Q152.06563 34.33125 152.89375 35.33125Q153.7375 36.33125 154.90938 36.33125Q156.03438 36.33125 156.84688 35.39375Q157.65938 34.440624 157.65938 32.4875Q157.65938 30.425 156.8 29.378124Q155.94063 28.33125 154.8 28.33125Q153.65938 28.33125 152.8625 29.3Q152.06563 30.26875 152.06563 32.33125ZM168.65938 37.55L168.65938 36.01875Q167.45625 37.784374 165.37813 37.784374Q164.45625 37.784374 163.65938 37.440624Q162.8625 37.08125 162.47188 36.55Q162.09688 36.01875 161.94063 35.2375Q161.83125 34.721874 161.83125 33.596874L161.83125 27.175L163.58125 27.175L163.58125 32.925Q163.58125 34.3 163.69063 34.784374Q163.8625 35.471874 164.39375 35.878124Q164.94063 36.26875 165.72188 36.26875Q166.51875 36.26875 167.20625 35.8625Q167.90938 35.45625 168.19063 34.76875Q168.4875 34.065624 168.4875 32.7375L168.4875 27.175L170.2375 27.175L170.2375 37.55L168.65938 37.55ZM178.97188 34.20625L180.78438 34.440624Q180.3625 36.01875 179.19063 36.909374Q178.03438 37.784374 176.22188 37.784374Q173.95625 37.784374 172.6125 36.39375Q171.28438 34.9875 171.28438 32.45625Q171.28438 29.83125 172.62813 28.39375Q173.97188 26.940624 176.12813 26.940624Q178.20625 26.940624 179.51875 28.3625Q180.84688 29.76875 180.84688 32.346874Q180.84688 32.503124 180.83125 32.815624L173.09688 32.815624Q173.19063 34.51875 174.06563 35.425Q174.94063 36.33125 176.2375 36.33125Q177.20625 36.33125 177.87813 35.83125Q178.56563 35.315624 178.97188 34.20625ZM173.19063 31.3625L178.9875 31.3625Q178.87813 30.065624 178.33125 29.409374Q177.4875 28.39375 176.14375 28.39375Q174.94063 28.39375 174.1125 29.20625Q173.28438 30.003124 173.19063 31.3625ZM186.70625 35.971874L186.95625 37.534374Q186.22188 37.690624 185.62813 37.690624Q184.675 37.690624 184.14375 37.39375Q183.62813 37.08125 183.40938 36.596874Q183.19063 36.096874 183.19063 34.51875L183.19063 28.55L181.90938 28.55L181.90938 27.175L183.19063 27.175L183.19063 24.6125L184.94063 23.55L184.94063 27.175L186.70625 27.175L186.70625 28.55L184.94063 28.55L184.94063 34.6125Q184.94063 35.3625 185.03438 35.58125Q185.12813 35.784374 185.33125 35.925Q185.55 36.05 185.94063 36.05Q186.22188 36.05 186.70625 35.971874ZM194.8625 41.51875L194.8625 27.175L196.47188 27.175L196.47188 28.51875Q197.03438 27.7375 197.7375 27.346874Q198.45625 26.940624 199.47188 26.940624Q200.8 26.940624 201.81563 27.628124Q202.83125 28.315624 203.34688 29.565624Q203.87813 30.8 203.87813 32.284374Q203.87813 33.878124 203.3 35.159374Q202.7375 36.425 201.64375 37.1125Q200.55 37.784374 199.34688 37.784374Q198.47188 37.784374 197.76875 37.409374Q197.08125 37.034374 196.62813 36.471874L196.62813 41.51875L194.8625 41.51875ZM196.45625 32.425Q196.45625 34.425 197.26875 35.378124Q198.08125 36.33125 199.2375 36.33125Q200.40938 36.33125 201.2375 35.346874Q202.08125 34.3625 202.08125 32.26875Q202.08125 30.3 201.25313 29.315624Q200.44063 28.315624 199.31563 28.315624Q198.19063 28.315624 197.31563 29.378124Q196.45625 30.425 196.45625 32.425ZM212.97188 34.20625L214.78438 34.440624Q214.3625 36.01875 213.19063 36.909374Q212.03438 37.784374 210.22188 37.784374Q207.95625 37.784374 206.6125 36.39375Q205.28438 34.9875 205.28438 32.45625Q205.28438 29.83125 206.62813 28.39375Q207.97188 26.940624 210.12813 26.940624Q212.20625 26.940624 213.51875 28.3625Q214.84688 29.76875 214.84688 32.346874Q214.84688 32.503124 214.83125 32.815624L207.09688 32.815624Q207.19063 34.51875 208.06563 35.425Q208.94063 36.33125 210.2375 36.33125Q211.20625 36.33125 211.87813 35.83125Q212.56563 35.315624 212.97188 34.20625ZM207.19063 31.3625L212.9875 31.3625Q212.87813 30.065624 212.33125 29.409374Q211.4875 28.39375 210.14375 28.39375Q208.94063 28.39375 208.1125 29.20625Q207.28438 30.003124 207.19063 31.3625ZM216.84688 37.55L216.84688 27.175L218.425 27.175L218.425 28.753124Q219.03438 27.64375 219.55 27.3Q220.06563 26.940624 220.675 26.940624Q221.56563 26.940624 222.4875 27.503124L221.87813 29.14375Q221.2375 28.753124 220.59688 28.753124Q220.01875 28.753124 219.55 29.1125Q219.09688 29.45625 218.89375 30.065624Q218.6125 31.003124 218.6125 32.1125L218.6125 37.55L216.84688 37.55ZM224.28438 37.55L224.28438 28.55L222.7375 28.55L222.7375 27.175L224.28438 27.175L224.28438 26.08125Q224.28438 25.034374 224.47188 24.51875Q224.72188 23.83125 225.3625 23.409374Q226.00313 22.9875 227.15938 22.9875Q227.90938 22.9875 228.8 23.159374L228.53438 24.690624Q227.9875 24.596874 227.50313 24.596874Q226.70625 24.596874 226.3625 24.940624Q226.03438 25.284374 226.03438 26.221874L226.03438 27.175L228.06563 27.175L228.06563 28.55L226.03438 28.55L226.03438 37.55L224.28438 37.55ZM229.22188 32.3625Q229.22188 29.4875 230.81563 28.096874Q232.15938 26.940624 234.08125 26.940624Q236.22188 26.940624 237.56563 28.346874Q238.925 29.753124 238.925 32.221874Q238.925 34.221874 238.33125 35.378124Q237.7375 36.51875 236.58125 37.159374Q235.44063 37.784374 234.08125 37.784374Q231.89375 37.784374 230.55 36.39375Q229.22188 34.9875 229.22188 32.3625ZM231.01875 32.3625Q231.01875 34.3625 231.87813 35.346874Q232.75313 36.33125 234.08125 36.33125Q235.39375 36.33125 236.25313 35.346874Q237.12813 34.346874 237.12813 32.3Q237.12813 30.378124 236.25313 29.39375Q235.37813 28.39375 234.08125 28.39375Q232.75313 28.39375 231.87813 29.39375Q231.01875 30.378124 231.01875 32.3625ZM240.84688 37.55L240.84688 27.175L242.425 27.175L242.425 28.753124Q243.03438 27.64375 243.55 27.3Q244.06563 26.940624 244.675 26.940624Q245.56563 26.940624 246.4875 27.503124L245.87813 29.14375Q245.2375 28.753124 244.59688 28.753124Q244.01875 28.753124 243.55 29.1125Q243.09688 29.45625 242.89375 30.065624Q242.6125 31.003124 242.6125 32.1125L242.6125 37.55L240.84688 37.55ZM247.8625 37.55L247.8625 27.175L249.44063 27.175L249.44063 28.628124Q249.925 27.878124 250.7375 27.409374Q251.55 26.940624 252.58125 26.940624Q253.7375 26.940624 254.47188 27.425Q255.20625 27.89375 255.51875 28.753124Q256.7531 26.940624 258.72186 26.940624Q260.26874 26.940624 261.09686 27.8Q261.925 28.659374 261.925 30.425L261.925 37.55L260.175 37.55L260.175 31.01875Q260.175 29.95625 260.0031 29.503124Q259.83124 29.034374 259.3781 28.753124Q258.9406 28.471874 258.33124 28.471874Q257.2375 28.471874 256.5031 29.20625Q255.78438 29.925 255.78438 31.51875L255.78438 37.55L254.03438 37.55L254.03438 30.815624Q254.03438 29.64375 253.59688 29.065624Q253.175 28.471874 252.19063 28.471874Q251.45625 28.471874 250.81563 28.8625Q250.19063 29.253124 249.90938 30.003124Q249.62813 30.753124 249.62813 32.175L249.62813 37.55L247.8625 37.55ZM270.64374 36.26875Q269.65936 37.096874 268.7531 37.440624Q267.84686 37.784374 266.8156 37.784374Q265.1125 37.784374 264.1906 36.95625Q263.26874 36.1125 263.26874 34.815624Q263.26874 34.05 263.6125 33.425Q263.97186 32.8 264.53436 32.425Q265.09686 32.034374 265.8 31.83125Q266.3156 31.70625 267.3625 31.565624Q269.4875 31.315624 270.4875 30.971874Q270.5031 30.6125 270.5031 30.503124Q270.5031 29.440624 270.0031 28.9875Q269.33124 28.39375 268.0031 28.39375Q266.7531 28.39375 266.15936 28.83125Q265.58124 29.26875 265.3 30.378124L263.58124 30.14375Q263.8156 29.034374 264.34686 28.3625Q264.8781 27.675 265.89374 27.315624Q266.90936 26.940624 268.2531 26.940624Q269.58124 26.940624 270.40936 27.253124Q271.2375 27.565624 271.6281 28.05Q272.01874 28.51875 272.175 29.2375Q272.26874 29.690624 272.26874 30.8625L272.26874 33.20625Q272.26874 35.659374 272.3781 36.315624Q272.4875 36.95625 272.83124 37.55L270.9875 37.55Q270.72186 37.003124 270.64374 36.26875ZM270.4875 32.346874Q269.53436 32.7375 267.6125 33.003124Q266.53436 33.159374 266.08124 33.3625Q265.64374 33.55 265.39374 33.925Q265.14374 34.3 265.14374 34.76875Q265.14374 35.471874 265.675 35.940624Q266.20624 36.409374 267.2375 36.409374Q268.2531 36.409374 269.03436 35.971874Q269.83124 35.51875 270.20624 34.753124Q270.4875 34.14375 270.4875 32.9875L270.4875 32.346874ZM274.8625 37.55L274.8625 27.175L276.45624 27.175L276.45624 28.659374Q277.59686 26.940624 279.7531 26.940624Q280.6906 26.940624 281.47186 27.284374Q282.26874 27.6125 282.65936 28.159374Q283.05 28.70625 283.20624 29.45625Q283.3 29.95625 283.3 31.175L283.3 37.55L281.53436 37.55L281.53436 31.2375Q281.53436 30.159374 281.33124 29.628124Q281.1281 29.096874 280.59686 28.784374Q280.08124 28.471874 279.3781 28.471874Q278.2531 28.471874 277.4406 29.190624Q276.6281 29.89375 276.6281 31.878124L276.6281 37.55L274.8625 37.55ZM291.64374 33.753124L293.3625 33.971874Q293.08124 35.76875 291.90936 36.784374Q290.7531 37.784374 289.05 37.784374Q286.925 37.784374 285.6281 36.39375Q284.33124 35.003124 284.33124 32.409374Q284.33124 30.721874 284.8781 29.471874Q285.4406 28.20625 286.58124 27.58125Q287.72186 26.940624 289.0656 26.940624Q290.7531 26.940624 291.8156 27.8Q292.89374 28.659374 293.20624 30.221874L291.4875 30.4875Q291.2531 29.440624 290.6281 28.925Q290.0031 28.39375 289.1281 28.39375Q287.8 28.39375 286.97186 29.346874Q286.14374 30.3 286.14374 32.346874Q286.14374 34.440624 286.9406 35.39375Q287.7375 36.33125 289.03436 36.33125Q290.0656 36.33125 290.7531 35.70625Q291.45624 35.065624 291.64374 33.753124ZM301.97186 34.20625L303.78436 34.440624Q303.3625 36.01875 302.1906 36.909374Q301.03436 37.784374 299.22186 37.784374Q296.95624 37.784374 295.6125 36.39375Q294.28436 34.9875 294.28436 32.45625Q294.28436 29.83125 295.6281 28.39375Q296.97186 26.940624 299.1281 26.940624Q301.20624 26.940624 302.51874 28.3625Q303.84686 29.76875 303.84686 32.346874Q303.84686 32.503124 303.83124 32.815624L296.09686 32.815624Q296.1906 34.51875 297.0656 35.425Q297.9406 36.33125 299.2375 36.33125Q300.20624 36.33125 300.8781 35.83125Q301.5656 35.315624 301.97186 34.20625ZM296.1906 31.3625L301.9875 31.3625Q301.8781 30.065624 301.33124 29.409374Q300.4875 28.39375 299.14374 28.39375Q297.9406 28.39375 297.1125 29.20625Q296.28436 30.003124 296.1906 31.3625Z" fill-rule="nonzero"/></svg>