<svg version="1.1" viewBox="0.0 0.0 600.0 371.0" fill="none" stroke="none" stroke-linecap="square" stroke-miterlimit="10" width="600" height="371" xmlns:xlink="http://www.w3.org/1999/xlink" xmlns="http://www.w3.org/2000/svg"><path fill="#ffffff" d="M0 0L600.0 0L600.0 371.0L0 371.0L0 0Z" fill-rule="nonzero"/><path stroke="#333333" stroke-width="1.0" stroke-linecap="butt" d="M137.5 81.5L137.5 300.5" fill-rule="nonzero"/><path stroke="#cccccc" stroke-width="1.0" stroke-linecap="butt" d="M285.5 81.5L285.5 300.5" fill-rule="nonzero"/><path stroke="#cccccc" stroke-width="1.0" stroke-linecap="butt" d="M433.5 81.5L433.5 300.5" fill-rule="nonzero"/><path stroke="#cccccc" stroke-width="1.0" stroke-linecap="butt" d="M581.5 81.5L581.5 300.5" fill-rule="nonzero"/><clipPath id="id_0"><path d="M137.13 81.28333L581.45 81.28333L581.45 300.45L137.13 300.45L137.13 81.28333Z" clip-rule="nonzero"/></clipPath><path stroke="#000000" stroke-width="2.0" stroke-linecap="butt" stroke-opacity="0.0" clip-path="url(#id_0)" d="M137.0 143.0L137.0 115.0L544.0 115.0C545.10455 115.0 546.0 115.89543 546.0 117.0L546.0 141.0C546.0 142.10457 545.10455 143.0 544.0 143.0Z" fill-rule="nonzero"/><path fill="#6d9eeb" clip-path="url(#id_0)" d="M137.0 143.0L137.0 115.0L544.0 115.0C545.10455 115.0 546.0 115.89543 546.0 117.0L546.0 141.0C546.0 142.10457 545.10455 143.0 544.0 143.0Z" fill-rule="nonzero"/><path stroke="#000000" stroke-width="2.0" stroke-linecap="butt" stroke-opacity="0.0" clip-path="url(#id_0)" d="M137.0 236.0L137.0 208.0L556.0 208.0C557.10455 208.0 558.0 208.89543 558.0 210.0L558.0 234.0C558.0 235.10457 557.10455 236.0 556.0 236.0Z" fill-rule="nonzero"/><path fill="#6d9eeb" clip-path="url(#id_0)" d="M137.0 236.0L137.0 208.0L556.0 208.0C557.10455 208.0 558.0 208.89543 558.0 210.0L558.0 234.0C558.0 235.10457 557.10455 236.0 556.0 236.0Z" fill-rule="nonzero"/><path stroke="#000000" stroke-width="2.0" stroke-linecap="butt" stroke-opacity="0.0" clip-path="url(#id_0)" d="M137.0 173.0L137.0 145.0L292.0 145.0C293.10458 145.0 294.0 145.89543 294.0 147.0L294.0 171.0C294.0 172.10457 293.10458 173.0 292.0 173.0Z" fill-rule="nonzero"/><path fill="#1155cc" clip-path="url(#id_0)" d="M137.0 173.0L137.0 145.0L292.0 145.0C293.10458 145.0 294.0 145.89543 294.0 147.0L294.0 171.0C294.0 172.10457 293.10458 173.0 292.0 173.0Z" fill-rule="nonzero"/><path stroke="#000000" stroke-width="2.0" stroke-linecap="butt" stroke-opacity="0.0" clip-path="url(#id_0)" d="M137.0 266.0L137.0 238.0L366.0 238.0C367.10458 238.0 368.0 238.89543 368.0 240.0L368.0 264.0C368.0 265.10458 367.10458 266.0 366.0 266.0Z" fill-rule="nonzero"/><path fill="#1155cc" clip-path="url(#id_0)" d="M137.0 266.0L137.0 238.0L366.0 238.0C367.10458 238.0 368.0 238.89543 368.0 240.0L368.0 264.0C368.0 265.10458 367.10458 266.0 366.0 266.0Z" fill-rule="nonzero"/><path fill="#000000" d="M335.33688 346.6844L336.39938 346.59064Q336.4775 347.2469 336.75876 347.65314Q337.04 348.0594 337.61813 348.325Q338.21188 348.575 338.94626 348.575Q339.58688 348.575 340.08688 348.3875Q340.58688 348.1844 340.82126 347.85626Q341.07126 347.5125 341.07126 347.1219Q341.07126 346.71564 340.83688 346.41876Q340.6025 346.10626 340.07126 345.90314Q339.71188 345.7625 338.52438 345.48126Q337.3525 345.2 336.88376 344.95Q336.25876 344.6219 335.96188 344.15314Q335.665 343.66876 335.665 343.075Q335.665 342.4344 336.02438 341.8719Q336.39938 341.29376 337.1025 341.0125Q337.82126 340.71564 338.68063 340.71564Q339.63376 340.71564 340.36813 341.02814Q341.1025 341.325 341.49313 341.9344Q341.88376 342.52814 341.915 343.27814L340.82126 343.35626Q340.7275 342.54376 340.21188 342.1375Q339.71188 341.71564 338.7275 341.71564Q337.69626 341.71564 337.2275 342.09064Q336.75876 342.46564 336.75876 342.9969Q336.75876 343.46564 337.08688 343.7625Q337.415 344.0594 338.79 344.3719Q340.18063 344.6844 340.69626 344.91876Q341.44626 345.27814 341.80563 345.8094Q342.165 346.325 342.165 347.02814Q342.165 347.71564 341.77438 348.325Q341.38376 348.91876 340.64938 349.2625Q339.915 349.59064 338.99313 349.59064Q337.82126 349.59064 337.02438 349.2625Q336.24313 348.91876 335.79 348.23126Q335.3525 347.54376 335.33688 346.6844ZM347.83688 347.45L348.93063 347.575Q348.68063 348.52814 347.9775 349.0594Q347.27438 349.59064 346.19626 349.59064Q344.83688 349.59064 344.02438 348.7469Q343.2275 347.90314 343.2275 346.3875Q343.2275 344.825 344.04 343.96564Q344.8525 343.09064 346.13376 343.09064Q347.38376 343.09064 348.165 343.9344Q348.96188 344.77814 348.96188 346.325Q348.96188 346.41876 348.96188 346.60626L344.32126 346.60626Q344.38376 347.6375 344.89938 348.1844Q345.415 348.71564 346.19626 348.71564Q346.77438 348.71564 347.18063 348.41876Q347.6025 348.10626 347.83688 347.45ZM344.38376 345.7469L347.8525 345.7469Q347.79 344.95 347.46188 344.5594Q346.94626 343.95 346.14938 343.95Q345.415 343.95 344.915 344.4344Q344.43063 344.91876 344.38376 345.7469ZM354.64938 347.16876L355.68063 347.3094Q355.50876 348.3719 354.80563 348.98126Q354.1025 349.59064 353.08688 349.59064Q351.80563 349.59064 351.02438 348.7625Q350.25876 347.91876 350.25876 346.35626Q350.25876 345.35626 350.58688 344.60626Q350.93063 343.84064 351.6025 343.46564Q352.29 343.09064 353.1025 343.09064Q354.1025 343.09064 354.74313 343.60626Q355.39938 344.10626 355.58688 345.0594L354.55563 345.21564Q354.415 344.59064 354.04 344.27814Q353.665 343.95 353.13376 343.95Q352.33688 343.95 351.83688 344.52814Q351.33688 345.09064 351.33688 346.325Q351.33688 347.59064 351.82126 348.15314Q352.30563 348.71564 353.07126 348.71564Q353.69626 348.71564 354.1025 348.34064Q354.52438 347.96564 354.64938 347.16876ZM356.19626 346.34064Q356.19626 344.60626 357.14938 343.77814Q357.94626 343.09064 359.1025 343.09064Q360.38376 343.09064 361.19626 343.9344Q362.02438 344.7625 362.02438 346.2469Q362.02438 347.45 361.665 348.1375Q361.30563 348.825 360.6025 349.21564Q359.915 349.59064 359.1025 349.59064Q357.80563 349.59064 356.99313 348.7625Q356.19626 347.91876 356.19626 346.34064ZM357.27438 346.34064Q357.27438 347.52814 357.79 348.1219Q358.32126 348.71564 359.1025 348.71564Q359.89938 348.71564 360.415 348.1219Q360.93063 347.52814 360.93063 346.3094Q360.93063 345.15314 360.39938 344.5594Q359.88376 343.96564 359.1025 343.96564Q358.32126 343.96564 357.79 344.5594Q357.27438 345.1375 357.27438 346.34064ZM363.58688 349.45L363.58688 343.23126L364.52438 343.23126L364.52438 344.10626Q365.21188 343.09064 366.50876 343.09064Q367.07126 343.09064 367.54 343.29376Q368.02438 343.4969 368.25876 343.825Q368.49313 344.15314 368.58688 344.59064Q368.63376 344.8875 368.63376 345.6219L368.63376 349.45L367.58688 349.45L367.58688 345.66876Q367.58688 345.0125 367.46188 344.7Q367.33688 344.3875 367.02438 344.2Q366.71188 343.9969 366.29 343.9969Q365.61813 343.9969 365.11813 344.4344Q364.63376 344.85626 364.63376 346.04376L364.63376 349.45L363.58688 349.45ZM374.61813 349.45L374.61813 348.66876Q374.02438 349.59064 372.88376 349.59064Q372.13376 349.59064 371.50876 349.1844Q370.88376 348.7625 370.54 348.02814Q370.19626 347.29376 370.19626 346.34064Q370.19626 345.41876 370.50876 344.65314Q370.82126 343.8875 371.44626 343.4969Q372.07126 343.09064 372.83688 343.09064Q373.39938 343.09064 373.83688 343.325Q374.27438 343.5594 374.55563 343.9344L374.55563 340.85626L375.6025 340.85626L375.6025 349.45L374.61813 349.45ZM371.29 346.34064Q371.29 347.54376 371.79 348.1375Q372.29 348.71564 372.9775 348.71564Q373.665 348.71564 374.14938 348.15314Q374.63376 347.59064 374.63376 346.4344Q374.63376 345.15314 374.13376 344.5594Q373.64938 343.96564 372.93063 343.96564Q372.2275 343.96564 371.75876 344.54376Q371.29 345.10626 371.29 346.34064ZM377.165 347.59064L378.19626 347.4344Q378.29 348.0594 378.68063 348.3875Q379.08688 348.71564 379.82126 348.71564Q380.54 348.71564 380.88376 348.4344Q381.24313 348.1375 381.24313 347.73126Q381.24313 347.3719 380.93063 347.16876Q380.71188 347.02814 379.8525 346.8094Q378.69626 346.5125 378.24313 346.3094Q377.80563 346.09064 377.57126 345.71564Q377.33688 345.34064 377.33688 344.8719Q377.33688 344.46564 377.52438 344.10626Q377.71188 343.7469 378.04 343.5125Q378.29 343.34064 378.71188 343.21564Q379.13376 343.09064 379.63376 343.09064Q380.3525 343.09064 380.89938 343.3094Q381.46188 343.5125 381.7275 343.8719Q381.99313 344.23126 382.08688 344.825L381.05563 344.96564Q380.99313 344.4969 380.64938 344.23126Q380.32126 343.95 379.69626 343.95Q378.9775 343.95 378.665 344.2Q378.3525 344.4344 378.3525 344.7625Q378.3525 344.96564 378.4775 345.1219Q378.61813 345.29376 378.88376 345.40314Q379.04 345.46564 379.82126 345.66876Q380.94626 345.98126 381.38376 346.16876Q381.82126 346.35626 382.07126 346.71564Q382.32126 347.075 382.32126 347.6219Q382.32126 348.15314 382.00876 348.6219Q381.71188 349.075 381.13376 349.34064Q380.55563 349.59064 379.82126 349.59064Q378.6025 349.59064 377.96188 349.09064Q377.33688 348.575 377.165 347.59064Z" fill-rule="nonzero"/><path fill="#000000" d="M43.114376 141.23546L43.114376 132.64171L48.91125 132.64171L48.91125 133.65733L44.255 133.65733L44.255 136.31358L48.28625 136.31358L48.28625 137.32921L44.255 137.32921L44.255 141.23546L43.114376 141.23546ZM49.926876 133.86046L49.926876 132.64171L50.989376 132.64171L50.989376 133.86046L49.926876 133.86046ZM49.926876 141.23546L49.926876 135.01671L50.989376 135.01671L50.989376 141.23546L49.926876 141.23546ZM52.895626 141.23546L52.895626 132.64171L53.958126 132.64171L53.958126 141.23546L52.895626 141.23546ZM58.22375 140.29796L58.38 141.21983Q57.926876 141.31358 57.583126 141.31358Q57.005 141.31358 56.6925 141.14171Q56.38 140.95421 56.239376 140.65733Q56.114376 140.36046 56.114376 139.40733L56.114376 135.82921L55.34875 135.82921L55.34875 135.01671L56.114376 135.01671L56.114376 133.46983L57.16125 132.84483L57.16125 135.01671L58.22375 135.01671L58.22375 135.82921L57.16125 135.82921L57.16125 139.46983Q57.16125 139.92296 57.208126 140.04796Q57.270626 140.17296 57.395626 140.25108Q57.520626 140.32921 57.755 140.32921Q57.9425 140.32921 58.22375 140.29796ZM63.176876 139.23546L64.27063 139.36046Q64.02063 140.31358 63.3175 140.84483Q62.614376 141.37608 61.53625 141.37608Q60.176876 141.37608 59.364376 140.53233Q58.5675 139.68858 58.5675 138.17296Q58.5675 136.61046 59.38 135.75108Q60.1925 134.87608 61.47375 134.87608Q62.72375 134.87608 63.505 135.71983Q64.30188 136.56358 64.30188 138.11046Q64.30188 138.20421 64.30188 138.39171L59.66125 138.39171Q59.72375 139.42296 60.239376 139.96983Q60.755 140.50108 61.53625 140.50108Q62.114376 140.50108 62.520626 140.20421Q62.9425 139.89171 63.176876 139.23546ZM59.72375 137.53233L63.1925 137.53233Q63.13 136.73546 62.801876 136.34483Q62.28625 135.73546 61.489376 135.73546Q60.755 135.73546 60.255 136.21983Q59.770626 136.70421 59.72375 137.53233ZM65.911255 141.23546L65.911255 135.01671L66.86438 135.01671L66.86438 135.95421Q67.223755 135.29796 67.52063 135.09483Q67.83313 134.87608 68.20813 134.87608Q68.73938 134.87608 69.286255 135.20421L68.92688 136.18858Q68.536255 135.95421 68.161255 135.95421Q67.80188 135.95421 67.52063 136.17296Q67.255005 136.37608 67.14563 136.75108Q66.95813 137.31358 66.95813 137.96983L66.95813 141.23546L65.911255 141.23546ZM69.92688 133.86046L69.92688 132.64171L70.98938 132.64171L70.98938 133.86046L69.92688 133.86046ZM69.92688 141.23546L69.92688 135.01671L70.98938 135.01671L70.98938 141.23546L69.92688 141.23546ZM72.92688 141.23546L72.92688 135.01671L73.86438 135.01671L73.86438 135.89171Q74.55188 134.87608 75.848755 134.87608Q76.411255 134.87608 76.880005 135.07921Q77.36438 135.28233 77.598755 135.61046Q77.83313 135.93858 77.92688 136.37608Q77.973755 136.67296 77.973755 137.40733L77.973755 141.23546L76.92688 141.23546L76.92688 137.45421Q76.92688 136.79796 76.80188 136.48546Q76.67688 136.17296 76.36438 135.98546Q76.05188 135.78233 75.630005 135.78233Q74.95813 135.78233 74.45813 136.21983Q73.973755 136.64171 73.973755 137.82921L73.973755 141.23546L72.92688 141.23546ZM79.723755 141.75108L80.755005 141.90733Q80.817505 142.37608 81.11438 142.59483Q81.505005 142.89171 82.17688 142.89171Q82.911255 142.89171 83.30188 142.59483Q83.70813 142.29796 83.848755 141.78233Q83.942505 141.45421 83.92688 140.42296Q83.23938 141.23546 82.20813 141.23546Q80.92688 141.23546 80.223755 140.31358Q79.52063 139.37608 79.52063 138.09483Q79.52063 137.20421 79.83313 136.45421Q80.161255 135.68858 80.77063 135.28233Q81.380005 134.87608 82.20813 134.87608Q83.317505 134.87608 84.036255 135.76671L84.036255 135.01671L85.005005 135.01671L85.005005 140.39171Q85.005005 141.84483 84.70813 142.45421Q84.411255 143.06358 83.77063 143.40733Q83.130005 143.76671 82.192505 143.76671Q81.08313 143.76671 80.39563 143.26671Q79.70813 142.76671 79.723755 141.75108ZM80.598755 138.01671Q80.598755 139.23546 81.08313 139.79796Q81.567505 140.36046 82.30188 140.36046Q83.036255 140.36046 83.52063 139.79796Q84.02063 139.23546 84.02063 138.04796Q84.02063 136.90733 83.505005 136.32921Q83.005005 135.75108 82.286255 135.75108Q81.58313 135.75108 81.08313 136.32921Q80.598755 136.89171 80.598755 138.01671ZM92.130005 139.84483L92.130005 137.48546L89.80188 137.48546L89.80188 136.50108L92.130005 136.50108L92.130005 134.17296L93.130005 134.17296L93.130005 136.50108L95.473755 136.50108L95.473755 137.48546L93.130005 137.48546L93.130005 139.84483L92.130005 139.84483ZM99.67688 138.46983L100.73938 138.37608Q100.817505 139.03233 101.098755 139.43858Q101.380005 139.84483 101.95813 140.11046Q102.55188 140.36046 103.286255 140.36046Q103.92688 140.36046 104.42688 140.17296Q104.92688 139.96983 105.161255 139.64171Q105.411255 139.29796 105.411255 138.90733Q105.411255 138.50108 105.17688 138.20421Q104.942505 137.89171 104.411255 137.68858Q104.05188 137.54796 102.86438 137.26671Q101.692505 136.98546 101.223755 136.73546Q100.598755 136.40733 100.30188 135.93858Q100.005005 135.45421 100.005005 134.86046Q100.005005 134.21983 100.36438 133.65733Q100.73938 133.07921 101.442505 132.79796Q102.161255 132.50108 103.02063 132.50108Q103.973755 132.50108 104.70813 132.81358Q105.442505 133.11046 105.83313 133.71983Q106.223755 134.31358 106.255005 135.06358L105.161255 135.14171Q105.067505 134.32921 104.55188 133.92296Q104.05188 133.50108 103.067505 133.50108Q102.036255 133.50108 101.567505 133.87608Q101.098755 134.25108 101.098755 134.78233Q101.098755 135.25108 101.42688 135.54796Q101.755005 135.84483 103.130005 136.15733Q104.52063 136.46983 105.036255 136.70421Q105.786255 137.06358 106.14563 137.59483Q106.505005 138.11046 106.505005 138.81358Q106.505005 139.50108 106.11438 140.11046Q105.723755 140.70421 104.98938 141.04796Q104.255005 141.37608 103.33313 141.37608Q102.161255 141.37608 101.36438 141.04796Q100.58313 140.70421 100.130005 140.01671Q99.692505 139.32921 99.67688 138.46983ZM110.223755 140.29796L110.380005 141.21983Q109.92688 141.31358 109.58313 141.31358Q109.005005 141.31358 108.692505 141.14171Q108.380005 140.95421 108.23938 140.65733Q108.11438 140.36046 108.11438 139.40733L108.11438 135.82921L107.348755 135.82921L107.348755 135.01671L108.11438 135.01671L108.11438 133.46983L109.161255 132.84483L109.161255 135.01671L110.223755 135.01671L110.223755 135.82921L109.161255 135.82921L109.161255 139.46983Q109.161255 139.92296 109.20813 140.04796Q109.27063 140.17296 109.39563 140.25108Q109.52063 140.32921 109.755005 140.32921Q109.942505 140.32921 110.223755 140.29796ZM110.911255 141.23546L110.911255 135.01671L111.86438 135.01671L111.86438 135.95421Q112.223755 135.29796 112.52063 135.09483Q112.83313 134.87608 113.20813 134.87608Q113.73938 134.87608 114.286255 135.20421L113.92688 136.18858Q113.536255 135.95421 113.161255 135.95421Q112.80188 135.95421 112.52063 136.17296Q112.255005 136.37608 112.14563 136.75108Q111.95813 137.31358 111.95813 137.96983L111.95813 141.23546L110.911255 141.23546ZM114.92688 133.86046L114.92688 132.64171L115.98938 132.64171L115.98938 133.86046L114.92688 133.86046ZM114.92688 141.23546L114.92688 135.01671L115.98938 135.01671L115.98938 141.23546L114.92688 141.23546ZM117.92688 141.23546L117.92688 135.01671L118.86438 135.01671L118.86438 135.89171Q119.55188 134.87608 120.848755 134.87608Q121.411255 134.87608 121.880005 135.07921Q122.36438 135.28233 122.598755 135.61046Q122.83313 135.93858 122.92688 136.37608Q122.973755 136.67296 122.973755 137.40733L122.973755 141.23546L121.92688 141.23546L121.92688 137.45421Q121.92688 136.79796 121.80188 136.48546Q121.67688 136.17296 121.36438 135.98546Q121.05188 135.78233 120.630005 135.78233Q119.95813 135.78233 119.45813 136.21983Q118.973755 136.64171 118.973755 137.82921L118.973755 141.23546L117.92688 141.23546ZM124.723755 141.75108L125.755005 141.90733Q125.817505 142.37608 126.11438 142.59483Q126.505005 142.89171 127.17688 142.89171Q127.911255 142.89171 128.30188 142.59483Q128.70813 142.29796 128.84875 141.78233Q128.9425 141.45421 128.92688 140.42296Q128.23938 141.23546 127.20813 141.23546Q125.92688 141.23546 125.223755 140.31358Q124.52063 139.37608 124.52063 138.09483Q124.52063 137.20421 124.83313 136.45421Q125.161255 135.68858 125.77063 135.28233Q126.380005 134.87608 127.20813 134.87608Q128.3175 134.87608 129.03625 135.76671L129.03625 135.01671L130.005 135.01671L130.005 140.39171Q130.005 141.84483 129.70813 142.45421Q129.41125 143.06358 128.77063 143.40733Q128.13 143.76671 127.192505 143.76671Q126.08313 143.76671 125.39563 143.26671Q124.70813 142.76671 124.723755 141.75108ZM125.598755 138.01671Q125.598755 139.23546 126.08313 139.79796Q126.567505 140.36046 127.30188 140.36046Q128.03625 140.36046 128.52063 139.79796Q129.02063 139.23546 129.02063 138.04796Q129.02063 136.90733 128.505 136.32921Q128.005 135.75108 127.286255 135.75108Q126.58313 135.75108 126.08313 136.32921Q125.598755 136.89171 125.598755 138.01671Z" fill-rule="nonzero"/><path fill="#000000" d="M80.11437 155.23546L83.41125 146.64171L84.63 146.64171L88.14562 155.23546L86.86437 155.23546L85.84875 152.62608L82.27062 152.62608L81.3175 155.23546L80.11437 155.23546ZM82.59875 151.70421L85.505 151.70421L84.61437 149.32921Q84.1925 148.25108 84.005 147.54796Q83.83312 148.37608 83.53625 149.18858L82.59875 151.70421ZM91.98937 152.95421L93.02062 153.09483Q92.84875 154.15733 92.14562 154.76671Q91.4425 155.37608 90.42687 155.37608Q89.14562 155.37608 88.36437 154.54796Q87.59875 153.70421 87.59875 152.14171Q87.59875 151.14171 87.92687 150.39171Q88.27062 149.62608 88.9425 149.25108Q89.63 148.87608 90.4425 148.87608Q91.4425 148.87608 92.08312 149.39171Q92.73937 149.89171 92.92687 150.84483L91.89562 151.00108Q91.755 150.37608 91.38 150.06358Q91.005 149.73546 90.47375 149.73546Q89.67687 149.73546 89.17687 150.31358Q88.67687 150.87608 88.67687 152.11046Q88.67687 153.37608 89.16125 153.93858Q89.64562 154.50108 90.41125 154.50108Q91.03625 154.50108 91.4425 154.12608Q91.86437 153.75108 91.98937 152.95421ZM97.98937 152.95421L99.02062 153.09483Q98.84875 154.15733 98.14562 154.76671Q97.4425 155.37608 96.42687 155.37608Q95.14562 155.37608 94.36437 154.54796Q93.59875 153.70421 93.59875 152.14171Q93.59875 151.14171 93.92687 150.39171Q94.27062 149.62608 94.9425 149.25108Q95.63 148.87608 96.4425 148.87608Q97.4425 148.87608 98.08312 149.39171Q98.73937 149.89171 98.92687 150.84483L97.89562 151.00108Q97.755 150.37608 97.38 150.06358Q97.005 149.73546 96.47375 149.73546Q95.67687 149.73546 95.17687 150.31358Q94.67687 150.87608 94.67687 152.11046Q94.67687 153.37608 95.16125 153.93858Q95.64562 154.50108 96.41125 154.50108Q97.03625 154.50108 97.4425 154.12608Q97.86437 153.75108 97.98937 152.95421ZM104.17687 153.23546L105.27062 153.36046Q105.02062 154.31358 104.3175 154.84483Q103.61437 155.37608 102.53625 155.37608Q101.17687 155.37608 100.36437 154.53233Q99.5675 153.68858 99.5675 152.17296Q99.5675 150.61046 100.38 149.75108Q101.1925 148.87608 102.47375 148.87608Q103.72375 148.87608 104.505 149.71983Q105.30187 150.56358 105.30187 152.11046Q105.30187 152.20421 105.30187 152.39171L100.66125 152.39171Q100.72375 153.42296 101.23937 153.96983Q101.755 154.50108 102.53625 154.50108Q103.11437 154.50108 103.52062 154.20421Q103.9425 153.89171 104.17687 153.23546ZM100.72375 151.53233L104.1925 151.53233Q104.13 150.73546 103.80187 150.34483Q103.28625 149.73546 102.48937 149.73546Q101.755 149.73546 101.255 150.21983Q100.77062 150.70421 100.72375 151.53233ZM106.505 153.37608L107.53625 153.21983Q107.63 153.84483 108.02062 154.17296Q108.42687 154.50108 109.16125 154.50108Q109.88 154.50108 110.22375 154.21983Q110.58312 153.92296 110.58312 153.51671Q110.58312 153.15733 110.27062 152.95421Q110.05187 152.81358 109.1925 152.59483Q108.03625 152.29796 107.58312 152.09483Q107.14562 151.87608 106.91125 151.50108Q106.67687 151.12608 106.67687 150.65733Q106.67687 150.25108 106.86437 149.89171Q107.05187 149.53233 107.38 149.29796Q107.63 149.12608 108.05187 149.00108Q108.47375 148.87608 108.97375 148.87608Q109.6925 148.87608 110.23937 149.09483Q110.80187 149.29796 111.0675 149.65733Q111.33312 150.01671 111.42687 150.61046L110.39562 150.75108Q110.33312 150.28233 109.98937 150.01671Q109.66125 149.73546 109.03625 149.73546Q108.3175 149.73546 108.005 149.98546Q107.6925 150.21983 107.6925 150.54796Q107.6925 150.75108 107.8175 150.90733Q107.95812 151.07921 108.22375 151.18858Q108.38 151.25108 109.16125 151.45421Q110.28625 151.76671 110.72375 151.95421Q111.16125 152.14171 111.41125 152.50108Q111.66125 152.86046 111.66125 153.40733Q111.66125 153.93858 111.34875 154.40733Q111.05187 154.86046 110.47375 155.12608Q109.89562 155.37608 109.16125 155.37608Q107.9425 155.37608 107.30187 154.87608Q106.67687 154.36046 106.505 153.37608ZM113.505 153.37608L114.53625 153.21983Q114.63 153.84483 115.02062 154.17296Q115.42687 154.50108 116.16125 154.50108Q116.88 154.50108 117.22375 154.21983Q117.58312 153.92296 117.58312 153.51671Q117.58312 153.15733 117.27062 152.95421Q117.05187 152.81358 116.1925 152.59483Q115.03625 152.29796 114.58312 152.09483Q114.14562 151.87608 113.91125 151.50108Q113.67687 151.12608 113.67687 150.65733Q113.67687 150.25108 113.86437 149.89171Q114.05187 149.53233 114.38 149.29796Q114.63 149.12608 115.05187 149.00108Q115.47375 148.87608 115.97375 148.87608Q116.6925 148.87608 117.23937 149.09483Q117.80187 149.29796 118.0675 149.65733Q118.33312 150.01671 118.42687 150.61046L117.39562 150.75108Q117.33312 150.28233 116.98937 150.01671Q116.66125 149.73546 116.03625 149.73546Q115.3175 149.73546 115.005 149.98546Q114.6925 150.21983 114.6925 150.54796Q114.6925 150.75108 114.8175 150.90733Q114.95812 151.07921 115.22375 151.18858Q115.38 151.25108 116.16125 151.45421Q117.28625 151.76671 117.72375 151.95421Q118.16125 152.14171 118.41125 152.50108Q118.66125 152.86046 118.66125 153.40733Q118.66125 153.93858 118.34875 154.40733Q118.05187 154.86046 117.47375 155.12608Q116.89562 155.37608 116.16125 155.37608Q114.9425 155.37608 114.30187 154.87608Q113.67687 154.36046 113.505 153.37608ZM120.53625 152.12608Q120.53625 150.39171 121.48937 149.56358Q122.28625 148.87608 123.4425 148.87608Q124.72375 148.87608 125.53625 149.71983Q126.36437 150.54796 126.36437 152.03233Q126.36437 153.23546 126.005 153.92296Q125.64562 154.61046 124.9425 155.00108Q124.255 155.37608 123.4425 155.37608Q122.14562 155.37608 121.33312 154.54796Q120.53625 153.70421 120.53625 152.12608ZM121.61437 152.12608Q121.61437 153.31358 122.13 153.90733Q122.66125 154.50108 123.4425 154.50108Q124.23937 154.50108 124.755 153.90733Q125.27062 153.31358 125.27062 152.09483Q125.27062 150.93858 124.73937 150.34483Q124.22375 149.75108 123.4425 149.75108Q122.66125 149.75108 122.13 150.34483Q121.61437 150.92296 121.61437 152.12608ZM127.91125 155.23546L127.91125 149.01671L128.86438 149.01671L128.86438 149.95421Q129.22375 149.29796 129.52063 149.09483Q129.83313 148.87608 130.20813 148.87608Q130.73938 148.87608 131.28625 149.20421L130.92688 150.18858Q130.53625 149.95421 130.16125 149.95421Q129.80188 149.95421 129.52063 150.17296Q129.255 150.37608 129.14563 150.75108Q128.95813 151.31358 128.95813 151.96983L128.95813 155.23546L127.91125 155.23546Z" fill-rule="nonzero"/><path fill="#000000" d="M32.083122 238.12288L32.083122 237.12288L35.708122 237.10725L35.708122 240.29475Q34.879997 240.96663 33.989372 241.31038Q33.098747 241.6385 32.161247 241.6385Q30.895624 241.6385 29.84875 241.10725Q28.8175 240.56038 28.28625 239.54475Q27.770624 238.5135 27.770624 237.24788Q27.770624 235.98225 28.28625 234.90413Q28.8175 233.81038 29.801874 233.29475Q30.78625 232.7635 32.067497 232.7635Q33.004997 232.7635 33.754997 233.06038Q34.504997 233.35725 34.926872 233.90413Q35.364372 234.43538 35.583122 235.31038L34.567497 235.59163Q34.364372 234.93538 34.067497 234.56038Q33.786247 234.18538 33.254997 233.96663Q32.723747 233.73225 32.083122 233.73225Q31.301874 233.73225 30.72375 233.96663Q30.16125 234.201 29.801874 234.59163Q29.458124 234.98225 29.270624 235.451Q28.9425 236.24788 28.9425 237.16975Q28.9425 238.326 29.333124 239.10725Q29.739374 239.87288 30.489374 240.24788Q31.239374 240.62288 32.098747 240.62288Q32.833122 240.62288 33.536247 240.34163Q34.239372 240.04475 34.598747 239.73225L34.598747 238.12288L32.083122 238.12288ZM36.911247 241.49788L36.911247 235.27913L37.864372 235.27913L37.864372 236.21663Q38.223747 235.56038 38.520622 235.35725Q38.833122 235.1385 39.208122 235.1385Q39.739372 235.1385 40.286247 235.46663L39.926872 236.451Q39.536247 236.21663 39.161247 236.21663Q38.801872 236.21663 38.520622 236.43538Q38.254997 236.6385 38.145622 237.0135Q37.958122 237.576 37.958122 238.23225L37.958122 241.49788L36.911247 241.49788ZM40.536247 238.3885Q40.536247 236.65413 41.489372 235.826Q42.286247 235.1385 43.442497 235.1385Q44.723747 235.1385 45.536247 235.98225Q46.364372 236.81038 46.364372 238.29475Q46.364372 239.49788 46.004997 240.18538Q45.645622 240.87288 44.942497 241.2635Q44.254997 241.6385 43.442497 241.6385Q42.145622 241.6385 41.333122 240.81038Q40.536247 239.96663 40.536247 238.3885ZM41.614372 238.3885Q41.614372 239.576 42.129997 240.16975Q42.661247 240.7635 43.442497 240.7635Q44.239372 240.7635 44.754997 240.16975Q45.270622 239.576 45.270622 238.35725Q45.270622 237.201 44.739372 236.60725Q44.223747 236.0135 43.442497 236.0135Q42.661247 236.0135 42.129997 236.60725Q41.614372 237.18538 41.614372 238.3885ZM52.004997 241.49788L52.004997 240.576Q51.270622 241.6385 50.020622 241.6385Q49.473747 241.6385 48.989372 241.43538Q48.520622 241.21663 48.286247 240.90413Q48.051872 240.576 47.958122 240.10725Q47.895622 239.81038 47.895622 239.12288L47.895622 235.27913L48.958122 235.27913L48.958122 238.73225Q48.958122 239.54475 49.020622 239.84163Q49.114372 240.24788 49.426872 240.49788Q49.754997 240.73225 50.239372 240.73225Q50.708122 240.73225 51.114372 240.49788Q51.536247 240.24788 51.708122 239.826Q51.895622 239.40413 51.895622 238.60725L51.895622 235.27913L52.942497 235.27913L52.942497 241.49788L52.004997 241.49788ZM54.926872 243.8885L54.926872 235.27913L55.879997 235.27913L55.879997 236.076Q56.223747 235.60725 56.645622 235.37288Q57.083122 235.1385 57.692497 235.1385Q58.489372 235.1385 59.098747 235.54475Q59.708122 235.951 60.004997 236.701Q60.317497 237.451 60.317497 238.34163Q60.317497 239.29475 59.973747 240.06038Q59.645622 240.826 58.989372 241.23225Q58.333122 241.6385 57.614372 241.6385Q57.083122 241.6385 56.661247 241.41975Q56.239372 241.18538 55.973747 240.85725L55.973747 243.8885L54.926872 243.8885ZM55.879997 238.41975Q55.879997 239.62288 56.364372 240.201Q56.848747 240.7635 57.536247 240.7635Q58.239372 240.7635 58.739372 240.16975Q59.239372 239.576 59.239372 238.326Q59.239372 237.1385 58.754997 236.56038Q58.270622 235.96663 57.583122 235.96663Q56.911247 235.96663 56.395622 236.59163Q55.879997 237.21663 55.879997 238.41975ZM62.004997 241.49788L62.004997 232.90413L65.23937 232.90413Q66.22375 232.90413 66.8175 233.16975Q67.41125 233.43538 67.73937 233.98225Q68.08312 234.5135 68.08312 235.10725Q68.08312 235.65413 67.78625 236.1385Q67.48937 236.62288 66.88 236.91975Q67.66125 237.15413 68.0675 237.71663Q68.48937 238.2635 68.48937 239.0135Q68.48937 239.60725 68.23937 240.1385Q67.98937 240.65413 67.61437 240.93538Q67.23937 241.21663 66.66125 241.35725Q66.09875 241.49788 65.28625 241.49788L62.004997 241.49788ZM63.145622 236.5135L65.005 236.5135Q65.755 236.5135 66.08312 236.41975Q66.52062 236.29475 66.73937 235.99788Q66.95812 235.68538 66.95812 235.23225Q66.95812 234.81038 66.755 234.48225Q66.55187 234.15413 66.16125 234.04475Q65.78625 233.91975 64.86437 233.91975L63.145622 233.91975L63.145622 236.5135ZM63.145622 240.48225L65.28625 240.48225Q65.83312 240.48225 66.05187 240.43538Q66.45812 240.37288 66.70812 240.21663Q66.97375 240.04475 67.14562 239.73225Q67.3175 239.41975 67.3175 239.0135Q67.3175 238.52913 67.0675 238.16975Q66.83312 237.81038 66.39562 237.66975Q65.95812 237.52913 65.13 237.52913L63.145622 237.52913L63.145622 240.48225ZM69.88 243.8885L69.755 242.90413Q70.09875 242.99788 70.36437 242.99788Q70.70812 242.99788 70.91125 242.87288Q71.13 242.7635 71.27062 242.56038Q71.36437 242.3885 71.59875 241.7635Q71.61437 241.68538 71.6925 241.5135L69.3175 235.27913L70.45812 235.27913L71.755 238.87288Q72.005 239.56038 72.20812 240.326Q72.39562 239.59163 72.64562 238.90413L73.97375 235.27913L75.02062 235.27913L72.66125 241.60725Q72.27062 242.62288 72.0675 243.0135Q71.78625 243.54475 71.41125 243.77913Q71.05187 244.02913 70.55187 244.02913Q70.255 244.02913 69.88 243.8885ZM77.70812 237.31038Q77.70812 235.16975 78.84875 233.96663Q80.005 232.74788 81.8175 232.74788Q83.02062 232.74788 83.97375 233.326Q84.92687 233.8885 85.42687 234.90413Q85.92687 235.91975 85.92687 237.21663Q85.92687 238.5135 85.39562 239.54475Q84.86437 240.576 83.89562 241.10725Q82.9425 241.6385 81.8175 241.6385Q80.59875 241.6385 79.64562 241.06038Q78.6925 240.46663 78.1925 239.46663Q77.70812 238.451 77.70812 237.31038ZM78.88 237.326Q78.88 238.8885 79.70812 239.77913Q80.55187 240.66975 81.8175 240.66975Q83.09875 240.66975 83.92687 239.77913Q84.755 238.87288 84.755 237.201Q84.755 236.15413 84.39562 235.37288Q84.05187 234.59163 83.36437 234.16975Q82.67687 233.73225 81.83312 233.73225Q80.63 233.73225 79.755 234.56038Q78.88 235.3885 78.88 237.326ZM86.92687 243.8885L86.92687 235.27913L87.88 235.27913L87.88 236.076Q88.22375 235.60725 88.64562 235.37288Q89.08312 235.1385 89.6925 235.1385Q90.48937 235.1385 91.09875 235.54475Q91.70812 235.951 92.005 236.701Q92.3175 237.451 92.3175 238.34163Q92.3175 239.29475 91.97375 240.06038Q91.64562 240.826 90.98937 241.23225Q90.33312 241.6385 89.61437 241.6385Q89.08312 241.6385 88.66125 241.41975Q88.23937 241.18538 87.97375 240.85725L87.97375 243.8885L86.92687 243.8885ZM87.88 238.41975Q87.88 239.62288 88.36437 240.201Q88.84875 240.7635 89.53625 240.7635Q90.23937 240.7635 90.73937 240.16975Q91.23937 239.576 91.23937 238.326Q91.23937 237.1385 90.755 236.56038Q90.27062 235.96663 89.58312 235.96663Q88.91125 235.96663 88.39562 236.59163Q87.88 237.21663 87.88 238.41975ZM98.17687 239.49788L99.27062 239.62288Q99.02062 240.576 98.3175 241.10725Q97.61437 241.6385 96.53625 241.6385Q95.17687 241.6385 94.36437 240.79475Q93.5675 239.951 93.5675 238.43538Q93.5675 236.87288 94.38 236.0135Q95.1925 235.1385 96.47375 235.1385Q97.72375 235.1385 98.505 235.98225Q99.30187 236.826 99.30187 238.37288Q99.30187 238.46663 99.30187 238.65413L94.66125 238.65413Q94.72375 239.68538 95.23937 240.23225Q95.755 240.7635 96.53625 240.7635Q97.11437 240.7635 97.52062 240.46663Q97.9425 240.15413 98.17687 239.49788ZM94.72375 237.79475L98.1925 237.79475Q98.13 236.99788 97.80187 236.60725Q97.28625 235.99788 96.48937 235.99788Q95.755 235.99788 95.255 236.48225Q94.77062 236.96663 94.72375 237.79475ZM100.91125 241.49788L100.91125 235.27913L101.86437 235.27913L101.86437 236.21663Q102.22375 235.56038 102.52062 235.35725Q102.83312 235.1385 103.20812 235.1385Q103.73937 235.1385 104.28625 235.46663L103.92687 236.451Q103.53625 236.21663 103.16125 236.21663Q102.80187 236.21663 102.52062 236.43538Q102.255 236.6385 102.14562 237.0135Q101.95812 237.576 101.95812 238.23225L101.95812 241.49788L100.91125 241.49788ZM108.98937 240.73225Q108.39562 241.23225 107.84875 241.43538Q107.3175 241.6385 106.6925 241.6385Q105.66125 241.6385 105.11437 241.1385Q104.5675 240.6385 104.5675 239.85725Q104.5675 239.40413 104.77062 239.02913Q104.97375 238.6385 105.3175 238.41975Q105.66125 238.18538 106.08312 238.076Q106.38 237.98225 107.02062 237.90413Q108.28625 237.7635 108.89562 237.54475Q108.89562 237.326 108.89562 237.27913Q108.89562 236.62288 108.59875 236.35725Q108.1925 236.0135 107.39562 236.0135Q106.66125 236.0135 106.30187 236.27913Q105.9425 236.52913 105.77062 237.18538L104.73937 237.04475Q104.88 236.3885 105.20812 235.98225Q105.53625 235.576 106.14562 235.35725Q106.755 235.1385 107.55187 235.1385Q108.34875 235.1385 108.84875 235.326Q109.34875 235.5135 109.58312 235.79475Q109.8175 236.076 109.91125 236.5135Q109.95812 236.77913 109.95812 237.48225L109.95812 238.8885Q109.95812 240.35725 110.02062 240.74788Q110.09875 241.1385 110.30187 241.49788L109.1925 241.49788Q109.03625 241.16975 108.98937 240.73225ZM108.89562 238.37288Q108.3175 238.60725 107.17687 238.77913Q106.52062 238.87288 106.255 238.99788Q105.98937 239.10725 105.83312 239.326Q105.6925 239.54475 105.6925 239.826Q105.6925 240.24788 106.005 240.52913Q106.33312 240.81038 106.9425 240.81038Q107.55187 240.81038 108.02062 240.54475Q108.505 240.27913 108.72375 239.81038Q108.89562 239.451 108.89562 238.7635L108.89562 238.37288ZM114.22375 240.56038L114.38 241.48225Q113.92687 241.576 113.58312 241.576Q113.005 241.576 112.6925 241.40413Q112.38 241.21663 112.23937 240.91975Q112.11437 240.62288 112.11437 239.66975L112.11437 236.09163L111.34875 236.09163L111.34875 235.27913L112.11437 235.27913L112.11437 233.73225L113.16125 233.10725L113.16125 235.27913L114.22375 235.27913L114.22375 236.09163L113.16125 236.09163L113.16125 239.73225Q113.16125 240.18538 113.20812 240.31038Q113.27062 240.43538 113.39562 240.5135Q113.52062 240.59163 113.755 240.59163Q113.9425 240.59163 114.22375 240.56038ZM114.92687 234.12288L114.92687 232.90413L115.98937 232.90413L115.98937 234.12288L114.92687 234.12288ZM114.92687 241.49788L114.92687 235.27913L115.98937 235.27913L115.98937 241.49788L114.92687 241.49788ZM117.53625 238.3885Q117.53625 236.65413 118.48937 235.826Q119.28625 235.1385 120.4425 235.1385Q121.72375 235.1385 122.53625 235.98225Q123.36437 236.81038 123.36437 238.29475Q123.36437 239.49788 123.005 240.18538Q122.64562 240.87288 121.9425 241.2635Q121.255 241.6385 120.4425 241.6385Q119.14562 241.6385 118.33312 240.81038Q117.53625 239.96663 117.53625 238.3885ZM118.61437 238.3885Q118.61437 239.576 119.13 240.16975Q119.66125 240.7635 120.4425 240.7635Q121.23937 240.7635 121.755 240.16975Q122.27062 239.576 122.27062 238.35725Q122.27062 237.201 121.73937 236.60725Q121.22375 236.0135 120.4425 236.0135Q119.66125 236.0135 119.13 236.60725Q118.61437 237.18538 118.61437 238.3885ZM124.92687 241.49788L124.92687 235.27913L125.86437 235.27913L125.86437 236.15413Q126.55187 235.1385 127.84875 235.1385Q128.41125 235.1385 128.88 235.34163Q129.36438 235.54475 129.59875 235.87288Q129.83313 236.201 129.92688 236.6385Q129.97375 236.93538 129.97375 237.66975L129.97375 241.49788L128.92688 241.49788L128.92688 237.71663Q128.92688 237.06038 128.80188 236.74788Q128.67688 236.43538 128.36438 236.24788Q128.05188 236.04475 127.63 236.04475Q126.95812 236.04475 126.45812 236.48225Q125.97375 236.90413 125.97375 238.09163L125.97375 241.49788L124.92687 241.49788Z" fill-rule="nonzero"/><path fill="#000000" d="M134.13 313.21564Q134.13 311.6844 134.4425 310.7625Q134.755 309.825 135.36438 309.325Q135.98938 308.825 136.92688 308.825Q137.61438 308.825 138.13 309.10626Q138.66125 309.3875 139.005 309.91876Q139.34875 310.4344 139.53625 311.1844Q139.72375 311.9344 139.72375 313.21564Q139.72375 314.73126 139.41125 315.65314Q139.11438 316.575 138.48938 317.09064Q137.88 317.59064 136.92688 317.59064Q135.6925 317.59064 134.97375 316.7Q134.13 315.6375 134.13 313.21564ZM135.20813 313.21564Q135.20813 315.325 135.70813 316.02814Q136.20813 316.73126 136.92688 316.73126Q137.66125 316.73126 138.14563 316.02814Q138.64563 315.325 138.64563 313.21564Q138.64563 311.09064 138.14563 310.40314Q137.66125 309.7 136.91125 309.7Q136.1925 309.7 135.755 310.3094Q135.20813 311.09064 135.20813 313.21564Z" fill-rule="nonzero"/><path fill="#000000" d="M282.23666 315.2L283.34604 315.10626Q283.47104 315.91876 283.90854 316.325Q284.36166 316.73126 285.0023 316.73126Q285.7523 316.73126 286.28354 316.15314Q286.8148 315.575 286.8148 314.6375Q286.8148 313.73126 286.29916 313.21564Q285.79916 312.6844 284.97104 312.6844Q284.47104 312.6844 284.04916 312.91876Q283.6429 313.15314 283.40854 313.5125L282.42416 313.3875L283.2523 308.98126L287.53354 308.98126L287.53354 309.98126L284.09604 309.98126L283.6429 312.29376Q284.40854 311.7469 285.2523 311.7469Q286.3773 311.7469 287.1429 312.52814Q287.92416 313.3094 287.92416 314.54376Q287.92416 315.7 287.2523 316.5594Q286.42416 317.59064 285.0023 317.59064Q283.8304 317.59064 283.0804 316.9344Q282.34604 316.27814 282.23666 315.2Z" fill-rule="nonzero"/><path fill="#000000" d="M430.81207 317.45L429.7652 317.45L429.7652 310.73126Q429.37457 311.09064 428.74957 311.46564Q428.1402 311.825 427.65582 311.9969L427.65582 310.98126Q428.53082 310.5594 429.18707 309.98126Q429.85895 309.3875 430.1402 308.825L430.81207 308.825L430.81207 317.45ZM433.84332 313.21564Q433.84332 311.6844 434.15582 310.7625Q434.46832 309.825 435.0777 309.325Q435.7027 308.825 436.6402 308.825Q437.3277 308.825 437.84332 309.10626Q438.37457 309.3875 438.71832 309.91876Q439.06207 310.4344 439.24957 311.1844Q439.43707 311.9344 439.43707 313.21564Q439.43707 314.73126 439.12457 315.65314Q438.8277 316.575 438.2027 317.09064Q437.59332 317.59064 436.6402 317.59064Q435.40582 317.59064 434.68707 316.7Q433.84332 315.6375 433.84332 313.21564ZM434.92145 313.21564Q434.92145 315.325 435.42145 316.02814Q435.92145 316.73126 436.6402 316.73126Q437.37457 316.73126 437.85895 316.02814Q438.35895 315.325 438.35895 313.21564Q438.35895 311.09064 437.85895 310.40314Q437.37457 309.7 436.62457 309.7Q435.90582 309.7 435.46832 310.3094Q434.92145 311.09064 434.92145 313.21564Z" fill-rule="nonzero"/><path fill="#000000" d="M578.91876 317.45L577.8719 317.45L577.8719 310.73126Q577.48126 311.09064 576.85626 311.46564Q576.2469 311.825 575.7625 311.9969L575.7625 310.98126Q576.6375 310.5594 577.29376 309.98126Q577.96564 309.3875 578.2469 308.825L578.91876 308.825L578.91876 317.45ZM581.95 315.2L583.0594 315.10626Q583.1844 315.91876 583.6219 316.325Q584.075 316.73126 584.71564 316.73126Q585.46564 316.73126 585.9969 316.15314Q586.52814 315.575 586.52814 314.6375Q586.52814 313.73126 586.0125 313.21564Q585.5125 312.6844 584.6844 312.6844Q584.1844 312.6844 583.7625 312.91876Q583.35626 313.15314 583.1219 313.5125L582.1375 313.3875L582.96564 308.98126L587.2469 308.98126L587.2469 309.98126L583.8094 309.98126L583.35626 312.29376Q584.1219 311.7469 584.96564 311.7469Q586.09064 311.7469 586.85626 312.52814Q587.6375 313.3094 587.6375 314.54376Q587.6375 315.7 586.96564 316.5594Q586.1375 317.59064 584.71564 317.59064Q583.54376 317.59064 582.79376 316.9344Q582.0594 316.27814 581.95 315.2Z" fill-rule="nonzero"/><path fill="#6d9eeb" d="M196.0 56.916668C196.0 56.364384 196.44771 55.916668 197.0 55.916668L207.0 55.916668C207.55229 55.916668 208.0 56.364384 208.0 56.916668L208.0 66.916664C208.0 67.46895 207.55229 67.916664 207.0 67.916664L197.0 67.916664C196.44771 67.916664 196.0 67.46895 196.0 66.916664Z" fill-rule="nonzero"/><path fill="#1a1a1a" d="M216.57812 61.729164Q216.57812 59.58854 217.71875 58.385414Q218.875 57.166664 220.6875 57.166664Q221.89062 57.166664 222.84375 57.74479Q223.79688 58.30729 224.29688 59.322914Q224.79688 60.33854 224.79688 61.635414Q224.79688 62.93229 224.26562 63.96354Q223.73438 64.99479 222.76562 65.52604Q221.8125 66.05729 220.6875 66.05729Q219.46875 66.05729 218.51562 65.479164Q217.5625 64.885414 217.0625 63.885414Q216.57812 62.86979 216.57812 61.729164ZM217.75 61.74479Q217.75 63.30729 218.57812 64.197914Q219.42188 65.08854 220.6875 65.08854Q221.96875 65.08854 222.79688 64.197914Q223.625 63.291664 223.625 61.61979Q223.625 60.572914 223.26562 59.791664Q222.92188 59.010414 222.23438 58.58854Q221.54688 58.15104 220.70312 58.15104Q219.5 58.15104 218.625 58.979164Q217.75 59.80729 217.75 61.74479ZM226.76562 65.916664L225.78125 65.916664L225.78125 57.322914L226.84375 57.322914L226.84375 60.385414Q227.51562 59.55729 228.54688 59.55729Q229.125 59.55729 229.625 59.791664Q230.14062 60.010414 230.46875 60.43229Q230.8125 60.854164 231.0 61.447914Q231.1875 62.041664 231.1875 62.71354Q231.1875 64.30729 230.39062 65.18229Q229.59375 66.05729 228.5 66.05729Q227.39062 66.05729 226.76562 65.135414L226.76562 65.916664ZM226.75 62.760414Q226.75 63.86979 227.0625 64.36979Q227.5625 65.18229 228.40625 65.18229Q229.09375 65.18229 229.59375 64.58854Q230.10938 63.99479 230.10938 62.791664Q230.10938 61.572914 229.625 60.99479Q229.14062 60.416664 228.45312 60.416664Q227.76562 60.416664 227.25 61.02604Q226.75 61.61979 226.75 62.760414ZM232.78125 58.55729L232.78125 57.322914L233.84375 57.322914L233.84375 58.55729L232.78125 58.55729ZM231.45312 68.33854L231.64062 67.43229Q231.96875 67.510414 232.14062 67.510414Q232.46875 67.510414 232.625 67.291664Q232.78125 67.08854 232.78125 66.229164L232.78125 59.697914L233.84375 59.697914L233.84375 66.260414Q233.84375 67.40104 233.54688 67.854164Q233.15625 68.447914 232.28125 68.447914Q231.84375 68.447914 231.45312 68.33854ZM240.04688 63.916664L241.14062 64.041664Q240.89062 64.99479 240.1875 65.52604Q239.48438 66.05729 238.40625 66.05729Q237.04688 66.05729 236.23438 65.21354Q235.4375 64.36979 235.4375 62.854164Q235.4375 61.291664 236.25 60.43229Q237.0625 59.55729 238.34375 59.55729Q239.59375 59.55729 240.375 60.40104Q241.17188 61.24479 241.17188 62.791664Q241.17188 62.885414 241.17188 63.072914L236.53125 63.072914Q236.59375 64.104164 237.10938 64.65104Q237.625 65.18229 238.40625 65.18229Q238.98438 65.18229 239.39062 64.885414Q239.8125 64.572914 240.04688 63.916664ZM236.59375 62.21354L240.0625 62.21354Q240.0 61.416664 239.67188 61.02604Q239.15625 60.416664 238.35938 60.416664Q237.625 60.416664 237.125 60.90104Q236.64062 61.385414 236.59375 62.21354ZM246.85938 63.635414L247.89062 63.77604Q247.71875 64.83854 247.01562 65.447914Q246.3125 66.05729 245.29688 66.05729Q244.01562 66.05729 243.23438 65.229164Q242.46875 64.385414 242.46875 62.822914Q242.46875 61.822914 242.79688 61.072914Q243.14062 60.30729 243.8125 59.93229Q244.5 59.55729 245.3125 59.55729Q246.3125 59.55729 246.95312 60.072914Q247.60938 60.572914 247.79688 61.52604L246.76562 61.68229Q246.625 61.05729 246.25 60.74479Q245.875 60.416664 245.34375 60.416664Q244.54688 60.416664 244.04688 60.99479Q243.54688 61.55729 243.54688 62.791664Q243.54688 64.05729 244.03125 64.61979Q244.51562 65.18229 245.28125 65.18229Q245.90625 65.18229 246.3125 64.80729Q246.73438 64.43229 246.85938 63.635414ZM251.09375 64.979164L251.25 65.90104Q250.79688 65.99479 250.45312 65.99479Q249.875 65.99479 249.5625 65.822914Q249.25 65.635414 249.10938 65.33854Q248.98438 65.041664 248.98438 64.08854L248.98438 60.510414L248.21875 60.510414L248.21875 59.697914L248.98438 59.697914L248.98438 58.15104L250.03125 57.52604L250.03125 59.697914L251.09375 59.697914L251.09375 60.510414L250.03125 60.510414L250.03125 64.15104Q250.03125 64.604164 250.07812 64.729164Q250.14062 64.854164 250.26562 64.93229Q250.39062 65.010414 250.625 65.010414Q250.8125 65.010414 251.09375 64.979164ZM258.82812 65.916664L258.82812 65.135414Q258.23438 66.05729 257.09375 66.05729Q256.34375 66.05729 255.71875 65.65104Q255.09375 65.229164 254.75 64.49479Q254.40625 63.760414 254.40625 62.80729Q254.40625 61.885414 254.71875 61.11979Q255.03125 60.354164 255.65625 59.96354Q256.28125 59.55729 257.04688 59.55729Q257.60938 59.55729 258.04688 59.791664Q258.48438 60.02604 258.76562 60.40104L258.76562 57.322914L259.8125 57.322914L259.8125 65.916664L258.82812 65.916664ZM255.5 62.80729Q255.5 64.010414 256.0 64.604164Q256.5 65.18229 257.1875 65.18229Q257.875 65.18229 258.35938 64.61979Q258.84375 64.05729 258.84375 62.90104Q258.84375 61.61979 258.34375 61.02604Q257.85938 60.43229 257.14062 60.43229Q256.4375 60.43229 255.96875 61.010414Q255.5 61.572914 255.5 62.80729ZM264.09375 64.979164L264.25 65.90104Q263.79688 65.99479 263.45312 65.99479Q262.875 65.99479 262.5625 65.822914Q262.25 65.635414 262.10938 65.33854Q261.98438 65.041664 261.98438 64.08854L261.98438 60.510414L261.21875 60.510414L261.21875 59.697914L261.98438 59.697914L261.98438 58.15104L263.03125 57.52604L263.03125 59.697914L264.09375 59.697914L264.09375 60.510414L263.03125 60.510414L263.03125 64.15104Q263.03125 64.604164 263.07812 64.729164Q263.14062 64.854164 263.26562 64.93229Q263.39062 65.010414 263.625 65.010414Q263.8125 65.010414 264.09375 64.979164ZM264.75 68.30729L264.625 67.322914Q264.96875 67.416664 265.23438 67.416664Q265.57812 67.416664 265.78125 67.291664Q266.0 67.18229 266.14062 66.979164Q266.23438 66.80729 266.46875 66.18229Q266.48438 66.104164 266.5625 65.93229L264.1875 59.697914L265.32812 59.697914L266.625 63.291664Q266.875 63.979164 267.07812 64.74479Q267.26562 64.010414 267.51562 63.322914L268.84375 59.697914L269.89062 59.697914L267.53125 66.02604Q267.14062 67.041664 266.9375 67.43229Q266.65625 67.96354 266.28125 68.197914Q265.92188 68.447914 265.42188 68.447914Q265.125 68.447914 264.75 68.30729ZM269.79688 68.30729L269.79688 59.697914L270.75 59.697914L270.75 60.49479Q271.09375 60.02604 271.51562 59.791664Q271.95312 59.55729 272.5625 59.55729Q273.35938 59.55729 273.96875 59.96354Q274.57812 60.36979 274.875 61.11979Q275.1875 61.86979 275.1875 62.760414Q275.1875 63.71354 274.84375 64.479164Q274.51562 65.24479 273.85938 65.65104Q273.20312 66.05729 272.48438 66.05729Q271.95312 66.05729 271.53125 65.83854Q271.10938 65.604164 270.84375 65.27604L270.84375 68.30729L269.79688 68.30729ZM270.75 62.83854Q270.75 64.041664 271.23438 64.61979Q271.71875 65.18229 272.40625 65.18229Q273.10938 65.18229 273.60938 64.58854Q274.10938 63.99479 274.10938 62.74479Q274.10938 61.55729 273.625 60.979164Q273.14062 60.385414 272.45312 60.385414Q271.78125 60.385414 271.26562 61.010414Q270.75 61.635414 270.75 62.83854ZM281.04688 63.916664L282.14062 64.041664Q281.89062 64.99479 281.1875 65.52604Q280.48438 66.05729 279.40625 66.05729Q278.04688 66.05729 277.23438 65.21354Q276.4375 64.36979 276.4375 62.854164Q276.4375 61.291664 277.25 60.43229Q278.0625 59.55729 279.34375 59.55729Q280.59375 59.55729 281.375 60.40104Q282.17188 61.24479 282.17188 62.791664Q282.17188 62.885414 282.17188 63.072914L277.53125 63.072914Q277.59375 64.104164 278.10938 64.65104Q278.625 65.18229 279.40625 65.18229Q279.98438 65.18229 280.39062 64.885414Q280.8125 64.572914 281.04688 63.916664ZM277.59375 62.21354L281.0625 62.21354Q281.0 61.416664 280.67188 61.02604Q280.15625 60.416664 279.35938 60.416664Q278.625 60.416664 278.125 60.90104Q277.64062 61.385414 277.59375 62.21354Z" fill-rule="nonzero"/><path fill="#1155cc" d="M299.0 56.916668C299.0 56.364384 299.44772 55.916668 300.0 55.916668L310.0 55.916668C310.55228 55.916668 311.0 56.364384 311.0 56.916668L311.0 66.916664C311.0 67.46895 310.55228 67.916664 310.0 67.916664L300.0 67.916664C299.44772 67.916664 299.0 67.46895 299.0 66.916664Z" fill-rule="nonzero"/><path fill="#1a1a1a" d="M319.92188 65.916664L319.92188 57.322914L323.17188 57.322914Q324.01562 57.322914 324.46875 57.40104Q325.10938 57.510414 325.53125 57.80729Q325.96875 58.104164 326.21875 58.635414Q326.48438 59.166664 326.48438 59.80729Q326.48438 60.90104 325.78125 61.666664Q325.09375 62.416664 323.26562 62.416664L321.0625 62.416664L321.0625 65.916664L319.92188 65.916664ZM321.0625 61.416664L323.28125 61.416664Q324.39062 61.416664 324.84375 61.010414Q325.3125 60.58854 325.3125 59.83854Q325.3125 59.30729 325.03125 58.93229Q324.76562 58.541664 324.32812 58.416664Q324.03125 58.33854 323.26562 58.33854L321.0625 58.33854L321.0625 61.416664ZM327.75 68.30729L327.625 67.322914Q327.96875 67.416664 328.23438 67.416664Q328.57812 67.416664 328.78125 67.291664Q329.0 67.18229 329.14062 66.979164Q329.23438 66.80729 329.46875 66.18229Q329.48438 66.104164 329.5625 65.93229L327.1875 59.697914L328.32812 59.697914L329.625 63.291664Q329.875 63.979164 330.07812 64.74479Q330.26562 64.010414 330.51562 63.322914L331.84375 59.697914L332.89062 59.697914L330.53125 66.02604Q330.14062 67.041664 329.9375 67.43229Q329.65625 67.96354 329.28125 68.197914Q328.92188 68.447914 328.42188 68.447914Q328.125 68.447914 327.75 68.30729ZM331.98438 65.916664L335.28125 57.322914L336.5 57.322914L340.01562 65.916664L338.73438 65.916664L337.71875 63.30729L334.14062 63.30729L333.1875 65.916664L331.98438 65.916664ZM334.46875 62.385414L337.375 62.385414L336.48438 60.010414Q336.0625 58.93229 335.875 58.229164Q335.70312 59.05729 335.40625 59.86979L334.46875 62.385414ZM339.78125 65.916664L339.78125 59.697914L340.73438 59.697914L340.73438 60.635414Q341.09375 59.979164 341.39062 59.77604Q341.70312 59.55729 342.07812 59.55729Q342.60938 59.55729 343.15625 59.885414L342.79688 60.86979Q342.40625 60.635414 342.03125 60.635414Q341.67188 60.635414 341.39062 60.854164Q341.125 61.05729 341.01562 61.43229Q340.82812 61.99479 340.82812 62.65104L340.82812 65.916664L339.78125 65.916664ZM343.78125 65.916664L343.78125 59.697914L344.73438 59.697914L344.73438 60.635414Q345.09375 59.979164 345.39062 59.77604Q345.70312 59.55729 346.07812 59.55729Q346.60938 59.55729 347.15625 59.885414L346.79688 60.86979Q346.40625 60.635414 346.03125 60.635414Q345.67188 60.635414 345.39062 60.854164Q345.125 61.05729 345.01562 61.43229Q344.82812 61.99479 344.82812 62.65104L344.82812 65.916664L343.78125 65.916664ZM347.40625 62.80729Q347.40625 61.072914 348.35938 60.24479Q349.15625 59.55729 350.3125 59.55729Q351.59375 59.55729 352.40625 60.40104Q353.23438 61.229164 353.23438 62.71354Q353.23438 63.916664 352.875 64.604164Q352.51562 65.291664 351.8125 65.68229Q351.125 66.05729 350.3125 66.05729Q349.01562 66.05729 348.20312 65.229164Q347.40625 64.385414 347.40625 62.80729ZM348.48438 62.80729Q348.48438 63.99479 349.0 64.58854Q349.53125 65.18229 350.3125 65.18229Q351.10938 65.18229 351.625 64.58854Q352.14062 63.99479 352.14062 62.77604Q352.14062 61.61979 351.60938 61.02604Q351.09375 60.43229 350.3125 60.43229Q349.53125 60.43229 349.0 61.02604Q348.48438 61.604164 348.48438 62.80729ZM355.9375 65.916664L354.03125 59.697914L355.125 59.697914L356.10938 63.291664L356.48438 64.61979Q356.51562 64.52604 356.8125 63.33854L357.79688 59.697914L358.875 59.697914L359.8125 63.30729L360.125 64.49479L360.48438 63.291664L361.54688 59.697914L362.57812 59.697914L360.625 65.916664L359.53125 65.916664L358.54688 62.18229L358.29688 61.135414L357.04688 65.916664L355.9375 65.916664ZM366.375 64.05729L367.40625 63.90104Q367.5 64.52604 367.89062 64.854164Q368.29688 65.18229 369.03125 65.18229Q369.75 65.18229 370.09375 64.90104Q370.45312 64.604164 370.45312 64.197914Q370.45312 63.83854 370.14062 63.635414Q369.92188 63.49479 369.0625 63.27604Q367.90625 62.979164 367.45312 62.77604Q367.01562 62.55729 366.78125 62.18229Q366.54688 61.80729 366.54688 61.33854Q366.54688 60.93229 366.73438 60.572914Q366.92188 60.21354 367.25 59.979164Q367.5 59.80729 367.92188 59.68229Q368.34375 59.55729 368.84375 59.55729Q369.5625 59.55729 370.10938 59.77604Q370.67188 59.979164 370.9375 60.33854Q371.20312 60.697914 371.29688 61.291664L370.26562 61.43229Q370.20312 60.96354 369.85938 60.697914Q369.53125 60.416664 368.90625 60.416664Q368.1875 60.416664 367.875 60.666664Q367.5625 60.90104 367.5625 61.229164Q367.5625 61.43229 367.6875 61.58854Q367.82812 61.760414 368.09375 61.86979Q368.25 61.93229 369.03125 62.135414Q370.15625 62.447914 370.59375 62.635414Q371.03125 62.822914 371.28125 63.18229Q371.53125 63.541664 371.53125 64.08854Q371.53125 64.61979 371.21875 65.08854Q370.92188 65.541664 370.34375 65.80729Q369.76562 66.05729 369.03125 66.05729Q367.8125 66.05729 367.17188 65.55729Q366.54688 65.041664 366.375 64.05729ZM376.09375 64.979164L376.25 65.90104Q375.79688 65.99479 375.45312 65.99479Q374.875 65.99479 374.5625 65.822914Q374.25 65.635414 374.10938 65.33854Q373.98438 65.041664 373.98438 64.08854L373.98438 60.510414L373.21875 60.510414L373.21875 59.697914L373.98438 59.697914L373.98438 58.15104L375.03125 57.52604L375.03125 59.697914L376.09375 59.697914L376.09375 60.510414L375.03125 60.510414L375.03125 64.15104Q375.03125 64.604164 375.07812 64.729164Q375.14062 64.854164 375.26562 64.93229Q375.39062 65.010414 375.625 65.010414Q375.8125 65.010414 376.09375 64.979164ZM376.78125 65.916664L376.78125 59.697914L377.73438 59.697914L377.73438 60.635414Q378.09375 59.979164 378.39062 59.77604Q378.70312 59.55729 379.07812 59.55729Q379.60938 59.55729 380.15625 59.885414L379.79688 60.86979Q379.40625 60.635414 379.03125 60.635414Q378.67188 60.635414 378.39062 60.854164Q378.125 61.05729 378.01562 61.43229Q377.82812 61.99479 377.82812 62.65104L377.82812 65.916664L376.78125 65.916664ZM380.79688 58.541664L380.79688 57.322914L381.85938 57.322914L381.85938 58.541664L380.79688 58.541664ZM380.79688 65.916664L380.79688 59.697914L381.85938 59.697914L381.85938 65.916664L380.79688 65.916664ZM383.79688 65.916664L383.79688 59.697914L384.73438 59.697914L384.73438 60.572914Q385.42188 59.55729 386.71875 59.55729Q387.28125 59.55729 387.75 59.760414Q388.23438 59.96354 388.46875 60.291664Q388.70312 60.61979 388.79688 61.05729Q388.84375 61.354164 388.84375 62.08854L388.84375 65.916664L387.79688 65.916664L387.79688 62.135414Q387.79688 61.479164 387.67188 61.166664Q387.54688 60.854164 387.23438 60.666664Q386.92188 60.46354 386.5 60.46354Q385.82812 60.46354 385.32812 60.90104Q384.84375 61.322914 384.84375 62.510414L384.84375 65.916664L383.79688 65.916664ZM390.59375 66.43229L391.625 66.58854Q391.6875 67.05729 391.98438 67.27604Q392.375 67.572914 393.04688 67.572914Q393.78125 67.572914 394.17188 67.27604Q394.57812 66.979164 394.71875 66.46354Q394.8125 66.135414 394.79688 65.104164Q394.10938 65.916664 393.07812 65.916664Q391.79688 65.916664 391.09375 64.99479Q390.39062 64.05729 390.39062 62.77604Q390.39062 61.885414 390.70312 61.135414Q391.03125 60.36979 391.64062 59.96354Q392.25 59.55729 393.07812 59.55729Q394.1875 59.55729 394.90625 60.447914L394.90625 59.697914L395.875 59.697914L395.875 65.072914Q395.875 66.52604 395.57812 67.135414Q395.28125 67.74479 394.64062 68.08854Q394.0 68.447914 393.0625 68.447914Q391.95312 68.447914 391.26562 67.947914Q390.57812 67.447914 390.59375 66.43229ZM391.46875 62.697914Q391.46875 63.916664 391.95312 64.479164Q392.4375 65.041664 393.17188 65.041664Q393.90625 65.041664 394.39062 64.479164Q394.89062 63.916664 394.89062 62.729164Q394.89062 61.58854 394.375 61.010414Q393.875 60.43229 393.15625 60.43229Q392.45312 60.43229 391.95312 61.010414Q391.46875 61.572914 391.46875 62.697914ZM397.375 64.05729L398.40625 63.90104Q398.5 64.52604 398.89062 64.854164Q399.29688 65.18229 400.03125 65.18229Q400.75 65.18229 401.09375 64.90104Q401.45312 64.604164 401.45312 64.197914Q401.45312 63.83854 401.14062 63.635414Q400.92188 63.49479 400.0625 63.27604Q398.90625 62.979164 398.45312 62.77604Q398.01562 62.55729 397.78125 62.18229Q397.54688 61.80729 397.54688 61.33854Q397.54688 60.93229 397.73438 60.572914Q397.92188 60.21354 398.25 59.979164Q398.5 59.80729 398.92188 59.68229Q399.34375 59.55729 399.84375 59.55729Q400.5625 59.55729 401.10938 59.77604Q401.67188 59.979164 401.9375 60.33854Q402.20312 60.697914 402.29688 61.291664L401.26562 61.43229Q401.20312 60.96354 400.85938 60.697914Q400.53125 60.416664 399.90625 60.416664Q399.1875 60.416664 398.875 60.666664Q398.5625 60.90104 398.5625 61.229164Q398.5625 61.43229 398.6875 61.58854Q398.82812 61.760414 399.09375 61.86979Q399.25 61.93229 400.03125 62.135414Q401.15625 62.447914 401.59375 62.635414Q402.03125 62.822914 402.28125 63.18229Q402.53125 63.541664 402.53125 64.08854Q402.53125 64.61979 402.21875 65.08854Q401.92188 65.541664 401.34375 65.80729Q400.76562 66.05729 400.03125 66.05729Q398.8125 66.05729 398.17188 65.55729Q397.54688 65.041664 397.375 64.05729Z" fill-rule="nonzero"/><path fill="#757575" d="M20.096874 37.55L20.096874 23.2375L25.4875 23.2375Q26.925 23.2375 27.675 23.3625Q28.721874 23.55 29.440624 24.05Q30.159374 24.534374 30.58125 25.425Q31.01875 26.315624 31.01875 27.378124Q31.01875 29.20625 29.846874 30.471874Q28.690624 31.721874 25.659374 31.721874L21.9875 31.721874L21.9875 37.55L20.096874 37.55ZM21.9875 30.034374L25.690624 30.034374Q27.51875 30.034374 28.284374 29.3625Q29.065624 28.675 29.065624 27.425Q29.065624 26.534374 28.6125 25.89375Q28.159374 25.253124 27.425 25.05Q26.940624 24.925 25.64375 24.925L21.9875 24.925L21.9875 30.034374ZM39.971874 34.20625L41.784374 34.440624Q41.3625 36.01875 40.190624 36.909374Q39.034374 37.784374 37.221874 37.784374Q34.95625 37.784374 33.6125 36.39375Q32.284374 34.9875 32.284374 32.45625Q32.284374 29.83125 33.628124 28.39375Q34.971874 26.940624 37.128124 26.940624Q39.20625 26.940624 40.51875 28.3625Q41.846874 29.76875 41.846874 32.346874Q41.846874 32.503124 41.83125 32.815624L34.096874 32.815624Q34.190624 34.51875 35.065624 35.425Q35.940624 36.33125 37.2375 36.33125Q38.20625 36.33125 38.878124 35.83125Q39.565624 35.315624 39.971874 34.20625ZM34.190624 31.3625L39.9875 31.3625Q39.878124 30.065624 39.33125 29.409374Q38.4875 28.39375 37.14375 28.39375Q35.940624 28.39375 35.1125 29.20625Q34.284374 30.003124 34.190624 31.3625ZM43.846874 37.55L43.846874 27.175L45.425 27.175L45.425 28.753124Q46.034374 27.64375 46.55 27.3Q47.065624 26.940624 47.675 26.940624Q48.565624 26.940624 49.4875 27.503124L48.878124 29.14375Q48.2375 28.753124 47.596874 28.753124Q47.01875 28.753124 46.55 29.1125Q46.096874 29.45625 45.89375 30.065624Q45.6125 31.003124 45.6125 32.1125L45.6125 37.55L43.846874 37.55ZM51.284374 37.55L51.284374 28.55L49.7375 28.55L49.7375 27.175L51.284374 27.175L51.284374 26.08125Q51.284374 25.034374 51.471874 24.51875Q51.721874 23.83125 52.3625 23.409374Q53.003124 22.9875 54.159374 22.9875Q54.909374 22.9875 55.8 23.159374L55.534374 24.690624Q54.9875 24.596874 54.503124 24.596874Q53.70625 24.596874 53.3625 24.940624Q53.034374 25.284374 53.034374 26.221874L53.034374 27.175L55.065624 27.175L55.065624 28.55L53.034374 28.55L53.034374 37.55L51.284374 37.55ZM56.221874 32.3625Q56.221874 29.4875 57.815624 28.096874Q59.159374 26.940624 61.08125 26.940624Q63.221874 26.940624 64.56563 28.346874Q65.925 29.753124 65.925 32.221874Q65.925 34.221874 65.33125 35.378124Q64.7375 36.51875 63.58125 37.159374Q62.440624 37.784374 61.08125 37.784374Q58.89375 37.784374 57.55 36.39375Q56.221874 34.9875 56.221874 32.3625ZM58.01875 32.3625Q58.01875 34.3625 58.878124 35.346874Q59.753124 36.33125 61.08125 36.33125Q62.39375 36.33125 63.253124 35.346874Q64.12813 34.346874 64.12813 32.3Q64.12813 30.378124 63.253124 29.39375Q62.378124 28.39375 61.08125 28.39375Q59.753124 28.39375 58.878124 29.39375Q58.01875 30.378124 58.01875 32.3625ZM67.84688 37.55L67.84688 27.175L69.425 27.175L69.425 28.753124Q70.03438 27.64375 70.55 27.3Q71.06563 26.940624 71.675 26.940624Q72.56563 26.940624 73.4875 27.503124L72.87813 29.14375Q72.2375 28.753124 71.59688 28.753124Q71.01875 28.753124 70.55 29.1125Q70.09688 29.45625 69.89375 30.065624Q69.6125 31.003124 69.6125 32.1125L69.6125 37.55L67.84688 37.55ZM74.8625 37.55L74.8625 27.175L76.44063 27.175L76.44063 28.628124Q76.925 27.878124 77.7375 27.409374Q78.55 26.940624 79.58125 26.940624Q80.7375 26.940624 81.47188 27.425Q82.20625 27.89375 82.51875 28.753124Q83.75313 26.940624 85.72188 26.940624Q87.26875 26.940624 88.09688 27.8Q88.925 28.659374 88.925 30.425L88.925 37.55L87.175 37.55L87.175 31.01875Q87.175 29.95625 87.00313 29.503124Q86.83125 29.034374 86.37813 28.753124Q85.94063 28.471874 85.33125 28.471874Q84.2375 28.471874 83.50313 29.20625Q82.78438 29.925 82.78438 31.51875L82.78438 37.55L81.03438 37.55L81.03438 30.815624Q81.03438 29.64375 80.59688 29.065624Q80.175 28.471874 79.19063 28.471874Q78.45625 28.471874 77.81563 28.8625Q77.19063 29.253124 76.90938 30.003124Q76.62813 30.753124 76.62813 32.175L76.62813 37.55L74.8625 37.55ZM97.64375 36.26875Q96.65938 37.096874 95.75313 37.440624Q94.84688 37.784374 93.81563 37.784374Q92.1125 37.784374 91.19063 36.95625Q90.26875 36.1125 90.26875 34.815624Q90.26875 34.05 90.6125 33.425Q90.97188 32.8 91.53438 32.425Q92.09688 32.034374 92.8 31.83125Q93.31563 31.70625 94.3625 31.565624Q96.4875 31.315624 97.4875 30.971874Q97.50313 30.6125 97.50313 30.503124Q97.50313 29.440624 97.00313 28.9875Q96.33125 28.39375 95.00313 28.39375Q93.75313 28.39375 93.15938 28.83125Q92.58125 29.26875 92.3 30.378124L90.58125 30.14375Q90.81563 29.034374 91.34688 28.3625Q91.87813 27.675 92.89375 27.315624Q93.90938 26.940624 95.25313 26.940624Q96.58125 26.940624 97.40938 27.253124Q98.2375 27.565624 98.62813 28.05Q99.01875 28.51875 99.175 29.2375Q99.26875 29.690624 99.26875 30.8625L99.26875 33.20625Q99.26875 35.659374 99.37813 36.315624Q99.4875 36.95625 99.83125 37.55L97.9875 37.55Q97.72188 37.003124 97.64375 36.26875ZM97.4875 32.346874Q96.53438 32.7375 94.6125 33.003124Q93.53438 33.159374 93.08125 33.3625Q92.64375 33.55 92.39375 33.925Q92.14375 34.3 92.14375 34.76875Q92.14375 35.471874 92.675 35.940624Q93.20625 36.409374 94.2375 36.409374Q95.25313 36.409374 96.03438 35.971874Q96.83125 35.51875 97.20625 34.753124Q97.4875 34.14375 97.4875 32.9875L97.4875 32.346874ZM101.8625 37.55L101.8625 27.175L103.45625 27.175L103.45625 28.659374Q104.59688 26.940624 106.75313 26.940624Q107.69063 26.940624 108.47188 27.284374Q109.26875 27.6125 109.65938 28.159374Q110.05 28.70625 110.20625 29.45625Q110.3 29.95625 110.3 31.175L110.3 37.55L108.53438 37.55L108.53438 31.2375Q108.53438 30.159374 108.33125 29.628124Q108.12813 29.096874 107.59688 28.784374Q107.08125 28.471874 106.37813 28.471874Q105.25313 28.471874 104.44063 29.190624Q103.62813 29.89375 103.62813 31.878124L103.62813 37.55L101.8625 37.55ZM118.64375 33.753124L120.3625 33.971874Q120.08125 35.76875 118.90938 36.784374Q117.75313 37.784374 116.05 37.784374Q113.925 37.784374 112.62813 36.39375Q111.33125 35.003124 111.33125 32.409374Q111.33125 30.721874 111.87813 29.471874Q112.44063 28.20625 113.58125 27.58125Q114.72188 26.940624 116.06563 26.940624Q117.75313 26.940624 118.81563 27.8Q119.89375 28.659374 120.20625 30.221874L118.4875 30.4875Q118.25313 29.440624 117.62813 28.925Q117.00313 28.39375 116.12813 28.39375Q114.8 28.39375 113.97188 29.346874Q113.14375 30.3 113.14375 32.346874Q113.14375 34.440624 113.94063 35.39375Q114.7375 36.33125 116.03438 36.33125Q117.06563 36.33125 117.75313 35.70625Q118.45625 35.065624 118.64375 33.753124ZM128.97188 34.20625L130.78438 34.440624Q130.3625 36.01875 129.19063 36.909374Q128.03438 37.784374 126.22188 37.784374Q123.95625 37.784374 122.6125 36.39375Q121.28438 34.9875 121.28438 32.45625Q121.28438 29.83125 122.62813 28.39375Q123.97188 26.940624 126.12813 26.940624Q128.20625 26.940624 129.51875 28.3625Q130.84688 29.76875 130.84688 32.346874Q130.84688 32.503124 130.83125 32.815624L123.09688 32.815624Q123.19063 34.51875 124.06563 35.425Q124.94063 36.33125 126.2375 36.33125Q127.20625 36.33125 127.87813 35.83125Q128.56563 35.315624 128.97188 34.20625ZM123.19063 31.3625L128.9875 31.3625Q128.87813 30.065624 128.33125 29.409374Q127.4875 28.39375 126.14375 28.39375Q124.94063 28.39375 124.1125 29.20625Q123.28438 30.003124 123.19063 31.3625ZM145.64375 33.753124L147.3625 33.971874Q147.08125 35.76875 145.90938 36.784374Q144.75313 37.784374 143.05 37.784374Q140.925 37.784374 139.62813 36.39375Q138.33125 35.003124 138.33125 32.409374Q138.33125 30.721874 138.87813 29.471874Q139.44063 28.20625 140.58125 27.58125Q141.72188 26.940624 143.06563 26.940624Q144.75313 26.940624 145.81563 27.8Q146.89375 28.659374 147.20625 30.221874L145.4875 30.4875Q145.25313 29.440624 144.62813 28.925Q144.00313 28.39375 143.12813 28.39375Q141.8 28.39375 140.97188 29.346874Q140.14375 30.3 140.14375 32.346874Q140.14375 34.440624 140.94063 35.39375Q141.7375 36.33125 143.03438 36.33125Q144.06563 36.33125 144.75313 35.70625Q145.45625 35.065624 145.64375 33.753124ZM148.22188 32.3625Q148.22188 29.4875 149.81563 28.096874Q151.15938 26.940624 153.08125 26.940624Q155.22188 26.940624 156.56563 28.346874Q157.925 29.753124 157.925 32.221874Q157.925 34.221874 157.33125 35.378124Q156.7375 36.51875 155.58125 37.159374Q154.44063 37.784374 153.08125 37.784374Q150.89375 37.784374 149.55 36.39375Q148.22188 34.9875 148.22188 32.3625ZM150.01875 32.3625Q150.01875 34.3625 150.87813 35.346874Q151.75313 36.33125 153.08125 36.33125Q154.39375 36.33125 155.25313 35.346874Q156.12813 34.346874 156.12813 32.3Q156.12813 30.378124 155.25313 29.39375Q154.37813 28.39375 153.08125 28.39375Q151.75313 28.39375 150.87813 29.39375Q150.01875 30.378124 150.01875 32.3625ZM159.8625 37.55L159.8625 27.175L161.44063 27.175L161.44063 28.628124Q161.925 27.878124 162.7375 27.409374Q163.55 26.940624 164.58125 26.940624Q165.7375 26.940624 166.47188 27.425Q167.20625 27.89375 167.51875 28.753124Q168.75313 26.940624 170.72188 26.940624Q172.26875 26.940624 173.09688 27.8Q173.925 28.659374 173.925 30.425L173.925 37.55L172.175 37.55L172.175 31.01875Q172.175 29.95625 172.00313 29.503124Q171.83125 29.034374 171.37813 28.753124Q170.94063 28.471874 170.33125 28.471874Q169.2375 28.471874 168.50313 29.20625Q167.78438 29.925 167.78438 31.51875L167.78438 37.55L166.03438 37.55L166.03438 30.815624Q166.03438 29.64375 165.59688 29.065624Q165.175 28.471874 164.19063 28.471874Q163.45625 28.471874 162.81563 28.8625Q162.19063 29.253124 161.90938 30.003124Q161.62813 30.753124 161.62813 32.175L161.62813 37.55L159.8625 37.55ZM175.8625 41.51875L175.8625 27.175L177.47188 27.175L177.47188 28.51875Q178.03438 27.7375 178.7375 27.346874Q179.45625 26.940624 180.47188 26.940624Q181.8 26.940624 182.81563 27.628124Q183.83125 28.315624 184.34688 29.565624Q184.87813 30.8 184.87813 32.284374Q184.87813 33.878124 184.3 35.159374Q183.7375 36.425 182.64375 37.1125Q181.55 37.784374 180.34688 37.784374Q179.47188 37.784374 178.76875 37.409374Q178.08125 37.034374 177.62813 36.471874L177.62813 41.51875L175.8625 41.51875ZM177.45625 32.425Q177.45625 34.425 178.26875 35.378124Q179.08125 36.33125 180.2375 36.33125Q181.40938 36.33125 182.2375 35.346874Q183.08125 34.3625 183.08125 32.26875Q183.08125 30.3 182.25313 29.315624Q181.44063 28.315624 180.31563 28.315624Q179.19063 28.315624 178.31563 29.378124Q177.45625 30.425 177.45625 32.425ZM193.64375 36.26875Q192.65938 37.096874 191.75313 37.440624Q190.84688 37.784374 189.81563 37.784374Q188.1125 37.784374 187.19063 36.95625Q186.26875 36.1125 186.26875 34.815624Q186.26875 34.05 186.6125 33.425Q186.97188 32.8 187.53438 32.425Q188.09688 32.034374 188.8 31.83125Q189.31563 31.70625 190.3625 31.565624Q192.4875 31.315624 193.4875 30.971874Q193.50313 30.6125 193.50313 30.503124Q193.50313 29.440624 193.00313 28.9875Q192.33125 28.39375 191.00313 28.39375Q189.75313 28.39375 189.15938 28.83125Q188.58125 29.26875 188.3 30.378124L186.58125 30.14375Q186.81563 29.034374 187.34688 28.3625Q187.87813 27.675 188.89375 27.315624Q189.90938 26.940624 191.25313 26.940624Q192.58125 26.940624 193.40938 27.253124Q194.2375 27.565624 194.62813 28.05Q195.01875 28.51875 195.175 29.2375Q195.26875 29.690624 195.26875 30.8625L195.26875 33.20625Q195.26875 35.659374 195.37813 36.315624Q195.4875 36.95625 195.83125 37.55L193.9875 37.55Q193.72188 37.003124 193.64375 36.26875ZM193.4875 32.346874Q192.53438 32.7375 190.6125 33.003124Q189.53438 33.159374 189.08125 33.3625Q188.64375 33.55 188.39375 33.925Q188.14375 34.3 188.14375 34.76875Q188.14375 35.471874 188.675 35.940624Q189.20625 36.409374 190.2375 36.409374Q191.25313 36.409374 192.03438 35.971874Q192.83125 35.51875 193.20625 34.753124Q193.4875 34.14375 193.4875 32.9875L193.4875 32.346874ZM197.84688 37.55L197.84688 27.175L199.425 27.175L199.425 28.753124Q200.03438 27.64375 200.55 27.3Q201.06563 26.940624 201.675 26.940624Q202.56563 26.940624 203.4875 27.503124L202.87813 29.14375Q202.2375 28.753124 201.59688 28.753124Q201.01875 28.753124 200.55 29.1125Q200.09688 29.45625 199.89375 30.065624Q199.6125 31.003124 199.6125 32.1125L199.6125 37.55L197.84688 37.55ZM204.87813 25.253124L204.87813 23.2375L206.64375 23.2375L206.64375 25.253124L204.87813 25.253124ZM204.87813 37.55L204.87813 27.175L206.64375 27.175L206.64375 37.55L204.87813 37.55ZM208.15938 34.45625L209.90938 34.175Q210.05 35.221874 210.72188 35.784374Q211.39375 36.33125 212.59688 36.33125Q213.8 36.33125 214.37813 35.846874Q214.97188 35.346874 214.97188 34.690624Q214.97188 34.096874 214.45625 33.753124Q214.09688 33.51875 212.65938 33.159374Q210.72188 32.659374 209.97188 32.315624Q209.2375 31.95625 208.84688 31.33125Q208.45625 30.690624 208.45625 29.925Q208.45625 29.2375 208.76875 28.64375Q209.09688 28.05 209.64375 27.659374Q210.05 27.3625 210.75313 27.159374Q211.47188 26.940624 212.28438 26.940624Q213.50313 26.940624 214.425 27.3Q215.34688 27.64375 215.78438 28.253124Q216.22188 28.846874 216.39375 29.846874L214.675 30.08125Q214.55 29.284374 213.9875 28.846874Q213.425 28.39375 212.40938 28.39375Q211.19063 28.39375 210.675 28.8Q210.15938 29.190624 210.15938 29.721874Q210.15938 30.065624 210.37813 30.346874Q210.58125 30.628124 211.05 30.815624Q211.31563 30.909374 212.59688 31.253124Q214.47188 31.753124 215.20625 32.08125Q215.94063 32.39375 216.3625 33.003124Q216.78438 33.596874 216.78438 34.503124Q216.78438 35.378124 216.26875 36.159374Q215.75313 36.940624 214.78438 37.3625Q213.81563 37.784374 212.59688 37.784374Q210.58125 37.784374 209.51875 36.940624Q208.45625 36.096874 208.15938 34.45625ZM218.22188 32.3625Q218.22188 29.4875 219.81563 28.096874Q221.15938 26.940624 223.08125 26.940624Q225.22188 26.940624 226.56563 28.346874Q227.925 29.753124 227.925 32.221874Q227.925 34.221874 227.33125 35.378124Q226.7375 36.51875 225.58125 37.159374Q224.44063 37.784374 223.08125 37.784374Q220.89375 37.784374 219.55 36.39375Q218.22188 34.9875 218.22188 32.3625ZM220.01875 32.3625Q220.01875 34.3625 220.87813 35.346874Q221.75313 36.33125 223.08125 36.33125Q224.39375 36.33125 225.25313 35.346874Q226.12813 34.346874 226.12813 32.3Q226.12813 30.378124 225.25313 29.39375Q224.37813 28.39375 223.08125 28.39375Q221.75313 28.39375 220.87813 29.39375Q220.01875 30.378124 220.01875 32.3625ZM229.8625 37.55L229.8625 27.175L231.45625 27.175L231.45625 28.659374Q232.59688 26.940624 234.75313 26.940624Q235.69063 26.940624 236.47188 27.284374Q237.26875 27.6125 237.65938 28.159374Q238.05 28.70625 238.20625 29.45625Q238.3 29.95625 238.3 31.175L238.3 37.55L236.53438 37.55L236.53438 31.2375Q236.53438 30.159374 236.33125 29.628124Q236.12813 29.096874 235.59688 28.784374Q235.08125 28.471874 234.37813 28.471874Q233.25313 28.471874 232.44063 29.190624Q231.62813 29.89375 231.62813 31.878124L231.62813 37.55L229.8625 37.55Z" fill-rule="nonzero"/></svg>