<svg version="1.1" viewBox="0.0 0.0 600.0 371.0" fill="none" stroke="none" stroke-linecap="square" stroke-miterlimit="10" width="600" height="371" xmlns:xlink="http://www.w3.org/1999/xlink" xmlns="http://www.w3.org/2000/svg"><path fill="#ffffff" d="M0 0L600.0 0L600.0 371.0L0 371.0L0 0Z" fill-rule="nonzero"/><path stroke="#333333" stroke-width="1.0" stroke-linecap="butt" d="M128.5 81.5L128.5 300.5" fill-rule="nonzero"/><path stroke="#cccccc" stroke-width="1.0" stroke-linecap="butt" d="M241.5 81.5L241.5 300.5" fill-rule="nonzero"/><path stroke="#cccccc" stroke-width="1.0" stroke-linecap="butt" d="M355.5 81.5L355.5 300.5" fill-rule="nonzero"/><path stroke="#cccccc" stroke-width="1.0" stroke-linecap="butt" d="M468.5 81.5L468.5 300.5" fill-rule="nonzero"/><path stroke="#cccccc" stroke-width="1.0" stroke-linecap="butt" d="M581.5 81.5L581.5 300.5" fill-rule="nonzero"/><clipPath id="id_0"><path d="M128.55 81.28333L581.45 81.28333L581.45 300.45L128.55 300.45L128.55 81.28333Z" clip-rule="nonzero"/></clipPath><path stroke="#000000" stroke-width="2.0" stroke-linecap="butt" stroke-opacity="0.0" clip-path="url(#id_0)" d="M129.0 124.0L129.0 105.0L224.0 105.0C225.10457 105.0 226.0 105.89543 226.0 107.0L226.0 122.0C226.0 123.10457 225.10457 124.0 224.0 124.0Z" fill-rule="nonzero"/><path fill="#6d9eeb" clip-path="url(#id_0)" d="M129.0 124.0L129.0 105.0L224.0 105.0C225.10457 105.0 226.0 105.89543 226.0 107.0L226.0 122.0C226.0 123.10457 225.10457 124.0 224.0 124.0Z" fill-rule="nonzero"/><path stroke="#000000" stroke-width="2.0" stroke-linecap="butt" stroke-opacity="0.0" clip-path="url(#id_0)" d="M129.0 190.0L129.0 171.0L483.0 171.0C484.10458 171.0 485.0 171.89543 485.0 173.0L485.0 188.0C485.0 189.10457 484.10458 190.0 483.0 190.0Z" fill-rule="nonzero"/><path fill="#6d9eeb" clip-path="url(#id_0)" d="M129.0 190.0L129.0 171.0L483.0 171.0C484.10458 171.0 485.0 171.89543 485.0 173.0L485.0 188.0C485.0 189.10457 484.10458 190.0 483.0 190.0Z" fill-rule="nonzero"/><path stroke="#000000" stroke-width="2.0" stroke-linecap="butt" stroke-opacity="0.0" clip-path="url(#id_0)" d="M129.0 255.0L129.0 236.0L238.0 236.0C239.10457 236.0 240.0 236.89543 240.0 238.0L240.0 253.0C240.0 254.10457 239.10457 255.0 238.0 255.0Z" fill-rule="nonzero"/><path fill="#6d9eeb" clip-path="url(#id_0)" d="M129.0 255.0L129.0 236.0L238.0 236.0C239.10457 236.0 240.0 236.89543 240.0 238.0L240.0 253.0C240.0 254.10457 239.10457 255.0 238.0 255.0Z" fill-rule="nonzero"/><path stroke="#000000" stroke-width="2.0" stroke-linecap="butt" stroke-opacity="0.0" clip-path="url(#id_0)" d="M129.0 145.0L129.0 126.0L174.0 126.0C175.10457 126.0 176.0 126.89543 176.0 128.0L176.0 143.0C176.0 144.10457 175.10457 145.0 174.0 145.0Z" fill-rule="nonzero"/><path fill="#1155cc" clip-path="url(#id_0)" d="M129.0 145.0L129.0 126.0L174.0 126.0C175.10457 126.0 176.0 126.89543 176.0 128.0L176.0 143.0C176.0 144.10457 175.10457 145.0 174.0 145.0Z" fill-rule="nonzero"/><path stroke="#000000" stroke-width="2.0" stroke-linecap="butt" stroke-opacity="0.0" clip-path="url(#id_0)" d="M129.0 211.0L129.0 192.0L151.0 192.0C152.10457 192.0 153.0 192.89543 153.0 194.0L153.0 209.0C153.0 210.10457 152.10457 211.0 151.0 211.0Z" fill-rule="nonzero"/><path fill="#1155cc" clip-path="url(#id_0)" d="M129.0 211.0L129.0 192.0L151.0 192.0C152.10457 192.0 153.0 192.89543 153.0 194.0L153.0 209.0C153.0 210.10457 152.10457 211.0 151.0 211.0Z" fill-rule="nonzero"/><path stroke="#000000" stroke-width="2.0" stroke-linecap="butt" stroke-opacity="0.0" clip-path="url(#id_0)" d="M129.0 276.0L129.0 257.0L221.0 257.0C222.10457 257.0 223.0 257.89542 223.0 259.0L223.0 274.0C223.0 275.10458 222.10457 276.0 221.0 276.0Z" fill-rule="nonzero"/><path fill="#1155cc" clip-path="url(#id_0)" d="M129.0 276.0L129.0 257.0L221.0 257.0C222.10457 257.0 223.0 257.89542 223.0 259.0L223.0 274.0C223.0 275.10458 222.10457 276.0 221.0 276.0Z" fill-rule="nonzero"/><path fill="#000000" d="M331.04688 346.6844L332.10938 346.59064Q332.1875 347.2469 332.46875 347.65314Q332.75 348.0594 333.32812 348.325Q333.92188 348.575 334.65625 348.575Q335.29688 348.575 335.79688 348.3875Q336.29688 348.1844 336.53125 347.85626Q336.78125 347.5125 336.78125 347.1219Q336.78125 346.71564 336.54688 346.41876Q336.3125 346.10626 335.78125 345.90314Q335.42188 345.7625 334.23438 345.48126Q333.0625 345.2 332.59375 344.95Q331.96875 344.6219 331.67188 344.15314Q331.375 343.66876 331.375 343.075Q331.375 342.4344 331.73438 341.8719Q332.10938 341.29376 332.8125 341.0125Q333.53125 340.71564 334.39062 340.71564Q335.34375 340.71564 336.07812 341.02814Q336.8125 341.325 337.20312 341.9344Q337.59375 342.52814 337.625 343.27814L336.53125 343.35626Q336.4375 342.54376 335.92188 342.1375Q335.42188 341.71564 334.4375 341.71564Q333.40625 341.71564 332.9375 342.09064Q332.46875 342.46564 332.46875 342.9969Q332.46875 343.46564 332.79688 343.7625Q333.125 344.0594 334.5 344.3719Q335.89062 344.6844 336.40625 344.91876Q337.15625 345.27814 337.51562 345.8094Q337.875 346.325 337.875 347.02814Q337.875 347.71564 337.48438 348.325Q337.09375 348.91876 336.35938 349.2625Q335.625 349.59064 334.70312 349.59064Q333.53125 349.59064 332.73438 349.2625Q331.95312 348.91876 331.5 348.23126Q331.0625 347.54376 331.04688 346.6844ZM343.54688 347.45L344.64062 347.575Q344.39062 348.52814 343.6875 349.0594Q342.98438 349.59064 341.90625 349.59064Q340.54688 349.59064 339.73438 348.7469Q338.9375 347.90314 338.9375 346.3875Q338.9375 344.825 339.75 343.96564Q340.5625 343.09064 341.84375 343.09064Q343.09375 343.09064 343.875 343.9344Q344.67188 344.77814 344.67188 346.325Q344.67188 346.41876 344.67188 346.60626L340.03125 346.60626Q340.09375 347.6375 340.60938 348.1844Q341.125 348.71564 341.90625 348.71564Q342.48438 348.71564 342.89062 348.41876Q343.3125 348.10626 343.54688 347.45ZM340.09375 345.7469L343.5625 345.7469Q343.5 344.95 343.17188 344.5594Q342.65625 343.95 341.85938 343.95Q341.125 343.95 340.625 344.4344Q340.14062 344.91876 340.09375 345.7469ZM350.35938 347.16876L351.39062 347.3094Q351.21875 348.3719 350.51562 348.98126Q349.8125 349.59064 348.79688 349.59064Q347.51562 349.59064 346.73438 348.7625Q345.96875 347.91876 345.96875 346.35626Q345.96875 345.35626 346.29688 344.60626Q346.64062 343.84064 347.3125 343.46564Q348.0 343.09064 348.8125 343.09064Q349.8125 343.09064 350.45312 343.60626Q351.10938 344.10626 351.29688 345.0594L350.26562 345.21564Q350.125 344.59064 349.75 344.27814Q349.375 343.95 348.84375 343.95Q348.04688 343.95 347.54688 344.52814Q347.04688 345.09064 347.04688 346.325Q347.04688 347.59064 347.53125 348.15314Q348.01562 348.71564 348.78125 348.71564Q349.40625 348.71564 349.8125 348.34064Q350.23438 347.96564 350.35938 347.16876ZM351.90625 346.34064Q351.90625 344.60626 352.85938 343.77814Q353.65625 343.09064 354.8125 343.09064Q356.09375 343.09064 356.90625 343.9344Q357.73438 344.7625 357.73438 346.2469Q357.73438 347.45 357.375 348.1375Q357.01562 348.825 356.3125 349.21564Q355.625 349.59064 354.8125 349.59064Q353.51562 349.59064 352.70312 348.7625Q351.90625 347.91876 351.90625 346.34064ZM352.98438 346.34064Q352.98438 347.52814 353.5 348.1219Q354.03125 348.71564 354.8125 348.71564Q355.60938 348.71564 356.125 348.1219Q356.64062 347.52814 356.64062 346.3094Q356.64062 345.15314 356.10938 344.5594Q355.59375 343.96564 354.8125 343.96564Q354.03125 343.96564 353.5 344.5594Q352.98438 345.1375 352.98438 346.34064ZM359.29688 349.45L359.29688 343.23126L360.23438 343.23126L360.23438 344.10626Q360.92188 343.09064 362.21875 343.09064Q362.78125 343.09064 363.25 343.29376Q363.73438 343.4969 363.96875 343.825Q364.20312 344.15314 364.29688 344.59064Q364.34375 344.8875 364.34375 345.6219L364.34375 349.45L363.29688 349.45L363.29688 345.66876Q363.29688 345.0125 363.17188 344.7Q363.04688 344.3875 362.73438 344.2Q362.42188 343.9969 362.0 343.9969Q361.32812 343.9969 360.82812 344.4344Q360.34375 344.85626 360.34375 346.04376L360.34375 349.45L359.29688 349.45ZM370.32812 349.45L370.32812 348.66876Q369.73438 349.59064 368.59375 349.59064Q367.84375 349.59064 367.21875 349.1844Q366.59375 348.7625 366.25 348.02814Q365.90625 347.29376 365.90625 346.34064Q365.90625 345.41876 366.21875 344.65314Q366.53125 343.8875 367.15625 343.4969Q367.78125 343.09064 368.54688 343.09064Q369.10938 343.09064 369.54688 343.325Q369.98438 343.5594 370.26562 343.9344L370.26562 340.85626L371.3125 340.85626L371.3125 349.45L370.32812 349.45ZM367.0 346.34064Q367.0 347.54376 367.5 348.1375Q368.0 348.71564 368.6875 348.71564Q369.375 348.71564 369.85938 348.15314Q370.34375 347.59064 370.34375 346.4344Q370.34375 345.15314 369.84375 344.5594Q369.35938 343.96564 368.64062 343.96564Q367.9375 343.96564 367.46875 344.54376Q367.0 345.10626 367.0 346.34064ZM372.875 347.59064L373.90625 347.4344Q374.0 348.0594 374.39062 348.3875Q374.79688 348.71564 375.53125 348.71564Q376.25 348.71564 376.59375 348.4344Q376.95312 348.1375 376.95312 347.73126Q376.95312 347.3719 376.64062 347.16876Q376.42188 347.02814 375.5625 346.8094Q374.40625 346.5125 373.95312 346.3094Q373.51562 346.09064 373.28125 345.71564Q373.04688 345.34064 373.04688 344.8719Q373.04688 344.46564 373.23438 344.10626Q373.42188 343.7469 373.75 343.5125Q374.0 343.34064 374.42188 343.21564Q374.84375 343.09064 375.34375 343.09064Q376.0625 343.09064 376.60938 343.3094Q377.17188 343.5125 377.4375 343.8719Q377.70312 344.23126 377.79688 344.825L376.76562 344.96564Q376.70312 344.4969 376.35938 344.23126Q376.03125 343.95 375.40625 343.95Q374.6875 343.95 374.375 344.2Q374.0625 344.4344 374.0625 344.7625Q374.0625 344.96564 374.1875 345.1219Q374.32812 345.29376 374.59375 345.40314Q374.75 345.46564 375.53125 345.66876Q376.65625 345.98126 377.09375 346.16876Q377.53125 346.35626 377.78125 346.71564Q378.03125 347.075 378.03125 347.6219Q378.03125 348.15314 377.71875 348.6219Q377.42188 349.075 376.84375 349.34064Q376.26562 349.59064 375.53125 349.59064Q374.3125 349.59064 373.67188 349.09064Q373.04688 348.575 372.875 347.59064Z" fill-rule="nonzero"/><path fill="#000000" d="M79.53438 129.44379L79.53438 120.85004L85.33125 120.85004L85.33125 121.86566L80.675 121.86566L80.675 124.52191L84.70625 124.52191L84.70625 125.53754L80.675 125.53754L80.675 129.44379L79.53438 129.44379ZM86.34688 122.06879L86.34688 120.85004L87.40938 120.85004L87.40938 122.06879L86.34688 122.06879ZM86.34688 129.44379L86.34688 123.22504L87.40938 123.22504L87.40938 129.44379L86.34688 129.44379ZM89.31563 129.44379L89.31563 120.85004L90.37813 120.85004L90.37813 129.44379L89.31563 129.44379ZM94.64375 128.50629L94.8 129.42816Q94.34688 129.52191 94.00313 129.52191Q93.425 129.52191 93.1125 129.35004Q92.8 129.16254 92.65938 128.86566Q92.53438 128.56879 92.53438 127.61566L92.53438 124.03754L91.76875 124.03754L91.76875 123.22504L92.53438 123.22504L92.53438 121.67816L93.58125 121.05316L93.58125 123.22504L94.64375 123.22504L94.64375 124.03754L93.58125 124.03754L93.58125 127.67816Q93.58125 128.13129 93.62813 128.25629Q93.69063 128.38129 93.81563 128.45941Q93.94063 128.53754 94.175 128.53754Q94.3625 128.53754 94.64375 128.50629ZM99.59688 127.44379L100.69063 127.56879Q100.44063 128.52191 99.7375 129.05316Q99.03438 129.58441 97.95625 129.58441Q96.59688 129.58441 95.78438 128.74066Q94.9875 127.89691 94.9875 126.38129Q94.9875 124.81879 95.8 123.95941Q96.6125 123.08441 97.89375 123.08441Q99.14375 123.08441 99.925 123.92816Q100.72188 124.77191 100.72188 126.31879Q100.72188 126.41254 100.72188 126.60004L96.08125 126.60004Q96.14375 127.63129 96.65938 128.17816Q97.175 128.70941 97.95625 128.70941Q98.53438 128.70941 98.94063 128.41254Q99.3625 128.10004 99.59688 127.44379ZM96.14375 125.74066L99.6125 125.74066Q99.55 124.94379 99.22188 124.55316Q98.70625 123.94379 97.90938 123.94379Q97.175 123.94379 96.675 124.42816Q96.19063 124.91254 96.14375 125.74066ZM102.33125 129.44379L102.33125 123.22504L103.28438 123.22504L103.28438 124.16254Q103.64375 123.50629 103.94063 123.30316Q104.25313 123.08441 104.62813 123.08441Q105.15938 123.08441 105.70625 123.41254L105.34688 124.39691Q104.95625 124.16254 104.58125 124.16254Q104.22188 124.16254 103.94063 124.38129Q103.675 124.58441 103.56563 124.95941Q103.37813 125.52191 103.37813 126.17816L103.37813 129.44379L102.33125 129.44379ZM106.34688 122.06879L106.34688 120.85004L107.40938 120.85004L107.40938 122.06879L106.34688 122.06879ZM106.34688 129.44379L106.34688 123.22504L107.40938 123.22504L107.40938 129.44379L106.34688 129.44379ZM109.34688 129.44379L109.34688 123.22504L110.28438 123.22504L110.28438 124.10004Q110.97188 123.08441 112.26875 123.08441Q112.83125 123.08441 113.3 123.28754Q113.78438 123.49066 114.01875 123.81879Q114.25313 124.14691 114.34688 124.58441Q114.39375 124.88129 114.39375 125.61566L114.39375 129.44379L113.34688 129.44379L113.34688 125.66254Q113.34688 125.00629 113.22188 124.69379Q113.09688 124.38129 112.78438 124.19379Q112.47188 123.99066 112.05 123.99066Q111.37813 123.99066 110.87813 124.42816Q110.39375 124.85004 110.39375 126.03754L110.39375 129.44379L109.34688 129.44379ZM116.14375 129.95941L117.175 130.11566Q117.2375 130.58441 117.53438 130.80316Q117.925 131.10004 118.59688 131.10004Q119.33125 131.10004 119.72188 130.80316Q120.12813 130.50629 120.26875 129.99066Q120.3625 129.66254 120.34688 128.63129Q119.65938 129.44379 118.62813 129.44379Q117.34688 129.44379 116.64375 128.52191Q115.94063 127.58441 115.94063 126.30316Q115.94063 125.41254 116.25313 124.66254Q116.58125 123.89691 117.19063 123.49066Q117.8 123.08441 118.62813 123.08441Q119.7375 123.08441 120.45625 123.97504L120.45625 123.22504L121.425 123.22504L121.425 128.60004Q121.425 130.05316 121.12813 130.66254Q120.83125 131.27191 120.19063 131.61566Q119.55 131.97504 118.6125 131.97504Q117.50313 131.97504 116.81563 131.47504Q116.12813 130.97504 116.14375 129.95941ZM117.01875 126.22504Q117.01875 127.44379 117.50313 128.00629Q117.9875 128.56879 118.72188 128.56879Q119.45625 128.56879 119.94063 128.00629Q120.44063 127.44379 120.44063 126.25629Q120.44063 125.11566 119.925 124.53754Q119.425 123.95941 118.70625 123.95941Q118.00313 123.95941 117.50313 124.53754Q117.01875 125.10004 117.01875 126.22504Z" fill-rule="nonzero"/><path fill="#000000" d="M37.096874 192.10104L38.159374 192.0073Q38.2375 192.66354 38.51875 193.0698Q38.8 193.47604 39.378124 193.74167Q39.971874 193.99167 40.70625 193.99167Q41.346874 193.99167 41.846874 193.80417Q42.346874 193.60104 42.58125 193.27292Q42.83125 192.92917 42.83125 192.53854Q42.83125 192.1323 42.596874 191.83542Q42.3625 191.52292 41.83125 191.3198Q41.471874 191.17917 40.284374 190.89792Q39.1125 190.61667 38.64375 190.36667Q38.01875 190.03854 37.721874 189.5698Q37.425 189.08542 37.425 188.49167Q37.425 187.85104 37.784374 187.28854Q38.159374 186.71042 38.8625 186.42917Q39.58125 186.1323 40.440624 186.1323Q41.39375 186.1323 42.128124 186.4448Q42.8625 186.74167 43.253124 187.35104Q43.64375 187.9448 43.675 188.6948L42.58125 188.77292Q42.4875 187.96042 41.971874 187.55417Q41.471874 187.1323 40.4875 187.1323Q39.45625 187.1323 38.9875 187.5073Q38.51875 187.8823 38.51875 188.41354Q38.51875 188.8823 38.846874 189.17917Q39.175 189.47604 40.55 189.78854Q41.940624 190.10104 42.45625 190.33542Q43.20625 190.6948 43.565624 191.22604Q43.925 191.74167 43.925 192.4448Q43.925 193.1323 43.534374 193.74167Q43.14375 194.33542 42.409374 194.67917Q41.675 195.0073 40.753124 195.0073Q39.58125 195.0073 38.784374 194.67917Q38.003124 194.33542 37.55 193.64792Q37.1125 192.96042 37.096874 192.10104ZM47.64375 193.92917L47.8 194.85104Q47.346874 194.9448 47.003124 194.9448Q46.425 194.9448 46.1125 194.77292Q45.8 194.58542 45.659374 194.28854Q45.534374 193.99167 45.534374 193.03854L45.534374 189.46042L44.76875 189.46042L44.76875 188.64792L45.534374 188.64792L45.534374 187.10104L46.58125 186.47604L46.58125 188.64792L47.64375 188.64792L47.64375 189.46042L46.58125 189.46042L46.58125 193.10104Q46.58125 193.55417 46.628124 193.67917Q46.690624 193.80417 46.815624 193.8823Q46.940624 193.96042 47.175 193.96042Q47.3625 193.96042 47.64375 193.92917ZM48.33125 194.86667L48.33125 188.64792L49.284374 188.64792L49.284374 189.58542Q49.64375 188.92917 49.940624 188.72604Q50.253124 188.5073 50.628124 188.5073Q51.159374 188.5073 51.70625 188.83542L51.346874 189.8198Q50.95625 189.58542 50.58125 189.58542Q50.221874 189.58542 49.940624 189.80417Q49.675 190.0073 49.565624 190.3823Q49.378124 190.9448 49.378124 191.60104L49.378124 194.86667L48.33125 194.86667ZM52.346874 187.49167L52.346874 186.27292L53.409374 186.27292L53.409374 187.49167L52.346874 187.49167ZM52.346874 194.86667L52.346874 188.64792L53.409374 188.64792L53.409374 194.86667L52.346874 194.86667ZM55.346874 194.86667L55.346874 188.64792L56.284374 188.64792L56.284374 189.52292Q56.971874 188.5073 58.26875 188.5073Q58.83125 188.5073 59.3 188.71042Q59.784374 188.91354 60.01875 189.24167Q60.253124 189.5698 60.346874 190.0073Q60.39375 190.30417 60.39375 191.03854L60.39375 194.86667L59.346874 194.86667L59.346874 191.08542Q59.346874 190.42917 59.221874 190.11667Q59.096874 189.80417 58.784374 189.61667Q58.471874 189.41354 58.05 189.41354Q57.378124 189.41354 56.878124 189.85104Q56.39375 190.27292 56.39375 191.46042L56.39375 194.86667L55.346874 194.86667ZM62.14375 195.3823L63.175 195.53854Q63.2375 196.0073 63.534374 196.22604Q63.925 196.52292 64.59688 196.52292Q65.33125 196.52292 65.72188 196.22604Q66.12813 195.92917 66.26875 195.41354Q66.3625 195.08542 66.34688 194.05417Q65.65938 194.86667 64.62813 194.86667Q63.346874 194.86667 62.64375 193.9448Q61.940624 193.0073 61.940624 191.72604Q61.940624 190.83542 62.253124 190.08542Q62.58125 189.3198 63.190624 188.91354Q63.8 188.5073 64.62813 188.5073Q65.7375 188.5073 66.45625 189.39792L66.45625 188.64792L67.425 188.64792L67.425 194.02292Q67.425 195.47604 67.12813 196.08542Q66.83125 196.6948 66.19063 197.03854Q65.55 197.39792 64.6125 197.39792Q63.503124 197.39792 62.815624 196.89792Q62.128124 196.39792 62.14375 195.3823ZM63.01875 191.64792Q63.01875 192.86667 63.503124 193.42917Q63.9875 193.99167 64.72188 193.99167Q65.45625 193.99167 65.94063 193.42917Q66.44063 192.86667 66.44063 191.67917Q66.44063 190.53854 65.925 189.96042Q65.425 189.3823 64.70625 189.3823Q64.00313 189.3823 63.503124 189.96042Q63.01875 190.52292 63.01875 191.64792ZM71.53438 194.86667L74.83125 186.27292L76.05 186.27292L79.56563 194.86667L78.28438 194.86667L77.26875 192.2573L73.69063 192.2573L72.7375 194.86667L71.53438 194.86667ZM74.01875 191.33542L76.925 191.33542L76.03438 188.96042Q75.6125 187.8823 75.425 187.17917Q75.25313 188.0073 74.95625 188.8198L74.01875 191.33542ZM83.40938 192.58542L84.44063 192.72604Q84.26875 193.78854 83.56563 194.39792Q82.8625 195.0073 81.84688 195.0073Q80.56563 195.0073 79.78438 194.17917Q79.01875 193.33542 79.01875 191.77292Q79.01875 190.77292 79.34688 190.02292Q79.69063 189.2573 80.3625 188.8823Q81.05 188.5073 81.8625 188.5073Q82.8625 188.5073 83.50313 189.02292Q84.15938 189.52292 84.34688 190.47604L83.31563 190.6323Q83.175 190.0073 82.8 189.6948Q82.425 189.36667 81.89375 189.36667Q81.09688 189.36667 80.59688 189.9448Q80.09688 190.5073 80.09688 191.74167Q80.09688 193.0073 80.58125 193.5698Q81.06563 194.1323 81.83125 194.1323Q82.45625 194.1323 82.8625 193.7573Q83.28438 193.3823 83.40938 192.58542ZM89.40938 192.58542L90.44063 192.72604Q90.26875 193.78854 89.56563 194.39792Q88.8625 195.0073 87.84688 195.0073Q86.56563 195.0073 85.78438 194.17917Q85.01875 193.33542 85.01875 191.77292Q85.01875 190.77292 85.34688 190.02292Q85.69063 189.2573 86.3625 188.8823Q87.05 188.5073 87.8625 188.5073Q88.8625 188.5073 89.50313 189.02292Q90.15938 189.52292 90.34688 190.47604L89.31563 190.6323Q89.175 190.0073 88.8 189.6948Q88.425 189.36667 87.89375 189.36667Q87.09688 189.36667 86.59688 189.9448Q86.09688 190.5073 86.09688 191.74167Q86.09688 193.0073 86.58125 193.5698Q87.06563 194.1323 87.83125 194.1323Q88.45625 194.1323 88.8625 193.7573Q89.28438 193.3823 89.40938 192.58542ZM95.59688 192.86667L96.69063 192.99167Q96.44063 193.9448 95.7375 194.47604Q95.03438 195.0073 93.95625 195.0073Q92.59688 195.0073 91.78438 194.16354Q90.9875 193.3198 90.9875 191.80417Q90.9875 190.24167 91.8 189.3823Q92.6125 188.5073 93.89375 188.5073Q95.14375 188.5073 95.925 189.35104Q96.72188 190.1948 96.72188 191.74167Q96.72188 191.83542 96.72188 192.02292L92.08125 192.02292Q92.14375 193.05417 92.65938 193.60104Q93.175 194.1323 93.95625 194.1323Q94.53438 194.1323 94.94063 193.83542Q95.3625 193.52292 95.59688 192.86667ZM92.14375 191.16354L95.6125 191.16354Q95.55 190.36667 95.22188 189.97604Q94.70625 189.36667 93.90938 189.36667Q93.175 189.36667 92.675 189.85104Q92.19063 190.33542 92.14375 191.16354ZM97.925 193.0073L98.95625 192.85104Q99.05 193.47604 99.44063 193.80417Q99.84688 194.1323 100.58125 194.1323Q101.3 194.1323 101.64375 193.85104Q102.00313 193.55417 102.00313 193.14792Q102.00313 192.78854 101.69063 192.58542Q101.47188 192.4448 100.6125 192.22604Q99.45625 191.92917 99.00313 191.72604Q98.56563 191.5073 98.33125 191.1323Q98.09688 190.7573 98.09688 190.28854Q98.09688 189.8823 98.28438 189.52292Q98.47188 189.16354 98.8 188.92917Q99.05 188.7573 99.47188 188.6323Q99.89375 188.5073 100.39375 188.5073Q101.1125 188.5073 101.65938 188.72604Q102.22188 188.92917 102.4875 189.28854Q102.75313 189.64792 102.84688 190.24167L101.81563 190.3823Q101.75313 189.91354 101.40938 189.64792Q101.08125 189.36667 100.45625 189.36667Q99.7375 189.36667 99.425 189.61667Q99.1125 189.85104 99.1125 190.17917Q99.1125 190.3823 99.2375 190.53854Q99.37813 190.71042 99.64375 190.8198Q99.8 190.8823 100.58125 191.08542Q101.70625 191.39792 102.14375 191.58542Q102.58125 191.77292 102.83125 192.1323Q103.08125 192.49167 103.08125 193.03854Q103.08125 193.5698 102.76875 194.03854Q102.47188 194.49167 101.89375 194.7573Q101.31563 195.0073 100.58125 195.0073Q99.3625 195.0073 98.72188 194.5073Q98.09688 193.99167 97.925 193.0073ZM104.925 193.0073L105.95625 192.85104Q106.05 193.47604 106.44063 193.80417Q106.84688 194.1323 107.58125 194.1323Q108.3 194.1323 108.64375 193.85104Q109.00313 193.55417 109.00313 193.14792Q109.00313 192.78854 108.69063 192.58542Q108.47188 192.4448 107.6125 192.22604Q106.45625 191.92917 106.00313 191.72604Q105.56563 191.5073 105.33125 191.1323Q105.09688 190.7573 105.09688 190.28854Q105.09688 189.8823 105.28438 189.52292Q105.47188 189.16354 105.8 188.92917Q106.05 188.7573 106.47188 188.6323Q106.89375 188.5073 107.39375 188.5073Q108.1125 188.5073 108.65938 188.72604Q109.22188 188.92917 109.4875 189.28854Q109.75313 189.64792 109.84688 190.24167L108.81563 190.3823Q108.75313 189.91354 108.40938 189.64792Q108.08125 189.36667 107.45625 189.36667Q106.7375 189.36667 106.425 189.61667Q106.1125 189.85104 106.1125 190.17917Q106.1125 190.3823 106.2375 190.53854Q106.37813 190.71042 106.64375 190.8198Q106.8 190.8823 107.58125 191.08542Q108.70625 191.39792 109.14375 191.58542Q109.58125 191.77292 109.83125 192.1323Q110.08125 192.49167 110.08125 193.03854Q110.08125 193.5698 109.76875 194.03854Q109.47188 194.49167 108.89375 194.7573Q108.31563 195.0073 107.58125 195.0073Q106.3625 195.0073 105.72188 194.5073Q105.09688 193.99167 104.925 193.0073ZM111.95625 191.7573Q111.95625 190.02292 112.90938 189.1948Q113.70625 188.5073 114.8625 188.5073Q116.14375 188.5073 116.95625 189.35104Q117.78438 190.17917 117.78438 191.66354Q117.78438 192.86667 117.425 193.55417Q117.06563 194.24167 116.3625 194.6323Q115.675 195.0073 114.8625 195.0073Q113.56563 195.0073 112.75313 194.17917Q111.95625 193.33542 111.95625 191.7573ZM113.03438 191.7573Q113.03438 192.9448 113.55 193.53854Q114.08125 194.1323 114.8625 194.1323Q115.65938 194.1323 116.175 193.53854Q116.69063 192.9448 116.69063 191.72604Q116.69063 190.5698 116.15938 189.97604Q115.64375 189.3823 114.8625 189.3823Q114.08125 189.3823 113.55 189.97604Q113.03438 190.55417 113.03438 191.7573ZM119.33125 194.86667L119.33125 188.64792L120.28438 188.64792L120.28438 189.58542Q120.64375 188.92917 120.94063 188.72604Q121.25313 188.5073 121.62813 188.5073Q122.15938 188.5073 122.70625 188.83542L122.34688 189.8198Q121.95625 189.58542 121.58125 189.58542Q121.22188 189.58542 120.94063 189.80417Q120.675 190.0073 120.56563 190.3823Q120.37813 190.9448 120.37813 191.60104L120.37813 194.86667L119.33125 194.86667Z" fill-rule="nonzero"/><path fill="#000000" d="M23.503124 256.91455L23.503124 255.91455L27.128124 255.89893L27.128124 259.08643Q26.3 259.7583 25.409374 260.10205Q24.51875 260.43018 23.58125 260.43018Q22.315624 260.43018 21.26875 259.89893Q20.2375 259.35205 19.70625 258.33643Q19.190624 257.30518 19.190624 256.03955Q19.190624 254.77393 19.70625 253.6958Q20.2375 252.60205 21.221874 252.08643Q22.20625 251.55518 23.4875 251.55518Q24.425 251.55518 25.175 251.85205Q25.925 252.14893 26.346874 252.6958Q26.784374 253.22705 27.003124 254.10205L25.9875 254.3833Q25.784374 253.72705 25.4875 253.35205Q25.20625 252.97705 24.675 252.7583Q24.14375 252.52393 23.503124 252.52393Q22.721874 252.52393 22.14375 252.7583Q21.58125 252.99268 21.221874 253.3833Q20.878124 253.77393 20.690624 254.24268Q20.3625 255.03955 20.3625 255.96143Q20.3625 257.11768 20.753124 257.89893Q21.159374 258.66455 21.909374 259.03955Q22.659374 259.41455 23.51875 259.41455Q24.253124 259.41455 24.95625 259.1333Q25.659374 258.83643 26.01875 258.52393L26.01875 256.91455L23.503124 256.91455ZM28.33125 260.28955L28.33125 254.0708L29.284374 254.0708L29.284374 255.0083Q29.64375 254.35205 29.940624 254.14893Q30.253124 253.93018 30.628124 253.93018Q31.159374 253.93018 31.70625 254.2583L31.346874 255.24268Q30.95625 255.0083 30.58125 255.0083Q30.221874 255.0083 29.940624 255.22705Q29.675 255.43018 29.565624 255.80518Q29.378124 256.36768 29.378124 257.02393L29.378124 260.28955L28.33125 260.28955ZM31.95625 257.18018Q31.95625 255.4458 32.909374 254.61768Q33.70625 253.93018 34.8625 253.93018Q36.14375 253.93018 36.95625 254.77393Q37.784374 255.60205 37.784374 257.08643Q37.784374 258.28955 37.425 258.97705Q37.065624 259.66455 36.3625 260.05518Q35.675 260.43018 34.8625 260.43018Q33.565624 260.43018 32.753124 259.60205Q31.95625 258.7583 31.95625 257.18018ZM33.034374 257.18018Q33.034374 258.36768 33.55 258.96143Q34.08125 259.55518 34.8625 259.55518Q35.659374 259.55518 36.175 258.96143Q36.690624 258.36768 36.690624 257.14893Q36.690624 255.99268 36.159374 255.39893Q35.64375 254.80518 34.8625 254.80518Q34.08125 254.80518 33.55 255.39893Q33.034374 255.97705 33.034374 257.18018ZM43.425 260.28955L43.425 259.36768Q42.690624 260.43018 41.440624 260.43018Q40.89375 260.43018 40.409374 260.22705Q39.940624 260.0083 39.70625 259.6958Q39.471874 259.36768 39.378124 258.89893Q39.315624 258.60205 39.315624 257.91455L39.315624 254.0708L40.378124 254.0708L40.378124 257.52393Q40.378124 258.33643 40.440624 258.6333Q40.534374 259.03955 40.846874 259.28955Q41.175 259.52393 41.659374 259.52393Q42.128124 259.52393 42.534374 259.28955Q42.95625 259.03955 43.128124 258.61768Q43.315624 258.1958 43.315624 257.39893L43.315624 254.0708L44.3625 254.0708L44.3625 260.28955L43.425 260.28955ZM46.346874 262.68018L46.346874 254.0708L47.3 254.0708L47.3 254.86768Q47.64375 254.39893 48.065624 254.16455Q48.503124 253.93018 49.1125 253.93018Q49.909374 253.93018 50.51875 254.33643Q51.128124 254.74268 51.425 255.49268Q51.7375 256.24268 51.7375 257.1333Q51.7375 258.08643 51.39375 258.85205Q51.065624 259.61768 50.409374 260.02393Q49.753124 260.43018 49.034374 260.43018Q48.503124 260.43018 48.08125 260.21143Q47.659374 259.97705 47.39375 259.64893L47.39375 262.68018L46.346874 262.68018ZM47.3 257.21143Q47.3 258.41455 47.784374 258.99268Q48.26875 259.55518 48.95625 259.55518Q49.659374 259.55518 50.159374 258.96143Q50.659374 258.36768 50.659374 257.11768Q50.659374 255.93018 50.175 255.35205Q49.690624 254.7583 49.003124 254.7583Q48.33125 254.7583 47.815624 255.3833Q47.3 256.0083 47.3 257.21143ZM53.425 260.28955L53.425 251.6958L56.659374 251.6958Q57.64375 251.6958 58.2375 251.96143Q58.83125 252.22705 59.159374 252.77393Q59.503124 253.30518 59.503124 253.89893Q59.503124 254.4458 59.20625 254.93018Q58.909374 255.41455 58.3 255.71143Q59.08125 255.9458 59.4875 256.5083Q59.909374 257.05518 59.909374 257.80518Q59.909374 258.39893 59.659374 258.93018Q59.409374 259.4458 59.034374 259.72705Q58.659374 260.0083 58.08125 260.14893Q57.51875 260.28955 56.70625 260.28955L53.425 260.28955ZM54.565624 255.30518L56.425 255.30518Q57.175 255.30518 57.503124 255.21143Q57.940624 255.08643 58.159374 254.78955Q58.378124 254.47705 58.378124 254.02393Q58.378124 253.60205 58.175 253.27393Q57.971874 252.9458 57.58125 252.83643Q57.20625 252.71143 56.284374 252.71143L54.565624 252.71143L54.565624 255.30518ZM54.565624 259.27393L56.70625 259.27393Q57.253124 259.27393 57.471874 259.22705Q57.878124 259.16455 58.128124 259.0083Q58.39375 258.83643 58.565624 258.52393Q58.7375 258.21143 58.7375 257.80518Q58.7375 257.3208 58.4875 256.96143Q58.253124 256.60205 57.815624 256.46143Q57.378124 256.3208 56.55 256.3208L54.565624 256.3208L54.565624 259.27393ZM61.3 262.68018L61.175 261.6958Q61.51875 261.78955 61.784374 261.78955Q62.128124 261.78955 62.33125 261.66455Q62.55 261.55518 62.690624 261.35205Q62.784374 261.18018 63.01875 260.55518Q63.034374 260.47705 63.1125 260.30518L60.7375 254.0708L61.878124 254.0708L63.175 257.66455Q63.425 258.35205 63.628124 259.11768Q63.815624 258.3833 64.06563 257.6958L65.39375 254.0708L66.44063 254.0708L64.08125 260.39893Q63.690624 261.41455 63.4875 261.80518Q63.20625 262.33643 62.83125 262.5708Q62.471874 262.8208 61.971874 262.8208Q61.675 262.8208 61.3 262.68018ZM69.12813 256.10205Q69.12813 253.96143 70.26875 252.7583Q71.425 251.53955 73.2375 251.53955Q74.44063 251.53955 75.39375 252.11768Q76.34688 252.68018 76.84688 253.6958Q77.34688 254.71143 77.34688 256.0083Q77.34688 257.30518 76.81563 258.33643Q76.28438 259.36768 75.31563 259.89893Q74.3625 260.43018 73.2375 260.43018Q72.01875 260.43018 71.06563 259.85205Q70.1125 259.2583 69.6125 258.2583Q69.12813 257.24268 69.12813 256.10205ZM70.3 256.11768Q70.3 257.68018 71.12813 258.5708Q71.97188 259.46143 73.2375 259.46143Q74.51875 259.46143 75.34688 258.5708Q76.175 257.66455 76.175 255.99268Q76.175 254.9458 75.81563 254.16455Q75.47188 253.3833 74.78438 252.96143Q74.09688 252.52393 73.25313 252.52393Q72.05 252.52393 71.175 253.35205Q70.3 254.18018 70.3 256.11768ZM78.34688 262.68018L78.34688 254.0708L79.3 254.0708L79.3 254.86768Q79.64375 254.39893 80.06563 254.16455Q80.50313 253.93018 81.1125 253.93018Q81.90938 253.93018 82.51875 254.33643Q83.12813 254.74268 83.425 255.49268Q83.7375 256.24268 83.7375 257.1333Q83.7375 258.08643 83.39375 258.85205Q83.06563 259.61768 82.40938 260.02393Q81.75313 260.43018 81.03438 260.43018Q80.50313 260.43018 80.08125 260.21143Q79.65938 259.97705 79.39375 259.64893L79.39375 262.68018L78.34688 262.68018ZM79.3 257.21143Q79.3 258.41455 79.78438 258.99268Q80.26875 259.55518 80.95625 259.55518Q81.65938 259.55518 82.15938 258.96143Q82.65938 258.36768 82.65938 257.11768Q82.65938 255.93018 82.175 255.35205Q81.69063 254.7583 81.00313 254.7583Q80.33125 254.7583 79.81563 255.3833Q79.3 256.0083 79.3 257.21143ZM89.59688 258.28955L90.69063 258.41455Q90.44063 259.36768 89.7375 259.89893Q89.03438 260.43018 87.95625 260.43018Q86.59688 260.43018 85.78438 259.58643Q84.9875 258.74268 84.9875 257.22705Q84.9875 255.66455 85.8 254.80518Q86.6125 253.93018 87.89375 253.93018Q89.14375 253.93018 89.925 254.77393Q90.72188 255.61768 90.72188 257.16455Q90.72188 257.2583 90.72188 257.4458L86.08125 257.4458Q86.14375 258.47705 86.65938 259.02393Q87.175 259.55518 87.95625 259.55518Q88.53438 259.55518 88.94063 259.2583Q89.3625 258.9458 89.59688 258.28955ZM86.14375 256.58643L89.6125 256.58643Q89.55 255.78955 89.22188 255.39893Q88.70625 254.78955 87.90938 254.78955Q87.175 254.78955 86.675 255.27393Q86.19063 255.7583 86.14375 256.58643ZM92.33125 260.28955L92.33125 254.0708L93.28438 254.0708L93.28438 255.0083Q93.64375 254.35205 93.94063 254.14893Q94.25313 253.93018 94.62813 253.93018Q95.15938 253.93018 95.70625 254.2583L95.34688 255.24268Q94.95625 255.0083 94.58125 255.0083Q94.22188 255.0083 93.94063 255.22705Q93.675 255.43018 93.56563 255.80518Q93.37813 256.36768 93.37813 257.02393L93.37813 260.28955L92.33125 260.28955ZM100.40938 259.52393Q99.81563 260.02393 99.26875 260.22705Q98.7375 260.43018 98.1125 260.43018Q97.08125 260.43018 96.53438 259.93018Q95.9875 259.43018 95.9875 258.64893Q95.9875 258.1958 96.19063 257.8208Q96.39375 257.43018 96.7375 257.21143Q97.08125 256.97705 97.50313 256.86768Q97.8 256.77393 98.44063 256.6958Q99.70625 256.55518 100.31563 256.33643Q100.31563 256.11768 100.31563 256.0708Q100.31563 255.41455 100.01875 255.14893Q99.6125 254.80518 98.81563 254.80518Q98.08125 254.80518 97.72188 255.0708Q97.3625 255.3208 97.19063 255.97705L96.15938 255.83643Q96.3 255.18018 96.62813 254.77393Q96.95625 254.36768 97.56563 254.14893Q98.175 253.93018 98.97188 253.93018Q99.76875 253.93018 100.26875 254.11768Q100.76875 254.30518 101.00313 254.58643Q101.2375 254.86768 101.33125 255.30518Q101.37813 255.5708 101.37813 256.27393L101.37813 257.68018Q101.37813 259.14893 101.44063 259.53955Q101.51875 259.93018 101.72188 260.28955L100.6125 260.28955Q100.45625 259.96143 100.40938 259.52393ZM100.31563 257.16455Q99.7375 257.39893 98.59688 257.5708Q97.94063 257.66455 97.675 257.78955Q97.40938 257.89893 97.25313 258.11768Q97.1125 258.33643 97.1125 258.61768Q97.1125 259.03955 97.425 259.3208Q97.75313 259.60205 98.3625 259.60205Q98.97188 259.60205 99.44063 259.33643Q99.925 259.0708 100.14375 258.60205Q100.31563 258.24268 100.31563 257.55518L100.31563 257.16455ZM105.64375 259.35205L105.8 260.27393Q105.34688 260.36768 105.00313 260.36768Q104.425 260.36768 104.1125 260.1958Q103.8 260.0083 103.65938 259.71143Q103.53438 259.41455 103.53438 258.46143L103.53438 254.8833L102.76875 254.8833L102.76875 254.0708L103.53438 254.0708L103.53438 252.52393L104.58125 251.89893L104.58125 254.0708L105.64375 254.0708L105.64375 254.8833L104.58125 254.8833L104.58125 258.52393Q104.58125 258.97705 104.62813 259.10205Q104.69063 259.22705 104.81563 259.30518Q104.94063 259.3833 105.175 259.3833Q105.3625 259.3833 105.64375 259.35205ZM106.34688 252.91455L106.34688 251.6958L107.40938 251.6958L107.40938 252.91455L106.34688 252.91455ZM106.34688 260.28955L106.34688 254.0708L107.40938 254.0708L107.40938 260.28955L106.34688 260.28955ZM108.95625 257.18018Q108.95625 255.4458 109.90938 254.61768Q110.70625 253.93018 111.8625 253.93018Q113.14375 253.93018 113.95625 254.77393Q114.78438 255.60205 114.78438 257.08643Q114.78438 258.28955 114.425 258.97705Q114.06563 259.66455 113.3625 260.05518Q112.675 260.43018 111.8625 260.43018Q110.56563 260.43018 109.75313 259.60205Q108.95625 258.7583 108.95625 257.18018ZM110.03438 257.18018Q110.03438 258.36768 110.55 258.96143Q111.08125 259.55518 111.8625 259.55518Q112.65938 259.55518 113.175 258.96143Q113.69063 258.36768 113.69063 257.14893Q113.69063 255.99268 113.15938 255.39893Q112.64375 254.80518 111.8625 254.80518Q111.08125 254.80518 110.55 255.39893Q110.03438 255.97705 110.03438 257.18018ZM116.34688 260.28955L116.34688 254.0708L117.28438 254.0708L117.28438 254.9458Q117.97188 253.93018 119.26875 253.93018Q119.83125 253.93018 120.3 254.1333Q120.78438 254.33643 121.01875 254.66455Q121.25313 254.99268 121.34688 255.43018Q121.39375 255.72705 121.39375 256.46143L121.39375 260.28955L120.34688 260.28955L120.34688 256.5083Q120.34688 255.85205 120.22188 255.53955Q120.09688 255.22705 119.78438 255.03955Q119.47188 254.83643 119.05 254.83643Q118.37813 254.83643 117.87813 255.27393Q117.39375 255.6958 117.39375 256.8833L117.39375 260.28955L116.34688 260.28955Z" fill-rule="nonzero"/><path fill="#000000" d="M125.55 313.21564Q125.55 311.6844 125.8625 310.7625Q126.175 309.825 126.78438 309.325Q127.40938 308.825 128.34688 308.825Q129.03438 308.825 129.55 309.10626Q130.08125 309.3875 130.425 309.91876Q130.76875 310.4344 130.95625 311.1844Q131.14375 311.9344 131.14375 313.21564Q131.14375 314.73126 130.83125 315.65314Q130.53438 316.575 129.90938 317.09064Q129.3 317.59064 128.34688 317.59064Q127.1125 317.59064 126.39375 316.7Q125.55 315.6375 125.55 313.21564ZM126.62813 313.21564Q126.62813 315.325 127.12813 316.02814Q127.62813 316.73126 128.34688 316.73126Q129.08125 316.73126 129.56563 316.02814Q130.06563 315.325 130.06563 313.21564Q130.06563 311.09064 129.56563 310.40314Q129.08125 309.7 128.33125 309.7Q127.6125 309.7 127.175 310.3094Q126.62813 311.09064 126.62813 313.21564Z" fill-rule="nonzero"/><path fill="#000000" d="M242.74374 317.45L241.69687 317.45L241.69687 310.73126Q241.30624 311.09064 240.68124 311.46564Q240.07187 311.825 239.5875 311.9969L239.5875 310.98126Q240.4625 310.5594 241.11874 309.98126Q241.79062 309.3875 242.07187 308.825L242.74374 308.825L242.74374 317.45Z" fill-rule="nonzero"/><path fill="#000000" d="M357.54688 316.4344L357.54688 317.45L351.85938 317.45Q351.85938 317.075 351.98438 316.71564Q352.20312 316.1375 352.67188 315.575Q353.15625 315.0125 354.0625 314.27814Q355.46875 313.1219 355.95312 312.45Q356.45312 311.77814 356.45312 311.1844Q356.45312 310.5594 356.0 310.1375Q355.54688 309.7 354.82812 309.7Q354.0625 309.7 353.60938 310.15314Q353.15625 310.60626 353.14062 311.41876L352.0625 311.3094Q352.17188 310.09064 352.89062 309.46564Q353.625 308.825 354.85938 308.825Q356.09375 308.825 356.8125 309.5125Q357.53125 310.2 357.53125 311.21564Q357.53125 311.73126 357.3125 312.23126Q357.10938 312.71564 356.60938 313.27814Q356.125 313.825 355.0 314.77814Q354.04688 315.575 353.76562 315.8719Q353.5 316.15314 353.32812 316.4344L357.54688 316.4344Z" fill-rule="nonzero"/><path fill="#000000" d="M465.225 315.1844L466.2875 315.04376Q466.45938 315.9344 466.89688 316.34064Q467.33438 316.73126 467.95938 316.73126Q468.70938 316.73126 469.225 316.21564Q469.74063 315.7 469.74063 314.9344Q469.74063 314.21564 469.25626 313.7469Q468.7875 313.2625 468.05313 313.2625Q467.75626 313.2625 467.30313 313.3875L467.42813 312.45Q467.5375 312.46564 467.6 312.46564Q468.27188 312.46564 468.80313 312.1219Q469.35 311.7625 469.35 311.02814Q469.35 310.45 468.95938 310.075Q468.56876 309.6844 467.94376 309.6844Q467.33438 309.6844 466.9125 310.075Q466.50626 310.46564 466.39688 311.23126L465.33438 311.04376Q465.52188 309.9969 466.20938 309.41876Q466.89688 308.825 467.9125 308.825Q468.61563 308.825 469.20938 309.1375Q469.80313 309.4344 470.11563 309.95Q470.42813 310.46564 470.42813 311.0594Q470.42813 311.60626 470.13126 312.075Q469.83438 312.52814 469.25626 312.79376Q470.00626 312.96564 470.42813 313.52814Q470.85 314.075 470.85 314.91876Q470.85 316.04376 470.02188 316.825Q469.20938 317.60626 467.95938 317.60626Q466.83438 317.60626 466.08438 316.9344Q465.33438 316.2469 465.225 315.1844Z" fill-rule="nonzero"/><path fill="#000000" d="M581.825 317.45L581.825 315.3875L578.10626 315.3875L578.10626 314.41876L582.02814 308.85626L582.8875 308.85626L582.8875 314.41876L584.04376 314.41876L584.04376 315.3875L582.8875 315.3875L582.8875 317.45L581.825 317.45ZM581.825 314.41876L581.825 310.5594L579.1375 314.41876L581.825 314.41876Z" fill-rule="nonzero"/><path fill="#6d9eeb" d="M196.0 56.916668C196.0 56.364384 196.44771 55.916668 197.0 55.916668L207.0 55.916668C207.55229 55.916668 208.0 56.364384 208.0 56.916668L208.0 66.916664C208.0 67.46895 207.55229 67.916664 207.0 67.916664L197.0 67.916664C196.44771 67.916664 196.0 67.46895 196.0 66.916664Z" fill-rule="nonzero"/><path fill="#1a1a1a" d="M216.57812 61.729164Q216.57812 59.58854 217.71875 58.385414Q218.875 57.166664 220.6875 57.166664Q221.89062 57.166664 222.84375 57.74479Q223.79688 58.30729 224.29688 59.322914Q224.79688 60.33854 224.79688 61.635414Q224.79688 62.93229 224.26562 63.96354Q223.73438 64.99479 222.76562 65.52604Q221.8125 66.05729 220.6875 66.05729Q219.46875 66.05729 218.51562 65.479164Q217.5625 64.885414 217.0625 63.885414Q216.57812 62.86979 216.57812 61.729164ZM217.75 61.74479Q217.75 63.30729 218.57812 64.197914Q219.42188 65.08854 220.6875 65.08854Q221.96875 65.08854 222.79688 64.197914Q223.625 63.291664 223.625 61.61979Q223.625 60.572914 223.26562 59.791664Q222.92188 59.010414 222.23438 58.58854Q221.54688 58.15104 220.70312 58.15104Q219.5 58.15104 218.625 58.979164Q217.75 59.80729 217.75 61.74479ZM226.76562 65.916664L225.78125 65.916664L225.78125 57.322914L226.84375 57.322914L226.84375 60.385414Q227.51562 59.55729 228.54688 59.55729Q229.125 59.55729 229.625 59.791664Q230.14062 60.010414 230.46875 60.43229Q230.8125 60.854164 231.0 61.447914Q231.1875 62.041664 231.1875 62.71354Q231.1875 64.30729 230.39062 65.18229Q229.59375 66.05729 228.5 66.05729Q227.39062 66.05729 226.76562 65.135414L226.76562 65.916664ZM226.75 62.760414Q226.75 63.86979 227.0625 64.36979Q227.5625 65.18229 228.40625 65.18229Q229.09375 65.18229 229.59375 64.58854Q230.10938 63.99479 230.10938 62.791664Q230.10938 61.572914 229.625 60.99479Q229.14062 60.416664 228.45312 60.416664Q227.76562 60.416664 227.25 61.02604Q226.75 61.61979 226.75 62.760414ZM232.78125 58.55729L232.78125 57.322914L233.84375 57.322914L233.84375 58.55729L232.78125 58.55729ZM231.45312 68.33854L231.64062 67.43229Q231.96875 67.510414 232.14062 67.510414Q232.46875 67.510414 232.625 67.291664Q232.78125 67.08854 232.78125 66.229164L232.78125 59.697914L233.84375 59.697914L233.84375 66.260414Q233.84375 67.40104 233.54688 67.854164Q233.15625 68.447914 232.28125 68.447914Q231.84375 68.447914 231.45312 68.33854ZM240.04688 63.916664L241.14062 64.041664Q240.89062 64.99479 240.1875 65.52604Q239.48438 66.05729 238.40625 66.05729Q237.04688 66.05729 236.23438 65.21354Q235.4375 64.36979 235.4375 62.854164Q235.4375 61.291664 236.25 60.43229Q237.0625 59.55729 238.34375 59.55729Q239.59375 59.55729 240.375 60.40104Q241.17188 61.24479 241.17188 62.791664Q241.17188 62.885414 241.17188 63.072914L236.53125 63.072914Q236.59375 64.104164 237.10938 64.65104Q237.625 65.18229 238.40625 65.18229Q238.98438 65.18229 239.39062 64.885414Q239.8125 64.572914 240.04688 63.916664ZM236.59375 62.21354L240.0625 62.21354Q240.0 61.416664 239.67188 61.02604Q239.15625 60.416664 238.35938 60.416664Q237.625 60.416664 237.125 60.90104Q236.64062 61.385414 236.59375 62.21354ZM246.85938 63.635414L247.89062 63.77604Q247.71875 64.83854 247.01562 65.447914Q246.3125 66.05729 245.29688 66.05729Q244.01562 66.05729 243.23438 65.229164Q242.46875 64.385414 242.46875 62.822914Q242.46875 61.822914 242.79688 61.072914Q243.14062 60.30729 243.8125 59.93229Q244.5 59.55729 245.3125 59.55729Q246.3125 59.55729 246.95312 60.072914Q247.60938 60.572914 247.79688 61.52604L246.76562 61.68229Q246.625 61.05729 246.25 60.74479Q245.875 60.416664 245.34375 60.416664Q244.54688 60.416664 244.04688 60.99479Q243.54688 61.55729 243.54688 62.791664Q243.54688 64.05729 244.03125 64.61979Q244.51562 65.18229 245.28125 65.18229Q245.90625 65.18229 246.3125 64.80729Q246.73438 64.43229 246.85938 63.635414ZM251.09375 64.979164L251.25 65.90104Q250.79688 65.99479 250.45312 65.99479Q249.875 65.99479 249.5625 65.822914Q249.25 65.635414 249.10938 65.33854Q248.98438 65.041664 248.98438 64.08854L248.98438 60.510414L248.21875 60.510414L248.21875 59.697914L248.98438 59.697914L248.98438 58.15104L250.03125 57.52604L250.03125 59.697914L251.09375 59.697914L251.09375 60.510414L250.03125 60.510414L250.03125 64.15104Q250.03125 64.604164 250.07812 64.729164Q250.14062 64.854164 250.26562 64.93229Q250.39062 65.010414 250.625 65.010414Q250.8125 65.010414 251.09375 64.979164ZM258.82812 65.916664L258.82812 65.135414Q258.23438 66.05729 257.09375 66.05729Q256.34375 66.05729 255.71875 65.65104Q255.09375 65.229164 254.75 64.49479Q254.40625 63.760414 254.40625 62.80729Q254.40625 61.885414 254.71875 61.11979Q255.03125 60.354164 255.65625 59.96354Q256.28125 59.55729 257.04688 59.55729Q257.60938 59.55729 258.04688 59.791664Q258.48438 60.02604 258.76562 60.40104L258.76562 57.322914L259.8125 57.322914L259.8125 65.916664L258.82812 65.916664ZM255.5 62.80729Q255.5 64.010414 256.0 64.604164Q256.5 65.18229 257.1875 65.18229Q257.875 65.18229 258.35938 64.61979Q258.84375 64.05729 258.84375 62.90104Q258.84375 61.61979 258.34375 61.02604Q257.85938 60.43229 257.14062 60.43229Q256.4375 60.43229 255.96875 61.010414Q255.5 61.572914 255.5 62.80729ZM264.09375 64.979164L264.25 65.90104Q263.79688 65.99479 263.45312 65.99479Q262.875 65.99479 262.5625 65.822914Q262.25 65.635414 262.10938 65.33854Q261.98438 65.041664 261.98438 64.08854L261.98438 60.510414L261.21875 60.510414L261.21875 59.697914L261.98438 59.697914L261.98438 58.15104L263.03125 57.52604L263.03125 59.697914L264.09375 59.697914L264.09375 60.510414L263.03125 60.510414L263.03125 64.15104Q263.03125 64.604164 263.07812 64.729164Q263.14062 64.854164 263.26562 64.93229Q263.39062 65.010414 263.625 65.010414Q263.8125 65.010414 264.09375 64.979164ZM264.75 68.30729L264.625 67.322914Q264.96875 67.416664 265.23438 67.416664Q265.57812 67.416664 265.78125 67.291664Q266.0 67.18229 266.14062 66.979164Q266.23438 66.80729 266.46875 66.18229Q266.48438 66.104164 266.5625 65.93229L264.1875 59.697914L265.32812 59.697914L266.625 63.291664Q266.875 63.979164 267.07812 64.74479Q267.26562 64.010414 267.51562 63.322914L268.84375 59.697914L269.89062 59.697914L267.53125 66.02604Q267.14062 67.041664 266.9375 67.43229Q266.65625 67.96354 266.28125 68.197914Q265.92188 68.447914 265.42188 68.447914Q265.125 68.447914 264.75 68.30729ZM269.79688 68.30729L269.79688 59.697914L270.75 59.697914L270.75 60.49479Q271.09375 60.02604 271.51562 59.791664Q271.95312 59.55729 272.5625 59.55729Q273.35938 59.55729 273.96875 59.96354Q274.57812 60.36979 274.875 61.11979Q275.1875 61.86979 275.1875 62.760414Q275.1875 63.71354 274.84375 64.479164Q274.51562 65.24479 273.85938 65.65104Q273.20312 66.05729 272.48438 66.05729Q271.95312 66.05729 271.53125 65.83854Q271.10938 65.604164 270.84375 65.27604L270.84375 68.30729L269.79688 68.30729ZM270.75 62.83854Q270.75 64.041664 271.23438 64.61979Q271.71875 65.18229 272.40625 65.18229Q273.10938 65.18229 273.60938 64.58854Q274.10938 63.99479 274.10938 62.74479Q274.10938 61.55729 273.625 60.979164Q273.14062 60.385414 272.45312 60.385414Q271.78125 60.385414 271.26562 61.010414Q270.75 61.635414 270.75 62.83854ZM281.04688 63.916664L282.14062 64.041664Q281.89062 64.99479 281.1875 65.52604Q280.48438 66.05729 279.40625 66.05729Q278.04688 66.05729 277.23438 65.21354Q276.4375 64.36979 276.4375 62.854164Q276.4375 61.291664 277.25 60.43229Q278.0625 59.55729 279.34375 59.55729Q280.59375 59.55729 281.375 60.40104Q282.17188 61.24479 282.17188 62.791664Q282.17188 62.885414 282.17188 63.072914L277.53125 63.072914Q277.59375 64.104164 278.10938 64.65104Q278.625 65.18229 279.40625 65.18229Q279.98438 65.18229 280.39062 64.885414Q280.8125 64.572914 281.04688 63.916664ZM277.59375 62.21354L281.0625 62.21354Q281.0 61.416664 280.67188 61.02604Q280.15625 60.416664 279.35938 60.416664Q278.625 60.416664 278.125 60.90104Q277.64062 61.385414 277.59375 62.21354Z" fill-rule="nonzero"/><path fill="#1155cc" d="M299.0 56.916668C299.0 56.364384 299.44772 55.916668 300.0 55.916668L310.0 55.916668C310.55228 55.916668 311.0 56.364384 311.0 56.916668L311.0 66.916664C311.0 67.46895 310.55228 67.916664 310.0 67.916664L300.0 67.916664C299.44772 67.916664 299.0 67.46895 299.0 66.916664Z" fill-rule="nonzero"/><path fill="#1a1a1a" d="M319.92188 65.916664L319.92188 57.322914L323.17188 57.322914Q324.01562 57.322914 324.46875 57.40104Q325.10938 57.510414 325.53125 57.80729Q325.96875 58.104164 326.21875 58.635414Q326.48438 59.166664 326.48438 59.80729Q326.48438 60.90104 325.78125 61.666664Q325.09375 62.416664 323.26562 62.416664L321.0625 62.416664L321.0625 65.916664L319.92188 65.916664ZM321.0625 61.416664L323.28125 61.416664Q324.39062 61.416664 324.84375 61.010414Q325.3125 60.58854 325.3125 59.83854Q325.3125 59.30729 325.03125 58.93229Q324.76562 58.541664 324.32812 58.416664Q324.03125 58.33854 323.26562 58.33854L321.0625 58.33854L321.0625 61.416664ZM327.75 68.30729L327.625 67.322914Q327.96875 67.416664 328.23438 67.416664Q328.57812 67.416664 328.78125 67.291664Q329.0 67.18229 329.14062 66.979164Q329.23438 66.80729 329.46875 66.18229Q329.48438 66.104164 329.5625 65.93229L327.1875 59.697914L328.32812 59.697914L329.625 63.291664Q329.875 63.979164 330.07812 64.74479Q330.26562 64.010414 330.51562 63.322914L331.84375 59.697914L332.89062 59.697914L330.53125 66.02604Q330.14062 67.041664 329.9375 67.43229Q329.65625 67.96354 329.28125 68.197914Q328.92188 68.447914 328.42188 68.447914Q328.125 68.447914 327.75 68.30729ZM331.98438 65.916664L335.28125 57.322914L336.5 57.322914L340.01562 65.916664L338.73438 65.916664L337.71875 63.30729L334.14062 63.30729L333.1875 65.916664L331.98438 65.916664ZM334.46875 62.385414L337.375 62.385414L336.48438 60.010414Q336.0625 58.93229 335.875 58.229164Q335.70312 59.05729 335.40625 59.86979L334.46875 62.385414ZM339.78125 65.916664L339.78125 59.697914L340.73438 59.697914L340.73438 60.635414Q341.09375 59.979164 341.39062 59.77604Q341.70312 59.55729 342.07812 59.55729Q342.60938 59.55729 343.15625 59.885414L342.79688 60.86979Q342.40625 60.635414 342.03125 60.635414Q341.67188 60.635414 341.39062 60.854164Q341.125 61.05729 341.01562 61.43229Q340.82812 61.99479 340.82812 62.65104L340.82812 65.916664L339.78125 65.916664ZM343.78125 65.916664L343.78125 59.697914L344.73438 59.697914L344.73438 60.635414Q345.09375 59.979164 345.39062 59.77604Q345.70312 59.55729 346.07812 59.55729Q346.60938 59.55729 347.15625 59.885414L346.79688 60.86979Q346.40625 60.635414 346.03125 60.635414Q345.67188 60.635414 345.39062 60.854164Q345.125 61.05729 345.01562 61.43229Q344.82812 61.99479 344.82812 62.65104L344.82812 65.916664L343.78125 65.916664ZM347.40625 62.80729Q347.40625 61.072914 348.35938 60.24479Q349.15625 59.55729 350.3125 59.55729Q351.59375 59.55729 352.40625 60.40104Q353.23438 61.229164 353.23438 62.71354Q353.23438 63.916664 352.875 64.604164Q352.51562 65.291664 351.8125 65.68229Q351.125 66.05729 350.3125 66.05729Q349.01562 66.05729 348.20312 65.229164Q347.40625 64.385414 347.40625 62.80729ZM348.48438 62.80729Q348.48438 63.99479 349.0 64.58854Q349.53125 65.18229 350.3125 65.18229Q351.10938 65.18229 351.625 64.58854Q352.14062 63.99479 352.14062 62.77604Q352.14062 61.61979 351.60938 61.02604Q351.09375 60.43229 350.3125 60.43229Q349.53125 60.43229 349.0 61.02604Q348.48438 61.604164 348.48438 62.80729ZM355.9375 65.916664L354.03125 59.697914L355.125 59.697914L356.10938 63.291664L356.48438 64.61979Q356.51562 64.52604 356.8125 63.33854L357.79688 59.697914L358.875 59.697914L359.8125 63.30729L360.125 64.49479L360.48438 63.291664L361.54688 59.697914L362.57812 59.697914L360.625 65.916664L359.53125 65.916664L358.54688 62.18229L358.29688 61.135414L357.04688 65.916664L355.9375 65.916664ZM366.375 64.05729L367.40625 63.90104Q367.5 64.52604 367.89062 64.854164Q368.29688 65.18229 369.03125 65.18229Q369.75 65.18229 370.09375 64.90104Q370.45312 64.604164 370.45312 64.197914Q370.45312 63.83854 370.14062 63.635414Q369.92188 63.49479 369.0625 63.27604Q367.90625 62.979164 367.45312 62.77604Q367.01562 62.55729 366.78125 62.18229Q366.54688 61.80729 366.54688 61.33854Q366.54688 60.93229 366.73438 60.572914Q366.92188 60.21354 367.25 59.979164Q367.5 59.80729 367.92188 59.68229Q368.34375 59.55729 368.84375 59.55729Q369.5625 59.55729 370.10938 59.77604Q370.67188 59.979164 370.9375 60.33854Q371.20312 60.697914 371.29688 61.291664L370.26562 61.43229Q370.20312 60.96354 369.85938 60.697914Q369.53125 60.416664 368.90625 60.416664Q368.1875 60.416664 367.875 60.666664Q367.5625 60.90104 367.5625 61.229164Q367.5625 61.43229 367.6875 61.58854Q367.82812 61.760414 368.09375 61.86979Q368.25 61.93229 369.03125 62.135414Q370.15625 62.447914 370.59375 62.635414Q371.03125 62.822914 371.28125 63.18229Q371.53125 63.541664 371.53125 64.08854Q371.53125 64.61979 371.21875 65.08854Q370.92188 65.541664 370.34375 65.80729Q369.76562 66.05729 369.03125 66.05729Q367.8125 66.05729 367.17188 65.55729Q366.54688 65.041664 366.375 64.05729ZM376.09375 64.979164L376.25 65.90104Q375.79688 65.99479 375.45312 65.99479Q374.875 65.99479 374.5625 65.822914Q374.25 65.635414 374.10938 65.33854Q373.98438 65.041664 373.98438 64.08854L373.98438 60.510414L373.21875 60.510414L373.21875 59.697914L373.98438 59.697914L373.98438 58.15104L375.03125 57.52604L375.03125 59.697914L376.09375 59.697914L376.09375 60.510414L375.03125 60.510414L375.03125 64.15104Q375.03125 64.604164 375.07812 64.729164Q375.14062 64.854164 375.26562 64.93229Q375.39062 65.010414 375.625 65.010414Q375.8125 65.010414 376.09375 64.979164ZM376.78125 65.916664L376.78125 59.697914L377.73438 59.697914L377.73438 60.635414Q378.09375 59.979164 378.39062 59.77604Q378.70312 59.55729 379.07812 59.55729Q379.60938 59.55729 380.15625 59.885414L379.79688 60.86979Q379.40625 60.635414 379.03125 60.635414Q378.67188 60.635414 378.39062 60.854164Q378.125 61.05729 378.01562 61.43229Q377.82812 61.99479 377.82812 62.65104L377.82812 65.916664L376.78125 65.916664ZM380.79688 58.541664L380.79688 57.322914L381.85938 57.322914L381.85938 58.541664L380.79688 58.541664ZM380.79688 65.916664L380.79688 59.697914L381.85938 59.697914L381.85938 65.916664L380.79688 65.916664ZM383.79688 65.916664L383.79688 59.697914L384.73438 59.697914L384.73438 60.572914Q385.42188 59.55729 386.71875 59.55729Q387.28125 59.55729 387.75 59.760414Q388.23438 59.96354 388.46875 60.291664Q388.70312 60.61979 388.79688 61.05729Q388.84375 61.354164 388.84375 62.08854L388.84375 65.916664L387.79688 65.916664L387.79688 62.135414Q387.79688 61.479164 387.67188 61.166664Q387.54688 60.854164 387.23438 60.666664Q386.92188 60.46354 386.5 60.46354Q385.82812 60.46354 385.32812 60.90104Q384.84375 61.322914 384.84375 62.510414L384.84375 65.916664L383.79688 65.916664ZM390.59375 66.43229L391.625 66.58854Q391.6875 67.05729 391.98438 67.27604Q392.375 67.572914 393.04688 67.572914Q393.78125 67.572914 394.17188 67.27604Q394.57812 66.979164 394.71875 66.46354Q394.8125 66.135414 394.79688 65.104164Q394.10938 65.916664 393.07812 65.916664Q391.79688 65.916664 391.09375 64.99479Q390.39062 64.05729 390.39062 62.77604Q390.39062 61.885414 390.70312 61.135414Q391.03125 60.36979 391.64062 59.96354Q392.25 59.55729 393.07812 59.55729Q394.1875 59.55729 394.90625 60.447914L394.90625 59.697914L395.875 59.697914L395.875 65.072914Q395.875 66.52604 395.57812 67.135414Q395.28125 67.74479 394.64062 68.08854Q394.0 68.447914 393.0625 68.447914Q391.95312 68.447914 391.26562 67.947914Q390.57812 67.447914 390.59375 66.43229ZM391.46875 62.697914Q391.46875 63.916664 391.95312 64.479164Q392.4375 65.041664 393.17188 65.041664Q393.90625 65.041664 394.39062 64.479164Q394.89062 63.916664 394.89062 62.729164Q394.89062 61.58854 394.375 61.010414Q393.875 60.43229 393.15625 60.43229Q392.45312 60.43229 391.95312 61.010414Q391.46875 61.572914 391.46875 62.697914ZM397.375 64.05729L398.40625 63.90104Q398.5 64.52604 398.89062 64.854164Q399.29688 65.18229 400.03125 65.18229Q400.75 65.18229 401.09375 64.90104Q401.45312 64.604164 401.45312 64.197914Q401.45312 63.83854 401.14062 63.635414Q400.92188 63.49479 400.0625 63.27604Q398.90625 62.979164 398.45312 62.77604Q398.01562 62.55729 397.78125 62.18229Q397.54688 61.80729 397.54688 61.33854Q397.54688 60.93229 397.73438 60.572914Q397.92188 60.21354 398.25 59.979164Q398.5 59.80729 398.92188 59.68229Q399.34375 59.55729 399.84375 59.55729Q400.5625 59.55729 401.10938 59.77604Q401.67188 59.979164 401.9375 60.33854Q402.20312 60.697914 402.29688 61.291664L401.26562 61.43229Q401.20312 60.96354 400.85938 60.697914Q400.53125 60.416664 399.90625 60.416664Q399.1875 60.416664 398.875 60.666664Q398.5625 60.90104 398.5625 61.229164Q398.5625 61.43229 398.6875 61.58854Q398.82812 61.760414 399.09375 61.86979Q399.25 61.93229 400.03125 62.135414Q401.15625 62.447914 401.59375 62.635414Q402.03125 62.822914 402.28125 63.18229Q402.53125 63.541664 402.53125 64.08854Q402.53125 64.61979 402.21875 65.08854Q401.92188 65.541664 401.34375 65.80729Q400.76562 66.05729 400.03125 66.05729Q398.8125 66.05729 398.17188 65.55729Q397.54688 65.041664 397.375 64.05729Z" fill-rule="nonzero"/><path fill="#757575" d="M20.096874 37.55L20.096874 23.2375L25.4875 23.2375Q26.925 23.2375 27.675 23.3625Q28.721874 23.55 29.440624 24.05Q30.159374 24.534374 30.58125 25.425Q31.01875 26.315624 31.01875 27.378124Q31.01875 29.20625 29.846874 30.471874Q28.690624 31.721874 25.659374 31.721874L21.9875 31.721874L21.9875 37.55L20.096874 37.55ZM21.9875 30.034374L25.690624 30.034374Q27.51875 30.034374 28.284374 29.3625Q29.065624 28.675 29.065624 27.425Q29.065624 26.534374 28.6125 25.89375Q28.159374 25.253124 27.425 25.05Q26.940624 24.925 25.64375 24.925L21.9875 24.925L21.9875 30.034374ZM39.971874 34.20625L41.784374 34.440624Q41.3625 36.01875 40.190624 36.909374Q39.034374 37.784374 37.221874 37.784374Q34.95625 37.784374 33.6125 36.39375Q32.284374 34.9875 32.284374 32.45625Q32.284374 29.83125 33.628124 28.39375Q34.971874 26.940624 37.128124 26.940624Q39.20625 26.940624 40.51875 28.3625Q41.846874 29.76875 41.846874 32.346874Q41.846874 32.503124 41.83125 32.815624L34.096874 32.815624Q34.190624 34.51875 35.065624 35.425Q35.940624 36.33125 37.2375 36.33125Q38.20625 36.33125 38.878124 35.83125Q39.565624 35.315624 39.971874 34.20625ZM34.190624 31.3625L39.9875 31.3625Q39.878124 30.065624 39.33125 29.409374Q38.4875 28.39375 37.14375 28.39375Q35.940624 28.39375 35.1125 29.20625Q34.284374 30.003124 34.190624 31.3625ZM43.846874 37.55L43.846874 27.175L45.425 27.175L45.425 28.753124Q46.034374 27.64375 46.55 27.3Q47.065624 26.940624 47.675 26.940624Q48.565624 26.940624 49.4875 27.503124L48.878124 29.14375Q48.2375 28.753124 47.596874 28.753124Q47.01875 28.753124 46.55 29.1125Q46.096874 29.45625 45.89375 30.065624Q45.6125 31.003124 45.6125 32.1125L45.6125 37.55L43.846874 37.55ZM51.284374 37.55L51.284374 28.55L49.7375 28.55L49.7375 27.175L51.284374 27.175L51.284374 26.08125Q51.284374 25.034374 51.471874 24.51875Q51.721874 23.83125 52.3625 23.409374Q53.003124 22.9875 54.159374 22.9875Q54.909374 22.9875 55.8 23.159374L55.534374 24.690624Q54.9875 24.596874 54.503124 24.596874Q53.70625 24.596874 53.3625 24.940624Q53.034374 25.284374 53.034374 26.221874L53.034374 27.175L55.065624 27.175L55.065624 28.55L53.034374 28.55L53.034374 37.55L51.284374 37.55ZM56.221874 32.3625Q56.221874 29.4875 57.815624 28.096874Q59.159374 26.940624 61.08125 26.940624Q63.221874 26.940624 64.56563 28.346874Q65.925 29.753124 65.925 32.221874Q65.925 34.221874 65.33125 35.378124Q64.7375 36.51875 63.58125 37.159374Q62.440624 37.784374 61.08125 37.784374Q58.89375 37.784374 57.55 36.39375Q56.221874 34.9875 56.221874 32.3625ZM58.01875 32.3625Q58.01875 34.3625 58.878124 35.346874Q59.753124 36.33125 61.08125 36.33125Q62.39375 36.33125 63.253124 35.346874Q64.12813 34.346874 64.12813 32.3Q64.12813 30.378124 63.253124 29.39375Q62.378124 28.39375 61.08125 28.39375Q59.753124 28.39375 58.878124 29.39375Q58.01875 30.378124 58.01875 32.3625ZM67.84688 37.55L67.84688 27.175L69.425 27.175L69.425 28.753124Q70.03438 27.64375 70.55 27.3Q71.06563 26.940624 71.675 26.940624Q72.56563 26.940624 73.4875 27.503124L72.87813 29.14375Q72.2375 28.753124 71.59688 28.753124Q71.01875 28.753124 70.55 29.1125Q70.09688 29.45625 69.89375 30.065624Q69.6125 31.003124 69.6125 32.1125L69.6125 37.55L67.84688 37.55ZM74.8625 37.55L74.8625 27.175L76.44063 27.175L76.44063 28.628124Q76.925 27.878124 77.7375 27.409374Q78.55 26.940624 79.58125 26.940624Q80.7375 26.940624 81.47188 27.425Q82.20625 27.89375 82.51875 28.753124Q83.75313 26.940624 85.72188 26.940624Q87.26875 26.940624 88.09688 27.8Q88.925 28.659374 88.925 30.425L88.925 37.55L87.175 37.55L87.175 31.01875Q87.175 29.95625 87.00313 29.503124Q86.83125 29.034374 86.37813 28.753124Q85.94063 28.471874 85.33125 28.471874Q84.2375 28.471874 83.50313 29.20625Q82.78438 29.925 82.78438 31.51875L82.78438 37.55L81.03438 37.55L81.03438 30.815624Q81.03438 29.64375 80.59688 29.065624Q80.175 28.471874 79.19063 28.471874Q78.45625 28.471874 77.81563 28.8625Q77.19063 29.253124 76.90938 30.003124Q76.62813 30.753124 76.62813 32.175L76.62813 37.55L74.8625 37.55ZM97.64375 36.26875Q96.65938 37.096874 95.75313 37.440624Q94.84688 37.784374 93.81563 37.784374Q92.1125 37.784374 91.19063 36.95625Q90.26875 36.1125 90.26875 34.815624Q90.26875 34.05 90.6125 33.425Q90.97188 32.8 91.53438 32.425Q92.09688 32.034374 92.8 31.83125Q93.31563 31.70625 94.3625 31.565624Q96.4875 31.315624 97.4875 30.971874Q97.50313 30.6125 97.50313 30.503124Q97.50313 29.440624 97.00313 28.9875Q96.33125 28.39375 95.00313 28.39375Q93.75313 28.39375 93.15938 28.83125Q92.58125 29.26875 92.3 30.378124L90.58125 30.14375Q90.81563 29.034374 91.34688 28.3625Q91.87813 27.675 92.89375 27.315624Q93.90938 26.940624 95.25313 26.940624Q96.58125 26.940624 97.40938 27.253124Q98.2375 27.565624 98.62813 28.05Q99.01875 28.51875 99.175 29.2375Q99.26875 29.690624 99.26875 30.8625L99.26875 33.20625Q99.26875 35.659374 99.37813 36.315624Q99.4875 36.95625 99.83125 37.55L97.9875 37.55Q97.72188 37.003124 97.64375 36.26875ZM97.4875 32.346874Q96.53438 32.7375 94.6125 33.003124Q93.53438 33.159374 93.08125 33.3625Q92.64375 33.55 92.39375 33.925Q92.14375 34.3 92.14375 34.76875Q92.14375 35.471874 92.675 35.940624Q93.20625 36.409374 94.2375 36.409374Q95.25313 36.409374 96.03438 35.971874Q96.83125 35.51875 97.20625 34.753124Q97.4875 34.14375 97.4875 32.9875L97.4875 32.346874ZM101.8625 37.55L101.8625 27.175L103.45625 27.175L103.45625 28.659374Q104.59688 26.940624 106.75313 26.940624Q107.69063 26.940624 108.47188 27.284374Q109.26875 27.6125 109.65938 28.159374Q110.05 28.70625 110.20625 29.45625Q110.3 29.95625 110.3 31.175L110.3 37.55L108.53438 37.55L108.53438 31.2375Q108.53438 30.159374 108.33125 29.628124Q108.12813 29.096874 107.59688 28.784374Q107.08125 28.471874 106.37813 28.471874Q105.25313 28.471874 104.44063 29.190624Q103.62813 29.89375 103.62813 31.878124L103.62813 37.55L101.8625 37.55ZM118.64375 33.753124L120.3625 33.971874Q120.08125 35.76875 118.90938 36.784374Q117.75313 37.784374 116.05 37.784374Q113.925 37.784374 112.62813 36.39375Q111.33125 35.003124 111.33125 32.409374Q111.33125 30.721874 111.87813 29.471874Q112.44063 28.20625 113.58125 27.58125Q114.72188 26.940624 116.06563 26.940624Q117.75313 26.940624 118.81563 27.8Q119.89375 28.659374 120.20625 30.221874L118.4875 30.4875Q118.25313 29.440624 117.62813 28.925Q117.00313 28.39375 116.12813 28.39375Q114.8 28.39375 113.97188 29.346874Q113.14375 30.3 113.14375 32.346874Q113.14375 34.440624 113.94063 35.39375Q114.7375 36.33125 116.03438 36.33125Q117.06563 36.33125 117.75313 35.70625Q118.45625 35.065624 118.64375 33.753124ZM128.97188 34.20625L130.78438 34.440624Q130.3625 36.01875 129.19063 36.909374Q128.03438 37.784374 126.22188 37.784374Q123.95625 37.784374 122.6125 36.39375Q121.28438 34.9875 121.28438 32.45625Q121.28438 29.83125 122.62813 28.39375Q123.97188 26.940624 126.12813 26.940624Q128.20625 26.940624 129.51875 28.3625Q130.84688 29.76875 130.84688 32.346874Q130.84688 32.503124 130.83125 32.815624L123.09688 32.815624Q123.19063 34.51875 124.06563 35.425Q124.94063 36.33125 126.2375 36.33125Q127.20625 36.33125 127.87813 35.83125Q128.56563 35.315624 128.97188 34.20625ZM123.19063 31.3625L128.9875 31.3625Q128.87813 30.065624 128.33125 29.409374Q127.4875 28.39375 126.14375 28.39375Q124.94063 28.39375 124.1125 29.20625Q123.28438 30.003124 123.19063 31.3625ZM145.64375 33.753124L147.3625 33.971874Q147.08125 35.76875 145.90938 36.784374Q144.75313 37.784374 143.05 37.784374Q140.925 37.784374 139.62813 36.39375Q138.33125 35.003124 138.33125 32.409374Q138.33125 30.721874 138.87813 29.471874Q139.44063 28.20625 140.58125 27.58125Q141.72188 26.940624 143.06563 26.940624Q144.75313 26.940624 145.81563 27.8Q146.89375 28.659374 147.20625 30.221874L145.4875 30.4875Q145.25313 29.440624 144.62813 28.925Q144.00313 28.39375 143.12813 28.39375Q141.8 28.39375 140.97188 29.346874Q140.14375 30.3 140.14375 32.346874Q140.14375 34.440624 140.94063 35.39375Q141.7375 36.33125 143.03438 36.33125Q144.06563 36.33125 144.75313 35.70625Q145.45625 35.065624 145.64375 33.753124ZM148.22188 32.3625Q148.22188 29.4875 149.81563 28.096874Q151.15938 26.940624 153.08125 26.940624Q155.22188 26.940624 156.56563 28.346874Q157.925 29.753124 157.925 32.221874Q157.925 34.221874 157.33125 35.378124Q156.7375 36.51875 155.58125 37.159374Q154.44063 37.784374 153.08125 37.784374Q150.89375 37.784374 149.55 36.39375Q148.22188 34.9875 148.22188 32.3625ZM150.01875 32.3625Q150.01875 34.3625 150.87813 35.346874Q151.75313 36.33125 153.08125 36.33125Q154.39375 36.33125 155.25313 35.346874Q156.12813 34.346874 156.12813 32.3Q156.12813 30.378124 155.25313 29.39375Q154.37813 28.39375 153.08125 28.39375Q151.75313 28.39375 150.87813 29.39375Q150.01875 30.378124 150.01875 32.3625ZM159.8625 37.55L159.8625 27.175L161.44063 27.175L161.44063 28.628124Q161.925 27.878124 162.7375 27.409374Q163.55 26.940624 164.58125 26.940624Q165.7375 26.940624 166.47188 27.425Q167.20625 27.89375 167.51875 28.753124Q168.75313 26.940624 170.72188 26.940624Q172.26875 26.940624 173.09688 27.8Q173.925 28.659374 173.925 30.425L173.925 37.55L172.175 37.55L172.175 31.01875Q172.175 29.95625 172.00313 29.503124Q171.83125 29.034374 171.37813 28.753124Q170.94063 28.471874 170.33125 28.471874Q169.2375 28.471874 168.50313 29.20625Q167.78438 29.925 167.78438 31.51875L167.78438 37.55L166.03438 37.55L166.03438 30.815624Q166.03438 29.64375 165.59688 29.065624Q165.175 28.471874 164.19063 28.471874Q163.45625 28.471874 162.81563 28.8625Q162.19063 29.253124 161.90938 30.003124Q161.62813 30.753124 161.62813 32.175L161.62813 37.55L159.8625 37.55ZM175.8625 41.51875L175.8625 27.175L177.47188 27.175L177.47188 28.51875Q178.03438 27.7375 178.7375 27.346874Q179.45625 26.940624 180.47188 26.940624Q181.8 26.940624 182.81563 27.628124Q183.83125 28.315624 184.34688 29.565624Q184.87813 30.8 184.87813 32.284374Q184.87813 33.878124 184.3 35.159374Q183.7375 36.425 182.64375 37.1125Q181.55 37.784374 180.34688 37.784374Q179.47188 37.784374 178.76875 37.409374Q178.08125 37.034374 177.62813 36.471874L177.62813 41.51875L175.8625 41.51875ZM177.45625 32.425Q177.45625 34.425 178.26875 35.378124Q179.08125 36.33125 180.2375 36.33125Q181.40938 36.33125 182.2375 35.346874Q183.08125 34.3625 183.08125 32.26875Q183.08125 30.3 182.25313 29.315624Q181.44063 28.315624 180.31563 28.315624Q179.19063 28.315624 178.31563 29.378124Q177.45625 30.425 177.45625 32.425ZM193.64375 36.26875Q192.65938 37.096874 191.75313 37.440624Q190.84688 37.784374 189.81563 37.784374Q188.1125 37.784374 187.19063 36.95625Q186.26875 36.1125 186.26875 34.815624Q186.26875 34.05 186.6125 33.425Q186.97188 32.8 187.53438 32.425Q188.09688 32.034374 188.8 31.83125Q189.31563 31.70625 190.3625 31.565624Q192.4875 31.315624 193.4875 30.971874Q193.50313 30.6125 193.50313 30.503124Q193.50313 29.440624 193.00313 28.9875Q192.33125 28.39375 191.00313 28.39375Q189.75313 28.39375 189.15938 28.83125Q188.58125 29.26875 188.3 30.378124L186.58125 30.14375Q186.81563 29.034374 187.34688 28.3625Q187.87813 27.675 188.89375 27.315624Q189.90938 26.940624 191.25313 26.940624Q192.58125 26.940624 193.40938 27.253124Q194.2375 27.565624 194.62813 28.05Q195.01875 28.51875 195.175 29.2375Q195.26875 29.690624 195.26875 30.8625L195.26875 33.20625Q195.26875 35.659374 195.37813 36.315624Q195.4875 36.95625 195.83125 37.55L193.9875 37.55Q193.72188 37.003124 193.64375 36.26875ZM193.4875 32.346874Q192.53438 32.7375 190.6125 33.003124Q189.53438 33.159374 189.08125 33.3625Q188.64375 33.55 188.39375 33.925Q188.14375 34.3 188.14375 34.76875Q188.14375 35.471874 188.675 35.940624Q189.20625 36.409374 190.2375 36.409374Q191.25313 36.409374 192.03438 35.971874Q192.83125 35.51875 193.20625 34.753124Q193.4875 34.14375 193.4875 32.9875L193.4875 32.346874ZM197.84688 37.55L197.84688 27.175L199.425 27.175L199.425 28.753124Q200.03438 27.64375 200.55 27.3Q201.06563 26.940624 201.675 26.940624Q202.56563 26.940624 203.4875 27.503124L202.87813 29.14375Q202.2375 28.753124 201.59688 28.753124Q201.01875 28.753124 200.55 29.1125Q200.09688 29.45625 199.89375 30.065624Q199.6125 31.003124 199.6125 32.1125L199.6125 37.55L197.84688 37.55ZM204.87813 25.253124L204.87813 23.2375L206.64375 23.2375L206.64375 25.253124L204.87813 25.253124ZM204.87813 37.55L204.87813 27.175L206.64375 27.175L206.64375 37.55L204.87813 37.55ZM208.15938 34.45625L209.90938 34.175Q210.05 35.221874 210.72188 35.784374Q211.39375 36.33125 212.59688 36.33125Q213.8 36.33125 214.37813 35.846874Q214.97188 35.346874 214.97188 34.690624Q214.97188 34.096874 214.45625 33.753124Q214.09688 33.51875 212.65938 33.159374Q210.72188 32.659374 209.97188 32.315624Q209.2375 31.95625 208.84688 31.33125Q208.45625 30.690624 208.45625 29.925Q208.45625 29.2375 208.76875 28.64375Q209.09688 28.05 209.64375 27.659374Q210.05 27.3625 210.75313 27.159374Q211.47188 26.940624 212.28438 26.940624Q213.50313 26.940624 214.425 27.3Q215.34688 27.64375 215.78438 28.253124Q216.22188 28.846874 216.39375 29.846874L214.675 30.08125Q214.55 29.284374 213.9875 28.846874Q213.425 28.39375 212.40938 28.39375Q211.19063 28.39375 210.675 28.8Q210.15938 29.190624 210.15938 29.721874Q210.15938 30.065624 210.37813 30.346874Q210.58125 30.628124 211.05 30.815624Q211.31563 30.909374 212.59688 31.253124Q214.47188 31.753124 215.20625 32.08125Q215.94063 32.39375 216.3625 33.003124Q216.78438 33.596874 216.78438 34.503124Q216.78438 35.378124 216.26875 36.159374Q215.75313 36.940624 214.78438 37.3625Q213.81563 37.784374 212.59688 37.784374Q210.58125 37.784374 209.51875 36.940624Q208.45625 36.096874 208.15938 34.45625ZM218.22188 32.3625Q218.22188 29.4875 219.81563 28.096874Q221.15938 26.940624 223.08125 26.940624Q225.22188 26.940624 226.56563 28.346874Q227.925 29.753124 227.925 32.221874Q227.925 34.221874 227.33125 35.378124Q226.7375 36.51875 225.58125 37.159374Q224.44063 37.784374 223.08125 37.784374Q220.89375 37.784374 219.55 36.39375Q218.22188 34.9875 218.22188 32.3625ZM220.01875 32.3625Q220.01875 34.3625 220.87813 35.346874Q221.75313 36.33125 223.08125 36.33125Q224.39375 36.33125 225.25313 35.346874Q226.12813 34.346874 226.12813 32.3Q226.12813 30.378124 225.25313 29.39375Q224.37813 28.39375 223.08125 28.39375Q221.75313 28.39375 220.87813 29.39375Q220.01875 30.378124 220.01875 32.3625ZM229.8625 37.55L229.8625 27.175L231.45625 27.175L231.45625 28.659374Q232.59688 26.940624 234.75313 26.940624Q235.69063 26.940624 236.47188 27.284374Q237.26875 27.6125 237.65938 28.159374Q238.05 28.70625 238.20625 29.45625Q238.3 29.95625 238.3 31.175L238.3 37.55L236.53438 37.55L236.53438 31.2375Q236.53438 30.159374 236.33125 29.628124Q236.12813 29.096874 235.59688 28.784374Q235.08125 28.471874 234.37813 28.471874Q233.25313 28.471874 232.44063 29.190624Q231.62813 29.89375 231.62813 31.878124L231.62813 37.55L229.8625 37.55Z" fill-rule="nonzero"/></svg>