<svg version="1.1" viewBox="0.0 0.0 600.0 371.0" fill="none" stroke="none" stroke-linecap="square" stroke-miterlimit="10" width="600" height="371" xmlns:xlink="http://www.w3.org/1999/xlink" xmlns="http://www.w3.org/2000/svg"><path fill="#ffffff" d="M0 0L600.0 0L600.0 371.0L0 371.0L0 0Z" fill-rule="nonzero"/><path stroke="#333333" stroke-width="1.0" stroke-linecap="butt" d="M137.5 54.5L137.5 300.5" fill-rule="nonzero"/><path stroke="#cccccc" stroke-width="1.0" stroke-linecap="butt" d="M225.5 54.5L225.5 300.5" fill-rule="nonzero"/><path stroke="#cccccc" stroke-width="1.0" stroke-linecap="butt" d="M314.5 54.5L314.5 300.5" fill-rule="nonzero"/><path stroke="#cccccc" stroke-width="1.0" stroke-linecap="butt" d="M403.5 54.5L403.5 300.5" fill-rule="nonzero"/><path stroke="#cccccc" stroke-width="1.0" stroke-linecap="butt" d="M492.5 54.5L492.5 300.5" fill-rule="nonzero"/><path stroke="#cccccc" stroke-width="1.0" stroke-linecap="butt" d="M581.5 54.5L581.5 300.5" fill-rule="nonzero"/><clipPath id="id_0"><path d="M137.13 54.916668L581.45 54.916668L581.45 300.45L137.13 300.45L137.13 54.916668Z" clip-rule="nonzero"/></clipPath><path stroke="#000000" stroke-width="2.0" stroke-linecap="butt" stroke-opacity="0.0" clip-path="url(#id_0)" d="M137.0 128.0L137.0 80.0L557.0 80.0C558.10455 80.0 559.0 80.89543 559.0 82.0L559.0 126.0C559.0 127.10457 558.10455 128.0 557.0 128.0Z" fill-rule="nonzero"/><path fill="#6d9eeb" clip-path="url(#id_0)" d="M137.0 128.0L137.0 80.0L557.0 80.0C558.10455 80.0 559.0 80.89543 559.0 82.0L559.0 126.0C559.0 127.10457 558.10455 128.0 557.0 128.0Z" fill-rule="nonzero"/><path stroke="#000000" stroke-width="2.0" stroke-linecap="butt" stroke-opacity="0.0" clip-path="url(#id_0)" d="M137.0 202.0L137.0 154.0L235.0 154.0C236.10457 154.0 237.0 154.89543 237.0 156.0L237.0 200.0C237.0 201.10457 236.10457 202.0 235.0 202.0Z" fill-rule="nonzero"/><path fill="#3c78d8" clip-path="url(#id_0)" d="M137.0 202.0L137.0 154.0L235.0 154.0C236.10457 154.0 237.0 154.89543 237.0 156.0L237.0 200.0C237.0 201.10457 236.10457 202.0 235.0 202.0Z" fill-rule="nonzero"/><path stroke="#000000" stroke-width="2.0" stroke-linecap="butt" stroke-opacity="0.0" clip-path="url(#id_0)" d="M137.0 275.0L137.0 227.0L170.0 227.0C171.10457 227.0 172.0 227.89543 172.0 229.0L172.0 273.0C172.0 274.10458 171.10457 275.0 170.0 275.0Z" fill-rule="nonzero"/><path fill="#1155cc" clip-path="url(#id_0)" d="M137.0 275.0L137.0 227.0L170.0 227.0C171.10457 227.0 172.0 227.89543 172.0 229.0L172.0 273.0C172.0 274.10458 171.10457 275.0 170.0 275.0Z" fill-rule="nonzero"/><path fill="#000000" d="M335.33688 346.6844L336.39938 346.59064Q336.4775 347.2469 336.75876 347.65314Q337.04 348.0594 337.61813 348.325Q338.21188 348.575 338.94626 348.575Q339.58688 348.575 340.08688 348.3875Q340.58688 348.1844 340.82126 347.85626Q341.07126 347.5125 341.07126 347.1219Q341.07126 346.71564 340.83688 346.41876Q340.6025 346.10626 340.07126 345.90314Q339.71188 345.7625 338.52438 345.48126Q337.3525 345.2 336.88376 344.95Q336.25876 344.6219 335.96188 344.15314Q335.665 343.66876 335.665 343.075Q335.665 342.4344 336.02438 341.8719Q336.39938 341.29376 337.1025 341.0125Q337.82126 340.71564 338.68063 340.71564Q339.63376 340.71564 340.36813 341.02814Q341.1025 341.325 341.49313 341.9344Q341.88376 342.52814 341.915 343.27814L340.82126 343.35626Q340.7275 342.54376 340.21188 342.1375Q339.71188 341.71564 338.7275 341.71564Q337.69626 341.71564 337.2275 342.09064Q336.75876 342.46564 336.75876 342.9969Q336.75876 343.46564 337.08688 343.7625Q337.415 344.0594 338.79 344.3719Q340.18063 344.6844 340.69626 344.91876Q341.44626 345.27814 341.80563 345.8094Q342.165 346.325 342.165 347.02814Q342.165 347.71564 341.77438 348.325Q341.38376 348.91876 340.64938 349.2625Q339.915 349.59064 338.99313 349.59064Q337.82126 349.59064 337.02438 349.2625Q336.24313 348.91876 335.79 348.23126Q335.3525 347.54376 335.33688 346.6844ZM347.83688 347.45L348.93063 347.575Q348.68063 348.52814 347.9775 349.0594Q347.27438 349.59064 346.19626 349.59064Q344.83688 349.59064 344.02438 348.7469Q343.2275 347.90314 343.2275 346.3875Q343.2275 344.825 344.04 343.96564Q344.8525 343.09064 346.13376 343.09064Q347.38376 343.09064 348.165 343.9344Q348.96188 344.77814 348.96188 346.325Q348.96188 346.41876 348.96188 346.60626L344.32126 346.60626Q344.38376 347.6375 344.89938 348.1844Q345.415 348.71564 346.19626 348.71564Q346.77438 348.71564 347.18063 348.41876Q347.6025 348.10626 347.83688 347.45ZM344.38376 345.7469L347.8525 345.7469Q347.79 344.95 347.46188 344.5594Q346.94626 343.95 346.14938 343.95Q345.415 343.95 344.915 344.4344Q344.43063 344.91876 344.38376 345.7469ZM354.64938 347.16876L355.68063 347.3094Q355.50876 348.3719 354.80563 348.98126Q354.1025 349.59064 353.08688 349.59064Q351.80563 349.59064 351.02438 348.7625Q350.25876 347.91876 350.25876 346.35626Q350.25876 345.35626 350.58688 344.60626Q350.93063 343.84064 351.6025 343.46564Q352.29 343.09064 353.1025 343.09064Q354.1025 343.09064 354.74313 343.60626Q355.39938 344.10626 355.58688 345.0594L354.55563 345.21564Q354.415 344.59064 354.04 344.27814Q353.665 343.95 353.13376 343.95Q352.33688 343.95 351.83688 344.52814Q351.33688 345.09064 351.33688 346.325Q351.33688 347.59064 351.82126 348.15314Q352.30563 348.71564 353.07126 348.71564Q353.69626 348.71564 354.1025 348.34064Q354.52438 347.96564 354.64938 347.16876ZM356.19626 346.34064Q356.19626 344.60626 357.14938 343.77814Q357.94626 343.09064 359.1025 343.09064Q360.38376 343.09064 361.19626 343.9344Q362.02438 344.7625 362.02438 346.2469Q362.02438 347.45 361.665 348.1375Q361.30563 348.825 360.6025 349.21564Q359.915 349.59064 359.1025 349.59064Q357.80563 349.59064 356.99313 348.7625Q356.19626 347.91876 356.19626 346.34064ZM357.27438 346.34064Q357.27438 347.52814 357.79 348.1219Q358.32126 348.71564 359.1025 348.71564Q359.89938 348.71564 360.415 348.1219Q360.93063 347.52814 360.93063 346.3094Q360.93063 345.15314 360.39938 344.5594Q359.88376 343.96564 359.1025 343.96564Q358.32126 343.96564 357.79 344.5594Q357.27438 345.1375 357.27438 346.34064ZM363.58688 349.45L363.58688 343.23126L364.52438 343.23126L364.52438 344.10626Q365.21188 343.09064 366.50876 343.09064Q367.07126 343.09064 367.54 343.29376Q368.02438 343.4969 368.25876 343.825Q368.49313 344.15314 368.58688 344.59064Q368.63376 344.8875 368.63376 345.6219L368.63376 349.45L367.58688 349.45L367.58688 345.66876Q367.58688 345.0125 367.46188 344.7Q367.33688 344.3875 367.02438 344.2Q366.71188 343.9969 366.29 343.9969Q365.61813 343.9969 365.11813 344.4344Q364.63376 344.85626 364.63376 346.04376L364.63376 349.45L363.58688 349.45ZM374.61813 349.45L374.61813 348.66876Q374.02438 349.59064 372.88376 349.59064Q372.13376 349.59064 371.50876 349.1844Q370.88376 348.7625 370.54 348.02814Q370.19626 347.29376 370.19626 346.34064Q370.19626 345.41876 370.50876 344.65314Q370.82126 343.8875 371.44626 343.4969Q372.07126 343.09064 372.83688 343.09064Q373.39938 343.09064 373.83688 343.325Q374.27438 343.5594 374.55563 343.9344L374.55563 340.85626L375.6025 340.85626L375.6025 349.45L374.61813 349.45ZM371.29 346.34064Q371.29 347.54376 371.79 348.1375Q372.29 348.71564 372.9775 348.71564Q373.665 348.71564 374.14938 348.15314Q374.63376 347.59064 374.63376 346.4344Q374.63376 345.15314 374.13376 344.5594Q373.64938 343.96564 372.93063 343.96564Q372.2275 343.96564 371.75876 344.54376Q371.29 345.10626 371.29 346.34064ZM377.165 347.59064L378.19626 347.4344Q378.29 348.0594 378.68063 348.3875Q379.08688 348.71564 379.82126 348.71564Q380.54 348.71564 380.88376 348.4344Q381.24313 348.1375 381.24313 347.73126Q381.24313 347.3719 380.93063 347.16876Q380.71188 347.02814 379.8525 346.8094Q378.69626 346.5125 378.24313 346.3094Q377.80563 346.09064 377.57126 345.71564Q377.33688 345.34064 377.33688 344.8719Q377.33688 344.46564 377.52438 344.10626Q377.71188 343.7469 378.04 343.5125Q378.29 343.34064 378.71188 343.21564Q379.13376 343.09064 379.63376 343.09064Q380.3525 343.09064 380.89938 343.3094Q381.46188 343.5125 381.7275 343.8719Q381.99313 344.23126 382.08688 344.825L381.05563 344.96564Q380.99313 344.4969 380.64938 344.23126Q380.32126 343.95 379.69626 343.95Q378.9775 343.95 378.665 344.2Q378.3525 344.4344 378.3525 344.7625Q378.3525 344.96564 378.4775 345.1219Q378.61813 345.29376 378.88376 345.40314Q379.04 345.46564 379.82126 345.66876Q380.94626 345.98126 381.38376 346.16876Q381.82126 346.35626 382.07126 346.71564Q382.32126 347.075 382.32126 347.6219Q382.32126 348.15314 382.00876 348.6219Q381.71188 349.075 381.13376 349.34064Q380.55563 349.59064 379.82126 349.59064Q378.6025 349.59064 377.96188 349.09064Q377.33688 348.575 377.165 347.59064Z" fill-rule="nonzero"/><path fill="#000000" d="M88.1925 105.374176L89.3175 105.67105Q88.95812 107.061676 88.03625 107.79605Q87.11437 108.530426 85.77062 108.530426Q84.38 108.530426 83.505 107.967926Q82.63 107.405426 82.17687 106.342926Q81.72375 105.2648 81.72375 104.030426Q81.72375 102.686676 82.23937 101.686676Q82.755 100.686676 83.6925 100.17105Q84.64562 99.655426 85.78625 99.655426Q87.0675 99.655426 87.9425 100.311676Q88.83312 100.967926 89.17687 102.155426L88.05187 102.42105Q87.755 101.48355 87.17687 101.061676Q86.61437 100.624176 85.755 100.624176Q84.77062 100.624176 84.09875 101.10855Q83.4425 101.5773 83.16125 102.374176Q82.89562 103.17105 82.89562 104.030426Q82.89562 105.124176 83.20812 105.936676Q83.53625 106.749176 84.20812 107.155426Q84.88 107.561676 85.67687 107.561676Q86.63 107.561676 87.28625 107.0148Q87.95812 106.467926 88.1925 105.374176ZM98.17687 106.3898L99.27062 106.5148Q99.02062 107.467926 98.3175 107.999176Q97.61437 108.530426 96.53625 108.530426Q95.17687 108.530426 94.36437 107.686676Q93.5675 106.842926 93.5675 105.3273Q93.5675 103.7648 94.38 102.905426Q95.1925 102.030426 96.47375 102.030426Q97.72375 102.030426 98.505 102.874176Q99.30187 103.717926 99.30187 105.2648Q99.30187 105.35855 99.30187 105.54605L94.66125 105.54605Q94.72375 106.5773 95.23937 107.124176Q95.755 107.655426 96.53625 107.655426Q97.11437 107.655426 97.52062 107.35855Q97.9425 107.04605 98.17687 106.3898ZM94.72375 104.686676L98.1925 104.686676Q98.13 103.8898 97.80187 103.499176Q97.28625 102.8898 96.48937 102.8898Q95.755 102.8898 95.255 103.374176Q94.77062 103.85855 94.72375 104.686676ZM100.92687 108.3898L100.92687 102.17105L101.86437 102.17105L101.86437 103.04605Q102.55187 102.030426 103.84875 102.030426Q104.41125 102.030426 104.88 102.23355Q105.36437 102.436676 105.59875 102.7648Q105.83312 103.092926 105.92687 103.530426Q105.97375 103.8273 105.97375 104.561676L105.97375 108.3898L104.92687 108.3898L104.92687 104.60855Q104.92687 103.9523 104.80187 103.6398Q104.67687 103.3273 104.36437 103.1398Q104.05187 102.936676 103.63 102.936676Q102.95812 102.936676 102.45812 103.374176Q101.97375 103.79605 101.97375 104.98355L101.97375 108.3898L100.92687 108.3898ZM107.72375 108.905426L108.755 109.061676Q108.8175 109.530426 109.11437 109.749176Q109.505 110.04605 110.17687 110.04605Q110.91125 110.04605 111.30187 109.749176Q111.70812 109.4523 111.84875 108.936676Q111.9425 108.60855 111.92687 107.5773Q111.23937 108.3898 110.20812 108.3898Q108.92687 108.3898 108.22375 107.467926Q107.52062 106.530426 107.52062 105.249176Q107.52062 104.35855 107.83312 103.60855Q108.16125 102.842926 108.77062 102.436676Q109.38 102.030426 110.20812 102.030426Q111.3175 102.030426 112.03625 102.92105L112.03625 102.17105L113.005 102.17105L113.005 107.54605Q113.005 108.999176 112.70812 109.60855Q112.41125 110.217926 111.77062 110.561676Q111.13 110.92105 110.1925 110.92105Q109.08312 110.92105 108.39562 110.42105Q107.70812 109.92105 107.72375 108.905426ZM108.59875 105.17105Q108.59875 106.3898 109.08312 106.9523Q109.5675 107.5148 110.30187 107.5148Q111.03625 107.5148 111.52062 106.9523Q112.02062 106.3898 112.02062 105.2023Q112.02062 104.061676 111.505 103.48355Q111.005 102.905426 110.28625 102.905426Q109.58312 102.905426 109.08312 103.48355Q108.59875 104.04605 108.59875 105.17105ZM114.92687 101.0148L114.92687 99.79605L115.98937 99.79605L115.98937 101.0148L114.92687 101.0148ZM114.92687 108.3898L114.92687 102.17105L115.98937 102.17105L115.98937 108.3898L114.92687 108.3898ZM117.92687 108.3898L117.92687 102.17105L118.86437 102.17105L118.86437 103.04605Q119.55187 102.030426 120.84875 102.030426Q121.41125 102.030426 121.88 102.23355Q122.36437 102.436676 122.59875 102.7648Q122.83312 103.092926 122.92687 103.530426Q122.97375 103.8273 122.97375 104.561676L122.97375 108.3898L121.92687 108.3898L121.92687 104.60855Q121.92687 103.9523 121.80187 103.6398Q121.67687 103.3273 121.36437 103.1398Q121.05187 102.936676 120.63 102.936676Q119.95812 102.936676 119.45812 103.374176Q118.97375 103.79605 118.97375 104.98355L118.97375 108.3898L117.92687 108.3898ZM129.17688 106.3898L130.27063 106.5148Q130.02063 107.467926 129.3175 107.999176Q128.61438 108.530426 127.53625 108.530426Q126.17687 108.530426 125.36437 107.686676Q124.5675 106.842926 124.5675 105.3273Q124.5675 103.7648 125.38 102.905426Q126.1925 102.030426 127.47375 102.030426Q128.72375 102.030426 129.505 102.874176Q130.30188 103.717926 130.30188 105.2648Q130.30188 105.35855 130.30188 105.54605L125.66125 105.54605Q125.72375 106.5773 126.23937 107.124176Q126.755 107.655426 127.53625 107.655426Q128.11438 107.655426 128.52063 107.35855Q128.9425 107.04605 129.17688 106.3898ZM125.72375 104.686676L129.1925 104.686676Q129.13 103.8898 128.80188 103.499176Q128.28625 102.8898 127.48937 102.8898Q126.755 102.8898 126.255 103.374176Q125.77062 103.85855 125.72375 104.686676Z" fill-rule="nonzero"/><path fill="#000000" d="M47.051876 181.68333L47.051876 173.08958L50.301876 173.08958Q51.145626 173.08958 51.59875 173.16771Q52.239376 173.27708 52.66125 173.57396Q53.09875 173.87083 53.34875 174.40208Q53.614376 174.93333 53.614376 175.57396Q53.614376 176.66771 52.91125 177.43333Q52.22375 178.18333 50.395626 178.18333L48.1925 178.18333L48.1925 181.68333L47.051876 181.68333ZM48.1925 177.18333L50.41125 177.18333Q51.520626 177.18333 51.97375 176.77708Q52.4425 176.35521 52.4425 175.60521Q52.4425 175.07396 52.16125 174.69896Q51.895626 174.30833 51.458126 174.18333Q51.16125 174.10521 50.395626 174.10521L48.1925 174.10521L48.1925 177.18333ZM54.88 184.07396L54.755 183.08958Q55.09875 183.18333 55.364376 183.18333Q55.708126 183.18333 55.91125 183.05833Q56.13 182.94896 56.270626 182.74583Q56.364376 182.57396 56.59875 181.94896Q56.614376 181.87083 56.6925 181.69896L54.3175 175.46458L55.458126 175.46458L56.755 179.05833Q57.005 179.74583 57.208126 180.51146Q57.395626 179.77708 57.645626 179.08958L58.97375 175.46458L60.020626 175.46458L57.66125 181.79271Q57.270626 182.80833 57.0675 183.19896Q56.78625 183.73021 56.41125 183.96458Q56.051876 184.21458 55.551876 184.21458Q55.255 184.21458 54.88 184.07396ZM59.114376 181.68333L62.41125 173.08958L63.63 173.08958L67.14563 181.68333L65.86438 181.68333L64.848755 179.07396L61.270626 179.07396L60.3175 181.68333L59.114376 181.68333ZM61.59875 178.15208L64.505005 178.15208L63.614376 175.77708Q63.1925 174.69896 63.005 173.99583Q62.833126 174.82396 62.53625 175.63646L61.59875 178.15208ZM66.911255 181.68333L66.911255 175.46458L67.86438 175.46458L67.86438 176.40208Q68.223755 175.74583 68.52063 175.54271Q68.83313 175.32396 69.20813 175.32396Q69.73938 175.32396 70.286255 175.65208L69.92688 176.63646Q69.536255 176.40208 69.161255 176.40208Q68.80188 176.40208 68.52063 176.62083Q68.255005 176.82396 68.14563 177.19896Q67.95813 177.76146 67.95813 178.41771L67.95813 181.68333L66.911255 181.68333ZM70.911255 181.68333L70.911255 175.46458L71.86438 175.46458L71.86438 176.40208Q72.223755 175.74583 72.52063 175.54271Q72.83313 175.32396 73.20813 175.32396Q73.73938 175.32396 74.286255 175.65208L73.92688 176.63646Q73.536255 176.40208 73.161255 176.40208Q72.80188 176.40208 72.52063 176.62083Q72.255005 176.82396 72.14563 177.19896Q71.95813 177.76146 71.95813 178.41771L71.95813 181.68333L70.911255 181.68333ZM74.536255 178.57396Q74.536255 176.83958 75.48938 176.01146Q76.286255 175.32396 77.442505 175.32396Q78.723755 175.32396 79.536255 176.16771Q80.36438 176.99583 80.36438 178.48021Q80.36438 179.68333 80.005005 180.37083Q79.64563 181.05833 78.942505 181.44896Q78.255005 181.82396 77.442505 181.82396Q76.14563 181.82396 75.33313 180.99583Q74.536255 180.15208 74.536255 178.57396ZM75.61438 178.57396Q75.61438 179.76146 76.130005 180.35521Q76.661255 180.94896 77.442505 180.94896Q78.23938 180.94896 78.755005 180.35521Q79.27063 179.76146 79.27063 178.54271Q79.27063 177.38646 78.73938 176.79271Q78.223755 176.19896 77.442505 176.19896Q76.661255 176.19896 76.130005 176.79271Q75.61438 177.37083 75.61438 178.57396ZM83.067505 181.68333L81.161255 175.46458L82.255005 175.46458L83.23938 179.05833L83.61438 180.38646Q83.64563 180.29271 83.942505 179.10521L84.92688 175.46458L86.005005 175.46458L86.942505 179.07396L87.255005 180.26146L87.61438 179.05833L88.67688 175.46458L89.70813 175.46458L87.755005 181.68333L86.661255 181.68333L85.67688 177.94896L85.42688 176.90208L84.17688 181.68333L83.067505 181.68333ZM98.17688 179.68333L99.27063 179.80833Q99.02063 180.76146 98.317505 181.29271Q97.61438 181.82396 96.536255 181.82396Q95.17688 181.82396 94.36438 180.98021Q93.567505 180.13646 93.567505 178.62083Q93.567505 177.05833 94.380005 176.19896Q95.192505 175.32396 96.473755 175.32396Q97.723755 175.32396 98.505005 176.16771Q99.30188 177.01146 99.30188 178.55833Q99.30188 178.65208 99.30188 178.83958L94.661255 178.83958Q94.723755 179.87083 95.23938 180.41771Q95.755005 180.94896 96.536255 180.94896Q97.11438 180.94896 97.52063 180.65208Q97.942505 180.33958 98.17688 179.68333ZM94.723755 177.98021L98.192505 177.98021Q98.130005 177.18333 97.80188 176.79271Q97.286255 176.18333 96.48938 176.18333Q95.755005 176.18333 95.255005 176.66771Q94.77063 177.15208 94.723755 177.98021ZM100.92688 181.68333L100.92688 175.46458L101.86438 175.46458L101.86438 176.33958Q102.55188 175.32396 103.848755 175.32396Q104.411255 175.32396 104.880005 175.52708Q105.36438 175.73021 105.598755 176.05833Q105.83313 176.38646 105.92688 176.82396Q105.973755 177.12083 105.973755 177.85521L105.973755 181.68333L104.92688 181.68333L104.92688 177.90208Q104.92688 177.24583 104.80188 176.93333Q104.67688 176.62083 104.36438 176.43333Q104.05188 176.23021 103.630005 176.23021Q102.95813 176.23021 102.45813 176.66771Q101.973755 177.08958 101.973755 178.27708L101.973755 181.68333L100.92688 181.68333ZM107.723755 182.19896L108.755005 182.35521Q108.817505 182.82396 109.11438 183.04271Q109.505005 183.33958 110.17688 183.33958Q110.911255 183.33958 111.30188 183.04271Q111.70813 182.74583 111.848755 182.23021Q111.942505 181.90208 111.92688 180.87083Q111.23938 181.68333 110.20813 181.68333Q108.92688 181.68333 108.223755 180.76146Q107.52063 179.82396 107.52063 178.54271Q107.52063 177.65208 107.83313 176.90208Q108.161255 176.13646 108.77063 175.73021Q109.380005 175.32396 110.20813 175.32396Q111.317505 175.32396 112.036255 176.21458L112.036255 175.46458L113.005005 175.46458L113.005005 180.83958Q113.005005 182.29271 112.70813 182.90208Q112.411255 183.51146 111.77063 183.85521Q111.130005 184.21458 110.192505 184.21458Q109.08313 184.21458 108.39563 183.71458Q107.70813 183.21458 107.723755 182.19896ZM108.598755 178.46458Q108.598755 179.68333 109.08313 180.24583Q109.567505 180.80833 110.30188 180.80833Q111.036255 180.80833 111.52063 180.24583Q112.02063 179.68333 112.02063 178.49583Q112.02063 177.35521 111.505005 176.77708Q111.005005 176.19896 110.286255 176.19896Q109.58313 176.19896 109.08313 176.77708Q108.598755 177.33958 108.598755 178.46458ZM114.92688 174.30833L114.92688 173.08958L115.98938 173.08958L115.98938 174.30833L114.92688 174.30833ZM114.92688 181.68333L114.92688 175.46458L115.98938 175.46458L115.98938 181.68333L114.92688 181.68333ZM117.92688 181.68333L117.92688 175.46458L118.86438 175.46458L118.86438 176.33958Q119.55188 175.32396 120.848755 175.32396Q121.411255 175.32396 121.880005 175.52708Q122.36438 175.73021 122.598755 176.05833Q122.83313 176.38646 122.92688 176.82396Q122.973755 177.12083 122.973755 177.85521L122.973755 181.68333L121.92688 181.68333L121.92688 177.90208Q121.92688 177.24583 121.80188 176.93333Q121.67688 176.62083 121.36438 176.43333Q121.05188 176.23021 120.630005 176.23021Q119.95813 176.23021 119.45813 176.66771Q118.973755 177.08958 118.973755 178.27708L118.973755 181.68333L117.92688 181.68333ZM129.17688 179.68333L130.27063 179.80833Q130.02063 180.76146 129.3175 181.29271Q128.61438 181.82396 127.536255 181.82396Q126.17688 181.82396 125.36438 180.98021Q124.567505 180.13646 124.567505 178.62083Q124.567505 177.05833 125.380005 176.19896Q126.192505 175.32396 127.473755 175.32396Q128.72375 175.32396 129.505 176.16771Q130.30188 177.01146 130.30188 178.55833Q130.30188 178.65208 130.30188 178.83958L125.661255 178.83958Q125.723755 179.87083 126.23938 180.41771Q126.755005 180.94896 127.536255 180.94896Q128.11438 180.94896 128.52063 180.65208Q128.9425 180.33958 129.17688 179.68333ZM125.723755 177.98021L129.1925 177.98021Q129.13 177.18333 128.80188 176.79271Q128.28625 176.18333 127.48938 176.18333Q126.755005 176.18333 126.255005 176.66771Q125.77063 177.15208 125.723755 177.98021Z" fill-rule="nonzero"/><path fill="#000000" d="M37.051876 247.97687L37.051876 239.38312L40.301876 239.38312Q41.145626 239.38312 41.59875 239.46124Q42.239376 239.57062 42.66125 239.8675Q43.09875 240.16437 43.34875 240.69562Q43.614376 241.22687 43.614376 241.8675Q43.614376 242.96124 42.91125 243.72687Q42.22375 244.47687 40.395626 244.47687L38.1925 244.47687L38.1925 247.97687L37.051876 247.97687ZM38.1925 243.47687L40.41125 243.47687Q41.520626 243.47687 41.97375 243.07062Q42.4425 242.64874 42.4425 241.89874Q42.4425 241.3675 42.16125 240.9925Q41.895626 240.60187 41.458126 240.47687Q41.16125 240.39874 40.395626 240.39874L38.1925 240.39874L38.1925 243.47687ZM44.88 250.3675L44.755 249.38312Q45.09875 249.47687 45.364376 249.47687Q45.708126 249.47687 45.91125 249.35187Q46.13 249.2425 46.270626 249.03937Q46.364376 248.8675 46.59875 248.2425Q46.614376 248.16437 46.6925 247.9925L44.3175 241.75812L45.458126 241.75812L46.755 245.35187Q47.005 246.03937 47.208126 246.805Q47.395626 246.07062 47.645626 245.38312L48.97375 241.75812L50.020626 241.75812L47.66125 248.08624Q47.270626 249.10187 47.0675 249.4925Q46.78625 250.02374 46.41125 250.25812Q46.051876 250.50812 45.551876 250.50812Q45.255 250.50812 44.88 250.3675ZM49.114376 247.97687L52.41125 239.38312L53.63 239.38312L57.145626 247.97687L55.864376 247.97687L54.84875 245.3675L51.270626 245.3675L50.3175 247.97687L49.114376 247.97687ZM51.59875 244.44562L54.505 244.44562L53.614376 242.07062Q53.1925 240.9925 53.005 240.28937Q52.833126 241.1175 52.53625 241.93L51.59875 244.44562ZM56.91125 247.97687L56.91125 241.75812L57.864376 241.75812L57.864376 242.69562Q58.22375 242.03937 58.520626 241.83624Q58.833126 241.6175 59.208126 241.6175Q59.739376 241.6175 60.28625 241.94562L59.926876 242.93Q59.53625 242.69562 59.16125 242.69562Q58.801876 242.69562 58.520626 242.91437Q58.255 243.1175 58.145626 243.4925Q57.958126 244.055 57.958126 244.71124L57.958126 247.97687L56.91125 247.97687ZM60.91125 247.97687L60.91125 241.75812L61.864376 241.75812L61.864376 242.69562Q62.22375 242.03937 62.520626 241.83624Q62.833126 241.6175 63.208126 241.6175Q63.739376 241.6175 64.286255 241.94562L63.926876 242.93Q63.53625 242.69562 63.16125 242.69562Q62.801876 242.69562 62.520626 242.91437Q62.255 243.1175 62.145626 243.4925Q61.958126 244.055 61.958126 244.71124L61.958126 247.97687L60.91125 247.97687ZM64.536255 244.8675Q64.536255 243.13312 65.48938 242.305Q66.286255 241.6175 67.442505 241.6175Q68.723755 241.6175 69.536255 242.46124Q70.36438 243.28937 70.36438 244.77374Q70.36438 245.97687 70.005005 246.66437Q69.64563 247.35187 68.942505 247.7425Q68.255005 248.1175 67.442505 248.1175Q66.14563 248.1175 65.33313 247.28937Q64.536255 246.44562 64.536255 244.8675ZM65.61438 244.8675Q65.61438 246.055 66.130005 246.64874Q66.661255 247.2425 67.442505 247.2425Q68.23938 247.2425 68.755005 246.64874Q69.27063 246.055 69.27063 244.83624Q69.27063 243.68 68.73938 243.08624Q68.223755 242.4925 67.442505 242.4925Q66.661255 242.4925 66.130005 243.08624Q65.61438 243.66437 65.61438 244.8675ZM73.067505 247.97687L71.161255 241.75812L72.255005 241.75812L73.23938 245.35187L73.61438 246.68Q73.64563 246.58624 73.942505 245.39874L74.92688 241.75812L76.005005 241.75812L76.942505 245.3675L77.255005 246.555L77.61438 245.35187L78.67688 241.75812L79.70813 241.75812L77.755005 247.97687L76.661255 247.97687L75.67688 244.2425L75.42688 243.19562L74.17688 247.97687L73.067505 247.97687ZM88.17688 245.97687L89.27063 246.10187Q89.02063 247.055 88.317505 247.58624Q87.61438 248.1175 86.536255 248.1175Q85.17688 248.1175 84.36438 247.27374Q83.567505 246.43 83.567505 244.91437Q83.567505 243.35187 84.380005 242.4925Q85.192505 241.6175 86.473755 241.6175Q87.723755 241.6175 88.505005 242.46124Q89.30188 243.305 89.30188 244.85187Q89.30188 244.94562 89.30188 245.13312L84.661255 245.13312Q84.723755 246.16437 85.23938 246.71124Q85.755005 247.2425 86.536255 247.2425Q87.11438 247.2425 87.52063 246.94562Q87.942505 246.63312 88.17688 245.97687ZM84.723755 244.27374L88.192505 244.27374Q88.130005 243.47687 87.80188 243.08624Q87.286255 242.47687 86.48938 242.47687Q85.755005 242.47687 85.255005 242.96124Q84.77063 243.44562 84.723755 244.27374ZM90.92688 247.97687L90.92688 241.75812L91.86438 241.75812L91.86438 242.63312Q92.55188 241.6175 93.848755 241.6175Q94.411255 241.6175 94.880005 241.82062Q95.36438 242.02374 95.598755 242.35187Q95.83313 242.68 95.92688 243.1175Q95.973755 243.41437 95.973755 244.14874L95.973755 247.97687L94.92688 247.97687L94.92688 244.19562Q94.92688 243.53937 94.80188 243.22687Q94.67688 242.91437 94.36438 242.72687Q94.05188 242.52374 93.630005 242.52374Q92.95813 242.52374 92.45813 242.96124Q91.973755 243.38312 91.973755 244.57062L91.973755 247.97687L90.92688 247.97687ZM97.723755 248.4925L98.755005 248.64874Q98.817505 249.1175 99.11438 249.33624Q99.505005 249.63312 100.17688 249.63312Q100.911255 249.63312 101.30188 249.33624Q101.70813 249.03937 101.848755 248.52374Q101.942505 248.19562 101.92688 247.16437Q101.23938 247.97687 100.20813 247.97687Q98.92688 247.97687 98.223755 247.055Q97.52063 246.1175 97.52063 244.83624Q97.52063 243.94562 97.83313 243.19562Q98.161255 242.43 98.77063 242.02374Q99.380005 241.6175 100.20813 241.6175Q101.317505 241.6175 102.036255 242.50812L102.036255 241.75812L103.005005 241.75812L103.005005 247.13312Q103.005005 248.58624 102.70813 249.19562Q102.411255 249.805 101.77063 250.14874Q101.130005 250.50812 100.192505 250.50812Q99.08313 250.50812 98.39563 250.00812Q97.70813 249.50812 97.723755 248.4925ZM98.598755 244.75812Q98.598755 245.97687 99.08313 246.53937Q99.567505 247.10187 100.30188 247.10187Q101.036255 247.10187 101.52063 246.53937Q102.02063 245.97687 102.02063 244.78937Q102.02063 243.64874 101.505005 243.07062Q101.005005 242.4925 100.286255 242.4925Q99.58313 242.4925 99.08313 243.07062Q98.598755 243.63312 98.598755 244.75812ZM104.92688 240.60187L104.92688 239.38312L105.98938 239.38312L105.98938 240.60187L104.92688 240.60187ZM104.92688 247.97687L104.92688 241.75812L105.98938 241.75812L105.98938 247.97687L104.92688 247.97687ZM107.92688 247.97687L107.92688 241.75812L108.86438 241.75812L108.86438 242.63312Q109.55188 241.6175 110.848755 241.6175Q111.411255 241.6175 111.880005 241.82062Q112.36438 242.02374 112.598755 242.35187Q112.83313 242.68 112.92688 243.1175Q112.973755 243.41437 112.973755 244.14874L112.973755 247.97687L111.92688 247.97687L111.92688 244.19562Q111.92688 243.53937 111.80188 243.22687Q111.67688 242.91437 111.36438 242.72687Q111.05188 242.52374 110.630005 242.52374Q109.95813 242.52374 109.45813 242.96124Q108.973755 243.38312 108.973755 244.57062L108.973755 247.97687L107.92688 247.97687ZM119.17688 245.97687L120.27063 246.10187Q120.02063 247.055 119.317505 247.58624Q118.61438 248.1175 117.536255 248.1175Q116.17688 248.1175 115.36438 247.27374Q114.567505 246.43 114.567505 244.91437Q114.567505 243.35187 115.380005 242.4925Q116.192505 241.6175 117.473755 241.6175Q118.723755 241.6175 119.505005 242.46124Q120.30188 243.305 120.30188 244.85187Q120.30188 244.94562 120.30188 245.13312L115.661255 245.13312Q115.723755 246.16437 116.23938 246.71124Q116.755005 247.2425 117.536255 247.2425Q118.11438 247.2425 118.52063 246.94562Q118.942505 246.63312 119.17688 245.97687ZM115.723755 244.27374L119.192505 244.27374Q119.130005 243.47687 118.80188 243.08624Q118.286255 242.47687 117.48938 242.47687Q116.755005 242.47687 116.255005 242.96124Q115.77063 243.44562 115.723755 244.27374ZM127.130005 246.58624L127.130005 244.22687L124.80188 244.22687L124.80188 243.2425L127.130005 243.2425L127.130005 240.91437L128.13 240.91437L128.13 243.2425L130.47375 243.2425L130.47375 244.22687L128.13 244.22687L128.13 246.58624L127.130005 246.58624Z" fill-rule="nonzero"/><path fill="#000000" d="M49.051876 261.97687L49.051876 253.38312L52.301876 253.38312Q53.145626 253.38312 53.59875 253.46124Q54.239376 253.57062 54.66125 253.8675Q55.09875 254.16437 55.34875 254.69562Q55.614376 255.22687 55.614376 255.8675Q55.614376 256.96124 54.91125 257.72687Q54.22375 258.47687 52.395626 258.47687L50.1925 258.47687L50.1925 261.97687L49.051876 261.97687ZM50.1925 257.47687L52.41125 257.47687Q53.520626 257.47687 53.97375 257.07062Q54.4425 256.64874 54.4425 255.89874Q54.4425 255.3675 54.16125 254.9925Q53.895626 254.60187 53.458126 254.47687Q53.16125 254.39874 52.395626 254.39874L50.1925 254.39874L50.1925 257.47687ZM56.88 264.3675L56.755 263.38312Q57.09875 263.47687 57.364376 263.47687Q57.708126 263.47687 57.91125 263.35187Q58.13 263.2425 58.270626 263.03937Q58.364376 262.8675 58.59875 262.2425Q58.614376 262.16437 58.6925 261.9925L56.3175 255.75812L57.458126 255.75812L58.755 259.35187Q59.005 260.03937 59.208126 260.805Q59.395626 260.07062 59.645626 259.38312L60.97375 255.75812L62.020626 255.75812L59.66125 262.08624Q59.270626 263.10187 59.0675 263.4925Q58.78625 264.02374 58.41125 264.25812Q58.051876 264.50812 57.551876 264.50812Q57.255 264.50812 56.88 264.3675ZM61.114376 261.97687L64.411255 253.38312L65.630005 253.38312L69.14563 261.97687L67.86438 261.97687L66.848755 259.3675L63.270626 259.3675L62.3175 261.97687L61.114376 261.97687ZM63.59875 258.44562L66.505005 258.44562L65.61438 256.07062Q65.192505 254.9925 65.005005 254.28937Q64.83313 255.1175 64.536255 255.93L63.59875 258.44562ZM68.911255 261.97687L68.911255 255.75812L69.86438 255.75812L69.86438 256.69562Q70.223755 256.03937 70.52063 255.83624Q70.83313 255.6175 71.20813 255.6175Q71.73938 255.6175 72.286255 255.94562L71.92688 256.93Q71.536255 256.69562 71.161255 256.69562Q70.80188 256.69562 70.52063 256.91437Q70.255005 257.1175 70.14563 257.4925Q69.95813 258.055 69.95813 258.71124L69.95813 261.97687L68.911255 261.97687ZM72.911255 261.97687L72.911255 255.75812L73.86438 255.75812L73.86438 256.69562Q74.223755 256.03937 74.52063 255.83624Q74.83313 255.6175 75.20813 255.6175Q75.73938 255.6175 76.286255 255.94562L75.92688 256.93Q75.536255 256.69562 75.161255 256.69562Q74.80188 256.69562 74.52063 256.91437Q74.255005 257.1175 74.14563 257.4925Q73.95813 258.055 73.95813 258.71124L73.95813 261.97687L72.911255 261.97687ZM76.536255 258.8675Q76.536255 257.13312 77.48938 256.305Q78.286255 255.6175 79.442505 255.6175Q80.723755 255.6175 81.536255 256.46124Q82.36438 257.28937 82.36438 258.77374Q82.36438 259.97687 82.005005 260.66437Q81.64563 261.35187 80.942505 261.7425Q80.255005 262.1175 79.442505 262.1175Q78.14563 262.1175 77.33313 261.28937Q76.536255 260.44562 76.536255 258.8675ZM77.61438 258.8675Q77.61438 260.055 78.130005 260.64874Q78.661255 261.2425 79.442505 261.2425Q80.23938 261.2425 80.755005 260.64874Q81.27063 260.055 81.27063 258.83624Q81.27063 257.68 80.73938 257.08624Q80.223755 256.4925 79.442505 256.4925Q78.661255 256.4925 78.130005 257.08624Q77.61438 257.66437 77.61438 258.8675ZM85.067505 261.97687L83.161255 255.75812L84.255005 255.75812L85.23938 259.35187L85.61438 260.68Q85.64563 260.58624 85.942505 259.39874L86.92688 255.75812L88.005005 255.75812L88.942505 259.3675L89.255005 260.555L89.61438 259.35187L90.67688 255.75812L91.70813 255.75812L89.755005 261.97687L88.661255 261.97687L87.67688 258.2425L87.42688 257.19562L86.17688 261.97687L85.067505 261.97687ZM99.95813 261.97687L99.95813 261.19562Q99.36438 262.1175 98.223755 262.1175Q97.473755 262.1175 96.848755 261.71124Q96.223755 261.28937 95.880005 260.555Q95.536255 259.82062 95.536255 258.8675Q95.536255 257.94562 95.848755 257.18Q96.161255 256.41437 96.786255 256.02374Q97.411255 255.6175 98.17688 255.6175Q98.73938 255.6175 99.17688 255.85187Q99.61438 256.08624 99.89563 256.46124L99.89563 253.38312L100.942505 253.38312L100.942505 261.97687L99.95813 261.97687ZM96.630005 258.8675Q96.630005 260.07062 97.130005 260.66437Q97.630005 261.2425 98.317505 261.2425Q99.005005 261.2425 99.48938 260.68Q99.973755 260.1175 99.973755 258.96124Q99.973755 257.68 99.473755 257.08624Q98.98938 256.4925 98.27063 256.4925Q97.567505 256.4925 97.098755 257.07062Q96.630005 257.63312 96.630005 258.8675ZM105.223755 261.03937L105.380005 261.96124Q104.92688 262.055 104.58313 262.055Q104.005005 262.055 103.692505 261.88312Q103.380005 261.69562 103.23938 261.39874Q103.11438 261.10187 103.11438 260.14874L103.11438 256.57062L102.348755 256.57062L102.348755 255.75812L103.11438 255.75812L103.11438 254.21124L104.161255 253.58624L104.161255 255.75812L105.223755 255.75812L105.223755 256.57062L104.161255 256.57062L104.161255 260.21124Q104.161255 260.66437 104.20813 260.78937Q104.27063 260.91437 104.39563 260.9925Q104.52063 261.07062 104.755005 261.07062Q104.942505 261.07062 105.223755 261.03937ZM105.880005 264.3675L105.755005 263.38312Q106.098755 263.47687 106.36438 263.47687Q106.70813 263.47687 106.911255 263.35187Q107.130005 263.2425 107.27063 263.03937Q107.36438 262.8675 107.598755 262.2425Q107.61438 262.16437 107.692505 261.9925L105.317505 255.75812L106.45813 255.75812L107.755005 259.35187Q108.005005 260.03937 108.20813 260.805Q108.39563 260.07062 108.64563 259.38312L109.973755 255.75812L111.02063 255.75812L108.661255 262.08624Q108.27063 263.10187 108.067505 263.4925Q107.786255 264.02374 107.411255 264.25812Q107.05188 264.50812 106.55188 264.50812Q106.255005 264.50812 105.880005 264.3675ZM110.92688 264.3675L110.92688 255.75812L111.880005 255.75812L111.880005 256.555Q112.223755 256.08624 112.64563 255.85187Q113.08313 255.6175 113.692505 255.6175Q114.48938 255.6175 115.098755 256.02374Q115.70813 256.43 116.005005 257.18Q116.317505 257.93 116.317505 258.82062Q116.317505 259.77374 115.973755 260.53937Q115.64563 261.305 114.98938 261.71124Q114.33313 262.1175 113.61438 262.1175Q113.08313 262.1175 112.661255 261.89874Q112.23938 261.66437 111.973755 261.33624L111.973755 264.3675L110.92688 264.3675ZM111.880005 258.89874Q111.880005 260.10187 112.36438 260.68Q112.848755 261.2425 113.536255 261.2425Q114.23938 261.2425 114.73938 260.64874Q115.23938 260.055 115.23938 258.805Q115.23938 257.6175 114.755005 257.03937Q114.27063 256.44562 113.58313 256.44562Q112.911255 256.44562 112.39563 257.07062Q111.880005 257.69562 111.880005 258.89874ZM122.17688 259.97687L123.27063 260.10187Q123.02063 261.055 122.317505 261.58624Q121.61438 262.1175 120.536255 262.1175Q119.17688 262.1175 118.36438 261.27374Q117.567505 260.43 117.567505 258.91437Q117.567505 257.35187 118.380005 256.4925Q119.192505 255.6175 120.473755 255.6175Q121.723755 255.6175 122.505005 256.46124Q123.30188 257.305 123.30188 258.85187Q123.30188 258.94562 123.30188 259.13312L118.661255 259.13312Q118.723755 260.16437 119.23938 260.71124Q119.755005 261.2425 120.536255 261.2425Q121.11438 261.2425 121.52063 260.94562Q121.942505 260.63312 122.17688 259.97687ZM118.723755 258.27374L122.192505 258.27374Q122.130005 257.47687 121.80188 257.08624Q121.286255 256.47687 120.48938 256.47687Q119.755005 256.47687 119.255005 256.96124Q118.77063 257.44562 118.723755 258.27374ZM124.505005 260.1175L125.536255 259.96124Q125.630005 260.58624 126.02063 260.91437Q126.42688 261.2425 127.161255 261.2425Q127.880005 261.2425 128.22375 260.96124Q128.58313 260.66437 128.58313 260.25812Q128.58313 259.89874 128.27063 259.69562Q128.05188 259.555 127.192505 259.33624Q126.036255 259.03937 125.58313 258.83624Q125.14563 258.6175 124.911255 258.2425Q124.67688 257.8675 124.67688 257.39874Q124.67688 256.9925 124.86438 256.63312Q125.05188 256.27374 125.380005 256.03937Q125.630005 255.8675 126.05188 255.7425Q126.473755 255.6175 126.973755 255.6175Q127.692505 255.6175 128.23938 255.83624Q128.80188 256.03937 129.0675 256.39874Q129.33313 256.75812 129.42688 257.35187L128.39563 257.4925Q128.33313 257.02374 127.98938 256.75812Q127.661255 256.47687 127.036255 256.47687Q126.317505 256.47687 126.005005 256.72687Q125.692505 256.96124 125.692505 257.28937Q125.692505 257.4925 125.817505 257.64874Q125.95813 257.82062 126.223755 257.93Q126.380005 257.9925 127.161255 258.19562Q128.28625 258.50812 128.72375 258.69562Q129.16125 258.88312 129.41125 259.2425Q129.66125 259.60187 129.66125 260.14874Q129.66125 260.68 129.34875 261.14874Q129.05188 261.60187 128.47375 261.8675Q127.89563 262.1175 127.161255 262.1175Q125.942505 262.1175 125.30188 261.6175Q124.67688 261.10187 124.505005 260.1175Z" fill-rule="nonzero"/><path fill="#000000" d="M134.13 313.21564Q134.13 311.6844 134.4425 310.7625Q134.755 309.825 135.36438 309.325Q135.98938 308.825 136.92688 308.825Q137.61438 308.825 138.13 309.10626Q138.66125 309.3875 139.005 309.91876Q139.34875 310.4344 139.53625 311.1844Q139.72375 311.9344 139.72375 313.21564Q139.72375 314.73126 139.41125 315.65314Q139.11438 316.575 138.48938 317.09064Q137.88 317.59064 136.92688 317.59064Q135.6925 317.59064 134.97375 316.7Q134.13 315.6375 134.13 313.21564ZM135.20813 313.21564Q135.20813 315.325 135.70813 316.02814Q136.20813 316.73126 136.92688 316.73126Q137.66125 316.73126 138.14563 316.02814Q138.64563 315.325 138.64563 313.21564Q138.64563 311.09064 138.14563 310.40314Q137.66125 309.7 136.91125 309.7Q136.1925 309.7 135.755 310.3094Q135.20813 311.09064 135.20813 313.21564Z" fill-rule="nonzero"/><path fill="#000000" d="M228.54088 316.4344L228.54088 317.45L222.85338 317.45Q222.85338 317.075 222.97838 316.71564Q223.19713 316.1375 223.66588 315.575Q224.15025 315.0125 225.0565 314.27814Q226.46275 313.1219 226.94713 312.45Q227.44713 311.77814 227.44713 311.1844Q227.44713 310.5594 226.994 310.1375Q226.54088 309.7 225.82213 309.7Q225.0565 309.7 224.60338 310.15314Q224.15025 310.60626 224.13463 311.41876L223.0565 311.3094Q223.16588 310.09064 223.88463 309.46564Q224.619 308.825 225.85338 308.825Q227.08775 308.825 227.8065 309.5125Q228.52525 310.2 228.52525 311.21564Q228.52525 311.73126 228.3065 312.23126Q228.10338 312.71564 227.60338 313.27814Q227.119 313.825 225.994 314.77814Q225.04088 315.575 224.75963 315.8719Q224.494 316.15314 224.32213 316.4344L228.54088 316.4344Z" fill-rule="nonzero"/><path fill="#000000" d="M315.233 317.45L315.233 315.3875L311.51425 315.3875L311.51425 314.41876L315.43613 308.85626L316.2955 308.85626L316.2955 314.41876L317.45175 314.41876L317.45175 315.3875L316.2955 315.3875L316.2955 317.45L315.233 317.45ZM315.233 314.41876L315.233 310.5594L312.5455 314.41876L315.233 314.41876Z" fill-rule="nonzero"/><path fill="#000000" d="M406.19073 310.96564L405.14386 311.04376Q405.00323 310.41876 404.75323 310.1375Q404.31573 309.6844 403.69073 309.6844Q403.19073 309.6844 402.8001 309.96564Q402.31573 310.34064 402.01886 311.04376Q401.7376 311.73126 401.722 313.0125Q402.097 312.4344 402.64386 312.15314Q403.20636 311.8719 403.81573 311.8719Q404.8626 311.8719 405.597 312.65314Q406.347 313.4344 406.347 314.65314Q406.347 315.46564 405.9876 316.16876Q405.64386 316.85626 405.0345 317.23126Q404.4251 317.59064 403.6595 317.59064Q402.33136 317.59064 401.50323 316.6219Q400.6751 315.65314 400.6751 313.4344Q400.6751 310.9344 401.597 309.8094Q402.39386 308.825 403.75323 308.825Q404.76886 308.825 405.4095 309.40314Q406.06573 309.96564 406.19073 310.96564ZM401.89386 314.66876Q401.89386 315.21564 402.1126 315.71564Q402.347 316.2 402.75323 316.46564Q403.1751 316.73126 403.64386 316.73126Q404.3001 316.73126 404.7845 316.2Q405.26886 315.65314 405.26886 314.73126Q405.26886 313.84064 404.7845 313.325Q404.31573 312.8094 403.597 312.8094Q402.87823 312.8094 402.37823 313.325Q401.89386 313.84064 401.89386 314.66876Z" fill-rule="nonzero"/><path fill="#000000" d="M491.211 312.79376Q490.55475 312.54376 490.22662 312.10626Q489.91412 311.65314 489.91412 311.04376Q489.91412 310.10626 490.586 309.46564Q491.2735 308.825 492.38287 308.825Q493.50787 308.825 494.19537 309.48126Q494.88287 310.1375 494.88287 311.075Q494.88287 311.66876 494.57037 312.10626Q494.25787 312.54376 493.61725 312.79376Q494.41412 313.04376 494.82037 313.6219Q495.22662 314.2 495.22662 314.9969Q495.22662 316.09064 494.44537 316.84064Q493.67975 317.59064 492.3985 317.59064Q491.13287 317.59064 490.35162 316.84064Q489.57037 316.09064 489.57037 314.96564Q489.57037 314.1219 489.99225 313.5594Q490.42975 312.9969 491.211 312.79376ZM490.99225 310.9969Q490.99225 311.60626 491.38287 311.9969Q491.78912 312.3875 492.41412 312.3875Q493.0235 312.3875 493.41412 312.0125Q493.80475 311.6219 493.80475 311.0594Q493.80475 310.48126 493.3985 310.09064Q492.99225 309.6844 492.3985 309.6844Q491.78912 309.6844 491.38287 310.075Q490.99225 310.46564 490.99225 310.9969ZM490.66412 314.96564Q490.66412 315.41876 490.86725 315.84064Q491.086 316.2625 491.50787 316.4969Q491.92975 316.73126 492.41412 316.73126Q493.16412 316.73126 493.6485 316.2469Q494.1485 315.7625 494.1485 315.0125Q494.1485 314.2469 493.6485 313.7469Q493.1485 313.2469 492.38287 313.2469Q491.63287 313.2469 491.1485 313.7469Q490.66412 314.23126 490.66412 314.96564Z" fill-rule="nonzero"/><path fill="#000000" d="M578.91876 317.45L577.8719 317.45L577.8719 310.73126Q577.48126 311.09064 576.85626 311.46564Q576.2469 311.825 575.7625 311.9969L575.7625 310.98126Q576.6375 310.5594 577.29376 309.98126Q577.96564 309.3875 578.2469 308.825L578.91876 308.825L578.91876 317.45ZM581.95 313.21564Q581.95 311.6844 582.2625 310.7625Q582.575 309.825 583.1844 309.325Q583.8094 308.825 584.7469 308.825Q585.4344 308.825 585.95 309.10626Q586.48126 309.3875 586.825 309.91876Q587.16876 310.4344 587.35626 311.1844Q587.54376 311.9344 587.54376 313.21564Q587.54376 314.73126 587.23126 315.65314Q586.9344 316.575 586.3094 317.09064Q585.7 317.59064 584.7469 317.59064Q583.5125 317.59064 582.79376 316.7Q581.95 315.6375 581.95 313.21564ZM583.02814 313.21564Q583.02814 315.325 583.52814 316.02814Q584.02814 316.73126 584.7469 316.73126Q585.48126 316.73126 585.96564 316.02814Q586.46564 315.325 586.46564 313.21564Q586.46564 311.09064 585.96564 310.40314Q585.48126 309.7 584.73126 309.7Q584.0125 309.7 583.575 310.3094Q583.02814 311.09064 583.02814 313.21564Z" fill-rule="nonzero"/><path fill="#757575" d="M19.8625 41.51875L19.8625 27.175L21.471874 27.175L21.471874 28.51875Q22.034374 27.7375 22.7375 27.346874Q23.45625 26.940624 24.471874 26.940624Q25.8 26.940624 26.815624 27.628124Q27.83125 28.315624 28.346874 29.565624Q28.878124 30.8 28.878124 32.284374Q28.878124 33.878124 28.3 35.159374Q27.7375 36.425 26.64375 37.1125Q25.55 37.784374 24.346874 37.784374Q23.471874 37.784374 22.76875 37.409374Q22.08125 37.034374 21.628124 36.471874L21.628124 41.51875L19.8625 41.51875ZM21.45625 32.425Q21.45625 34.425 22.26875 35.378124Q23.08125 36.33125 24.2375 36.33125Q25.409374 36.33125 26.2375 35.346874Q27.08125 34.3625 27.08125 32.26875Q27.08125 30.3 26.253124 29.315624Q25.440624 28.315624 24.315624 28.315624Q23.190624 28.315624 22.315624 29.378124Q21.45625 30.425 21.45625 32.425ZM37.64375 36.26875Q36.659374 37.096874 35.753124 37.440624Q34.846874 37.784374 33.815624 37.784374Q32.1125 37.784374 31.190624 36.95625Q30.26875 36.1125 30.26875 34.815624Q30.26875 34.05 30.6125 33.425Q30.971874 32.8 31.534374 32.425Q32.096874 32.034374 32.8 31.83125Q33.315624 31.70625 34.3625 31.565624Q36.4875 31.315624 37.4875 30.971874Q37.503124 30.6125 37.503124 30.503124Q37.503124 29.440624 37.003124 28.9875Q36.33125 28.39375 35.003124 28.39375Q33.753124 28.39375 33.159374 28.83125Q32.58125 29.26875 32.3 30.378124L30.58125 30.14375Q30.815624 29.034374 31.346874 28.3625Q31.878124 27.675 32.89375 27.315624Q33.909374 26.940624 35.253124 26.940624Q36.58125 26.940624 37.409374 27.253124Q38.2375 27.565624 38.628124 28.05Q39.01875 28.51875 39.175 29.2375Q39.26875 29.690624 39.26875 30.8625L39.26875 33.20625Q39.26875 35.659374 39.378124 36.315624Q39.4875 36.95625 39.83125 37.55L37.9875 37.55Q37.721874 37.003124 37.64375 36.26875ZM37.4875 32.346874Q36.534374 32.7375 34.6125 33.003124Q33.534374 33.159374 33.08125 33.3625Q32.64375 33.55 32.39375 33.925Q32.14375 34.3 32.14375 34.76875Q32.14375 35.471874 32.675 35.940624Q33.20625 36.409374 34.2375 36.409374Q35.253124 36.409374 36.034374 35.971874Q36.83125 35.51875 37.20625 34.753124Q37.4875 34.14375 37.4875 32.9875L37.4875 32.346874ZM41.8625 37.55L41.8625 27.175L43.45625 27.175L43.45625 28.659374Q44.596874 26.940624 46.753124 26.940624Q47.690624 26.940624 48.471874 27.284374Q49.26875 27.6125 49.659374 28.159374Q50.05 28.70625 50.20625 29.45625Q50.3 29.95625 50.3 31.175L50.3 37.55L48.534374 37.55L48.534374 31.2375Q48.534374 30.159374 48.33125 29.628124Q48.128124 29.096874 47.596874 28.784374Q47.08125 28.471874 46.378124 28.471874Q45.253124 28.471874 44.440624 29.190624Q43.628124 29.89375 43.628124 31.878124L43.628124 37.55L41.8625 37.55ZM58.596874 37.55L58.596874 36.2375Q57.6125 37.784374 55.690624 37.784374Q54.45625 37.784374 53.409374 37.096874Q52.378124 36.409374 51.8 35.190624Q51.2375 33.971874 51.2375 32.378124Q51.2375 30.815624 51.753124 29.55Q52.26875 28.284374 53.3 27.6125Q54.346874 26.940624 55.6125 26.940624Q56.55 26.940624 57.284374 27.346874Q58.01875 27.7375 58.4875 28.3625L58.4875 23.2375L60.221874 23.2375L60.221874 37.55L58.596874 37.55ZM53.034374 32.378124Q53.034374 34.3625 53.878124 35.346874Q54.721874 36.33125 55.8625 36.33125Q57.01875 36.33125 57.815624 35.39375Q58.628124 34.45625 58.628124 32.51875Q58.628124 30.39375 57.8 29.39375Q56.9875 28.39375 55.784374 28.39375Q54.6125 28.39375 53.815624 29.3625Q53.034374 30.315624 53.034374 32.378124ZM69.64375 36.26875Q68.65938 37.096874 67.75313 37.440624Q66.84688 37.784374 65.81563 37.784374Q64.1125 37.784374 63.190624 36.95625Q62.26875 36.1125 62.26875 34.815624Q62.26875 34.05 62.6125 33.425Q62.971874 32.8 63.534374 32.425Q64.09688 32.034374 64.8 31.83125Q65.31563 31.70625 66.3625 31.565624Q68.4875 31.315624 69.4875 30.971874Q69.50313 30.6125 69.50313 30.503124Q69.50313 29.440624 69.00313 28.9875Q68.33125 28.39375 67.00313 28.39375Q65.75313 28.39375 65.15938 28.83125Q64.58125 29.26875 64.3 30.378124L62.58125 30.14375Q62.815624 29.034374 63.346874 28.3625Q63.878124 27.675 64.89375 27.315624Q65.90938 26.940624 67.25313 26.940624Q68.58125 26.940624 69.40938 27.253124Q70.2375 27.565624 70.62813 28.05Q71.01875 28.51875 71.175 29.2375Q71.26875 29.690624 71.26875 30.8625L71.26875 33.20625Q71.26875 35.659374 71.37813 36.315624Q71.4875 36.95625 71.83125 37.55L69.9875 37.55Q69.72188 37.003124 69.64375 36.26875ZM69.4875 32.346874Q68.53438 32.7375 66.6125 33.003124Q65.53438 33.159374 65.08125 33.3625Q64.64375 33.55 64.39375 33.925Q64.14375 34.3 64.14375 34.76875Q64.14375 35.471874 64.675 35.940624Q65.20625 36.409374 66.2375 36.409374Q67.25313 36.409374 68.03438 35.971874Q68.83125 35.51875 69.20625 34.753124Q69.4875 34.14375 69.4875 32.9875L69.4875 32.346874ZM73.15938 34.45625L74.90938 34.175Q75.05 35.221874 75.72188 35.784374Q76.39375 36.33125 77.59688 36.33125Q78.8 36.33125 79.37813 35.846874Q79.97188 35.346874 79.97188 34.690624Q79.97188 34.096874 79.45625 33.753124Q79.09688 33.51875 77.65938 33.159374Q75.72188 32.659374 74.97188 32.315624Q74.2375 31.95625 73.84688 31.33125Q73.45625 30.690624 73.45625 29.925Q73.45625 29.2375 73.76875 28.64375Q74.09688 28.05 74.64375 27.659374Q75.05 27.3625 75.75313 27.159374Q76.47188 26.940624 77.28438 26.940624Q78.50313 26.940624 79.425 27.3Q80.34688 27.64375 80.78438 28.253124Q81.22188 28.846874 81.39375 29.846874L79.675 30.08125Q79.55 29.284374 78.9875 28.846874Q78.425 28.39375 77.40938 28.39375Q76.19063 28.39375 75.675 28.8Q75.15938 29.190624 75.15938 29.721874Q75.15938 30.065624 75.37813 30.346874Q75.58125 30.628124 76.05 30.815624Q76.31563 30.909374 77.59688 31.253124Q79.47188 31.753124 80.20625 32.08125Q80.94063 32.39375 81.3625 33.003124Q81.78438 33.596874 81.78438 34.503124Q81.78438 35.378124 81.26875 36.159374Q80.75313 36.940624 79.78438 37.3625Q78.81563 37.784374 77.59688 37.784374Q75.58125 37.784374 74.51875 36.940624Q73.45625 36.096874 73.15938 34.45625ZM89.84688 37.55L89.84688 27.175L91.425 27.175L91.425 28.753124Q92.03438 27.64375 92.55 27.3Q93.06563 26.940624 93.675 26.940624Q94.56563 26.940624 95.4875 27.503124L94.87813 29.14375Q94.2375 28.753124 93.59688 28.753124Q93.01875 28.753124 92.55 29.1125Q92.09688 29.45625 91.89375 30.065624Q91.6125 31.003124 91.6125 32.1125L91.6125 37.55L89.84688 37.55ZM103.97188 34.20625L105.78438 34.440624Q105.3625 36.01875 104.19063 36.909374Q103.03438 37.784374 101.22188 37.784374Q98.95625 37.784374 97.6125 36.39375Q96.28438 34.9875 96.28438 32.45625Q96.28438 29.83125 97.62813 28.39375Q98.97188 26.940624 101.12813 26.940624Q103.20625 26.940624 104.51875 28.3625Q105.84688 29.76875 105.84688 32.346874Q105.84688 32.503124 105.83125 32.815624L98.09688 32.815624Q98.19063 34.51875 99.06563 35.425Q99.94063 36.33125 101.2375 36.33125Q102.20625 36.33125 102.87813 35.83125Q103.56563 35.315624 103.97188 34.20625ZM98.19063 31.3625L103.9875 31.3625Q103.87813 30.065624 103.33125 29.409374Q102.4875 28.39375 101.14375 28.39375Q99.94063 28.39375 99.1125 29.20625Q98.28438 30.003124 98.19063 31.3625ZM114.64375 36.26875Q113.65938 37.096874 112.75313 37.440624Q111.84688 37.784374 110.81563 37.784374Q109.1125 37.784374 108.19063 36.95625Q107.26875 36.1125 107.26875 34.815624Q107.26875 34.05 107.6125 33.425Q107.97188 32.8 108.53438 32.425Q109.09688 32.034374 109.8 31.83125Q110.31563 31.70625 111.3625 31.565624Q113.4875 31.315624 114.4875 30.971874Q114.50313 30.6125 114.50313 30.503124Q114.50313 29.440624 114.00313 28.9875Q113.33125 28.39375 112.00313 28.39375Q110.75313 28.39375 110.15938 28.83125Q109.58125 29.26875 109.3 30.378124L107.58125 30.14375Q107.81563 29.034374 108.34688 28.3625Q108.87813 27.675 109.89375 27.315624Q110.90938 26.940624 112.25313 26.940624Q113.58125 26.940624 114.40938 27.253124Q115.2375 27.565624 115.62813 28.05Q116.01875 28.51875 116.175 29.2375Q116.26875 29.690624 116.26875 30.8625L116.26875 33.20625Q116.26875 35.659374 116.37813 36.315624Q116.4875 36.95625 116.83125 37.55L114.9875 37.55Q114.72188 37.003124 114.64375 36.26875ZM114.4875 32.346874Q113.53438 32.7375 111.6125 33.003124Q110.53438 33.159374 110.08125 33.3625Q109.64375 33.55 109.39375 33.925Q109.14375 34.3 109.14375 34.76875Q109.14375 35.471874 109.675 35.940624Q110.20625 36.409374 111.2375 36.409374Q112.25313 36.409374 113.03438 35.971874Q113.83125 35.51875 114.20625 34.753124Q114.4875 34.14375 114.4875 32.9875L114.4875 32.346874ZM125.59688 37.55L125.59688 36.2375Q124.6125 37.784374 122.69063 37.784374Q121.45625 37.784374 120.40938 37.096874Q119.37813 36.409374 118.8 35.190624Q118.2375 33.971874 118.2375 32.378124Q118.2375 30.815624 118.75313 29.55Q119.26875 28.284374 120.3 27.6125Q121.34688 26.940624 122.6125 26.940624Q123.55 26.940624 124.28438 27.346874Q125.01875 27.7375 125.4875 28.3625L125.4875 23.2375L127.22188 23.2375L127.22188 37.55L125.59688 37.55ZM120.03438 32.378124Q120.03438 34.3625 120.87813 35.346874Q121.72188 36.33125 122.8625 36.33125Q124.01875 36.33125 124.81563 35.39375Q125.62813 34.45625 125.62813 32.51875Q125.62813 30.39375 124.8 29.39375Q123.9875 28.39375 122.78438 28.39375Q121.6125 28.39375 120.81563 29.3625Q120.03438 30.315624 120.03438 32.378124ZM128.25313 41.51875L128.25313 40.253124L139.89375 40.253124L139.89375 41.51875L128.25313 41.51875ZM147.64375 33.753124L149.3625 33.971874Q149.08125 35.76875 147.90938 36.784374Q146.75313 37.784374 145.05 37.784374Q142.925 37.784374 141.62813 36.39375Q140.33125 35.003124 140.33125 32.409374Q140.33125 30.721874 140.87813 29.471874Q141.44063 28.20625 142.58125 27.58125Q143.72188 26.940624 145.06563 26.940624Q146.75313 26.940624 147.81563 27.8Q148.89375 28.659374 149.20625 30.221874L147.4875 30.4875Q147.25313 29.440624 146.62813 28.925Q146.00313 28.39375 145.12813 28.39375Q143.8 28.39375 142.97188 29.346874Q142.14375 30.3 142.14375 32.346874Q142.14375 34.440624 142.94063 35.39375Q143.7375 36.33125 145.03438 36.33125Q146.06563 36.33125 146.75313 35.70625Q147.45625 35.065624 147.64375 33.753124ZM150.15938 34.45625L151.90938 34.175Q152.05 35.221874 152.72188 35.784374Q153.39375 36.33125 154.59688 36.33125Q155.8 36.33125 156.37813 35.846874Q156.97188 35.346874 156.97188 34.690624Q156.97188 34.096874 156.45625 33.753124Q156.09688 33.51875 154.65938 33.159374Q152.72188 32.659374 151.97188 32.315624Q151.2375 31.95625 150.84688 31.33125Q150.45625 30.690624 150.45625 29.925Q150.45625 29.2375 150.76875 28.64375Q151.09688 28.05 151.64375 27.659374Q152.05 27.3625 152.75313 27.159374Q153.47188 26.940624 154.28438 26.940624Q155.50313 26.940624 156.425 27.3Q157.34688 27.64375 157.78438 28.253124Q158.22188 28.846874 158.39375 29.846874L156.675 30.08125Q156.55 29.284374 155.9875 28.846874Q155.425 28.39375 154.40938 28.39375Q153.19063 28.39375 152.675 28.8Q152.15938 29.190624 152.15938 29.721874Q152.15938 30.065624 152.37813 30.346874Q152.58125 30.628124 153.05 30.815624Q153.31563 30.909374 154.59688 31.253124Q156.47188 31.753124 157.20625 32.08125Q157.94063 32.39375 158.3625 33.003124Q158.78438 33.596874 158.78438 34.503124Q158.78438 35.378124 158.26875 36.159374Q157.75313 36.940624 156.78438 37.3625Q155.81563 37.784374 154.59688 37.784374Q152.58125 37.784374 151.51875 36.940624Q150.45625 36.096874 150.15938 34.45625ZM163.75313 37.55L159.8 27.175L161.65938 27.175L163.89375 33.39375Q164.25313 34.39375 164.55 35.471874Q164.78438 34.659374 165.20625 33.503124L167.50313 27.175L169.31563 27.175L165.39375 37.55L163.75313 37.55ZM175.8625 41.51875L175.8625 27.175L177.47188 27.175L177.47188 28.51875Q178.03438 27.7375 178.7375 27.346874Q179.45625 26.940624 180.47188 26.940624Q181.8 26.940624 182.81563 27.628124Q183.83125 28.315624 184.34688 29.565624Q184.87813 30.8 184.87813 32.284374Q184.87813 33.878124 184.3 35.159374Q183.7375 36.425 182.64375 37.1125Q181.55 37.784374 180.34688 37.784374Q179.47188 37.784374 178.76875 37.409374Q178.08125 37.034374 177.62813 36.471874L177.62813 41.51875L175.8625 41.51875ZM177.45625 32.425Q177.45625 34.425 178.26875 35.378124Q179.08125 36.33125 180.2375 36.33125Q181.40938 36.33125 182.2375 35.346874Q183.08125 34.3625 183.08125 32.26875Q183.08125 30.3 182.25313 29.315624Q181.44063 28.315624 180.31563 28.315624Q179.19063 28.315624 178.31563 29.378124Q177.45625 30.425 177.45625 32.425ZM193.97188 34.20625L195.78438 34.440624Q195.3625 36.01875 194.19063 36.909374Q193.03438 37.784374 191.22188 37.784374Q188.95625 37.784374 187.6125 36.39375Q186.28438 34.9875 186.28438 32.45625Q186.28438 29.83125 187.62813 28.39375Q188.97188 26.940624 191.12813 26.940624Q193.20625 26.940624 194.51875 28.3625Q195.84688 29.76875 195.84688 32.346874Q195.84688 32.503124 195.83125 32.815624L188.09688 32.815624Q188.19063 34.51875 189.06563 35.425Q189.94063 36.33125 191.2375 36.33125Q192.20625 36.33125 192.87813 35.83125Q193.56563 35.315624 193.97188 34.20625ZM188.19063 31.3625L193.9875 31.3625Q193.87813 30.065624 193.33125 29.409374Q192.4875 28.39375 191.14375 28.39375Q189.94063 28.39375 189.1125 29.20625Q188.28438 30.003124 188.19063 31.3625ZM197.84688 37.55L197.84688 27.175L199.425 27.175L199.425 28.753124Q200.03438 27.64375 200.55 27.3Q201.06563 26.940624 201.675 26.940624Q202.56563 26.940624 203.4875 27.503124L202.87813 29.14375Q202.2375 28.753124 201.59688 28.753124Q201.01875 28.753124 200.55 29.1125Q200.09688 29.45625 199.89375 30.065624Q199.6125 31.003124 199.6125 32.1125L199.6125 37.55L197.84688 37.55ZM205.28438 37.55L205.28438 28.55L203.7375 28.55L203.7375 27.175L205.28438 27.175L205.28438 26.08125Q205.28438 25.034374 205.47188 24.51875Q205.72188 23.83125 206.3625 23.409374Q207.00313 22.9875 208.15938 22.9875Q208.90938 22.9875 209.8 23.159374L209.53438 24.690624Q208.9875 24.596874 208.50313 24.596874Q207.70625 24.596874 207.3625 24.940624Q207.03438 25.284374 207.03438 26.221874L207.03438 27.175L209.06563 27.175L209.06563 28.55L207.03438 28.55L207.03438 37.55L205.28438 37.55ZM210.22188 32.3625Q210.22188 29.4875 211.81563 28.096874Q213.15938 26.940624 215.08125 26.940624Q217.22188 26.940624 218.56563 28.346874Q219.925 29.753124 219.925 32.221874Q219.925 34.221874 219.33125 35.378124Q218.7375 36.51875 217.58125 37.159374Q216.44063 37.784374 215.08125 37.784374Q212.89375 37.784374 211.55 36.39375Q210.22188 34.9875 210.22188 32.3625ZM212.01875 32.3625Q212.01875 34.3625 212.87813 35.346874Q213.75313 36.33125 215.08125 36.33125Q216.39375 36.33125 217.25313 35.346874Q218.12813 34.346874 218.12813 32.3Q218.12813 30.378124 217.25313 29.39375Q216.37813 28.39375 215.08125 28.39375Q213.75313 28.39375 212.87813 29.39375Q212.01875 30.378124 212.01875 32.3625ZM221.84688 37.55L221.84688 27.175L223.425 27.175L223.425 28.753124Q224.03438 27.64375 224.55 27.3Q225.06563 26.940624 225.675 26.940624Q226.56563 26.940624 227.4875 27.503124L226.87813 29.14375Q226.2375 28.753124 225.59688 28.753124Q225.01875 28.753124 224.55 29.1125Q224.09688 29.45625 223.89375 30.065624Q223.6125 31.003124 223.6125 32.1125L223.6125 37.55L221.84688 37.55ZM228.8625 37.55L228.8625 27.175L230.44063 27.175L230.44063 28.628124Q230.925 27.878124 231.7375 27.409374Q232.55 26.940624 233.58125 26.940624Q234.7375 26.940624 235.47188 27.425Q236.20625 27.89375 236.51875 28.753124Q237.75313 26.940624 239.72188 26.940624Q241.26875 26.940624 242.09688 27.8Q242.925 28.659374 242.925 30.425L242.925 37.55L241.175 37.55L241.175 31.01875Q241.175 29.95625 241.00313 29.503124Q240.83125 29.034374 240.37813 28.753124Q239.94063 28.471874 239.33125 28.471874Q238.2375 28.471874 237.50313 29.20625Q236.78438 29.925 236.78438 31.51875L236.78438 37.55L235.03438 37.55L235.03438 30.815624Q235.03438 29.64375 234.59688 29.065624Q234.175 28.471874 233.19063 28.471874Q232.45625 28.471874 231.81563 28.8625Q231.19063 29.253124 230.90938 30.003124Q230.62813 30.753124 230.62813 32.175L230.62813 37.55L228.8625 37.55ZM251.64375 36.26875Q250.65938 37.096874 249.75313 37.440624Q248.84688 37.784374 247.81563 37.784374Q246.1125 37.784374 245.19063 36.95625Q244.26875 36.1125 244.26875 34.815624Q244.26875 34.05 244.6125 33.425Q244.97188 32.8 245.53438 32.425Q246.09688 32.034374 246.8 31.83125Q247.31563 31.70625 248.3625 31.565624Q250.4875 31.315624 251.4875 30.971874Q251.50313 30.6125 251.50313 30.503124Q251.50313 29.440624 251.00313 28.9875Q250.33125 28.39375 249.00313 28.39375Q247.75313 28.39375 247.15938 28.83125Q246.58125 29.26875 246.3 30.378124L244.58125 30.14375Q244.81563 29.034374 245.34688 28.3625Q245.87813 27.675 246.89375 27.315624Q247.90938 26.940624 249.25313 26.940624Q250.58125 26.940624 251.40938 27.253124Q252.2375 27.565624 252.62813 28.05Q253.01875 28.51875 253.175 29.2375Q253.26875 29.690624 253.26875 30.8625L253.26875 33.20625Q253.26875 35.659374 253.37813 36.315624Q253.4875 36.95625 253.83125 37.55L251.9875 37.55Q251.72188 37.003124 251.64375 36.26875ZM251.4875 32.346874Q250.53438 32.7375 248.6125 33.003124Q247.53438 33.159374 247.08125 33.3625Q246.64375 33.55 246.39375 33.925Q246.14375 34.3 246.14375 34.76875Q246.14375 35.471874 246.675 35.940624Q247.20625 36.409374 248.2375 36.409374Q249.25313 36.409374 250.03438 35.971874Q250.83125 35.51875 251.20625 34.753124Q251.4875 34.14375 251.4875 32.9875L251.4875 32.346874ZM255.8625 37.55L255.8625 27.175L257.45624 27.175L257.45624 28.659374Q258.59686 26.940624 260.7531 26.940624Q261.6906 26.940624 262.47186 27.284374Q263.26874 27.6125 263.65936 28.159374Q264.05 28.70625 264.20624 29.45625Q264.3 29.95625 264.3 31.175L264.3 37.55L262.53436 37.55L262.53436 31.2375Q262.53436 30.159374 262.33124 29.628124Q262.1281 29.096874 261.59686 28.784374Q261.08124 28.471874 260.3781 28.471874Q259.2531 28.471874 258.4406 29.190624Q257.6281 29.89375 257.6281 31.878124L257.6281 37.55L255.8625 37.55ZM272.64374 33.753124L274.3625 33.971874Q274.08124 35.76875 272.90936 36.784374Q271.7531 37.784374 270.05 37.784374Q267.925 37.784374 266.6281 36.39375Q265.33124 35.003124 265.33124 32.409374Q265.33124 30.721874 265.8781 29.471874Q266.4406 28.20625 267.58124 27.58125Q268.72186 26.940624 270.0656 26.940624Q271.7531 26.940624 272.8156 27.8Q273.89374 28.659374 274.20624 30.221874L272.4875 30.4875Q272.2531 29.440624 271.6281 28.925Q271.0031 28.39375 270.1281 28.39375Q268.8 28.39375 267.97186 29.346874Q267.14374 30.3 267.14374 32.346874Q267.14374 34.440624 267.9406 35.39375Q268.7375 36.33125 270.03436 36.33125Q271.0656 36.33125 271.7531 35.70625Q272.45624 35.065624 272.64374 33.753124ZM282.97186 34.20625L284.78436 34.440624Q284.3625 36.01875 283.1906 36.909374Q282.03436 37.784374 280.22186 37.784374Q277.95624 37.784374 276.6125 36.39375Q275.28436 34.9875 275.28436 32.45625Q275.28436 29.83125 276.6281 28.39375Q277.97186 26.940624 280.1281 26.940624Q282.20624 26.940624 283.51874 28.3625Q284.84686 29.76875 284.84686 32.346874Q284.84686 32.503124 284.83124 32.815624L277.09686 32.815624Q277.1906 34.51875 278.0656 35.425Q278.9406 36.33125 280.2375 36.33125Q281.20624 36.33125 281.8781 35.83125Q282.5656 35.315624 282.97186 34.20625ZM277.1906 31.3625L282.9875 31.3625Q282.8781 30.065624 282.33124 29.409374Q281.4875 28.39375 280.14374 28.39375Q278.9406 28.39375 278.1125 29.20625Q277.28436 30.003124 277.1906 31.3625Z" fill-rule="nonzero"/></svg>