<svg version="1.1" viewBox="0.0 0.0 600.0 371.0" fill="none" stroke="none" stroke-linecap="square" stroke-miterlimit="10" width="600" height="371" xmlns:xlink="http://www.w3.org/1999/xlink" xmlns="http://www.w3.org/2000/svg"><path fill="#ffffff" d="M0 0L600.0 0L600.0 371.0L0 371.0L0 0Z" fill-rule="nonzero"/><path stroke="#333333" stroke-width="1.0" stroke-linecap="butt" d="M107.5 54.5L107.5 300.5" fill-rule="nonzero"/><path stroke="#cccccc" stroke-width="1.0" stroke-linecap="butt" d="M226.5 54.5L226.5 300.5" fill-rule="nonzero"/><path stroke="#cccccc" stroke-width="1.0" stroke-linecap="butt" d="M344.5 54.5L344.5 300.5" fill-rule="nonzero"/><path stroke="#cccccc" stroke-width="1.0" stroke-linecap="butt" d="M462.5 54.5L462.5 300.5" fill-rule="nonzero"/><path stroke="#cccccc" stroke-width="1.0" stroke-linecap="butt" d="M581.5 54.5L581.5 300.5" fill-rule="nonzero"/><clipPath id="id_0"><path d="M107.55 54.916668L581.45 54.916668L581.45 300.45L107.55 300.45L107.55 54.916668Z" clip-rule="nonzero"/></clipPath><path stroke="#000000" stroke-width="2.0" stroke-linecap="butt" stroke-opacity="0.0" clip-path="url(#id_0)" d="M108.0 159.0L108.0 91.0L532.0 91.0C533.10455 91.0 534.0 91.89543 534.0 93.0L534.0 157.0C534.0 158.10457 533.10455 159.0 532.0 159.0Z" fill-rule="nonzero"/><path fill="#6d9eeb" clip-path="url(#id_0)" d="M108.0 159.0L108.0 91.0L532.0 91.0C533.10455 91.0 534.0 91.89543 534.0 93.0L534.0 157.0C534.0 158.10457 533.10455 159.0 532.0 159.0Z" fill-rule="nonzero"/><path stroke="#000000" stroke-width="2.0" stroke-linecap="butt" stroke-opacity="0.0" clip-path="url(#id_0)" d="M108.0 264.0L108.0 196.0L236.0 196.0C237.10457 196.0 238.0 196.89543 238.0 198.0L238.0 262.0C238.0 263.10458 237.10457 264.0 236.0 264.0Z" fill-rule="nonzero"/><path fill="#1155cc" clip-path="url(#id_0)" d="M108.0 264.0L108.0 196.0L236.0 196.0C237.10457 196.0 238.0 196.89543 238.0 198.0L238.0 262.0C238.0 263.10458 237.10457 264.0 236.0 264.0Z" fill-rule="nonzero"/><path fill="#000000" d="M320.54688 346.6844L321.60938 346.59064Q321.6875 347.2469 321.96875 347.65314Q322.25 348.0594 322.82812 348.325Q323.42188 348.575 324.15625 348.575Q324.79688 348.575 325.29688 348.3875Q325.79688 348.1844 326.03125 347.85626Q326.28125 347.5125 326.28125 347.1219Q326.28125 346.71564 326.04688 346.41876Q325.8125 346.10626 325.28125 345.90314Q324.92188 345.7625 323.73438 345.48126Q322.5625 345.2 322.09375 344.95Q321.46875 344.6219 321.17188 344.15314Q320.875 343.66876 320.875 343.075Q320.875 342.4344 321.23438 341.8719Q321.60938 341.29376 322.3125 341.0125Q323.03125 340.71564 323.89062 340.71564Q324.84375 340.71564 325.57812 341.02814Q326.3125 341.325 326.70312 341.9344Q327.09375 342.52814 327.125 343.27814L326.03125 343.35626Q325.9375 342.54376 325.42188 342.1375Q324.92188 341.71564 323.9375 341.71564Q322.90625 341.71564 322.4375 342.09064Q321.96875 342.46564 321.96875 342.9969Q321.96875 343.46564 322.29688 343.7625Q322.625 344.0594 324.0 344.3719Q325.39062 344.6844 325.90625 344.91876Q326.65625 345.27814 327.01562 345.8094Q327.375 346.325 327.375 347.02814Q327.375 347.71564 326.98438 348.325Q326.59375 348.91876 325.85938 349.2625Q325.125 349.59064 324.20312 349.59064Q323.03125 349.59064 322.23438 349.2625Q321.45312 348.91876 321.0 348.23126Q320.5625 347.54376 320.54688 346.6844ZM333.04688 347.45L334.14062 347.575Q333.89062 348.52814 333.1875 349.0594Q332.48438 349.59064 331.40625 349.59064Q330.04688 349.59064 329.23438 348.7469Q328.4375 347.90314 328.4375 346.3875Q328.4375 344.825 329.25 343.96564Q330.0625 343.09064 331.34375 343.09064Q332.59375 343.09064 333.375 343.9344Q334.17188 344.77814 334.17188 346.325Q334.17188 346.41876 334.17188 346.60626L329.53125 346.60626Q329.59375 347.6375 330.10938 348.1844Q330.625 348.71564 331.40625 348.71564Q331.98438 348.71564 332.39062 348.41876Q332.8125 348.10626 333.04688 347.45ZM329.59375 345.7469L333.0625 345.7469Q333.0 344.95 332.67188 344.5594Q332.15625 343.95 331.35938 343.95Q330.625 343.95 330.125 344.4344Q329.64062 344.91876 329.59375 345.7469ZM339.85938 347.16876L340.89062 347.3094Q340.71875 348.3719 340.01562 348.98126Q339.3125 349.59064 338.29688 349.59064Q337.01562 349.59064 336.23438 348.7625Q335.46875 347.91876 335.46875 346.35626Q335.46875 345.35626 335.79688 344.60626Q336.14062 343.84064 336.8125 343.46564Q337.5 343.09064 338.3125 343.09064Q339.3125 343.09064 339.95312 343.60626Q340.60938 344.10626 340.79688 345.0594L339.76562 345.21564Q339.625 344.59064 339.25 344.27814Q338.875 343.95 338.34375 343.95Q337.54688 343.95 337.04688 344.52814Q336.54688 345.09064 336.54688 346.325Q336.54688 347.59064 337.03125 348.15314Q337.51562 348.71564 338.28125 348.71564Q338.90625 348.71564 339.3125 348.34064Q339.73438 347.96564 339.85938 347.16876ZM341.40625 346.34064Q341.40625 344.60626 342.35938 343.77814Q343.15625 343.09064 344.3125 343.09064Q345.59375 343.09064 346.40625 343.9344Q347.23438 344.7625 347.23438 346.2469Q347.23438 347.45 346.875 348.1375Q346.51562 348.825 345.8125 349.21564Q345.125 349.59064 344.3125 349.59064Q343.01562 349.59064 342.20312 348.7625Q341.40625 347.91876 341.40625 346.34064ZM342.48438 346.34064Q342.48438 347.52814 343.0 348.1219Q343.53125 348.71564 344.3125 348.71564Q345.10938 348.71564 345.625 348.1219Q346.14062 347.52814 346.14062 346.3094Q346.14062 345.15314 345.60938 344.5594Q345.09375 343.96564 344.3125 343.96564Q343.53125 343.96564 343.0 344.5594Q342.48438 345.1375 342.48438 346.34064ZM348.79688 349.45L348.79688 343.23126L349.73438 343.23126L349.73438 344.10626Q350.42188 343.09064 351.71875 343.09064Q352.28125 343.09064 352.75 343.29376Q353.23438 343.4969 353.46875 343.825Q353.70312 344.15314 353.79688 344.59064Q353.84375 344.8875 353.84375 345.6219L353.84375 349.45L352.79688 349.45L352.79688 345.66876Q352.79688 345.0125 352.67188 344.7Q352.54688 344.3875 352.23438 344.2Q351.92188 343.9969 351.5 343.9969Q350.82812 343.9969 350.32812 344.4344Q349.84375 344.85626 349.84375 346.04376L349.84375 349.45L348.79688 349.45ZM359.82812 349.45L359.82812 348.66876Q359.23438 349.59064 358.09375 349.59064Q357.34375 349.59064 356.71875 349.1844Q356.09375 348.7625 355.75 348.02814Q355.40625 347.29376 355.40625 346.34064Q355.40625 345.41876 355.71875 344.65314Q356.03125 343.8875 356.65625 343.4969Q357.28125 343.09064 358.04688 343.09064Q358.60938 343.09064 359.04688 343.325Q359.48438 343.5594 359.76562 343.9344L359.76562 340.85626L360.8125 340.85626L360.8125 349.45L359.82812 349.45ZM356.5 346.34064Q356.5 347.54376 357.0 348.1375Q357.5 348.71564 358.1875 348.71564Q358.875 348.71564 359.35938 348.15314Q359.84375 347.59064 359.84375 346.4344Q359.84375 345.15314 359.34375 344.5594Q358.85938 343.96564 358.14062 343.96564Q357.4375 343.96564 356.96875 344.54376Q356.5 345.10626 356.5 346.34064ZM362.375 347.59064L363.40625 347.4344Q363.5 348.0594 363.89062 348.3875Q364.29688 348.71564 365.03125 348.71564Q365.75 348.71564 366.09375 348.4344Q366.45312 348.1375 366.45312 347.73126Q366.45312 347.3719 366.14062 347.16876Q365.92188 347.02814 365.0625 346.8094Q363.90625 346.5125 363.45312 346.3094Q363.01562 346.09064 362.78125 345.71564Q362.54688 345.34064 362.54688 344.8719Q362.54688 344.46564 362.73438 344.10626Q362.92188 343.7469 363.25 343.5125Q363.5 343.34064 363.92188 343.21564Q364.34375 343.09064 364.84375 343.09064Q365.5625 343.09064 366.10938 343.3094Q366.67188 343.5125 366.9375 343.8719Q367.20312 344.23126 367.29688 344.825L366.26562 344.96564Q366.20312 344.4969 365.85938 344.23126Q365.53125 343.95 364.90625 343.95Q364.1875 343.95 363.875 344.2Q363.5625 344.4344 363.5625 344.7625Q363.5625 344.96564 363.6875 345.1219Q363.82812 345.29376 364.09375 345.40314Q364.25 345.46564 365.03125 345.66876Q366.15625 345.98126 366.59375 346.16876Q367.03125 346.35626 367.28125 346.71564Q367.53125 347.075 367.53125 347.6219Q367.53125 348.15314 367.21875 348.6219Q366.92188 349.075 366.34375 349.34064Q365.76562 349.59064 365.03125 349.59064Q363.8125 349.59064 363.17188 349.09064Q362.54688 348.575 362.375 347.59064Z" fill-rule="nonzero"/><path fill="#000000" d="M23.471874 129.4422L23.471874 120.84845L24.628124 120.84845L29.14375 127.59845L29.14375 120.84845L30.2375 120.84845L30.2375 129.4422L29.065624 129.4422L24.55 122.6922L24.55 129.4422L23.471874 129.4422ZM36.425 129.4422L36.425 128.52032Q35.690624 129.58282 34.440624 129.58282Q33.89375 129.58282 33.409374 129.3797Q32.940624 129.16095 32.70625 128.84845Q32.471874 128.52032 32.378124 128.05157Q32.315624 127.7547 32.315624 127.0672L32.315624 123.22345L33.378124 123.22345L33.378124 126.676575Q33.378124 127.489075 33.440624 127.78595Q33.534374 128.1922 33.846874 128.4422Q34.175 128.67657 34.659374 128.67657Q35.128124 128.67657 35.534374 128.4422Q35.95625 128.1922 36.128124 127.770325Q36.315624 127.34845 36.315624 126.551575L36.315624 123.22345L37.3625 123.22345L37.3625 129.4422L36.425 129.4422ZM39.346874 129.4422L39.346874 123.22345L40.284374 123.22345L40.284374 124.09845Q40.58125 123.6297 41.065624 123.364075Q41.55 123.082825 42.175 123.082825Q42.8625 123.082825 43.3 123.364075Q43.753124 123.645325 43.925 124.16095Q44.675 123.082825 45.846874 123.082825Q46.784374 123.082825 47.26875 123.59845Q47.76875 124.09845 47.76875 125.176575L47.76875 129.4422L46.721874 129.4422L46.721874 125.520325Q46.721874 124.895325 46.6125 124.614075Q46.51875 124.332825 46.253124 124.16095Q45.9875 123.989075 45.6125 123.989075Q44.95625 123.989075 44.51875 124.426575Q44.096874 124.864075 44.096874 125.832825L44.096874 129.4422L43.034374 129.4422L43.034374 125.395325Q43.034374 124.6922 42.76875 124.34845Q42.51875 123.989075 41.940624 123.989075Q41.4875 123.989075 41.1125 124.22345Q40.7375 124.457825 40.565624 124.91095Q40.39375 125.364075 40.39375 126.207825L40.39375 129.4422L39.346874 129.4422ZM50.471874 129.4422L50.471874 120.84845L53.721874 120.84845Q54.565624 120.84845 55.01875 120.926575Q55.659374 121.03595 56.08125 121.332825Q56.51875 121.6297 56.76875 122.16095Q57.034374 122.6922 57.034374 123.332825Q57.034374 124.426575 56.33125 125.1922Q55.64375 125.9422 53.815624 125.9422L51.6125 125.9422L51.6125 129.4422L50.471874 129.4422ZM51.6125 124.9422L53.83125 124.9422Q54.940624 124.9422 55.39375 124.53595Q55.8625 124.114075 55.8625 123.364075Q55.8625 122.832825 55.58125 122.457825Q55.315624 122.0672 54.878124 121.9422Q54.58125 121.864075 53.815624 121.864075L51.6125 121.864075L51.6125 124.9422ZM58.3 131.83282L58.175 130.84845Q58.51875 130.9422 58.784374 130.9422Q59.128124 130.9422 59.33125 130.8172Q59.55 130.70782 59.690624 130.5047Q59.784374 130.33282 60.01875 129.70782Q60.034374 129.6297 60.1125 129.45782L57.7375 123.22345L58.878124 123.22345L60.175 126.8172Q60.425 127.5047 60.628124 128.27032Q60.815624 127.53595 61.065624 126.84845L62.39375 123.22345L63.440624 123.22345L61.08125 129.55157Q60.690624 130.5672 60.4875 130.95782Q60.20625 131.48907 59.83125 131.72345Q59.471874 131.97345 58.971874 131.97345Q58.675 131.97345 58.3 131.83282ZM70.37813 129.4422L70.37813 128.66095Q69.78438 129.58282 68.64375 129.58282Q67.89375 129.58282 67.26875 129.17657Q66.64375 128.7547 66.3 128.02032Q65.95625 127.28595 65.95625 126.332825Q65.95625 125.41095 66.26875 124.645325Q66.58125 123.8797 67.20625 123.489075Q67.83125 123.082825 68.59688 123.082825Q69.15938 123.082825 69.59688 123.3172Q70.03438 123.551575 70.31563 123.926575L70.31563 120.84845L71.3625 120.84845L71.3625 129.4422L70.37813 129.4422ZM67.05 126.332825Q67.05 127.53595 67.55 128.1297Q68.05 128.70782 68.7375 128.70782Q69.425 128.70782 69.90938 128.14532Q70.39375 127.582825 70.39375 126.426575Q70.39375 125.145325 69.89375 124.551575Q69.40938 123.957825 68.69063 123.957825Q67.9875 123.957825 67.51875 124.53595Q67.05 125.09845 67.05 126.332825ZM75.64375 128.5047L75.8 129.42657Q75.34688 129.52032 75.00313 129.52032Q74.425 129.52032 74.1125 129.34845Q73.8 129.16095 73.65938 128.86407Q73.53438 128.5672 73.53438 127.614075L73.53438 124.03595L72.76875 124.03595L72.76875 123.22345L73.53438 123.22345L73.53438 121.676575L74.58125 121.051575L74.58125 123.22345L75.64375 123.22345L75.64375 124.03595L74.58125 124.03595L74.58125 127.676575Q74.58125 128.1297 74.62813 128.2547Q74.69063 128.3797 74.81563 128.45782Q74.94063 128.53595 75.175 128.53595Q75.3625 128.53595 75.64375 128.5047ZM76.3 131.83282L76.175 130.84845Q76.51875 130.9422 76.78438 130.9422Q77.12813 130.9422 77.33125 130.8172Q77.55 130.70782 77.69063 130.5047Q77.78438 130.33282 78.01875 129.70782Q78.03438 129.6297 78.1125 129.45782L75.7375 123.22345L76.87813 123.22345L78.175 126.8172Q78.425 127.5047 78.62813 128.27032Q78.81563 127.53595 79.06563 126.84845L80.39375 123.22345L81.44063 123.22345L79.08125 129.55157Q78.69063 130.5672 78.4875 130.95782Q78.20625 131.48907 77.83125 131.72345Q77.47188 131.97345 76.97188 131.97345Q76.675 131.97345 76.3 131.83282ZM81.34688 131.83282L81.34688 123.22345L82.3 123.22345L82.3 124.020325Q82.64375 123.551575 83.06563 123.3172Q83.50313 123.082825 84.1125 123.082825Q84.90938 123.082825 85.51875 123.489075Q86.12813 123.895325 86.425 124.645325Q86.7375 125.395325 86.7375 126.28595Q86.7375 127.239075 86.39375 128.0047Q86.06563 128.77032 85.40938 129.17657Q84.75313 129.58282 84.03438 129.58282Q83.50313 129.58282 83.08125 129.36407Q82.65938 129.1297 82.39375 128.80157L82.39375 131.83282L81.34688 131.83282ZM82.3 126.364075Q82.3 127.5672 82.78438 128.14532Q83.26875 128.70782 83.95625 128.70782Q84.65938 128.70782 85.15938 128.11407Q85.65938 127.520325 85.65938 126.270325Q85.65938 125.082825 85.175 124.5047Q84.69063 123.91095 84.00313 123.91095Q83.33125 123.91095 82.81563 124.53595Q82.3 125.16095 82.3 126.364075ZM92.59688 127.4422L93.69063 127.5672Q93.44063 128.52032 92.7375 129.05157Q92.03438 129.58282 90.95625 129.58282Q89.59688 129.58282 88.78438 128.73907Q87.9875 127.895325 87.9875 126.3797Q87.9875 124.8172 88.8 123.957825Q89.6125 123.082825 90.89375 123.082825Q92.14375 123.082825 92.925 123.926575Q93.72188 124.770325 93.72188 126.3172Q93.72188 126.41095 93.72188 126.59845L89.08125 126.59845Q89.14375 127.6297 89.65938 128.17657Q90.175 128.70782 90.95625 128.70782Q91.53438 128.70782 91.94063 128.41095Q92.3625 128.09845 92.59688 127.4422ZM89.14375 125.739075L92.6125 125.739075Q92.55 124.9422 92.22188 124.551575Q91.70625 123.9422 90.90938 123.9422Q90.175 123.9422 89.675 124.426575Q89.19063 124.91095 89.14375 125.739075ZM94.925 127.582825L95.95625 127.426575Q96.05 128.05157 96.44063 128.3797Q96.84688 128.70782 97.58125 128.70782Q98.3 128.70782 98.64375 128.42657Q99.00313 128.1297 99.00313 127.72345Q99.00313 127.364075 98.69063 127.16095Q98.47188 127.020325 97.6125 126.801575Q96.45625 126.5047 96.00313 126.301575Q95.56563 126.082825 95.33125 125.707825Q95.09688 125.332825 95.09688 124.864075Q95.09688 124.457825 95.28438 124.09845Q95.47188 123.739075 95.8 123.5047Q96.05 123.332825 96.47188 123.207825Q96.89375 123.082825 97.39375 123.082825Q98.1125 123.082825 98.65938 123.301575Q99.22188 123.5047 99.4875 123.864075Q99.75313 124.22345 99.84688 124.8172L98.81563 124.957825Q98.75313 124.489075 98.40938 124.22345Q98.08125 123.9422 97.45625 123.9422Q96.7375 123.9422 96.425 124.1922Q96.1125 124.426575 96.1125 124.7547Q96.1125 124.957825 96.2375 125.114075Q96.37813 125.28595 96.64375 125.395325Q96.8 125.457825 97.58125 125.66095Q98.70625 125.97345 99.14375 126.16095Q99.58125 126.34845 99.83125 126.707825Q100.08125 127.0672 100.08125 127.614075Q100.08125 128.14532 99.76875 128.61407Q99.47188 129.0672 98.89375 129.33282Q98.31563 129.58282 97.58125 129.58282Q96.3625 129.58282 95.72188 129.08282Q95.09688 128.5672 94.925 127.582825Z" fill-rule="nonzero"/><path fill="#000000" d="M19.471874 233.92447L19.471874 225.33072L22.721874 225.33072Q23.565624 225.33072 24.01875 225.40884Q24.659374 225.51822 25.08125 225.8151Q25.51875 226.11197 25.76875 226.64322Q26.034374 227.17447 26.034374 227.8151Q26.034374 228.90884 25.33125 229.67447Q24.64375 230.42447 22.815624 230.42447L20.6125 230.42447L20.6125 233.92447L19.471874 233.92447ZM20.6125 229.42447L22.83125 229.42447Q23.940624 229.42447 24.39375 229.01822Q24.8625 228.59634 24.8625 227.84634Q24.8625 227.3151 24.58125 226.9401Q24.315624 226.54947 23.878124 226.42447Q23.58125 226.34634 22.815624 226.34634L20.6125 226.34634L20.6125 229.42447ZM27.3 236.3151L27.175 235.33072Q27.51875 235.42447 27.784374 235.42447Q28.128124 235.42447 28.33125 235.29947Q28.55 235.1901 28.690624 234.98697Q28.784374 234.8151 29.01875 234.1901Q29.034374 234.11197 29.1125 233.9401L26.7375 227.70572L27.878124 227.70572L29.175 231.29947Q29.425 231.98697 29.628124 232.7526Q29.815624 232.01822 30.065624 231.33072L31.39375 227.70572L32.440624 227.70572L30.08125 234.03384Q29.690624 235.04947 29.4875 235.4401Q29.20625 235.97134 28.83125 236.20572Q28.471874 236.45572 27.971874 236.45572Q27.675 236.45572 27.3 236.3151ZM31.534374 233.92447L34.83125 225.33072L36.05 225.33072L39.565624 233.92447L38.284374 233.92447L37.26875 231.3151L33.690624 231.3151L32.7375 233.92447L31.534374 233.92447ZM34.01875 230.39322L36.925 230.39322L36.034374 228.01822Q35.6125 226.9401 35.425 226.23697Q35.253124 227.0651 34.95625 227.8776L34.01875 230.39322ZM39.33125 233.92447L39.33125 227.70572L40.284374 227.70572L40.284374 228.64322Q40.64375 227.98697 40.940624 227.78384Q41.253124 227.5651 41.628124 227.5651Q42.159374 227.5651 42.70625 227.89322L42.346874 228.8776Q41.95625 228.64322 41.58125 228.64322Q41.221874 228.64322 40.940624 228.86197Q40.675 229.0651 40.565624 229.4401Q40.378124 230.0026 40.378124 230.65884L40.378124 233.92447L39.33125 233.92447ZM43.33125 233.92447L43.33125 227.70572L44.284374 227.70572L44.284374 228.64322Q44.64375 227.98697 44.940624 227.78384Q45.253124 227.5651 45.628124 227.5651Q46.159374 227.5651 46.70625 227.89322L46.346874 228.8776Q45.95625 228.64322 45.58125 228.64322Q45.221874 228.64322 44.940624 228.86197Q44.675 229.0651 44.565624 229.4401Q44.378124 230.0026 44.378124 230.65884L44.378124 233.92447L43.33125 233.92447ZM46.95625 230.8151Q46.95625 229.08072 47.909374 228.2526Q48.70625 227.5651 49.8625 227.5651Q51.14375 227.5651 51.95625 228.40884Q52.784374 229.23697 52.784374 230.72134Q52.784374 231.92447 52.425 232.61197Q52.065624 233.29947 51.3625 233.6901Q50.675 234.0651 49.8625 234.0651Q48.565624 234.0651 47.753124 233.23697Q46.95625 232.39322 46.95625 230.8151ZM48.034374 230.8151Q48.034374 232.0026 48.55 232.59634Q49.08125 233.1901 49.8625 233.1901Q50.659374 233.1901 51.175 232.59634Q51.690624 232.0026 51.690624 230.78384Q51.690624 229.6276 51.159374 229.03384Q50.64375 228.4401 49.8625 228.4401Q49.08125 228.4401 48.55 229.03384Q48.034374 229.61197 48.034374 230.8151ZM55.4875 233.92447L53.58125 227.70572L54.675 227.70572L55.659374 231.29947L56.034374 232.6276Q56.065624 232.53384 56.3625 231.34634L57.346874 227.70572L58.425 227.70572L59.3625 231.3151L59.675 232.5026L60.034374 231.29947L61.096874 227.70572L62.128124 227.70572L60.175 233.92447L59.08125 233.92447L58.096874 230.1901L57.846874 229.14322L56.596874 233.92447L55.4875 233.92447ZM70.37813 233.92447L70.37813 233.14322Q69.78438 234.0651 68.64375 234.0651Q67.89375 234.0651 67.26875 233.65884Q66.64375 233.23697 66.3 232.5026Q65.95625 231.76822 65.95625 230.8151Q65.95625 229.89322 66.26875 229.1276Q66.58125 228.36197 67.20625 227.97134Q67.83125 227.5651 68.59688 227.5651Q69.15938 227.5651 69.59688 227.79947Q70.03438 228.03384 70.31563 228.40884L70.31563 225.33072L71.3625 225.33072L71.3625 233.92447L70.37813 233.92447ZM67.05 230.8151Q67.05 232.01822 67.55 232.61197Q68.05 233.1901 68.7375 233.1901Q69.425 233.1901 69.90938 232.6276Q70.39375 232.0651 70.39375 230.90884Q70.39375 229.6276 69.89375 229.03384Q69.40938 228.4401 68.69063 228.4401Q67.9875 228.4401 67.51875 229.01822Q67.05 229.58072 67.05 230.8151ZM75.64375 232.98697L75.8 233.90884Q75.34688 234.0026 75.00313 234.0026Q74.425 234.0026 74.1125 233.83072Q73.8 233.64322 73.65938 233.34634Q73.53438 233.04947 73.53438 232.09634L73.53438 228.51822L72.76875 228.51822L72.76875 227.70572L73.53438 227.70572L73.53438 226.15884L74.58125 225.53384L74.58125 227.70572L75.64375 227.70572L75.64375 228.51822L74.58125 228.51822L74.58125 232.15884Q74.58125 232.61197 74.62813 232.73697Q74.69063 232.86197 74.81563 232.9401Q74.94063 233.01822 75.175 233.01822Q75.3625 233.01822 75.64375 232.98697ZM76.3 236.3151L76.175 235.33072Q76.51875 235.42447 76.78438 235.42447Q77.12813 235.42447 77.33125 235.29947Q77.55 235.1901 77.69063 234.98697Q77.78438 234.8151 78.01875 234.1901Q78.03438 234.11197 78.1125 233.9401L75.7375 227.70572L76.87813 227.70572L78.175 231.29947Q78.425 231.98697 78.62813 232.7526Q78.81563 232.01822 79.06563 231.33072L80.39375 227.70572L81.44063 227.70572L79.08125 234.03384Q78.69063 235.04947 78.4875 235.4401Q78.20625 235.97134 77.83125 236.20572Q77.47188 236.45572 76.97188 236.45572Q76.675 236.45572 76.3 236.3151ZM81.34688 236.3151L81.34688 227.70572L82.3 227.70572L82.3 228.5026Q82.64375 228.03384 83.06563 227.79947Q83.50313 227.5651 84.1125 227.5651Q84.90938 227.5651 85.51875 227.97134Q86.12813 228.3776 86.425 229.1276Q86.7375 229.8776 86.7375 230.76822Q86.7375 231.72134 86.39375 232.48697Q86.06563 233.2526 85.40938 233.65884Q84.75313 234.0651 84.03438 234.0651Q83.50313 234.0651 83.08125 233.84634Q82.65938 233.61197 82.39375 233.28384L82.39375 236.3151L81.34688 236.3151ZM82.3 230.84634Q82.3 232.04947 82.78438 232.6276Q83.26875 233.1901 83.95625 233.1901Q84.65938 233.1901 85.15938 232.59634Q85.65938 232.0026 85.65938 230.7526Q85.65938 229.5651 85.175 228.98697Q84.69063 228.39322 84.00313 228.39322Q83.33125 228.39322 82.81563 229.01822Q82.3 229.64322 82.3 230.84634ZM92.59688 231.92447L93.69063 232.04947Q93.44063 233.0026 92.7375 233.53384Q92.03438 234.0651 90.95625 234.0651Q89.59688 234.0651 88.78438 233.22134Q87.9875 232.3776 87.9875 230.86197Q87.9875 229.29947 88.8 228.4401Q89.6125 227.5651 90.89375 227.5651Q92.14375 227.5651 92.925 228.40884Q93.72188 229.2526 93.72188 230.79947Q93.72188 230.89322 93.72188 231.08072L89.08125 231.08072Q89.14375 232.11197 89.65938 232.65884Q90.175 233.1901 90.95625 233.1901Q91.53438 233.1901 91.94063 232.89322Q92.3625 232.58072 92.59688 231.92447ZM89.14375 230.22134L92.6125 230.22134Q92.55 229.42447 92.22188 229.03384Q91.70625 228.42447 90.90938 228.42447Q90.175 228.42447 89.675 228.90884Q89.19063 229.39322 89.14375 230.22134ZM94.925 232.0651L95.95625 231.90884Q96.05 232.53384 96.44063 232.86197Q96.84688 233.1901 97.58125 233.1901Q98.3 233.1901 98.64375 232.90884Q99.00313 232.61197 99.00313 232.20572Q99.00313 231.84634 98.69063 231.64322Q98.47188 231.5026 97.6125 231.28384Q96.45625 230.98697 96.00313 230.78384Q95.56563 230.5651 95.33125 230.1901Q95.09688 229.8151 95.09688 229.34634Q95.09688 228.9401 95.28438 228.58072Q95.47188 228.22134 95.8 227.98697Q96.05 227.8151 96.47188 227.6901Q96.89375 227.5651 97.39375 227.5651Q98.1125 227.5651 98.65938 227.78384Q99.22188 227.98697 99.4875 228.34634Q99.75313 228.70572 99.84688 229.29947L98.81563 229.4401Q98.75313 228.97134 98.40938 228.70572Q98.08125 228.42447 97.45625 228.42447Q96.7375 228.42447 96.425 228.67447Q96.1125 228.90884 96.1125 229.23697Q96.1125 229.4401 96.2375 229.59634Q96.37813 229.76822 96.64375 229.8776Q96.8 229.9401 97.58125 230.14322Q98.70625 230.45572 99.14375 230.64322Q99.58125 230.83072 99.83125 231.1901Q100.08125 231.54947 100.08125 232.09634Q100.08125 232.6276 99.76875 233.09634Q99.47188 233.54947 98.89375 233.8151Q98.31563 234.0651 97.58125 234.0651Q96.3625 234.0651 95.72188 233.5651Q95.09688 233.04947 94.925 232.0651Z" fill-rule="nonzero"/><path fill="#000000" d="M104.55 313.21564Q104.55 311.6844 104.8625 310.7625Q105.175 309.825 105.78438 309.325Q106.40938 308.825 107.34688 308.825Q108.03438 308.825 108.55 309.10626Q109.08125 309.3875 109.425 309.91876Q109.76875 310.4344 109.95625 311.1844Q110.14375 311.9344 110.14375 313.21564Q110.14375 314.73126 109.83125 315.65314Q109.53438 316.575 108.90938 317.09064Q108.3 317.59064 107.34688 317.59064Q106.1125 317.59064 105.39375 316.7Q104.55 315.6375 104.55 313.21564ZM105.62813 313.21564Q105.62813 315.325 106.12813 316.02814Q106.62813 316.73126 107.34688 316.73126Q108.08125 316.73126 108.56563 316.02814Q109.06563 315.325 109.06563 313.21564Q109.06563 311.09064 108.56563 310.40314Q108.08125 309.7 107.33125 309.7Q106.6125 309.7 106.175 310.3094Q105.62813 311.09064 105.62813 313.21564Z" fill-rule="nonzero"/><path fill="#000000" d="M226.99374 317.45L225.94687 317.45L225.94687 310.73126Q225.55624 311.09064 224.93124 311.46564Q224.32187 311.825 223.8375 311.9969L223.8375 310.98126Q224.7125 310.5594 225.36874 309.98126Q226.04062 309.3875 226.32187 308.825L226.99374 308.825L226.99374 317.45Z" fill-rule="nonzero"/><path fill="#000000" d="M347.04688 316.4344L347.04688 317.45L341.35938 317.45Q341.35938 317.075 341.48438 316.71564Q341.70312 316.1375 342.17188 315.575Q342.65625 315.0125 343.5625 314.27814Q344.96875 313.1219 345.45312 312.45Q345.95312 311.77814 345.95312 311.1844Q345.95312 310.5594 345.5 310.1375Q345.04688 309.7 344.32812 309.7Q343.5625 309.7 343.10938 310.15314Q342.65625 310.60626 342.64062 311.41876L341.5625 311.3094Q341.67188 310.09064 342.39062 309.46564Q343.125 308.825 344.35938 308.825Q345.59375 308.825 346.3125 309.5125Q347.03125 310.2 347.03125 311.21564Q347.03125 311.73126 346.8125 312.23126Q346.60938 312.71564 346.10938 313.27814Q345.625 313.825 344.5 314.77814Q343.54688 315.575 343.26562 315.8719Q343.0 316.15314 342.82812 316.4344L347.04688 316.4344Z" fill-rule="nonzero"/><path fill="#000000" d="M459.975 315.1844L461.0375 315.04376Q461.20938 315.9344 461.64688 316.34064Q462.08438 316.73126 462.70938 316.73126Q463.45938 316.73126 463.975 316.21564Q464.49063 315.7 464.49063 314.9344Q464.49063 314.21564 464.00626 313.7469Q463.5375 313.2625 462.80313 313.2625Q462.50626 313.2625 462.05313 313.3875L462.17813 312.45Q462.2875 312.46564 462.35 312.46564Q463.02188 312.46564 463.55313 312.1219Q464.1 311.7625 464.1 311.02814Q464.1 310.45 463.70938 310.075Q463.31876 309.6844 462.69376 309.6844Q462.08438 309.6844 461.6625 310.075Q461.25626 310.46564 461.14688 311.23126L460.08438 311.04376Q460.27188 309.9969 460.95938 309.41876Q461.64688 308.825 462.6625 308.825Q463.36563 308.825 463.95938 309.1375Q464.55313 309.4344 464.86563 309.95Q465.17813 310.46564 465.17813 311.0594Q465.17813 311.60626 464.88126 312.075Q464.58438 312.52814 464.00626 312.79376Q464.75626 312.96564 465.17813 313.52814Q465.6 314.075 465.6 314.91876Q465.6 316.04376 464.77188 316.825Q463.95938 317.60626 462.70938 317.60626Q461.58438 317.60626 460.83438 316.9344Q460.08438 316.2469 459.975 315.1844Z" fill-rule="nonzero"/><path fill="#000000" d="M581.825 317.45L581.825 315.3875L578.10626 315.3875L578.10626 314.41876L582.02814 308.85626L582.8875 308.85626L582.8875 314.41876L584.04376 314.41876L584.04376 315.3875L582.8875 315.3875L582.8875 317.45L581.825 317.45ZM581.825 314.41876L581.825 310.5594L579.1375 314.41876L581.825 314.41876Z" fill-rule="nonzero"/><path fill="#757575" d="M19.8625 41.51875L19.8625 27.175L21.471874 27.175L21.471874 28.51875Q22.034374 27.7375 22.7375 27.346874Q23.45625 26.940624 24.471874 26.940624Q25.8 26.940624 26.815624 27.628124Q27.83125 28.315624 28.346874 29.565624Q28.878124 30.8 28.878124 32.284374Q28.878124 33.878124 28.3 35.159374Q27.7375 36.425 26.64375 37.1125Q25.55 37.784374 24.346874 37.784374Q23.471874 37.784374 22.76875 37.409374Q22.08125 37.034374 21.628124 36.471874L21.628124 41.51875L19.8625 41.51875ZM21.45625 32.425Q21.45625 34.425 22.26875 35.378124Q23.08125 36.33125 24.2375 36.33125Q25.409374 36.33125 26.2375 35.346874Q27.08125 34.3625 27.08125 32.26875Q27.08125 30.3 26.253124 29.315624Q25.440624 28.315624 24.315624 28.315624Q23.190624 28.315624 22.315624 29.378124Q21.45625 30.425 21.45625 32.425ZM37.64375 36.26875Q36.659374 37.096874 35.753124 37.440624Q34.846874 37.784374 33.815624 37.784374Q32.1125 37.784374 31.190624 36.95625Q30.26875 36.1125 30.26875 34.815624Q30.26875 34.05 30.6125 33.425Q30.971874 32.8 31.534374 32.425Q32.096874 32.034374 32.8 31.83125Q33.315624 31.70625 34.3625 31.565624Q36.4875 31.315624 37.4875 30.971874Q37.503124 30.6125 37.503124 30.503124Q37.503124 29.440624 37.003124 28.9875Q36.33125 28.39375 35.003124 28.39375Q33.753124 28.39375 33.159374 28.83125Q32.58125 29.26875 32.3 30.378124L30.58125 30.14375Q30.815624 29.034374 31.346874 28.3625Q31.878124 27.675 32.89375 27.315624Q33.909374 26.940624 35.253124 26.940624Q36.58125 26.940624 37.409374 27.253124Q38.2375 27.565624 38.628124 28.05Q39.01875 28.51875 39.175 29.2375Q39.26875 29.690624 39.26875 30.8625L39.26875 33.20625Q39.26875 35.659374 39.378124 36.315624Q39.4875 36.95625 39.83125 37.55L37.9875 37.55Q37.721874 37.003124 37.64375 36.26875ZM37.4875 32.346874Q36.534374 32.7375 34.6125 33.003124Q33.534374 33.159374 33.08125 33.3625Q32.64375 33.55 32.39375 33.925Q32.14375 34.3 32.14375 34.76875Q32.14375 35.471874 32.675 35.940624Q33.20625 36.409374 34.2375 36.409374Q35.253124 36.409374 36.034374 35.971874Q36.83125 35.51875 37.20625 34.753124Q37.4875 34.14375 37.4875 32.9875L37.4875 32.346874ZM41.8625 37.55L41.8625 27.175L43.45625 27.175L43.45625 28.659374Q44.596874 26.940624 46.753124 26.940624Q47.690624 26.940624 48.471874 27.284374Q49.26875 27.6125 49.659374 28.159374Q50.05 28.70625 50.20625 29.45625Q50.3 29.95625 50.3 31.175L50.3 37.55L48.534374 37.55L48.534374 31.2375Q48.534374 30.159374 48.33125 29.628124Q48.128124 29.096874 47.596874 28.784374Q47.08125 28.471874 46.378124 28.471874Q45.253124 28.471874 44.440624 29.190624Q43.628124 29.89375 43.628124 31.878124L43.628124 37.55L41.8625 37.55ZM58.596874 37.55L58.596874 36.2375Q57.6125 37.784374 55.690624 37.784374Q54.45625 37.784374 53.409374 37.096874Q52.378124 36.409374 51.8 35.190624Q51.2375 33.971874 51.2375 32.378124Q51.2375 30.815624 51.753124 29.55Q52.26875 28.284374 53.3 27.6125Q54.346874 26.940624 55.6125 26.940624Q56.55 26.940624 57.284374 27.346874Q58.01875 27.7375 58.4875 28.3625L58.4875 23.2375L60.221874 23.2375L60.221874 37.55L58.596874 37.55ZM53.034374 32.378124Q53.034374 34.3625 53.878124 35.346874Q54.721874 36.33125 55.8625 36.33125Q57.01875 36.33125 57.815624 35.39375Q58.628124 34.45625 58.628124 32.51875Q58.628124 30.39375 57.8 29.39375Q56.9875 28.39375 55.784374 28.39375Q54.6125 28.39375 53.815624 29.3625Q53.034374 30.315624 53.034374 32.378124ZM69.64375 36.26875Q68.65938 37.096874 67.75313 37.440624Q66.84688 37.784374 65.81563 37.784374Q64.1125 37.784374 63.190624 36.95625Q62.26875 36.1125 62.26875 34.815624Q62.26875 34.05 62.6125 33.425Q62.971874 32.8 63.534374 32.425Q64.09688 32.034374 64.8 31.83125Q65.31563 31.70625 66.3625 31.565624Q68.4875 31.315624 69.4875 30.971874Q69.50313 30.6125 69.50313 30.503124Q69.50313 29.440624 69.00313 28.9875Q68.33125 28.39375 67.00313 28.39375Q65.75313 28.39375 65.15938 28.83125Q64.58125 29.26875 64.3 30.378124L62.58125 30.14375Q62.815624 29.034374 63.346874 28.3625Q63.878124 27.675 64.89375 27.315624Q65.90938 26.940624 67.25313 26.940624Q68.58125 26.940624 69.40938 27.253124Q70.2375 27.565624 70.62813 28.05Q71.01875 28.51875 71.175 29.2375Q71.26875 29.690624 71.26875 30.8625L71.26875 33.20625Q71.26875 35.659374 71.37813 36.315624Q71.4875 36.95625 71.83125 37.55L69.9875 37.55Q69.72188 37.003124 69.64375 36.26875ZM69.4875 32.346874Q68.53438 32.7375 66.6125 33.003124Q65.53438 33.159374 65.08125 33.3625Q64.64375 33.55 64.39375 33.925Q64.14375 34.3 64.14375 34.76875Q64.14375 35.471874 64.675 35.940624Q65.20625 36.409374 66.2375 36.409374Q67.25313 36.409374 68.03438 35.971874Q68.83125 35.51875 69.20625 34.753124Q69.4875 34.14375 69.4875 32.9875L69.4875 32.346874ZM73.15938 34.45625L74.90938 34.175Q75.05 35.221874 75.72188 35.784374Q76.39375 36.33125 77.59688 36.33125Q78.8 36.33125 79.37813 35.846874Q79.97188 35.346874 79.97188 34.690624Q79.97188 34.096874 79.45625 33.753124Q79.09688 33.51875 77.65938 33.159374Q75.72188 32.659374 74.97188 32.315624Q74.2375 31.95625 73.84688 31.33125Q73.45625 30.690624 73.45625 29.925Q73.45625 29.2375 73.76875 28.64375Q74.09688 28.05 74.64375 27.659374Q75.05 27.3625 75.75313 27.159374Q76.47188 26.940624 77.28438 26.940624Q78.50313 26.940624 79.425 27.3Q80.34688 27.64375 80.78438 28.253124Q81.22188 28.846874 81.39375 29.846874L79.675 30.08125Q79.55 29.284374 78.9875 28.846874Q78.425 28.39375 77.40938 28.39375Q76.19063 28.39375 75.675 28.8Q75.15938 29.190624 75.15938 29.721874Q75.15938 30.065624 75.37813 30.346874Q75.58125 30.628124 76.05 30.815624Q76.31563 30.909374 77.59688 31.253124Q79.47188 31.753124 80.20625 32.08125Q80.94063 32.39375 81.3625 33.003124Q81.78438 33.596874 81.78438 34.503124Q81.78438 35.378124 81.26875 36.159374Q80.75313 36.940624 79.78438 37.3625Q78.81563 37.784374 77.59688 37.784374Q75.58125 37.784374 74.51875 36.940624Q73.45625 36.096874 73.15938 34.45625ZM89.84688 37.55L89.84688 27.175L91.425 27.175L91.425 28.753124Q92.03438 27.64375 92.55 27.3Q93.06563 26.940624 93.675 26.940624Q94.56563 26.940624 95.4875 27.503124L94.87813 29.14375Q94.2375 28.753124 93.59688 28.753124Q93.01875 28.753124 92.55 29.1125Q92.09688 29.45625 91.89375 30.065624Q91.6125 31.003124 91.6125 32.1125L91.6125 37.55L89.84688 37.55ZM103.97188 34.20625L105.78438 34.440624Q105.3625 36.01875 104.19063 36.909374Q103.03438 37.784374 101.22188 37.784374Q98.95625 37.784374 97.6125 36.39375Q96.28438 34.9875 96.28438 32.45625Q96.28438 29.83125 97.62813 28.39375Q98.97188 26.940624 101.12813 26.940624Q103.20625 26.940624 104.51875 28.3625Q105.84688 29.76875 105.84688 32.346874Q105.84688 32.503124 105.83125 32.815624L98.09688 32.815624Q98.19063 34.51875 99.06563 35.425Q99.94063 36.33125 101.2375 36.33125Q102.20625 36.33125 102.87813 35.83125Q103.56563 35.315624 103.97188 34.20625ZM98.19063 31.3625L103.9875 31.3625Q103.87813 30.065624 103.33125 29.409374Q102.4875 28.39375 101.14375 28.39375Q99.94063 28.39375 99.1125 29.20625Q98.28438 30.003124 98.19063 31.3625ZM114.64375 36.26875Q113.65938 37.096874 112.75313 37.440624Q111.84688 37.784374 110.81563 37.784374Q109.1125 37.784374 108.19063 36.95625Q107.26875 36.1125 107.26875 34.815624Q107.26875 34.05 107.6125 33.425Q107.97188 32.8 108.53438 32.425Q109.09688 32.034374 109.8 31.83125Q110.31563 31.70625 111.3625 31.565624Q113.4875 31.315624 114.4875 30.971874Q114.50313 30.6125 114.50313 30.503124Q114.50313 29.440624 114.00313 28.9875Q113.33125 28.39375 112.00313 28.39375Q110.75313 28.39375 110.15938 28.83125Q109.58125 29.26875 109.3 30.378124L107.58125 30.14375Q107.81563 29.034374 108.34688 28.3625Q108.87813 27.675 109.89375 27.315624Q110.90938 26.940624 112.25313 26.940624Q113.58125 26.940624 114.40938 27.253124Q115.2375 27.565624 115.62813 28.05Q116.01875 28.51875 116.175 29.2375Q116.26875 29.690624 116.26875 30.8625L116.26875 33.20625Q116.26875 35.659374 116.37813 36.315624Q116.4875 36.95625 116.83125 37.55L114.9875 37.55Q114.72188 37.003124 114.64375 36.26875ZM114.4875 32.346874Q113.53438 32.7375 111.6125 33.003124Q110.53438 33.159374 110.08125 33.3625Q109.64375 33.55 109.39375 33.925Q109.14375 34.3 109.14375 34.76875Q109.14375 35.471874 109.675 35.940624Q110.20625 36.409374 111.2375 36.409374Q112.25313 36.409374 113.03438 35.971874Q113.83125 35.51875 114.20625 34.753124Q114.4875 34.14375 114.4875 32.9875L114.4875 32.346874ZM125.59688 37.55L125.59688 36.2375Q124.6125 37.784374 122.69063 37.784374Q121.45625 37.784374 120.40938 37.096874Q119.37813 36.409374 118.8 35.190624Q118.2375 33.971874 118.2375 32.378124Q118.2375 30.815624 118.75313 29.55Q119.26875 28.284374 120.3 27.6125Q121.34688 26.940624 122.6125 26.940624Q123.55 26.940624 124.28438 27.346874Q125.01875 27.7375 125.4875 28.3625L125.4875 23.2375L127.22188 23.2375L127.22188 37.55L125.59688 37.55ZM120.03438 32.378124Q120.03438 34.3625 120.87813 35.346874Q121.72188 36.33125 122.8625 36.33125Q124.01875 36.33125 124.81563 35.39375Q125.62813 34.45625 125.62813 32.51875Q125.62813 30.39375 124.8 29.39375Q123.9875 28.39375 122.78438 28.39375Q121.6125 28.39375 120.81563 29.3625Q120.03438 30.315624 120.03438 32.378124ZM128.25313 41.51875L128.25313 40.253124L139.89375 40.253124L139.89375 41.51875L128.25313 41.51875ZM140.8625 41.51875L140.8625 27.175L142.47188 27.175L142.47188 28.51875Q143.03438 27.7375 143.7375 27.346874Q144.45625 26.940624 145.47188 26.940624Q146.8 26.940624 147.81563 27.628124Q148.83125 28.315624 149.34688 29.565624Q149.87813 30.8 149.87813 32.284374Q149.87813 33.878124 149.3 35.159374Q148.7375 36.425 147.64375 37.1125Q146.55 37.784374 145.34688 37.784374Q144.47188 37.784374 143.76875 37.409374Q143.08125 37.034374 142.62813 36.471874L142.62813 41.51875L140.8625 41.51875ZM142.45625 32.425Q142.45625 34.425 143.26875 35.378124Q144.08125 36.33125 145.2375 36.33125Q146.40938 36.33125 147.2375 35.346874Q148.08125 34.3625 148.08125 32.26875Q148.08125 30.3 147.25313 29.315624Q146.44063 28.315624 145.31563 28.315624Q144.19063 28.315624 143.31563 29.378124Q142.45625 30.425 142.45625 32.425ZM158.64375 36.26875Q157.65938 37.096874 156.75313 37.440624Q155.84688 37.784374 154.81563 37.784374Q153.1125 37.784374 152.19063 36.95625Q151.26875 36.1125 151.26875 34.815624Q151.26875 34.05 151.6125 33.425Q151.97188 32.8 152.53438 32.425Q153.09688 32.034374 153.8 31.83125Q154.31563 31.70625 155.3625 31.565624Q157.4875 31.315624 158.4875 30.971874Q158.50313 30.6125 158.50313 30.503124Q158.50313 29.440624 158.00313 28.9875Q157.33125 28.39375 156.00313 28.39375Q154.75313 28.39375 154.15938 28.83125Q153.58125 29.26875 153.3 30.378124L151.58125 30.14375Q151.81563 29.034374 152.34688 28.3625Q152.87813 27.675 153.89375 27.315624Q154.90938 26.940624 156.25313 26.940624Q157.58125 26.940624 158.40938 27.253124Q159.2375 27.565624 159.62813 28.05Q160.01875 28.51875 160.175 29.2375Q160.26875 29.690624 160.26875 30.8625L160.26875 33.20625Q160.26875 35.659374 160.37813 36.315624Q160.4875 36.95625 160.83125 37.55L158.9875 37.55Q158.72188 37.003124 158.64375 36.26875ZM158.4875 32.346874Q157.53438 32.7375 155.6125 33.003124Q154.53438 33.159374 154.08125 33.3625Q153.64375 33.55 153.39375 33.925Q153.14375 34.3 153.14375 34.76875Q153.14375 35.471874 153.675 35.940624Q154.20625 36.409374 155.2375 36.409374Q156.25313 36.409374 157.03438 35.971874Q157.83125 35.51875 158.20625 34.753124Q158.4875 34.14375 158.4875 32.9875L158.4875 32.346874ZM162.84688 37.55L162.84688 27.175L164.425 27.175L164.425 28.753124Q165.03438 27.64375 165.55 27.3Q166.06563 26.940624 166.675 26.940624Q167.56563 26.940624 168.4875 27.503124L167.87813 29.14375Q167.2375 28.753124 166.59688 28.753124Q166.01875 28.753124 165.55 29.1125Q165.09688 29.45625 164.89375 30.065624Q164.6125 31.003124 164.6125 32.1125L164.6125 37.55L162.84688 37.55ZM176.4875 41.51875L176.4875 36.440624Q176.06563 37.01875 175.33125 37.409374Q174.59688 37.784374 173.76875 37.784374Q171.925 37.784374 170.58125 36.315624Q169.25313 34.83125 169.25313 32.26875Q169.25313 30.70625 169.78438 29.471874Q170.33125 28.221874 171.3625 27.58125Q172.39375 26.940624 173.62813 26.940624Q175.55 26.940624 176.65938 28.565624L176.65938 27.175L178.2375 27.175L178.2375 41.51875L176.4875 41.51875ZM171.06563 32.33125Q171.06563 34.33125 171.89375 35.33125Q172.7375 36.33125 173.90938 36.33125Q175.03438 36.33125 175.84688 35.39375Q176.65938 34.440624 176.65938 32.4875Q176.65938 30.425 175.8 29.378124Q174.94063 28.33125 173.8 28.33125Q172.65938 28.33125 171.8625 29.3Q171.06563 30.26875 171.06563 32.33125ZM187.65938 37.55L187.65938 36.01875Q186.45625 37.784374 184.37813 37.784374Q183.45625 37.784374 182.65938 37.440624Q181.8625 37.08125 181.47188 36.55Q181.09688 36.01875 180.94063 35.2375Q180.83125 34.721874 180.83125 33.596874L180.83125 27.175L182.58125 27.175L182.58125 32.925Q182.58125 34.3 182.69063 34.784374Q182.8625 35.471874 183.39375 35.878124Q183.94063 36.26875 184.72188 36.26875Q185.51875 36.26875 186.20625 35.8625Q186.90938 35.45625 187.19063 34.76875Q187.4875 34.065624 187.4875 32.7375L187.4875 27.175L189.2375 27.175L189.2375 37.55L187.65938 37.55ZM197.97188 34.20625L199.78438 34.440624Q199.3625 36.01875 198.19063 36.909374Q197.03438 37.784374 195.22188 37.784374Q192.95625 37.784374 191.6125 36.39375Q190.28438 34.9875 190.28438 32.45625Q190.28438 29.83125 191.62813 28.39375Q192.97188 26.940624 195.12813 26.940624Q197.20625 26.940624 198.51875 28.3625Q199.84688 29.76875 199.84688 32.346874Q199.84688 32.503124 199.83125 32.815624L192.09688 32.815624Q192.19063 34.51875 193.06563 35.425Q193.94063 36.33125 195.2375 36.33125Q196.20625 36.33125 196.87813 35.83125Q197.56563 35.315624 197.97188 34.20625ZM192.19063 31.3625L197.9875 31.3625Q197.87813 30.065624 197.33125 29.409374Q196.4875 28.39375 195.14375 28.39375Q193.94063 28.39375 193.1125 29.20625Q192.28438 30.003124 192.19063 31.3625ZM205.70625 35.971874L205.95625 37.534374Q205.22188 37.690624 204.62813 37.690624Q203.675 37.690624 203.14375 37.39375Q202.62813 37.08125 202.40938 36.596874Q202.19063 36.096874 202.19063 34.51875L202.19063 28.55L200.90938 28.55L200.90938 27.175L202.19063 27.175L202.19063 24.6125L203.94063 23.55L203.94063 27.175L205.70625 27.175L205.70625 28.55L203.94063 28.55L203.94063 34.6125Q203.94063 35.3625 204.03438 35.58125Q204.12813 35.784374 204.33125 35.925Q204.55 36.05 204.94063 36.05Q205.22188 36.05 205.70625 35.971874ZM213.8625 41.51875L213.8625 27.175L215.47188 27.175L215.47188 28.51875Q216.03438 27.7375 216.7375 27.346874Q217.45625 26.940624 218.47188 26.940624Q219.8 26.940624 220.81563 27.628124Q221.83125 28.315624 222.34688 29.565624Q222.87813 30.8 222.87813 32.284374Q222.87813 33.878124 222.3 35.159374Q221.7375 36.425 220.64375 37.1125Q219.55 37.784374 218.34688 37.784374Q217.47188 37.784374 216.76875 37.409374Q216.08125 37.034374 215.62813 36.471874L215.62813 41.51875L213.8625 41.51875ZM215.45625 32.425Q215.45625 34.425 216.26875 35.378124Q217.08125 36.33125 218.2375 36.33125Q219.40938 36.33125 220.2375 35.346874Q221.08125 34.3625 221.08125 32.26875Q221.08125 30.3 220.25313 29.315624Q219.44063 28.315624 218.31563 28.315624Q217.19063 28.315624 216.31563 29.378124Q215.45625 30.425 215.45625 32.425ZM231.97188 34.20625L233.78438 34.440624Q233.3625 36.01875 232.19063 36.909374Q231.03438 37.784374 229.22188 37.784374Q226.95625 37.784374 225.6125 36.39375Q224.28438 34.9875 224.28438 32.45625Q224.28438 29.83125 225.62813 28.39375Q226.97188 26.940624 229.12813 26.940624Q231.20625 26.940624 232.51875 28.3625Q233.84688 29.76875 233.84688 32.346874Q233.84688 32.503124 233.83125 32.815624L226.09688 32.815624Q226.19063 34.51875 227.06563 35.425Q227.94063 36.33125 229.2375 36.33125Q230.20625 36.33125 230.87813 35.83125Q231.56563 35.315624 231.97188 34.20625ZM226.19063 31.3625L231.9875 31.3625Q231.87813 30.065624 231.33125 29.409374Q230.4875 28.39375 229.14375 28.39375Q227.94063 28.39375 227.1125 29.20625Q226.28438 30.003124 226.19063 31.3625ZM235.84688 37.55L235.84688 27.175L237.425 27.175L237.425 28.753124Q238.03438 27.64375 238.55 27.3Q239.06563 26.940624 239.675 26.940624Q240.56563 26.940624 241.4875 27.503124L240.87813 29.14375Q240.2375 28.753124 239.59688 28.753124Q239.01875 28.753124 238.55 29.1125Q238.09688 29.45625 237.89375 30.065624Q237.6125 31.003124 237.6125 32.1125L237.6125 37.55L235.84688 37.55ZM243.28438 37.55L243.28438 28.55L241.7375 28.55L241.7375 27.175L243.28438 27.175L243.28438 26.08125Q243.28438 25.034374 243.47188 24.51875Q243.72188 23.83125 244.3625 23.409374Q245.00313 22.9875 246.15938 22.9875Q246.90938 22.9875 247.8 23.159374L247.53438 24.690624Q246.9875 24.596874 246.50313 24.596874Q245.70625 24.596874 245.3625 24.940624Q245.03438 25.284374 245.03438 26.221874L245.03438 27.175L247.06563 27.175L247.06563 28.55L245.03438 28.55L245.03438 37.55L243.28438 37.55ZM248.22188 32.3625Q248.22188 29.4875 249.81563 28.096874Q251.15938 26.940624 253.08125 26.940624Q255.22188 26.940624 256.5656 28.346874Q257.925 29.753124 257.925 32.221874Q257.925 34.221874 257.33124 35.378124Q256.7375 36.51875 255.58125 37.159374Q254.44063 37.784374 253.08125 37.784374Q250.89375 37.784374 249.55 36.39375Q248.22188 34.9875 248.22188 32.3625ZM250.01875 32.3625Q250.01875 34.3625 250.87813 35.346874Q251.75313 36.33125 253.08125 36.33125Q254.39375 36.33125 255.25313 35.346874Q256.1281 34.346874 256.1281 32.3Q256.1281 30.378124 255.25313 29.39375Q254.37813 28.39375 253.08125 28.39375Q251.75313 28.39375 250.87813 29.39375Q250.01875 30.378124 250.01875 32.3625ZM259.84686 37.55L259.84686 27.175L261.425 27.175L261.425 28.753124Q262.03436 27.64375 262.55 27.3Q263.0656 26.940624 263.675 26.940624Q264.5656 26.940624 265.4875 27.503124L264.8781 29.14375Q264.2375 28.753124 263.59686 28.753124Q263.01874 28.753124 262.55 29.1125Q262.09686 29.45625 261.89374 30.065624Q261.6125 31.003124 261.6125 32.1125L261.6125 37.55L259.84686 37.55ZM266.8625 37.55L266.8625 27.175L268.4406 27.175L268.4406 28.628124Q268.925 27.878124 269.7375 27.409374Q270.55 26.940624 271.58124 26.940624Q272.7375 26.940624 273.47186 27.425Q274.20624 27.89375 274.51874 28.753124Q275.7531 26.940624 277.72186 26.940624Q279.26874 26.940624 280.09686 27.8Q280.925 28.659374 280.925 30.425L280.925 37.55L279.175 37.55L279.175 31.01875Q279.175 29.95625 279.0031 29.503124Q278.83124 29.034374 278.3781 28.753124Q277.9406 28.471874 277.33124 28.471874Q276.2375 28.471874 275.5031 29.20625Q274.78436 29.925 274.78436 31.51875L274.78436 37.55L273.03436 37.55L273.03436 30.815624Q273.03436 29.64375 272.59686 29.065624Q272.175 28.471874 271.1906 28.471874Q270.45624 28.471874 269.8156 28.8625Q269.1906 29.253124 268.90936 30.003124Q268.6281 30.753124 268.6281 32.175L268.6281 37.55L266.8625 37.55ZM289.64374 36.26875Q288.65936 37.096874 287.7531 37.440624Q286.84686 37.784374 285.8156 37.784374Q284.1125 37.784374 283.1906 36.95625Q282.26874 36.1125 282.26874 34.815624Q282.26874 34.05 282.6125 33.425Q282.97186 32.8 283.53436 32.425Q284.09686 32.034374 284.8 31.83125Q285.3156 31.70625 286.3625 31.565624Q288.4875 31.315624 289.4875 30.971874Q289.5031 30.6125 289.5031 30.503124Q289.5031 29.440624 289.0031 28.9875Q288.33124 28.39375 287.0031 28.39375Q285.7531 28.39375 285.15936 28.83125Q284.58124 29.26875 284.3 30.378124L282.58124 30.14375Q282.8156 29.034374 283.34686 28.3625Q283.8781 27.675 284.89374 27.315624Q285.90936 26.940624 287.2531 26.940624Q288.58124 26.940624 289.40936 27.253124Q290.2375 27.565624 290.6281 28.05Q291.01874 28.51875 291.175 29.2375Q291.26874 29.690624 291.26874 30.8625L291.26874 33.20625Q291.26874 35.659374 291.3781 36.315624Q291.4875 36.95625 291.83124 37.55L289.9875 37.55Q289.72186 37.003124 289.64374 36.26875ZM289.4875 32.346874Q288.53436 32.7375 286.6125 33.003124Q285.53436 33.159374 285.08124 33.3625Q284.64374 33.55 284.39374 33.925Q284.14374 34.3 284.14374 34.76875Q284.14374 35.471874 284.675 35.940624Q285.20624 36.409374 286.2375 36.409374Q287.2531 36.409374 288.03436 35.971874Q288.83124 35.51875 289.20624 34.753124Q289.4875 34.14375 289.4875 32.9875L289.4875 32.346874ZM293.8625 37.55L293.8625 27.175L295.45624 27.175L295.45624 28.659374Q296.59686 26.940624 298.7531 26.940624Q299.6906 26.940624 300.47186 27.284374Q301.26874 27.6125 301.65936 28.159374Q302.05 28.70625 302.20624 29.45625Q302.3 29.95625 302.3 31.175L302.3 37.55L300.53436 37.55L300.53436 31.2375Q300.53436 30.159374 300.33124 29.628124Q300.1281 29.096874 299.59686 28.784374Q299.08124 28.471874 298.3781 28.471874Q297.2531 28.471874 296.4406 29.190624Q295.6281 29.89375 295.6281 31.878124L295.6281 37.55L293.8625 37.55ZM310.64374 33.753124L312.3625 33.971874Q312.08124 35.76875 310.90936 36.784374Q309.7531 37.784374 308.05 37.784374Q305.925 37.784374 304.6281 36.39375Q303.33124 35.003124 303.33124 32.409374Q303.33124 30.721874 303.8781 29.471874Q304.4406 28.20625 305.58124 27.58125Q306.72186 26.940624 308.0656 26.940624Q309.7531 26.940624 310.8156 27.8Q311.89374 28.659374 312.20624 30.221874L310.4875 30.4875Q310.2531 29.440624 309.6281 28.925Q309.0031 28.39375 308.1281 28.39375Q306.8 28.39375 305.97186 29.346874Q305.14374 30.3 305.14374 32.346874Q305.14374 34.440624 305.9406 35.39375Q306.7375 36.33125 308.03436 36.33125Q309.0656 36.33125 309.7531 35.70625Q310.45624 35.065624 310.64374 33.753124ZM320.97186 34.20625L322.78436 34.440624Q322.3625 36.01875 321.1906 36.909374Q320.03436 37.784374 318.22186 37.784374Q315.95624 37.784374 314.6125 36.39375Q313.28436 34.9875 313.28436 32.45625Q313.28436 29.83125 314.6281 28.39375Q315.97186 26.940624 318.1281 26.940624Q320.20624 26.940624 321.51874 28.3625Q322.84686 29.76875 322.84686 32.346874Q322.84686 32.503124 322.83124 32.815624L315.09686 32.815624Q315.1906 34.51875 316.0656 35.425Q316.9406 36.33125 318.2375 36.33125Q319.20624 36.33125 319.8781 35.83125Q320.5656 35.315624 320.97186 34.20625ZM315.1906 31.3625L320.9875 31.3625Q320.8781 30.065624 320.33124 29.409374Q319.4875 28.39375 318.14374 28.39375Q316.9406 28.39375 316.1125 29.20625Q315.28436 30.003124 315.1906 31.3625Z" fill-rule="nonzero"/></svg>