<svg version="1.1" viewBox="0.0 0.0 600.0 371.0" fill="none" stroke="none" stroke-linecap="square" stroke-miterlimit="10" width="600" height="371" xmlns:xlink="http://www.w3.org/1999/xlink" xmlns="http://www.w3.org/2000/svg"><path fill="#ffffff" d="M0 0L600.0 0L600.0 371.0L0 371.0L0 0Z" fill-rule="nonzero"/><path stroke="#333333" stroke-width="1.0" stroke-linecap="butt" d="M73.5 332.5L581.5 332.5" fill-rule="nonzero"/><path stroke="#cccccc" stroke-width="1.0" stroke-linecap="butt" d="M73.5 262.5L581.5 262.5" fill-rule="nonzero"/><path stroke="#cccccc" stroke-width="1.0" stroke-linecap="butt" d="M73.5 192.5L581.5 192.5" fill-rule="nonzero"/><path stroke="#cccccc" stroke-width="1.0" stroke-linecap="butt" d="M73.5 122.5L581.5 122.5" fill-rule="nonzero"/><path stroke="#cccccc" stroke-width="1.0" stroke-linecap="butt" d="M73.5 51.5L581.5 51.5" fill-rule="nonzero"/><clipPath id="id_0"><path d="M73.55 51.916668L581.45 51.916668L581.45 332.45L73.55 332.45L73.55 51.916668Z" clip-rule="nonzero"/></clipPath><path stroke="#000000" stroke-width="2.0" stroke-linecap="butt" stroke-opacity="0.0" clip-path="url(#id_0)" d="M218.0 332.0L150.0 332.0L150.0 250.0C150.0 248.89543 150.89543 248.0 152.0 248.0L216.0 248.0C217.10457 248.0 218.0 248.89543 218.0 250.0Z" fill-rule="nonzero"/><path fill="#6d9eeb" clip-path="url(#id_0)" d="M218.0 332.0L150.0 332.0L150.0 250.0C150.0 248.89543 150.89543 248.0 152.0 248.0L216.0 248.0C217.10457 248.0 218.0 248.89543 218.0 250.0Z" fill-rule="nonzero"/><path stroke="#000000" stroke-width="2.0" stroke-linecap="butt" stroke-opacity="0.0" clip-path="url(#id_0)" d="M435.0 332.0L367.0 332.0L367.0 306.0C367.0 304.89542 367.89542 304.0 369.0 304.0L433.0 304.0C434.10458 304.0 435.0 304.89542 435.0 306.0Z" fill-rule="nonzero"/><path fill="#6d9eeb" clip-path="url(#id_0)" d="M435.0 332.0L367.0 332.0L367.0 306.0C367.0 304.89542 367.89542 304.0 369.0 304.0L433.0 304.0C434.10458 304.0 435.0 304.89542 435.0 306.0Z" fill-rule="nonzero"/><path stroke="#000000" stroke-width="2.0" stroke-linecap="butt" stroke-opacity="0.0" clip-path="url(#id_0)" d="M288.0 332.0L220.0 332.0L220.0 54.0C220.0 52.89543 220.89543 52.0 222.0 52.0L286.0 52.0C287.10458 52.0 288.0 52.89543 288.0 54.0Z" fill-rule="nonzero"/><path fill="#3c78d8" clip-path="url(#id_0)" d="M288.0 332.0L220.0 332.0L220.0 54.0C220.0 52.89543 220.89543 52.0 222.0 52.0L286.0 52.0C287.10458 52.0 288.0 52.89543 288.0 54.0Z" fill-rule="nonzero"/><path stroke="#000000" stroke-width="2.0" stroke-linecap="butt" stroke-opacity="0.0" clip-path="url(#id_0)" d="M505.0 332.0L437.0 332.0L437.0 54.0C437.0 52.89543 437.89542 52.0 439.0 52.0L503.0 52.0C504.10458 52.0 505.0 52.89543 505.0 54.0Z" fill-rule="nonzero"/><path fill="#3c78d8" clip-path="url(#id_0)" d="M505.0 332.0L437.0 332.0L437.0 54.0C437.0 52.89543 437.89542 52.0 439.0 52.0L503.0 52.0C504.10458 52.0 505.0 52.89543 505.0 54.0Z" fill-rule="nonzero"/><path fill="#000000" d="M33.05 332.21564Q33.05 330.6844 33.3625 329.7625Q33.675 328.825 34.284374 328.325Q34.909374 327.825 35.846874 327.825Q36.534374 327.825 37.05 328.10626Q37.58125 328.3875 37.925 328.91876Q38.26875 329.4344 38.45625 330.1844Q38.64375 330.9344 38.64375 332.21564Q38.64375 333.73126 38.33125 334.65314Q38.034374 335.575 37.409374 336.09064Q36.8 336.59064 35.846874 336.59064Q34.6125 336.59064 33.89375 335.7Q33.05 334.6375 33.05 332.21564ZM34.128124 332.21564Q34.128124 334.325 34.628124 335.02814Q35.128124 335.73126 35.846874 335.73126Q36.58125 335.73126 37.065624 335.02814Q37.565624 334.325 37.565624 332.21564Q37.565624 330.09064 37.065624 329.40314Q36.58125 328.7 35.83125 328.7Q35.1125 328.7 34.675 329.3094Q34.128124 330.09064 34.128124 332.21564ZM40.64375 336.45L40.64375 335.2469L41.846874 335.2469L41.846874 336.45L40.64375 336.45ZM43.05 332.21564Q43.05 330.6844 43.3625 329.7625Q43.675 328.825 44.284374 328.325Q44.909374 327.825 45.846874 327.825Q46.534374 327.825 47.05 328.10626Q47.58125 328.3875 47.925 328.91876Q48.26875 329.4344 48.45625 330.1844Q48.64375 330.9344 48.64375 332.21564Q48.64375 333.73126 48.33125 334.65314Q48.034374 335.575 47.409374 336.09064Q46.8 336.59064 45.846874 336.59064Q44.6125 336.59064 43.89375 335.7Q43.05 334.6375 43.05 332.21564ZM44.128124 332.21564Q44.128124 334.325 44.628124 335.02814Q45.128124 335.73126 45.846874 335.73126Q46.58125 335.73126 47.065624 335.02814Q47.565624 334.325 47.565624 332.21564Q47.565624 330.09064 47.065624 329.40314Q46.58125 328.7 45.83125 328.7Q45.1125 328.7 44.675 329.3094Q44.128124 330.09064 44.128124 332.21564ZM50.05 332.21564Q50.05 330.6844 50.3625 329.7625Q50.675 328.825 51.284374 328.325Q51.909374 327.825 52.846874 327.825Q53.534374 327.825 54.05 328.10626Q54.58125 328.3875 54.925 328.91876Q55.26875 329.4344 55.45625 330.1844Q55.64375 330.9344 55.64375 332.21564Q55.64375 333.73126 55.33125 334.65314Q55.034374 335.575 54.409374 336.09064Q53.8 336.59064 52.846874 336.59064Q51.6125 336.59064 50.89375 335.7Q50.05 334.6375 50.05 332.21564ZM51.128124 332.21564Q51.128124 334.325 51.628124 335.02814Q52.128124 335.73126 52.846874 335.73126Q53.58125 335.73126 54.065624 335.02814Q54.565624 334.325 54.565624 332.21564Q54.565624 330.09064 54.065624 329.40314Q53.58125 328.7 52.83125 328.7Q52.1125 328.7 51.675 329.3094Q51.128124 330.09064 51.128124 332.21564ZM57.253124 329.91876Q57.253124 328.9969 57.70625 328.35626Q58.175 327.71564 59.05 327.71564Q59.8625 327.71564 60.39375 328.29376Q60.925 328.8719 60.925 329.98126Q60.925 331.075 60.378124 331.66876Q59.846874 332.2469 59.065624 332.2469Q58.284374 332.2469 57.76875 331.66876Q57.253124 331.09064 57.253124 329.91876ZM59.08125 328.4344Q58.690624 328.4344 58.425 328.77814Q58.175 329.1219 58.175 330.02814Q58.175 330.85626 58.425 331.2Q58.690624 331.52814 59.08125 331.52814Q59.4875 331.52814 59.7375 331.1844Q60.003124 330.84064 60.003124 329.95Q60.003124 329.10626 59.7375 328.77814Q59.471874 328.4344 59.08125 328.4344ZM59.08125 336.7625L63.784374 327.71564L64.64375 327.71564L59.95625 336.7625L59.08125 336.7625ZM62.8 334.4344Q62.8 333.5125 63.253124 332.8719Q63.721874 332.23126 64.6125 332.23126Q65.425 332.23126 65.95625 332.8094Q66.4875 333.3719 66.4875 334.4969Q66.4875 335.59064 65.94063 336.1844Q65.40938 336.7625 64.6125 336.7625Q63.846874 336.7625 63.315624 336.1844Q62.8 335.60626 62.8 334.4344ZM64.64375 332.95Q64.2375 332.95 63.971874 333.29376Q63.721874 333.6375 63.721874 334.54376Q63.721874 335.35626 63.9875 335.7Q64.25313 336.04376 64.64375 336.04376Q65.03438 336.04376 65.3 335.7Q65.56563 335.35626 65.56563 334.45Q65.56563 333.6219 65.3 333.29376Q65.03438 332.95 64.64375 332.95Z" fill-rule="nonzero"/><path fill="#000000" d="M31.596874 265.30106L31.596874 266.31668L25.909374 266.31668Q25.909374 265.94168 26.034374 265.5823Q26.253124 265.00418 26.721874 264.44168Q27.20625 263.87918 28.1125 263.1448Q29.51875 261.98856 30.003124 261.31668Q30.503124 260.6448 30.503124 260.05106Q30.503124 259.42606 30.05 259.00418Q29.596874 258.56668 28.878124 258.56668Q28.1125 258.56668 27.659374 259.0198Q27.20625 259.47293 27.190624 260.28543L26.1125 260.17606Q26.221874 258.9573 26.940624 258.3323Q27.675 257.69168 28.909374 257.69168Q30.14375 257.69168 30.8625 258.37918Q31.58125 259.06668 31.58125 260.0823Q31.58125 260.59793 31.3625 261.09793Q31.159374 261.5823 30.659374 262.1448Q30.175 262.69168 29.05 263.6448Q28.096874 264.44168 27.815624 264.73856Q27.55 265.0198 27.378124 265.30106L31.596874 265.30106ZM33.05 264.06668L34.159374 263.97293Q34.284374 264.78543 34.721874 265.19168Q35.175 265.59793 35.815624 265.59793Q36.565624 265.59793 37.096874 265.0198Q37.628124 264.44168 37.628124 263.50418Q37.628124 262.59793 37.1125 262.0823Q36.6125 261.55106 35.784374 261.55106Q35.284374 261.55106 34.8625 261.78543Q34.45625 262.0198 34.221874 262.37918L33.2375 262.25418L34.065624 257.84793L38.346874 257.84793L38.346874 258.84793L34.909374 258.84793L34.45625 261.16043Q35.221874 260.61356 36.065624 260.61356Q37.190624 260.61356 37.95625 261.3948Q38.7375 262.17606 38.7375 263.41043Q38.7375 264.56668 38.065624 265.42606Q37.2375 266.4573 35.815624 266.4573Q34.64375 266.4573 33.89375 265.80106Q33.159374 265.1448 33.05 264.06668ZM40.64375 266.31668L40.64375 265.11356L41.846874 265.11356L41.846874 266.31668L40.64375 266.31668ZM43.05 262.0823Q43.05 260.55106 43.3625 259.62918Q43.675 258.69168 44.284374 258.19168Q44.909374 257.69168 45.846874 257.69168Q46.534374 257.69168 47.05 257.97293Q47.58125 258.25418 47.925 258.78543Q48.26875 259.30106 48.45625 260.05106Q48.64375 260.80106 48.64375 262.0823Q48.64375 263.59793 48.33125 264.5198Q48.034374 265.44168 47.409374 265.9573Q46.8 266.4573 45.846874 266.4573Q44.6125 266.4573 43.89375 265.56668Q43.05 264.50418 43.05 262.0823ZM44.128124 262.0823Q44.128124 264.19168 44.628124 264.8948Q45.128124 265.59793 45.846874 265.59793Q46.58125 265.59793 47.065624 264.8948Q47.565624 264.19168 47.565624 262.0823Q47.565624 259.9573 47.065624 259.2698Q46.58125 258.56668 45.83125 258.56668Q45.1125 258.56668 44.675 259.17606Q44.128124 259.9573 44.128124 262.0823ZM50.05 262.0823Q50.05 260.55106 50.3625 259.62918Q50.675 258.69168 51.284374 258.19168Q51.909374 257.69168 52.846874 257.69168Q53.534374 257.69168 54.05 257.97293Q54.58125 258.25418 54.925 258.78543Q55.26875 259.30106 55.45625 260.05106Q55.64375 260.80106 55.64375 262.0823Q55.64375 263.59793 55.33125 264.5198Q55.034374 265.44168 54.409374 265.9573Q53.8 266.4573 52.846874 266.4573Q51.6125 266.4573 50.89375 265.56668Q50.05 264.50418 50.05 262.0823ZM51.128124 262.0823Q51.128124 264.19168 51.628124 264.8948Q52.128124 265.59793 52.846874 265.59793Q53.58125 265.59793 54.065624 264.8948Q54.565624 264.19168 54.565624 262.0823Q54.565624 259.9573 54.065624 259.2698Q53.58125 258.56668 52.83125 258.56668Q52.1125 258.56668 51.675 259.17606Q51.128124 259.9573 51.128124 262.0823ZM57.253124 259.78543Q57.253124 258.86356 57.70625 258.22293Q58.175 257.5823 59.05 257.5823Q59.8625 257.5823 60.39375 258.16043Q60.925 258.73856 60.925 259.84793Q60.925 260.94168 60.378124 261.53543Q59.846874 262.11356 59.065624 262.11356Q58.284374 262.11356 57.76875 261.53543Q57.253124 260.9573 57.253124 259.78543ZM59.08125 258.30106Q58.690624 258.30106 58.425 258.6448Q58.175 258.98856 58.175 259.8948Q58.175 260.72293 58.425 261.06668Q58.690624 261.3948 59.08125 261.3948Q59.4875 261.3948 59.7375 261.05106Q60.003124 260.7073 60.003124 259.81668Q60.003124 258.97293 59.7375 258.6448Q59.471874 258.30106 59.08125 258.30106ZM59.08125 266.62918L63.784374 257.5823L64.64375 257.5823L59.95625 266.62918L59.08125 266.62918ZM62.8 264.30106Q62.8 263.37918 63.253124 262.73856Q63.721874 262.09793 64.6125 262.09793Q65.425 262.09793 65.95625 262.67606Q66.4875 263.23856 66.4875 264.36356Q66.4875 265.4573 65.94063 266.05106Q65.40938 266.62918 64.6125 266.62918Q63.846874 266.62918 63.315624 266.05106Q62.8 265.47293 62.8 264.30106ZM64.64375 262.81668Q64.2375 262.81668 63.971874 263.16043Q63.721874 263.50418 63.721874 264.41043Q63.721874 265.22293 63.9875 265.56668Q64.25313 265.91043 64.64375 265.91043Q65.03438 265.91043 65.3 265.56668Q65.56563 265.22293 65.56563 264.31668Q65.56563 263.48856 65.3 263.16043Q65.03438 262.81668 64.64375 262.81668Z" fill-rule="nonzero"/><path fill="#000000" d="M26.05 193.93333L27.159374 193.83958Q27.284374 194.65208 27.721874 195.05833Q28.175 195.46458 28.815624 195.46458Q29.565624 195.46458 30.096874 194.88646Q30.628124 194.30833 30.628124 193.37083Q30.628124 192.46458 30.1125 191.94896Q29.6125 191.41771 28.784374 191.41771Q28.284374 191.41771 27.8625 191.65208Q27.45625 191.88646 27.221874 192.24583L26.2375 192.12083L27.065624 187.71458L31.346874 187.71458L31.346874 188.71458L27.909374 188.71458L27.45625 191.02708Q28.221874 190.48021 29.065624 190.48021Q30.190624 190.48021 30.95625 191.26146Q31.7375 192.04271 31.7375 193.27708Q31.7375 194.43333 31.065624 195.29271Q30.2375 196.32396 28.815624 196.32396Q27.64375 196.32396 26.89375 195.66771Q26.159374 195.01146 26.05 193.93333ZM33.05 191.94896Q33.05 190.41771 33.3625 189.49583Q33.675 188.55833 34.284374 188.05833Q34.909374 187.55833 35.846874 187.55833Q36.534374 187.55833 37.05 187.83958Q37.58125 188.12083 37.925 188.65208Q38.26875 189.16771 38.45625 189.91771Q38.64375 190.66771 38.64375 191.94896Q38.64375 193.46458 38.33125 194.38646Q38.034374 195.30833 37.409374 195.82396Q36.8 196.32396 35.846874 196.32396Q34.6125 196.32396 33.89375 195.43333Q33.05 194.37083 33.05 191.94896ZM34.128124 191.94896Q34.128124 194.05833 34.628124 194.76146Q35.128124 195.46458 35.846874 195.46458Q36.58125 195.46458 37.065624 194.76146Q37.565624 194.05833 37.565624 191.94896Q37.565624 189.82396 37.065624 189.13646Q36.58125 188.43333 35.83125 188.43333Q35.1125 188.43333 34.675 189.04271Q34.128124 189.82396 34.128124 191.94896ZM40.64375 196.18333L40.64375 194.98021L41.846874 194.98021L41.846874 196.18333L40.64375 196.18333ZM43.05 191.94896Q43.05 190.41771 43.3625 189.49583Q43.675 188.55833 44.284374 188.05833Q44.909374 187.55833 45.846874 187.55833Q46.534374 187.55833 47.05 187.83958Q47.58125 188.12083 47.925 188.65208Q48.26875 189.16771 48.45625 189.91771Q48.64375 190.66771 48.64375 191.94896Q48.64375 193.46458 48.33125 194.38646Q48.034374 195.30833 47.409374 195.82396Q46.8 196.32396 45.846874 196.32396Q44.6125 196.32396 43.89375 195.43333Q43.05 194.37083 43.05 191.94896ZM44.128124 191.94896Q44.128124 194.05833 44.628124 194.76146Q45.128124 195.46458 45.846874 195.46458Q46.58125 195.46458 47.065624 194.76146Q47.565624 194.05833 47.565624 191.94896Q47.565624 189.82396 47.065624 189.13646Q46.58125 188.43333 45.83125 188.43333Q45.1125 188.43333 44.675 189.04271Q44.128124 189.82396 44.128124 191.94896ZM50.05 191.94896Q50.05 190.41771 50.3625 189.49583Q50.675 188.55833 51.284374 188.05833Q51.909374 187.55833 52.846874 187.55833Q53.534374 187.55833 54.05 187.83958Q54.58125 188.12083 54.925 188.65208Q55.26875 189.16771 55.45625 189.91771Q55.64375 190.66771 55.64375 191.94896Q55.64375 193.46458 55.33125 194.38646Q55.034374 195.30833 54.409374 195.82396Q53.8 196.32396 52.846874 196.32396Q51.6125 196.32396 50.89375 195.43333Q50.05 194.37083 50.05 191.94896ZM51.128124 191.94896Q51.128124 194.05833 51.628124 194.76146Q52.128124 195.46458 52.846874 195.46458Q53.58125 195.46458 54.065624 194.76146Q54.565624 194.05833 54.565624 191.94896Q54.565624 189.82396 54.065624 189.13646Q53.58125 188.43333 52.83125 188.43333Q52.1125 188.43333 51.675 189.04271Q51.128124 189.82396 51.128124 191.94896ZM57.253124 189.65208Q57.253124 188.73021 57.70625 188.08958Q58.175 187.44896 59.05 187.44896Q59.8625 187.44896 60.39375 188.02708Q60.925 188.60521 60.925 189.71458Q60.925 190.80833 60.378124 191.40208Q59.846874 191.98021 59.065624 191.98021Q58.284374 191.98021 57.76875 191.40208Q57.253124 190.82396 57.253124 189.65208ZM59.08125 188.16771Q58.690624 188.16771 58.425 188.51146Q58.175 188.85521 58.175 189.76146Q58.175 190.58958 58.425 190.93333Q58.690624 191.26146 59.08125 191.26146Q59.4875 191.26146 59.7375 190.91771Q60.003124 190.57396 60.003124 189.68333Q60.003124 188.83958 59.7375 188.51146Q59.471874 188.16771 59.08125 188.16771ZM59.08125 196.49583L63.784374 187.44896L64.64375 187.44896L59.95625 196.49583L59.08125 196.49583ZM62.8 194.16771Q62.8 193.24583 63.253124 192.60521Q63.721874 191.96458 64.6125 191.96458Q65.425 191.96458 65.95625 192.54271Q66.4875 193.10521 66.4875 194.23021Q66.4875 195.32396 65.94063 195.91771Q65.40938 196.49583 64.6125 196.49583Q63.846874 196.49583 63.315624 195.91771Q62.8 195.33958 62.8 194.16771ZM64.64375 192.68333Q64.2375 192.68333 63.971874 193.02708Q63.721874 193.37083 63.721874 194.27708Q63.721874 195.08958 63.9875 195.43333Q64.25313 195.77708 64.64375 195.77708Q65.03438 195.77708 65.3 195.43333Q65.56563 195.08958 65.56563 194.18333Q65.56563 193.35521 65.3 193.02708Q65.03438 192.68333 64.64375 192.68333Z" fill-rule="nonzero"/><path fill="#000000" d="M26.1125 118.58125L26.1125 117.56563L31.675 117.56563L31.675 118.39375Q30.8625 119.26875 30.05 120.72188Q29.253124 122.15938 28.815624 123.69063Q28.4875 124.76875 28.409374 126.05L27.315624 126.05Q27.33125 125.03438 27.70625 123.59688Q28.096874 122.15938 28.8 120.83125Q29.51875 119.50313 30.33125 118.58125L26.1125 118.58125ZM33.05 123.8L34.159374 123.70625Q34.284374 124.51875 34.721874 124.925Q35.175 125.33125 35.815624 125.33125Q36.565624 125.33125 37.096874 124.75313Q37.628124 124.175 37.628124 123.2375Q37.628124 122.33125 37.1125 121.81563Q36.6125 121.28438 35.784374 121.28438Q35.284374 121.28438 34.8625 121.51875Q34.45625 121.75313 34.221874 122.1125L33.2375 121.9875L34.065624 117.58125L38.346874 117.58125L38.346874 118.58125L34.909374 118.58125L34.45625 120.89375Q35.221874 120.34688 36.065624 120.34688Q37.190624 120.34688 37.95625 121.12813Q38.7375 121.90938 38.7375 123.14375Q38.7375 124.3 38.065624 125.15938Q37.2375 126.19063 35.815624 126.19063Q34.64375 126.19063 33.89375 125.53438Q33.159374 124.87813 33.05 123.8ZM40.64375 126.05L40.64375 124.84688L41.846874 124.84688L41.846874 126.05L40.64375 126.05ZM43.05 121.81563Q43.05 120.28438 43.3625 119.3625Q43.675 118.425 44.284374 117.925Q44.909374 117.425 45.846874 117.425Q46.534374 117.425 47.05 117.70625Q47.58125 117.9875 47.925 118.51875Q48.26875 119.03438 48.45625 119.78438Q48.64375 120.53438 48.64375 121.81563Q48.64375 123.33125 48.33125 124.25313Q48.034374 125.175 47.409374 125.69063Q46.8 126.19063 45.846874 126.19063Q44.6125 126.19063 43.89375 125.3Q43.05 124.2375 43.05 121.81563ZM44.128124 121.81563Q44.128124 123.925 44.628124 124.62813Q45.128124 125.33125 45.846874 125.33125Q46.58125 125.33125 47.065624 124.62813Q47.565624 123.925 47.565624 121.81563Q47.565624 119.69063 47.065624 119.00313Q46.58125 118.3 45.83125 118.3Q45.1125 118.3 44.675 118.90938Q44.128124 119.69063 44.128124 121.81563ZM50.05 121.81563Q50.05 120.28438 50.3625 119.3625Q50.675 118.425 51.284374 117.925Q51.909374 117.425 52.846874 117.425Q53.534374 117.425 54.05 117.70625Q54.58125 117.9875 54.925 118.51875Q55.26875 119.03438 55.45625 119.78438Q55.64375 120.53438 55.64375 121.81563Q55.64375 123.33125 55.33125 124.25313Q55.034374 125.175 54.409374 125.69063Q53.8 126.19063 52.846874 126.19063Q51.6125 126.19063 50.89375 125.3Q50.05 124.2375 50.05 121.81563ZM51.128124 121.81563Q51.128124 123.925 51.628124 124.62813Q52.128124 125.33125 52.846874 125.33125Q53.58125 125.33125 54.065624 124.62813Q54.565624 123.925 54.565624 121.81563Q54.565624 119.69063 54.065624 119.00313Q53.58125 118.3 52.83125 118.3Q52.1125 118.3 51.675 118.90938Q51.128124 119.69063 51.128124 121.81563ZM57.253124 119.51875Q57.253124 118.59688 57.70625 117.95625Q58.175 117.31563 59.05 117.31563Q59.8625 117.31563 60.39375 117.89375Q60.925 118.47188 60.925 119.58125Q60.925 120.675 60.378124 121.26875Q59.846874 121.84688 59.065624 121.84688Q58.284374 121.84688 57.76875 121.26875Q57.253124 120.69063 57.253124 119.51875ZM59.08125 118.03438Q58.690624 118.03438 58.425 118.37813Q58.175 118.72188 58.175 119.62813Q58.175 120.45625 58.425 120.8Q58.690624 121.12813 59.08125 121.12813Q59.4875 121.12813 59.7375 120.78438Q60.003124 120.44063 60.003124 119.55Q60.003124 118.70625 59.7375 118.37813Q59.471874 118.03438 59.08125 118.03438ZM59.08125 126.3625L63.784374 117.31563L64.64375 117.31563L59.95625 126.3625L59.08125 126.3625ZM62.8 124.03438Q62.8 123.1125 63.253124 122.47188Q63.721874 121.83125 64.6125 121.83125Q65.425 121.83125 65.95625 122.40938Q66.4875 122.97188 66.4875 124.09688Q66.4875 125.19063 65.94063 125.78438Q65.40938 126.3625 64.6125 126.3625Q63.846874 126.3625 63.315624 125.78438Q62.8 125.20625 62.8 124.03438ZM64.64375 122.55Q64.2375 122.55 63.971874 122.89375Q63.721874 123.2375 63.721874 124.14375Q63.721874 124.95625 63.9875 125.3Q64.25313 125.64375 64.64375 125.64375Q65.03438 125.64375 65.3 125.3Q65.56563 124.95625 65.56563 124.05Q65.56563 123.22188 65.3 122.89375Q65.03438 122.55 64.64375 122.55Z" fill-rule="nonzero"/><path fill="#000000" d="M23.01875 55.916668L21.971874 55.916668L21.971874 49.197918Q21.58125 49.557293 20.95625 49.932293Q20.346874 50.291668 19.8625 50.463543L19.8625 49.447918Q20.7375 49.026043 21.39375 48.447918Q22.065624 47.854168 22.346874 47.291668L23.01875 47.291668L23.01875 55.916668ZM26.05 51.682293Q26.05 50.151043 26.3625 49.229168Q26.675 48.291668 27.284374 47.791668Q27.909374 47.291668 28.846874 47.291668Q29.534374 47.291668 30.05 47.572918Q30.58125 47.854168 30.925 48.385418Q31.26875 48.901043 31.45625 49.651043Q31.64375 50.401043 31.64375 51.682293Q31.64375 53.197918 31.33125 54.119793Q31.034374 55.041668 30.409374 55.557293Q29.8 56.057293 28.846874 56.057293Q27.6125 56.057293 26.89375 55.166668Q26.05 54.104168 26.05 51.682293ZM27.128124 51.682293Q27.128124 53.791668 27.628124 54.494793Q28.128124 55.197918 28.846874 55.197918Q29.58125 55.197918 30.065624 54.494793Q30.565624 53.791668 30.565624 51.682293Q30.565624 49.557293 30.065624 48.869793Q29.58125 48.166668 28.83125 48.166668Q28.1125 48.166668 27.675 48.776043Q27.128124 49.557293 27.128124 51.682293ZM33.05 51.682293Q33.05 50.151043 33.3625 49.229168Q33.675 48.291668 34.284374 47.791668Q34.909374 47.291668 35.846874 47.291668Q36.534374 47.291668 37.05 47.572918Q37.58125 47.854168 37.925 48.385418Q38.26875 48.901043 38.45625 49.651043Q38.64375 50.401043 38.64375 51.682293Q38.64375 53.197918 38.33125 54.119793Q38.034374 55.041668 37.409374 55.557293Q36.8 56.057293 35.846874 56.057293Q34.6125 56.057293 33.89375 55.166668Q33.05 54.104168 33.05 51.682293ZM34.128124 51.682293Q34.128124 53.791668 34.628124 54.494793Q35.128124 55.197918 35.846874 55.197918Q36.58125 55.197918 37.065624 54.494793Q37.565624 53.791668 37.565624 51.682293Q37.565624 49.557293 37.065624 48.869793Q36.58125 48.166668 35.83125 48.166668Q35.1125 48.166668 34.675 48.776043Q34.128124 49.557293 34.128124 51.682293ZM40.64375 55.916668L40.64375 54.713543L41.846874 54.713543L41.846874 55.916668L40.64375 55.916668ZM43.05 51.682293Q43.05 50.151043 43.3625 49.229168Q43.675 48.291668 44.284374 47.791668Q44.909374 47.291668 45.846874 47.291668Q46.534374 47.291668 47.05 47.572918Q47.58125 47.854168 47.925 48.385418Q48.26875 48.901043 48.45625 49.651043Q48.64375 50.401043 48.64375 51.682293Q48.64375 53.197918 48.33125 54.119793Q48.034374 55.041668 47.409374 55.557293Q46.8 56.057293 45.846874 56.057293Q44.6125 56.057293 43.89375 55.166668Q43.05 54.104168 43.05 51.682293ZM44.128124 51.682293Q44.128124 53.791668 44.628124 54.494793Q45.128124 55.197918 45.846874 55.197918Q46.58125 55.197918 47.065624 54.494793Q47.565624 53.791668 47.565624 51.682293Q47.565624 49.557293 47.065624 48.869793Q46.58125 48.166668 45.83125 48.166668Q45.1125 48.166668 44.675 48.776043Q44.128124 49.557293 44.128124 51.682293ZM50.05 51.682293Q50.05 50.151043 50.3625 49.229168Q50.675 48.291668 51.284374 47.791668Q51.909374 47.291668 52.846874 47.291668Q53.534374 47.291668 54.05 47.572918Q54.58125 47.854168 54.925 48.385418Q55.26875 48.901043 55.45625 49.651043Q55.64375 50.401043 55.64375 51.682293Q55.64375 53.197918 55.33125 54.119793Q55.034374 55.041668 54.409374 55.557293Q53.8 56.057293 52.846874 56.057293Q51.6125 56.057293 50.89375 55.166668Q50.05 54.104168 50.05 51.682293ZM51.128124 51.682293Q51.128124 53.791668 51.628124 54.494793Q52.128124 55.197918 52.846874 55.197918Q53.58125 55.197918 54.065624 54.494793Q54.565624 53.791668 54.565624 51.682293Q54.565624 49.557293 54.065624 48.869793Q53.58125 48.166668 52.83125 48.166668Q52.1125 48.166668 51.675 48.776043Q51.128124 49.557293 51.128124 51.682293ZM57.253124 49.385418Q57.253124 48.463543 57.70625 47.822918Q58.175 47.182293 59.05 47.182293Q59.8625 47.182293 60.39375 47.760418Q60.925 48.338543 60.925 49.447918Q60.925 50.541668 60.378124 51.135418Q59.846874 51.713543 59.065624 51.713543Q58.284374 51.713543 57.76875 51.135418Q57.253124 50.557293 57.253124 49.385418ZM59.08125 47.901043Q58.690624 47.901043 58.425 48.244793Q58.175 48.588543 58.175 49.494793Q58.175 50.322918 58.425 50.666668Q58.690624 50.994793 59.08125 50.994793Q59.4875 50.994793 59.7375 50.651043Q60.003124 50.307293 60.003124 49.416668Q60.003124 48.572918 59.7375 48.244793Q59.471874 47.901043 59.08125 47.901043ZM59.08125 56.229168L63.784374 47.182293L64.64375 47.182293L59.95625 56.229168L59.08125 56.229168ZM62.8 53.901043Q62.8 52.979168 63.253124 52.338543Q63.721874 51.697918 64.6125 51.697918Q65.425 51.697918 65.95625 52.276043Q66.4875 52.838543 66.4875 53.963543Q66.4875 55.057293 65.94063 55.651043Q65.40938 56.229168 64.6125 56.229168Q63.846874 56.229168 63.315624 55.651043Q62.8 55.072918 62.8 53.901043ZM64.64375 52.416668Q64.2375 52.416668 63.971874 52.760418Q63.721874 53.104168 63.721874 54.010418Q63.721874 54.822918 63.9875 55.166668Q64.25313 55.510418 64.64375 55.510418Q65.03438 55.510418 65.3 55.166668Q65.56563 54.822918 65.56563 53.916668Q65.56563 53.088543 65.3 52.760418Q65.03438 52.416668 64.64375 52.416668Z" fill-rule="nonzero"/><path fill="#000000" d="M178.8268 349.45L178.8268 340.85626L180.54555 340.85626L182.5768 346.9344Q182.85805 347.79376 182.98305 348.21564Q183.12367 347.7469 183.43617 346.84064L185.49867 340.85626L187.02992 340.85626L187.02992 349.45L185.93617 349.45L185.93617 342.2625L183.43617 349.45L182.40492 349.45L179.92055 342.1375L179.92055 349.45L178.8268 349.45ZM191.98305 347.45L193.0768 347.575Q192.8268 348.52814 192.12367 349.0594Q191.42055 349.59064 190.34242 349.59064Q188.98305 349.59064 188.17055 348.7469Q187.37367 347.90314 187.37367 346.3875Q187.37367 344.825 188.18617 343.96564Q188.99867 343.09064 190.27992 343.09064Q191.52992 343.09064 192.31117 343.9344Q193.10805 344.77814 193.10805 346.325Q193.10805 346.41876 193.10805 346.60626L188.46742 346.60626Q188.52992 347.6375 189.04555 348.1844Q189.56117 348.71564 190.34242 348.71564Q190.92055 348.71564 191.3268 348.41876Q191.74867 348.10626 191.98305 347.45ZM188.52992 345.7469L191.99867 345.7469Q191.93617 344.95 191.60805 344.5594Q191.09242 343.95 190.29555 343.95Q189.56117 343.95 189.06117 344.4344Q188.5768 344.91876 188.52992 345.7469ZM194.73305 349.45L194.73305 343.23126L195.67055 343.23126L195.67055 344.10626Q195.96742 343.6375 196.4518 343.3719Q196.93617 343.09064 197.56117 343.09064Q198.24867 343.09064 198.68617 343.3719Q199.1393 343.65314 199.31117 344.16876Q200.06117 343.09064 201.23305 343.09064Q202.17055 343.09064 202.65492 343.60626Q203.15492 344.10626 203.15492 345.1844L203.15492 349.45L202.10805 349.45L202.10805 345.52814Q202.10805 344.90314 201.99867 344.6219Q201.90492 344.34064 201.6393 344.16876Q201.37367 343.9969 200.99867 343.9969Q200.34242 343.9969 199.90492 344.4344Q199.48305 344.8719 199.48305 345.84064L199.48305 349.45L198.42055 349.45L198.42055 345.40314Q198.42055 344.7 198.15492 344.35626Q197.90492 343.9969 197.3268 343.9969Q196.87367 343.9969 196.49867 344.23126Q196.12367 344.46564 195.9518 344.91876Q195.77992 345.3719 195.77992 346.21564L195.77992 349.45L194.73305 349.45ZM205.34242 346.34064Q205.34242 344.60626 206.29555 343.77814Q207.09242 343.09064 208.24867 343.09064Q209.52992 343.09064 210.34242 343.9344Q211.17055 344.7625 211.17055 346.2469Q211.17055 347.45 210.81117 348.1375Q210.4518 348.825 209.74867 349.21564Q209.06117 349.59064 208.24867 349.59064Q206.9518 349.59064 206.1393 348.7625Q205.34242 347.91876 205.34242 346.34064ZM206.42055 346.34064Q206.42055 347.52814 206.93617 348.1219Q207.46742 348.71564 208.24867 348.71564Q209.04555 348.71564 209.56117 348.1219Q210.0768 347.52814 210.0768 346.3094Q210.0768 345.15314 209.54555 344.5594Q209.02992 343.96564 208.24867 343.96564Q207.46742 343.96564 206.93617 344.5594Q206.42055 345.1375 206.42055 346.34064ZM212.71742 349.45L212.71742 343.23126L213.67055 343.23126L213.67055 344.16876Q214.02992 343.5125 214.3268 343.3094Q214.6393 343.09064 215.0143 343.09064Q215.54555 343.09064 216.09242 343.41876L215.73305 344.40314Q215.34242 344.16876 214.96742 344.16876Q214.60805 344.16876 214.3268 344.3875Q214.06117 344.59064 213.9518 344.96564Q213.7643 345.52814 213.7643 346.1844L213.7643 349.45L212.71742 349.45ZM216.68617 351.84064L216.56117 350.85626Q216.90492 350.95 217.17055 350.95Q217.5143 350.95 217.71742 350.825Q217.93617 350.71564 218.0768 350.5125Q218.17055 350.34064 218.40492 349.71564Q218.42055 349.6375 218.49867 349.46564L216.12367 343.23126L217.2643 343.23126L218.56117 346.825Q218.81117 347.5125 219.0143 348.27814Q219.2018 347.54376 219.4518 346.85626L220.77992 343.23126L221.8268 343.23126L219.46742 349.5594Q219.0768 350.575 218.87367 350.96564Q218.59242 351.4969 218.21742 351.73126Q217.85805 351.98126 217.35805 351.98126Q217.06117 351.98126 216.68617 351.84064ZM230.49867 340.85626L231.6393 340.85626L231.6393 345.825Q231.6393 347.1219 231.34242 347.8875Q231.04555 348.6375 230.27992 349.1219Q229.5143 349.59064 228.27992 349.59064Q227.0768 349.59064 226.29555 349.1844Q225.52992 348.7625 225.2018 347.98126Q224.87367 347.1844 224.87367 345.825L224.87367 340.85626L226.0143 340.85626L226.0143 345.8094Q226.0143 346.9344 226.21742 347.46564Q226.43617 347.9969 226.93617 348.29376Q227.4518 348.575 228.18617 348.575Q229.43617 348.575 229.96742 348.0125Q230.49867 347.4344 230.49867 345.8094L230.49867 340.85626ZM233.31117 347.59064L234.34242 347.4344Q234.43617 348.0594 234.8268 348.3875Q235.23305 348.71564 235.96742 348.71564Q236.68617 348.71564 237.02992 348.4344Q237.3893 348.1375 237.3893 347.73126Q237.3893 347.3719 237.0768 347.16876Q236.85805 347.02814 235.99867 346.8094Q234.84242 346.5125 234.3893 346.3094Q233.9518 346.09064 233.71742 345.71564Q233.48305 345.34064 233.48305 344.8719Q233.48305 344.46564 233.67055 344.10626Q233.85805 343.7469 234.18617 343.5125Q234.43617 343.34064 234.85805 343.21564Q235.27992 343.09064 235.77992 343.09064Q236.49867 343.09064 237.04555 343.3094Q237.60805 343.5125 237.87367 343.8719Q238.1393 344.23126 238.23305 344.825L237.2018 344.96564Q237.1393 344.4969 236.79555 344.23126Q236.46742 343.95 235.84242 343.95Q235.12367 343.95 234.81117 344.2Q234.49867 344.4344 234.49867 344.7625Q234.49867 344.96564 234.62367 345.1219Q234.7643 345.29376 235.02992 345.40314Q235.18617 345.46564 235.96742 345.66876Q237.09242 345.98126 237.52992 346.16876Q237.96742 346.35626 238.21742 346.71564Q238.46742 347.075 238.46742 347.6219Q238.46742 348.15314 238.15492 348.6219Q237.85805 349.075 237.27992 349.34064Q236.7018 349.59064 235.96742 349.59064Q234.74867 349.59064 234.10805 349.09064Q233.48305 348.575 233.31117 347.59064ZM244.79555 348.6844Q244.2018 349.1844 243.65492 349.3875Q243.12367 349.59064 242.49867 349.59064Q241.46742 349.59064 240.92055 349.09064Q240.37367 348.59064 240.37367 347.8094Q240.37367 347.35626 240.5768 346.98126Q240.77992 346.59064 241.12367 346.3719Q241.46742 346.1375 241.8893 346.02814Q242.18617 345.9344 242.8268 345.85626Q244.09242 345.71564 244.7018 345.4969Q244.7018 345.27814 244.7018 345.23126Q244.7018 344.575 244.40492 344.3094Q243.99867 343.96564 243.2018 343.96564Q242.46742 343.96564 242.10805 344.23126Q241.74867 344.48126 241.5768 345.1375L240.54555 344.9969Q240.68617 344.34064 241.0143 343.9344Q241.34242 343.52814 241.9518 343.3094Q242.56117 343.09064 243.35805 343.09064Q244.15492 343.09064 244.65492 343.27814Q245.15492 343.46564 245.3893 343.7469Q245.62367 344.02814 245.71742 344.46564Q245.7643 344.73126 245.7643 345.4344L245.7643 346.84064Q245.7643 348.3094 245.8268 348.7Q245.90492 349.09064 246.10805 349.45L244.99867 349.45Q244.84242 349.1219 244.79555 348.6844ZM244.7018 346.325Q244.12367 346.5594 242.98305 346.73126Q242.3268 346.825 242.06117 346.95Q241.79555 347.0594 241.6393 347.27814Q241.49867 347.4969 241.49867 347.77814Q241.49867 348.2 241.81117 348.48126Q242.1393 348.7625 242.74867 348.7625Q243.35805 348.7625 243.8268 348.4969Q244.31117 348.23126 244.52992 347.7625Q244.7018 347.40314 244.7018 346.71564L244.7018 346.325ZM247.52992 349.96564L248.56117 350.1219Q248.62367 350.59064 248.92055 350.8094Q249.31117 351.10626 249.98305 351.10626Q250.71742 351.10626 251.10805 350.8094Q251.5143 350.5125 251.65492 349.9969Q251.74867 349.66876 251.73305 348.6375Q251.04555 349.45 250.0143 349.45Q248.73305 349.45 248.02992 348.52814Q247.3268 347.59064 247.3268 346.3094Q247.3268 345.41876 247.6393 344.66876Q247.96742 343.90314 248.5768 343.4969Q249.18617 343.09064 250.0143 343.09064Q251.12367 343.09064 251.84242 343.98126L251.84242 343.23126L252.81117 343.23126L252.81117 348.60626Q252.81117 350.0594 252.5143 350.66876Q252.21742 351.27814 251.5768 351.6219Q250.93617 351.98126 249.99867 351.98126Q248.8893 351.98126 248.2018 351.48126Q247.5143 350.98126 247.52992 349.96564ZM248.40492 346.23126Q248.40492 347.45 248.8893 348.0125Q249.37367 348.575 250.10805 348.575Q250.84242 348.575 251.3268 348.0125Q251.8268 347.45 251.8268 346.2625Q251.8268 345.1219 251.31117 344.54376Q250.81117 343.96564 250.09242 343.96564Q249.3893 343.96564 248.8893 344.54376Q248.40492 345.10626 248.40492 346.23126ZM258.98303 347.45L260.07678 347.575Q259.82678 348.52814 259.12366 349.0594Q258.42053 349.59064 257.3424 349.59064Q255.98305 349.59064 255.17055 348.7469Q254.37367 347.90314 254.37367 346.3875Q254.37367 344.825 255.18617 343.96564Q255.99867 343.09064 257.2799 343.09064Q258.5299 343.09064 259.31116 343.9344Q260.10803 344.77814 260.10803 346.325Q260.10803 346.41876 260.10803 346.60626L255.46742 346.60626Q255.52992 347.6375 256.04553 348.1844Q256.56116 348.71564 257.3424 348.71564Q257.92053 348.71564 258.32678 348.41876Q258.74866 348.10626 258.98303 347.45ZM255.52992 345.7469L258.99866 345.7469Q258.93616 344.95 258.60803 344.5594Q258.0924 343.95 257.29553 343.95Q256.56116 343.95 256.06116 344.4344Q255.5768 344.91876 255.52992 345.7469Z" fill-rule="nonzero"/><path fill="#000000" d="M400.98572 349.45L400.98572 340.85626L404.23572 340.85626Q405.07947 340.85626 405.5326 340.9344Q406.17322 341.04376 406.5951 341.34064Q407.0326 341.6375 407.2826 342.16876Q407.54822 342.7 407.54822 343.34064Q407.54822 344.4344 406.8451 345.2Q406.1576 345.95 404.32947 345.95L402.12634 345.95L402.12634 349.45L400.98572 349.45ZM402.12634 344.95L404.3451 344.95Q405.45447 344.95 405.9076 344.54376Q406.37634 344.1219 406.37634 343.3719Q406.37634 342.84064 406.0951 342.46564Q405.82947 342.075 405.39197 341.95Q405.0951 341.8719 404.32947 341.8719L402.12634 341.8719L402.12634 344.95ZM413.11072 347.45L414.20447 347.575Q413.95447 348.52814 413.25134 349.0594Q412.54822 349.59064 411.4701 349.59064Q410.11072 349.59064 409.29822 348.7469Q408.50134 347.90314 408.50134 346.3875Q408.50134 344.825 409.31384 343.96564Q410.12634 343.09064 411.4076 343.09064Q412.6576 343.09064 413.43884 343.9344Q414.23572 344.77814 414.23572 346.325Q414.23572 346.41876 414.23572 346.60626L409.5951 346.60626Q409.6576 347.6375 410.17322 348.1844Q410.68884 348.71564 411.4701 348.71564Q412.04822 348.71564 412.45447 348.41876Q412.87634 348.10626 413.11072 347.45ZM409.6576 345.7469L413.12634 345.7469Q413.06384 344.95 412.73572 344.5594Q412.2201 343.95 411.42322 343.95Q410.68884 343.95 410.18884 344.4344Q409.70447 344.91876 409.6576 345.7469ZM415.8451 349.45L415.8451 343.23126L416.79822 343.23126L416.79822 344.16876Q417.1576 343.5125 417.45447 343.3094Q417.76697 343.09064 418.14197 343.09064Q418.67322 343.09064 419.2201 343.41876L418.86072 344.40314Q418.4701 344.16876 418.0951 344.16876Q417.73572 344.16876 417.45447 344.3875Q417.18884 344.59064 417.07947 344.96564Q416.89197 345.52814 416.89197 346.1844L416.89197 349.45L415.8451 349.45ZM420.11072 349.45L420.11072 344.04376L419.17322 344.04376L419.17322 343.23126L420.11072 343.23126L420.11072 342.5594Q420.11072 341.9344 420.2201 341.6375Q420.37634 341.21564 420.75134 340.96564Q421.14197 340.71564 421.82947 340.71564Q422.2826 340.71564 422.81384 340.825L422.6576 341.73126Q422.32947 341.6844 422.0326 341.6844Q421.54822 341.6844 421.3451 341.8875Q421.1576 342.09064 421.1576 342.65314L421.1576 343.23126L422.37634 343.23126L422.37634 344.04376L421.1576 344.04376L421.1576 349.45L420.11072 349.45ZM422.4701 346.34064Q422.4701 344.60626 423.42322 343.77814Q424.2201 343.09064 425.37634 343.09064Q426.6576 343.09064 427.4701 343.9344Q428.29822 344.7625 428.29822 346.2469Q428.29822 347.45 427.93884 348.1375Q427.57947 348.825 426.87634 349.21564Q426.18884 349.59064 425.37634 349.59064Q424.07947 349.59064 423.26697 348.7625Q422.4701 347.91876 422.4701 346.34064ZM423.54822 346.34064Q423.54822 347.52814 424.06384 348.1219Q424.5951 348.71564 425.37634 348.71564Q426.17322 348.71564 426.68884 348.1219Q427.20447 347.52814 427.20447 346.3094Q427.20447 345.15314 426.67322 344.5594Q426.1576 343.96564 425.37634 343.96564Q424.5951 343.96564 424.06384 344.5594Q423.54822 345.1375 423.54822 346.34064ZM429.8451 349.45L429.8451 343.23126L430.79822 343.23126L430.79822 344.16876Q431.1576 343.5125 431.45447 343.3094Q431.76697 343.09064 432.14197 343.09064Q432.67322 343.09064 433.2201 343.41876L432.86072 344.40314Q432.4701 344.16876 432.0951 344.16876Q431.73572 344.16876 431.45447 344.3875Q431.18884 344.59064 431.07947 344.96564Q430.89197 345.52814 430.89197 346.1844L430.89197 349.45L429.8451 349.45ZM433.86072 349.45L433.86072 343.23126L434.79822 343.23126L434.79822 344.10626Q435.0951 343.6375 435.57947 343.3719Q436.06384 343.09064 436.68884 343.09064Q437.37634 343.09064 437.81384 343.3719Q438.26697 343.65314 438.43884 344.16876Q439.18884 343.09064 440.36072 343.09064Q441.29822 343.09064 441.7826 343.60626Q442.2826 344.10626 442.2826 345.1844L442.2826 349.45L441.23572 349.45L441.23572 345.52814Q441.23572 344.90314 441.12634 344.6219Q441.0326 344.34064 440.76697 344.16876Q440.50134 343.9969 440.12634 343.9969Q439.4701 343.9969 439.0326 344.4344Q438.61072 344.8719 438.61072 345.84064L438.61072 349.45L437.54822 349.45L437.54822 345.40314Q437.54822 344.7 437.2826 344.35626Q437.0326 343.9969 436.45447 343.9969Q436.00134 343.9969 435.62634 344.23126Q435.25134 344.46564 435.07947 344.91876Q434.9076 345.3719 434.9076 346.21564L434.9076 349.45L433.86072 349.45ZM448.92322 348.6844Q448.32947 349.1844 447.7826 349.3875Q447.25134 349.59064 446.62634 349.59064Q445.5951 349.59064 445.04822 349.09064Q444.50134 348.59064 444.50134 347.8094Q444.50134 347.35626 444.70447 346.98126Q444.9076 346.59064 445.25134 346.3719Q445.5951 346.1375 446.01697 346.02814Q446.31384 345.9344 446.95447 345.85626Q448.2201 345.71564 448.82947 345.4969Q448.82947 345.27814 448.82947 345.23126Q448.82947 344.575 448.5326 344.3094Q448.12634 343.96564 447.32947 343.96564Q446.5951 343.96564 446.23572 344.23126Q445.87634 344.48126 445.70447 345.1375L444.67322 344.9969Q444.81384 344.34064 445.14197 343.9344Q445.4701 343.52814 446.07947 343.3094Q446.68884 343.09064 447.48572 343.09064Q448.2826 343.09064 448.7826 343.27814Q449.2826 343.46564 449.51697 343.7469Q449.75134 344.02814 449.8451 344.46564Q449.89197 344.73126 449.89197 345.4344L449.89197 346.84064Q449.89197 348.3094 449.95447 348.7Q450.0326 349.09064 450.23572 349.45L449.12634 349.45Q448.9701 349.1219 448.92322 348.6844ZM448.82947 346.325Q448.25134 346.5594 447.11072 346.73126Q446.45447 346.825 446.18884 346.95Q445.92322 347.0594 445.76697 347.27814Q445.62634 347.4969 445.62634 347.77814Q445.62634 348.2 445.93884 348.48126Q446.26697 348.7625 446.87634 348.7625Q447.48572 348.7625 447.95447 348.4969Q448.43884 348.23126 448.6576 347.7625Q448.82947 347.40314 448.82947 346.71564L448.82947 346.325ZM451.86072 349.45L451.86072 343.23126L452.79822 343.23126L452.79822 344.10626Q453.48572 343.09064 454.7826 343.09064Q455.3451 343.09064 455.81384 343.29376Q456.29822 343.4969 456.5326 343.825Q456.76697 344.15314 456.86072 344.59064Q456.9076 344.8875 456.9076 345.6219L456.9076 349.45L455.86072 349.45L455.86072 345.66876Q455.86072 345.0125 455.73572 344.7Q455.61072 344.3875 455.29822 344.2Q454.98572 343.9969 454.56384 343.9969Q453.89197 343.9969 453.39197 344.4344Q452.9076 344.85626 452.9076 346.04376L452.9076 349.45L451.86072 349.45ZM462.92322 347.16876L463.95447 347.3094Q463.7826 348.3719 463.07947 348.98126Q462.37634 349.59064 461.36072 349.59064Q460.07947 349.59064 459.29822 348.7625Q458.5326 347.91876 458.5326 346.35626Q458.5326 345.35626 458.86072 344.60626Q459.20447 343.84064 459.87634 343.46564Q460.56384 343.09064 461.37634 343.09064Q462.37634 343.09064 463.01697 343.60626Q463.67322 344.10626 463.86072 345.0594L462.82947 345.21564Q462.68884 344.59064 462.31384 344.27814Q461.93884 343.95 461.4076 343.95Q460.61072 343.95 460.11072 344.52814Q459.61072 345.09064 459.61072 346.325Q459.61072 347.59064 460.0951 348.15314Q460.57947 348.71564 461.3451 348.71564Q461.9701 348.71564 462.37634 348.34064Q462.79822 347.96564 462.92322 347.16876ZM469.11072 347.45L470.20447 347.575Q469.95447 348.52814 469.25134 349.0594Q468.54822 349.59064 467.4701 349.59064Q466.11072 349.59064 465.29822 348.7469Q464.50134 347.90314 464.50134 346.3875Q464.50134 344.825 465.31384 343.96564Q466.12634 343.09064 467.4076 343.09064Q468.6576 343.09064 469.43884 343.9344Q470.23572 344.77814 470.23572 346.325Q470.23572 346.41876 470.23572 346.60626L465.5951 346.60626Q465.6576 347.6375 466.17322 348.1844Q466.68884 348.71564 467.4701 348.71564Q468.04822 348.71564 468.45447 348.41876Q468.87634 348.10626 469.11072 347.45ZM465.6576 345.7469L469.12634 345.7469Q469.06384 344.95 468.73572 344.5594Q468.2201 343.95 467.42322 343.95Q466.68884 343.95 466.18884 344.4344Q465.70447 344.91876 465.6576 345.7469Z" fill-rule="nonzero"/><path fill="#6d9eeb" d="M191.0 20.55C191.0 19.997715 191.44771 19.55 192.0 19.55L202.0 19.55C202.55229 19.55 203.0 19.997715 203.0 20.55L203.0 30.55C203.0 31.102285 202.55229 31.55 202.0 31.55L192.0 31.55C191.44771 31.55 191.0 31.102285 191.0 30.55Z" fill-rule="nonzero"/><path fill="#1a1a1a" d="M211.92188 29.55L211.92188 20.95625L215.17188 20.95625Q216.01562 20.95625 216.46875 21.034374Q217.10938 21.14375 217.53125 21.440624Q217.96875 21.7375 218.21875 22.26875Q218.48438 22.8 218.48438 23.440624Q218.48438 24.534374 217.78125 25.3Q217.09375 26.05 215.26562 26.05L213.0625 26.05L213.0625 29.55L211.92188 29.55ZM213.0625 25.05L215.28125 25.05Q216.39062 25.05 216.84375 24.64375Q217.3125 24.221874 217.3125 23.471874Q217.3125 22.940624 217.03125 22.565624Q216.76562 22.175 216.32812 22.05Q216.03125 21.971874 215.26562 21.971874L213.0625 21.971874L213.0625 25.05ZM219.75 31.940624L219.625 30.95625Q219.96875 31.05 220.23438 31.05Q220.57812 31.05 220.78125 30.925Q221.0 30.815624 221.14062 30.6125Q221.23438 30.440624 221.46875 29.815624Q221.48438 29.7375 221.5625 29.565624L219.1875 23.33125L220.32812 23.33125L221.625 26.925Q221.875 27.6125 222.07812 28.378124Q222.26562 27.64375 222.51562 26.95625L223.84375 23.33125L224.89062 23.33125L222.53125 29.659374Q222.14062 30.675 221.9375 31.065624Q221.65625 31.596874 221.28125 31.83125Q220.92188 32.08125 220.42188 32.08125Q220.125 32.08125 219.75 31.940624ZM223.98438 29.55L227.28125 20.95625L228.5 20.95625L232.01562 29.55L230.73438 29.55L229.71875 26.940624L226.14062 26.940624L225.1875 29.55L223.98438 29.55ZM226.46875 26.01875L229.375 26.01875L228.48438 23.64375Q228.0625 22.565624 227.875 21.8625Q227.70312 22.690624 227.40625 23.503124L226.46875 26.01875ZM231.78125 29.55L231.78125 23.33125L232.73438 23.33125L232.73438 24.26875Q233.09375 23.6125 233.39062 23.409374Q233.70312 23.190624 234.07812 23.190624Q234.60938 23.190624 235.15625 23.51875L234.79688 24.503124Q234.40625 24.26875 234.03125 24.26875Q233.67188 24.26875 233.39062 24.4875Q233.125 24.690624 233.01562 25.065624Q232.82812 25.628124 232.82812 26.284374L232.82812 29.55L231.78125 29.55ZM235.78125 29.55L235.78125 23.33125L236.73438 23.33125L236.73438 24.26875Q237.09375 23.6125 237.39062 23.409374Q237.70312 23.190624 238.07812 23.190624Q238.60938 23.190624 239.15625 23.51875L238.79688 24.503124Q238.40625 24.26875 238.03125 24.26875Q237.67188 24.26875 237.39062 24.4875Q237.125 24.690624 237.01562 25.065624Q236.82812 25.628124 236.82812 26.284374L236.82812 29.55L235.78125 29.55ZM239.40625 26.440624Q239.40625 24.70625 240.35938 23.878124Q241.15625 23.190624 242.3125 23.190624Q243.59375 23.190624 244.40625 24.034374Q245.23438 24.8625 245.23438 26.346874Q245.23438 27.55 244.875 28.2375Q244.51562 28.925 243.8125 29.315624Q243.125 29.690624 242.3125 29.690624Q241.01562 29.690624 240.20312 28.8625Q239.40625 28.01875 239.40625 26.440624ZM240.48438 26.440624Q240.48438 27.628124 241.0 28.221874Q241.53125 28.815624 242.3125 28.815624Q243.10938 28.815624 243.625 28.221874Q244.14062 27.628124 244.14062 26.409374Q244.14062 25.253124 243.60938 24.659374Q243.09375 24.065624 242.3125 24.065624Q241.53125 24.065624 241.0 24.659374Q240.48438 25.2375 240.48438 26.440624ZM247.9375 29.55L246.03125 23.33125L247.125 23.33125L248.10938 26.925L248.48438 28.253124Q248.51562 28.159374 248.8125 26.971874L249.79688 23.33125L250.875 23.33125L251.8125 26.940624L252.125 28.128124L252.48438 26.925L253.54688 23.33125L254.57812 23.33125L252.625 29.55L251.53125 29.55L250.54688 25.815624L250.29688 24.76875L249.04688 29.55L247.9375 29.55ZM258.54688 26.784374L259.60938 26.690624Q259.6875 27.346874 259.96875 27.753124Q260.25 28.159374 260.82812 28.425Q261.42188 28.675 262.15625 28.675Q262.79688 28.675 263.29688 28.4875Q263.79688 28.284374 264.03125 27.95625Q264.28125 27.6125 264.28125 27.221874Q264.28125 26.815624 264.04688 26.51875Q263.8125 26.20625 263.28125 26.003124Q262.92188 25.8625 261.73438 25.58125Q260.5625 25.3 260.09375 25.05Q259.46875 24.721874 259.17188 24.253124Q258.875 23.76875 258.875 23.175Q258.875 22.534374 259.23438 21.971874Q259.60938 21.39375 260.3125 21.1125Q261.03125 20.815624 261.89062 20.815624Q262.84375 20.815624 263.57812 21.128124Q264.3125 21.425 264.70312 22.034374Q265.09375 22.628124 265.125 23.378124L264.03125 23.45625Q263.9375 22.64375 263.42188 22.2375Q262.92188 21.815624 261.9375 21.815624Q260.90625 21.815624 260.4375 22.190624Q259.96875 22.565624 259.96875 23.096874Q259.96875 23.565624 260.29688 23.8625Q260.625 24.159374 262.0 24.471874Q263.39062 24.784374 263.90625 25.01875Q264.65625 25.378124 265.01562 25.909374Q265.375 26.425 265.375 27.128124Q265.375 27.815624 264.98438 28.425Q264.59375 29.01875 263.85938 29.3625Q263.125 29.690624 262.20312 29.690624Q261.03125 29.690624 260.23438 29.3625Q259.45312 29.01875 259.0 28.33125Q258.5625 27.64375 258.54688 26.784374ZM269.09375 28.6125L269.25 29.534374Q268.79688 29.628124 268.45312 29.628124Q267.875 29.628124 267.5625 29.45625Q267.25 29.26875 267.10938 28.971874Q266.98438 28.675 266.98438 27.721874L266.98438 24.14375L266.21875 24.14375L266.21875 23.33125L266.98438 23.33125L266.98438 21.784374L268.03125 21.159374L268.03125 23.33125L269.09375 23.33125L269.09375 24.14375L268.03125 24.14375L268.03125 27.784374Q268.03125 28.2375 268.07812 28.3625Q268.14062 28.4875 268.26562 28.565624Q268.39062 28.64375 268.625 28.64375Q268.8125 28.64375 269.09375 28.6125ZM269.78125 29.55L269.78125 23.33125L270.73438 23.33125L270.73438 24.26875Q271.09375 23.6125 271.39062 23.409374Q271.70312 23.190624 272.07812 23.190624Q272.60938 23.190624 273.15625 23.51875L272.79688 24.503124Q272.40625 24.26875 272.03125 24.26875Q271.67188 24.26875 271.39062 24.4875Q271.125 24.690624 271.01562 25.065624Q270.82812 25.628124 270.82812 26.284374L270.82812 29.55L269.78125 29.55ZM273.79688 22.175L273.79688 20.95625L274.85938 20.95625L274.85938 22.175L273.79688 22.175ZM273.79688 29.55L273.79688 23.33125L274.85938 23.33125L274.85938 29.55L273.79688 29.55ZM276.79688 29.55L276.79688 23.33125L277.73438 23.33125L277.73438 24.20625Q278.42188 23.190624 279.71875 23.190624Q280.28125 23.190624 280.75 23.39375Q281.23438 23.596874 281.46875 23.925Q281.70312 24.253124 281.79688 24.690624Q281.84375 24.9875 281.84375 25.721874L281.84375 29.55L280.79688 29.55L280.79688 25.76875Q280.79688 25.1125 280.67188 24.8Q280.54688 24.4875 280.23438 24.3Q279.92188 24.096874 279.5 24.096874Q278.82812 24.096874 278.32812 24.534374Q277.84375 24.95625 277.84375 26.14375L277.84375 29.55L276.79688 29.55ZM283.59375 30.065624L284.625 30.221874Q284.6875 30.690624 284.98438 30.909374Q285.375 31.20625 286.04688 31.20625Q286.78125 31.20625 287.17188 30.909374Q287.57812 30.6125 287.71875 30.096874Q287.8125 29.76875 287.79688 28.7375Q287.10938 29.55 286.07812 29.55Q284.79688 29.55 284.09375 28.628124Q283.39062 27.690624 283.39062 26.409374Q283.39062 25.51875 283.70312 24.76875Q284.03125 24.003124 284.64062 23.596874Q285.25 23.190624 286.07812 23.190624Q287.1875 23.190624 287.90625 24.08125L287.90625 23.33125L288.875 23.33125L288.875 28.70625Q288.875 30.159374 288.57812 30.76875Q288.28125 31.378124 287.64062 31.721874Q287.0 32.08125 286.0625 32.08125Q284.95312 32.08125 284.26562 31.58125Q283.57812 31.08125 283.59375 30.065624ZM284.46875 26.33125Q284.46875 27.55 284.95312 28.1125Q285.4375 28.675 286.17188 28.675Q286.90625 28.675 287.39062 28.1125Q287.89062 27.55 287.89062 26.3625Q287.89062 25.221874 287.375 24.64375Q286.875 24.065624 286.15625 24.065624Q285.45312 24.065624 284.95312 24.64375Q284.46875 25.20625 284.46875 26.33125ZM290.375 27.690624L291.40625 27.534374Q291.5 28.159374 291.89062 28.4875Q292.29688 28.815624 293.03125 28.815624Q293.75 28.815624 294.09375 28.534374Q294.45312 28.2375 294.45312 27.83125Q294.45312 27.471874 294.14062 27.26875Q293.92188 27.128124 293.0625 26.909374Q291.90625 26.6125 291.45312 26.409374Q291.01562 26.190624 290.78125 25.815624Q290.54688 25.440624 290.54688 24.971874Q290.54688 24.565624 290.73438 24.20625Q290.92188 23.846874 291.25 23.6125Q291.5 23.440624 291.92188 23.315624Q292.34375 23.190624 292.84375 23.190624Q293.5625 23.190624 294.10938 23.409374Q294.67188 23.6125 294.9375 23.971874Q295.20312 24.33125 295.29688 24.925L294.26562 25.065624Q294.20312 24.596874 293.85938 24.33125Q293.53125 24.05 292.90625 24.05Q292.1875 24.05 291.875 24.3Q291.5625 24.534374 291.5625 24.8625Q291.5625 25.065624 291.6875 25.221874Q291.82812 25.39375 292.09375 25.503124Q292.25 25.565624 293.03125 25.76875Q294.15625 26.08125 294.59375 26.26875Q295.03125 26.45625 295.28125 26.815624Q295.53125 27.175 295.53125 27.721874Q295.53125 28.253124 295.21875 28.721874Q294.92188 29.175 294.34375 29.440624Q293.76562 29.690624 293.03125 29.690624Q291.8125 29.690624 291.17188 29.190624Q290.54688 28.675 290.375 27.690624Z" fill-rule="nonzero"/><path fill="#3c78d8" d="M313.0 20.55C313.0 19.997715 313.44772 19.55 314.0 19.55L324.0 19.55C324.55228 19.55 325.0 19.997715 325.0 20.55L325.0 30.55C325.0 31.102285 324.55228 31.55 324.0 31.55L314.0 31.55C313.44772 31.55 313.0 31.102285 313.0 30.55Z" fill-rule="nonzero"/><path fill="#1a1a1a" d="M333.92188 29.55L333.92188 20.95625L335.07812 20.95625L339.59375 27.70625L339.59375 20.95625L340.6875 20.95625L340.6875 29.55L339.51562 29.55L335.0 22.8L335.0 29.55L333.92188 29.55ZM346.875 29.55L346.875 28.628124Q346.14062 29.690624 344.89062 29.690624Q344.34375 29.690624 343.85938 29.4875Q343.39062 29.26875 343.15625 28.95625Q342.92188 28.628124 342.82812 28.159374Q342.76562 27.8625 342.76562 27.175L342.76562 23.33125L343.82812 23.33125L343.82812 26.784374Q343.82812 27.596874 343.89062 27.89375Q343.98438 28.3 344.29688 28.55Q344.625 28.784374 345.10938 28.784374Q345.57812 28.784374 345.98438 28.55Q346.40625 28.3 346.57812 27.878124Q346.76562 27.45625 346.76562 26.659374L346.76562 23.33125L347.8125 23.33125L347.8125 29.55L346.875 29.55ZM349.79688 29.55L349.79688 23.33125L350.73438 23.33125L350.73438 24.20625Q351.03125 23.7375 351.51562 23.471874Q352.0 23.190624 352.625 23.190624Q353.3125 23.190624 353.75 23.471874Q354.20312 23.753124 354.375 24.26875Q355.125 23.190624 356.29688 23.190624Q357.23438 23.190624 357.71875 23.70625Q358.21875 24.20625 358.21875 25.284374L358.21875 29.55L357.17188 29.55L357.17188 25.628124Q357.17188 25.003124 357.0625 24.721874Q356.96875 24.440624 356.70312 24.26875Q356.4375 24.096874 356.0625 24.096874Q355.40625 24.096874 354.96875 24.534374Q354.54688 24.971874 354.54688 25.940624L354.54688 29.55L353.48438 29.55L353.48438 25.503124Q353.48438 24.8 353.21875 24.45625Q352.96875 24.096874 352.39062 24.096874Q351.9375 24.096874 351.5625 24.33125Q351.1875 24.565624 351.01562 25.01875Q350.84375 25.471874 350.84375 26.315624L350.84375 29.55L349.79688 29.55ZM360.92188 29.55L360.92188 20.95625L364.17188 20.95625Q365.01562 20.95625 365.46875 21.034374Q366.10938 21.14375 366.53125 21.440624Q366.96875 21.7375 367.21875 22.26875Q367.48438 22.8 367.48438 23.440624Q367.48438 24.534374 366.78125 25.3Q366.09375 26.05 364.26562 26.05L362.0625 26.05L362.0625 29.55L360.92188 29.55ZM362.0625 25.05L364.28125 25.05Q365.39062 25.05 365.84375 24.64375Q366.3125 24.221874 366.3125 23.471874Q366.3125 22.940624 366.03125 22.565624Q365.76562 22.175 365.32812 22.05Q365.03125 21.971874 364.26562 21.971874L362.0625 21.971874L362.0625 25.05ZM368.75 31.940624L368.625 30.95625Q368.96875 31.05 369.23438 31.05Q369.57812 31.05 369.78125 30.925Q370.0 30.815624 370.14062 30.6125Q370.23438 30.440624 370.46875 29.815624Q370.48438 29.7375 370.5625 29.565624L368.1875 23.33125L369.32812 23.33125L370.625 26.925Q370.875 27.6125 371.07812 28.378124Q371.26562 27.64375 371.51562 26.95625L372.84375 23.33125L373.89062 23.33125L371.53125 29.659374Q371.14062 30.675 370.9375 31.065624Q370.65625 31.596874 370.28125 31.83125Q369.92188 32.08125 369.42188 32.08125Q369.125 32.08125 368.75 31.940624ZM376.40625 26.440624Q376.40625 24.70625 377.35938 23.878124Q378.15625 23.190624 379.3125 23.190624Q380.59375 23.190624 381.40625 24.034374Q382.23438 24.8625 382.23438 26.346874Q382.23438 27.55 381.875 28.2375Q381.51562 28.925 380.8125 29.315624Q380.125 29.690624 379.3125 29.690624Q378.01562 29.690624 377.20312 28.8625Q376.40625 28.01875 376.40625 26.440624ZM377.48438 26.440624Q377.48438 27.628124 378.0 28.221874Q378.53125 28.815624 379.3125 28.815624Q380.10938 28.815624 380.625 28.221874Q381.14062 27.628124 381.14062 26.409374Q381.14062 25.253124 380.60938 24.659374Q380.09375 24.065624 379.3125 24.065624Q378.53125 24.065624 378.0 24.659374Q377.48438 25.2375 377.48438 26.440624ZM384.76562 29.55L383.78125 29.55L383.78125 20.95625L384.84375 20.95625L384.84375 24.01875Q385.51562 23.190624 386.54688 23.190624Q387.125 23.190624 387.625 23.425Q388.14062 23.64375 388.46875 24.065624Q388.8125 24.4875 389.0 25.08125Q389.1875 25.675 389.1875 26.346874Q389.1875 27.940624 388.39062 28.815624Q387.59375 29.690624 386.5 29.690624Q385.39062 29.690624 384.76562 28.76875L384.76562 29.55ZM384.75 26.39375Q384.75 27.503124 385.0625 28.003124Q385.5625 28.815624 386.40625 28.815624Q387.09375 28.815624 387.59375 28.221874Q388.10938 27.628124 388.10938 26.425Q388.10938 25.20625 387.625 24.628124Q387.14062 24.05 386.45312 24.05Q385.76562 24.05 385.25 24.659374Q384.75 25.253124 384.75 26.39375ZM390.78125 22.190624L390.78125 20.95625L391.84375 20.95625L391.84375 22.190624L390.78125 22.190624ZM389.45312 31.971874L389.64062 31.065624Q389.96875 31.14375 390.14062 31.14375Q390.46875 31.14375 390.625 30.925Q390.78125 30.721874 390.78125 29.8625L390.78125 23.33125L391.84375 23.33125L391.84375 29.89375Q391.84375 31.034374 391.54688 31.4875Q391.15625 32.08125 390.28125 32.08125Q389.84375 32.08125 389.45312 31.971874ZM398.04688 27.55L399.14062 27.675Q398.89062 28.628124 398.1875 29.159374Q397.48438 29.690624 396.40625 29.690624Q395.04688 29.690624 394.23438 28.846874Q393.4375 28.003124 393.4375 26.4875Q393.4375 24.925 394.25 24.065624Q395.0625 23.190624 396.34375 23.190624Q397.59375 23.190624 398.375 24.034374Q399.17188 24.878124 399.17188 26.425Q399.17188 26.51875 399.17188 26.70625L394.53125 26.70625Q394.59375 27.7375 395.10938 28.284374Q395.625 28.815624 396.40625 28.815624Q396.98438 28.815624 397.39062 28.51875Q397.8125 28.20625 398.04688 27.55ZM394.59375 25.846874L398.0625 25.846874Q398.0 25.05 397.67188 24.659374Q397.15625 24.05 396.35938 24.05Q395.625 24.05 395.125 24.534374Q394.64062 25.01875 394.59375 25.846874ZM404.85938 27.26875L405.89062 27.409374Q405.71875 28.471874 405.01562 29.08125Q404.3125 29.690624 403.29688 29.690624Q402.01562 29.690624 401.23438 28.8625Q400.46875 28.01875 400.46875 26.45625Q400.46875 25.45625 400.79688 24.70625Q401.14062 23.940624 401.8125 23.565624Q402.5 23.190624 403.3125 23.190624Q404.3125 23.190624 404.95312 23.70625Q405.60938 24.20625 405.79688 25.159374L404.76562 25.315624Q404.625 24.690624 404.25 24.378124Q403.875 24.05 403.34375 24.05Q402.54688 24.05 402.04688 24.628124Q401.54688 25.190624 401.54688 26.425Q401.54688 27.690624 402.03125 28.253124Q402.51562 28.815624 403.28125 28.815624Q403.90625 28.815624 404.3125 28.440624Q404.73438 28.065624 404.85938 27.26875ZM409.09375 28.6125L409.25 29.534374Q408.79688 29.628124 408.45312 29.628124Q407.875 29.628124 407.5625 29.45625Q407.25 29.26875 407.10938 28.971874Q406.98438 28.675 406.98438 27.721874L406.98438 24.14375L406.21875 24.14375L406.21875 23.33125L406.98438 23.33125L406.98438 21.784374L408.03125 21.159374L408.03125 23.33125L409.09375 23.33125L409.09375 24.14375L408.03125 24.14375L408.03125 27.784374Q408.03125 28.2375 408.07812 28.3625Q408.14062 28.4875 408.26562 28.565624Q408.39062 28.64375 408.625 28.64375Q408.8125 28.64375 409.09375 28.6125Z" fill-rule="nonzero"/></svg>